<svg width="57" height="101" viewBox="0 0 57 101" fill="none" xmlns="http://www.w3.org/2000/svg">
<path d="M4.5 43.5C3.04967 52.5634 1.58717 65.9542 1.13898 70.1755C1.04465 71.064 0.977678 71.9464 0.933058 72.8388L0.790141 75.6972C0.598085 79.5383 1.05422 83.3843 2.13941 87.074L2.68221 88.9195C2.89365 89.6384 3.16855 90.3371 3.50367 91.0073L4.57295 93.1459C6.06041 96.1208 9.101 98 12.4271 98C13.7903 98 15.1348 97.6826 16.3541 97.073L17.5486 96.4757C18.182 96.159 18.7913 95.7961 19.3714 95.39L20.9101 94.3129C22.5958 93.1329 24.6037 92.5 26.6614 92.5C28.5173 92.5 30.3369 93.015 31.9175 93.9877L36 96.5L41.9627 99.1832C44.4465 100.301 47.3447 99.9541 49.4946 98.282C50.1599 97.7645 50.7313 97.1365 51.1838 96.4255L52.184 94.8537C53.3843 92.9676 54.2249 90.8754 54.6634 88.6831L55.1434 86.283C55.3809 85.0953 55.5502 83.8967 55.6352 82.6885C55.7765 80.6798 55.9804 77.4058 56 75C56.0277 71.6072 55.7115 67.1604 55.4275 63.9002C55.1718 60.9645 54.9624 58.0275 54.8164 55.0843C54.6602 51.9362 54.3971 47.7101 54 44.5C53.2921 38.7778 51.4551 30.601 50.7662 27.632C50.5903 26.874 50.401 26.1237 50.203 25.3713L48 17L45.6936 9.69637C45.2339 8.24066 44.5546 6.86369 43.6792 5.61308L42.147 3.42429C41.7224 2.81768 41.1532 2.32658 40.4909 1.99544L40.2042 1.85208C39.1314 1.31568 37.8686 1.31568 36.7958 1.85208C35.9611 2.26945 35.3085 2.97865 34.9619 3.84517L34.7907 4.27318C34.5981 4.75482 34.4812 5.2634 34.4442 5.78082L34 12V17.8284C34 19.9348 33.7417 22.0334 33.2308 24.077L31.7976 29.8096C31.6029 30.5885 31.2001 31.2999 30.6324 31.8676L29.4362 33.0638C28.3669 34.1331 26.6331 34.1331 25.5638 33.0638C25.1956 32.6956 24.94 32.23 24.827 31.7216L24 28L23.9451 27.5063C23.3171 21.8539 23.3355 16.1483 24 10.5L24.6928 6.3432C24.8902 5.15901 24.6294 3.9441 23.9635 2.94521L23.9137 2.87055C23.3239 1.98579 22.4386 1.33961 21.4162 1.04748C20.1963 0.698949 18.8859 0.883818 17.8101 1.55621L17.1059 1.99632C16.0581 2.65118 15.2242 3.59757 14.7064 4.71944L12.9662 8.48997C12.6556 9.16282 12.3835 9.84754 12.1528 10.5518C11.3149 13.1092 9.16553 19.789 8 24.5C6.18801 31.824 5.69215 36.05 4.5 43.5Z" fill="#E62B3E" fill-opacity="0.35"/>
<path d="M17.1014 95.5813L17.5486 96.4757L17.1014 95.5813L15.9069 96.1785C14.8264 96.7188 13.635 97 12.4271 97C9.47977 97 6.78544 95.3348 5.46738 92.6987L4.3981 90.5601C4.08947 89.9429 3.8363 89.2994 3.64158 88.6374L3.09877 86.7918C2.04526 83.2099 1.60244 79.4761 1.78889 75.7471L1.93181 72.8888C1.97557 72.0135 2.04117 71.1497 2.13339 70.2811C2.58188 66.057 4.0419 52.6915 5.48744 43.658C5.71583 42.2307 5.91841 40.9239 6.10921 39.6931C6.91788 34.4764 7.51511 30.6237 8.97073 24.7402C10.1261 20.07 12.2643 13.4235 13.1031 10.8631C13.321 10.1979 13.5787 9.54914 13.8741 8.90903L15.6144 5.13849C16.0506 4.19334 16.7531 3.39603 17.6359 2.84432L18.3401 2.40421C19.1758 1.88186 20.1938 1.73825 21.1415 2.00901C21.9357 2.23594 22.6234 2.73793 23.0816 3.42525L23.1314 3.49991C23.6564 4.28741 23.862 5.24522 23.7064 6.1788L23.0136 10.3356C23.011 10.3514 23.0087 10.3673 23.0068 10.3832C22.3335 16.1069 22.3148 21.8887 22.9513 27.6167L23.0061 28.1104C23.0101 28.1462 23.016 28.1818 23.0238 28.2169L23.8508 31.9386C24.0051 32.6326 24.354 33.2682 24.8567 33.7709C26.3166 35.2308 28.6834 35.2308 30.1433 33.7709L31.3395 32.5747C32.0354 31.8788 32.529 31.0069 32.7677 30.0522L34.2009 24.3195C34.7316 22.1966 35 20.0166 35 17.8284V12.0357L35.4417 5.85207C35.4713 5.43765 35.5649 5.03032 35.7192 4.64457L34.7907 4.27318L35.7192 4.64456L35.8904 4.21656C36.1461 3.57744 36.6274 3.05435 37.2431 2.74651C38.0343 2.35087 38.9657 2.35087 39.7569 2.74651L40.0437 2.88986C40.5572 3.14662 40.9985 3.52741 41.3278 3.99775L42.8599 6.18654C43.677 7.35374 44.311 8.63888 44.74 9.9975L47.0391 17.278L49.2359 25.6258C49.4322 26.3719 49.619 27.1123 49.7921 27.858C50.4821 30.8318 52.307 38.96 53.0076 44.6228C53.3999 47.7939 53.6616 51.9888 53.8176 55.1339C53.9644 58.0913 54.1746 61.0409 54.4313 63.987C54.715 67.2436 55.0273 71.65 55 74.9918C54.9807 77.3636 54.7789 80.61 54.6377 82.6184C54.556 83.78 54.3929 84.9364 54.1628 86.0868L53.6828 88.487C53.2686 90.5582 52.4743 92.5348 51.3403 94.3169L50.3401 95.8886C49.9492 96.5029 49.4555 97.0455 48.8807 97.4926C47.0231 98.9374 44.5191 99.237 42.3731 98.2713L36.4692 95.6146L32.4416 93.1361C30.7034 92.0664 28.7024 91.5 26.6614 91.5C24.3985 91.5 22.1904 92.196 20.3366 93.4937L18.798 94.5708C18.258 94.9488 17.6909 95.2865 17.1014 95.5813Z" stroke="#E62B3E" stroke-opacity="0.6" stroke-width="2" stroke-linecap="round" stroke-linejoin="round"/>
<path d="M25.2303 50H26.4903V39.92H25.2303L23.3263 41.054V42.44L25.2303 41.292V50ZM33.5078 50H34.7678V48.138H35.8178V46.962H34.7678V44.12H33.5078V46.962H30.2878L33.6198 39.92H32.2058L28.8738 46.962V48.138H33.5078V50Z" fill="white"/>
<path d="M25.6 86.8313L31.2 92L28.4 87.2289L34 80.8675L28 74.1084L36 68.1446L29.6 59H20L28.4 66.1566L22 72.5181L29.6 80.4699L25.6 86.8313Z" fill="#E62B3E" fill-opacity="0.6"/>
</svg>
