<svg width="36" height="115" viewBox="0 0 36 115" fill="none" xmlns="http://www.w3.org/2000/svg">
<path d="M8.0002 68C7.76509 64.6076 7.5238 60.2929 7.33715 56.7383C7.10172 52.2546 6.48274 47.8008 5.45439 43.4303C5.15166 42.1437 4.81262 40.8671 4.4554 39.5945C4.00949 38.006 3.39072 35.7312 3.0002 34C1.91237 29.1775 1.49284 26.419 1.0002 21.5C0.67299 18.2327 0.559402 13.8029 0.520274 10.9233C0.494198 9.00428 0.981483 7.11766 1.90049 5.4328C2.94553 3.51691 4.48948 1.88077 6.50315 1.03944C7.01614 0.825103 7.53361 0.632319 8.0002 0.5C9.9791 -0.0611786 12.6839 -8.86772e-05 14.7014 0.165763C16.5697 0.319352 18.4449 0.45028 20.3169 0.351753L24.4711 0.133109C26.1288 0.0458643 27.7807 0.39025 29.2654 1.1326C31.6473 2.32356 33.427 4.4511 34.1784 7.00596L35.0031 9.80994C35.3336 10.9334 35.5432 12.0861 35.6051 13.2555C35.7732 16.4299 36.0331 23.2366 35.5002 28C35.4169 28.7445 35.3021 29.548 35.1671 30.3759C34.0577 37.1789 32.6461 43.9463 32.0933 50.8169C32.0605 51.2253 32.0292 51.6215 32.0002 52C31.5214 58.2422 31.4859 61.7583 31.0002 68C30.6565 72.4162 30.0849 78.1852 29.6405 82.4779C29.2248 86.4938 28.6119 90.4851 27.6932 94.4166C27.18 96.6127 26.5767 99.0432 26.0002 101C25.02 104.327 23.3413 108.92 22.5048 111.161C22.1778 112.037 21.5944 112.79 20.8334 113.333L20.0377 113.902C19.0918 114.577 17.85 114.675 16.8103 114.155C15.9799 113.74 15.376 112.978 15.1609 112.075L13.0002 103L12.3219 100.287C10.7762 94.1039 9.67903 87.8192 9.10691 81.472C8.71498 77.1238 8.28111 72.0531 8.0002 68Z" fill="#E62B3E" fill-opacity="0.35"/>
<path d="M20.2521 112.52L20.8334 113.333L20.2521 112.52L19.4564 113.088C18.812 113.548 17.9659 113.615 17.2575 113.261C16.6917 112.978 16.2803 112.459 16.1337 111.843L13.973 102.768L13.9731 102.768L13.9703 102.757L13.292 100.044C11.758 93.908 10.67 87.6744 10.1029 81.3822C9.7111 77.0358 9.27798 71.9734 8.99781 67.9309C8.7633 64.5471 8.52236 60.2393 8.33577 56.6859C8.09735 52.1452 7.47037 47.6321 6.42781 43.2013C6.12082 41.8965 5.77784 40.6055 5.41819 39.3242C4.97268 37.7372 4.36005 35.4838 3.97569 33.78C2.89784 29.0017 2.4843 26.2838 1.99523 21.4003C1.67271 18.1799 1.55929 13.788 1.52018 10.9097C1.49654 9.16951 1.93833 7.45176 2.77839 5.91165C3.74478 4.13995 5.13649 2.69422 6.88867 1.96214C7.38205 1.756 7.85921 1.57942 8.27303 1.46206C10.0647 0.953991 12.6121 0.997384 14.6195 1.1624C16.4883 1.31603 18.4234 1.4528 20.3695 1.35037L24.5237 1.13173C26.0085 1.05358 27.4883 1.36206 28.8182 2.02703C30.9518 3.09384 32.546 4.99959 33.2191 7.28813L34.0438 10.0921C34.3543 11.1478 34.549 12.2235 34.6065 13.3084C34.7748 16.4875 35.029 23.2176 34.5064 27.8888C34.4255 28.6124 34.3132 29.3988 34.1801 30.215C33.8955 31.9603 33.589 33.7129 33.2814 35.4721C32.4002 40.511 31.5095 45.6039 31.0965 50.7367C31.0636 51.1461 31.0323 51.5436 31.0031 51.9235C30.7656 55.0207 30.6367 57.4499 30.5088 59.861L30.5042 59.9472C30.3748 62.3861 30.2451 64.8149 30.0032 67.9224C29.6606 72.3251 29.0901 78.0833 28.6458 82.3749C28.2335 86.3588 27.6265 90.3072 26.7194 94.1891C26.2075 96.3795 25.6093 98.7882 25.041 100.717C24.072 104.007 22.4049 108.569 21.5679 110.811C21.3119 111.497 20.8543 112.09 20.2521 112.52Z" stroke="#E62B3E" stroke-opacity="0.6" stroke-width="2" stroke-linecap="round" stroke-linejoin="round"/>
<path d="M14.188 17.728L16.904 15.11V13.92H10.968V15.11H15.364L12.088 18.064L12.69 19.058C12.998 18.89 13.39 18.792 13.726 18.792C14.944 18.792 15.756 19.646 15.756 20.892C15.756 22.124 14.972 22.978 13.74 23.006C12.844 23.02 12.06 22.516 11.766 21.578L10.562 21.928C10.996 23.328 12.256 24.196 13.754 24.196C15.616 24.196 17.044 22.824 17.044 20.892C17.044 19.128 15.924 17.812 14.188 17.728ZM23.7566 19.884C24.7926 18.96 25.2966 18.302 25.2966 16.972C25.2966 15.124 23.8826 13.71 22.0066 13.71C20.0746 13.71 18.6466 15.054 18.6466 16.958H19.9206C19.9066 15.852 20.7886 14.9 21.9926 14.9C23.1546 14.9 24.0226 15.796 24.0226 16.958C24.0226 17.602 23.8126 18.176 23.0706 18.848L18.6046 22.866L18.5906 23.986H25.2966V22.796H20.5086L23.7566 19.884Z" fill="white"/>
<path d="M16.6 98.8313L22.2 104L19.4 99.2289L25 92.8675L19 86.1084L27 80.1446L20.6 71H11L19.4 78.1566L13 84.5181L20.6 92.4699L16.6 98.8313Z" fill="#E62B3E" fill-opacity="0.6"/>
</svg>
