<svg width="61" height="106" viewBox="0 0 61 106" fill="none" xmlns="http://www.w3.org/2000/svg">
<path d="M1.00014 85C1.36101 87.4306 2.24545 90.4549 3.0349 92.8593C3.93869 95.6119 5.55816 98.058 7.60676 100.107C9.19198 101.692 11.0224 103.011 13.0275 104.014L13.1962 104.098C15.689 105.344 18.4638 105.919 21.2465 105.764L21.8659 105.73C24.5878 105.578 27.2419 104.823 29.6352 103.517L31.5001 102.5L34.0102 101.131C35.8834 100.109 38.138 100.069 40.0464 101.023C40.68 101.34 41.3489 101.58 42.0392 101.74L45.7348 102.593C46.9033 102.862 48.1089 102.932 49.3007 102.8C51.0719 102.603 52.7652 101.964 54.2252 100.942L54.5097 100.743C56.1441 99.5992 57.4674 98.0654 58.3597 96.2809L58.7198 95.5606C59.5659 93.8685 60.088 92.033 60.2593 90.1489L60.6798 85.5237C60.8929 83.1792 60.8976 80.8204 60.6936 78.475L60.3273 74.2625C60.1095 71.7581 59.6939 69.2749 59.0842 66.8361C58.3631 63.9517 57.3641 61.1452 56.1666 58.4239C55.5883 57.1099 54.9767 55.6874 54.5001 54.5C52.4991 49.5142 51.7754 46.5706 50.0001 41.5C47.8778 35.4379 46.7175 32.028 44.5001 26C42.0464 19.3293 38.0001 9 38.0001 9L36.1206 5.24095C35.8154 4.63045 35.0017 4.49842 34.5191 4.98106L33.8474 5.65274C33.4062 6.0939 32.6732 6.02781 32.3181 5.51484L30.3106 2.61512C29.7536 1.81062 28.4604 2.20047 28.4214 3.17817C28.3162 5.81877 28.0709 9.53013 27.5001 12C27.0411 13.9862 26.5344 15.0326 26.0001 17C25.4749 18.9344 24.9146 21.5043 24.5211 23.4027C24.3726 24.1189 23.3616 24.1908 23.1182 23.501C21.7138 19.522 20.9028 15.3579 20.7112 11.1427L20.6335 9.43496C20.5448 7.48199 20.2869 5.5404 19.8628 3.63197L19.7446 3.10014C19.6485 2.66784 19.0897 2.54731 18.8239 2.90158L17.6018 4.53114C14.8837 8.15523 12.7426 12.178 11.2543 16.4567C10.0892 19.8066 9.34471 23.2845 8.94061 26.8081C8.57856 29.9651 8.0695 33.9381 7.50014 37C6.43518 42.7271 5.15467 45.7903 4.00014 51.5C2.43482 59.2412 1.47038 63.6161 1.00014 71.5C0.686234 76.7627 0.225889 79.7851 1.00014 85Z" fill="#E62B3E" fill-opacity="0.35"/>
<path d="M42.264 100.765L42.0392 101.74L42.264 100.765C41.6508 100.624 41.0565 100.41 40.4936 100.129C38.2924 99.0281 35.6919 99.0745 33.5314 100.253L31.0213 101.622L29.1563 102.639C26.8935 103.874 24.384 104.588 21.8104 104.731L21.191 104.766C18.5821 104.911 15.9805 104.372 13.6435 103.204L13.4748 103.119C11.5657 102.165 9.82308 100.909 8.31387 99.3995C6.35897 97.4446 4.83285 95.1295 3.985 92.5473C3.19864 90.1524 2.33703 87.1953 1.9893 84.8531C1.37092 80.6881 1.5587 77.9981 1.82135 74.2354C1.87933 73.4049 1.94095 72.522 1.99836 71.5595C2.43438 64.2495 3.29549 60.0048 4.68993 53.1311C4.78427 52.6661 4.88105 52.189 4.9803 51.6982C5.52038 49.0272 6.08771 46.945 6.65518 44.8622C6.68633 44.7479 6.71748 44.6336 6.74862 44.5192C7.34756 42.3187 7.94296 40.0885 8.48328 37.1828C9.05936 34.0849 9.57159 30.0831 9.9341 26.9221C10.3309 23.4622 11.0608 20.0572 12.1988 16.7852C13.6532 12.6039 15.7456 8.67273 18.4018 5.13114L18.9925 4.34348C19.3414 6.03595 19.5561 7.75358 19.6346 9.48036L19.7122 11.1881C19.9083 15.5014 20.7381 19.7623 22.1752 23.8339C22.7605 25.4923 25.1493 25.2989 25.5003 23.6057C25.8933 21.7097 26.4485 19.1651 26.9652 17.2621C27.1904 16.4325 27.4093 15.7763 27.6303 15.1137C27.6626 15.0168 27.695 14.9198 27.7274 14.8221C27.9818 14.0556 28.2346 13.2632 28.4745 12.2252C29.0689 9.65287 29.3156 5.85484 29.4206 3.21798C29.4209 3.2121 29.4214 3.2083 29.4219 3.20619C29.4255 3.20248 29.4373 3.19268 29.4586 3.1863C29.4713 3.18251 29.4808 3.18183 29.4867 3.18192C29.4872 3.18265 29.4878 3.18345 29.4884 3.18433L31.4959 6.08405C32.2062 7.10999 33.6722 7.24218 34.5545 6.35984L35.2262 5.68816L37.0855 9.40672L37.1149 9.48197L37.2473 9.82076C37.3627 10.1159 37.5302 10.5451 37.7389 11.0811C38.1563 12.1529 38.7383 13.6516 39.397 15.3585C40.715 18.7738 42.3376 23.0177 43.5616 26.3452C45.3237 31.1356 46.416 34.2666 47.8596 38.4045C48.2297 39.4653 48.6228 40.5923 49.0563 41.8304C49.6976 43.662 50.2064 45.2338 50.6933 46.738C51.5303 49.3238 52.3027 51.7098 53.5721 54.8725C54.0547 56.075 54.6715 57.5091 55.2513 58.8267C56.4295 61.504 57.4085 64.2567 58.114 67.0786C58.7109 69.4662 59.1179 71.8973 59.3311 74.3491L59.6974 78.5617C59.8962 80.8481 59.8917 83.1476 59.6839 85.4332L59.2634 90.0583C59.1034 91.8183 58.6157 93.5328 57.8254 95.1134L57.4652 95.8337C56.6474 97.4695 55.4344 98.8754 53.9362 99.9241L53.6517 100.123C52.3291 101.049 50.7949 101.628 49.1903 101.806C48.1106 101.926 47.0183 101.863 45.9597 101.618L42.264 100.765ZM19.624 3.50158C19.6238 3.50185 19.6235 3.50212 19.6233 3.50238L19.6239 3.50158L19.2386 3.21258L19.624 3.50158Z" stroke="#E62B3E" stroke-opacity="0.6" stroke-width="2" stroke-linecap="round" stroke-linejoin="round"/>
<path d="M24.7645 44H26.0245V33.92H24.7645L22.8605 35.054V36.44L24.7645 35.292V44ZM33.826 38.596C34.54 38.106 34.89 37.35 34.89 36.468C34.89 34.76 33.616 33.71 31.838 33.71C30.06 33.71 28.8 34.76 28.8 36.468C28.8 37.336 29.164 38.106 29.864 38.596C28.982 39.17 28.548 40.066 28.548 41.116C28.548 42.964 29.906 44.21 31.838 44.21C33.77 44.21 35.142 42.964 35.142 41.116C35.142 40.066 34.694 39.156 33.826 38.596ZM31.838 34.914C32.86 34.914 33.56 35.432 33.56 36.468C33.56 37.504 32.86 38.022 31.838 38.022C30.816 38.022 30.116 37.504 30.116 36.468C30.116 35.432 30.816 34.914 31.838 34.914ZM31.838 43.02C30.662 43.02 29.864 42.348 29.864 41.116C29.864 39.884 30.648 39.212 31.838 39.212C33.028 39.212 33.826 39.884 33.826 41.116C33.826 42.348 33.014 43.02 31.838 43.02Z" fill="white"/>
<path d="M28.6 93.8313L34.2 99L31.4 94.2289L37 87.8675L31 81.1084L39 75.1446L32.6 66H23L31.4 73.1566L25 79.5181L32.6 87.4699L28.6 93.8313Z" fill="#E62B3E" fill-opacity="0.6"/>
</svg>
