<svg width="52" height="110" viewBox="0 0 52 110" fill="none" xmlns="http://www.w3.org/2000/svg">
<path d="M0.701564 25.364L0.836965 22.2498C0.945408 19.7556 1.2911 17.2774 1.86935 14.8487L3.15411 9.45273C3.38289 8.49188 3.78047 7.57929 4.32835 6.75747C6.69892 3.20162 11.3733 2.01225 15.1551 4.00267L18 5.5L23.6182 9.01137C25.0723 9.92018 26.9202 9.90841 28.3627 8.98115L32.0415 6.6162C32.679 6.20634 33.3543 5.85829 34.058 5.57679L35.9562 4.81753C38.7644 3.69425 41.9597 4.16775 44.3214 6.05716C45.1009 6.68072 45.763 7.43826 46.2765 8.2942L47.5422 10.4036C49.162 13.1033 50.1963 16.1154 50.4697 19.2518C50.7507 22.4749 51.0454 26.7278 51 30C50.9881 30.8596 50.951 31.7746 50.8949 32.7201C50.2703 43.2393 46.0561 53.0804 42.5 63C40.1824 69.4647 39.6291 73.3285 38 80C36.7356 85.1782 35.061 92.8969 34.6138 94.971C34.5369 95.3274 34.4558 95.6768 34.3674 96.0305L31.9517 105.693C31.6601 106.859 30.9628 107.884 29.9846 108.582L29.5489 108.894C28.5702 109.593 27.3262 109.807 26.1698 109.477C25.1058 109.173 24.2182 108.436 23.7234 107.447L22.0168 104.034C21.673 103.346 21.3925 102.628 21.182 101.889C20.5895 99.808 19.3041 95.2412 18.5 92C17.9845 89.9221 17.4344 87.452 16.9266 85.0641C15.5756 78.7106 13.9318 72.4186 11.7323 66.3068C10.6633 63.3365 9.4955 60.1332 8.5 57.5C7.29699 54.318 5.70751 50.2809 4.4015 46.9965C2.81597 43.0092 1.70674 38.8494 1.12697 34.5978C0.709829 31.5387 0.567458 28.4485 0.701564 25.364Z" fill="#E62B3E" fill-opacity="0.35"/>
<path d="M1.70062 25.4075L1.83602 22.2933C1.94171 19.8625 2.27861 17.4473 2.84216 15.0803L4.12692 9.68435C4.32827 8.83868 4.6782 8.03548 5.1604 7.31217C7.24681 4.18256 11.3609 3.13576 14.6893 4.88759L17.5014 6.36765L23.0882 9.85936C24.8705 10.9733 27.1355 10.9589 28.9034 9.82233L32.5822 7.45738C33.1662 7.08194 33.7848 6.76312 34.4294 6.50527L36.3276 5.746C38.8014 4.75648 41.6162 5.1736 43.6968 6.83803C44.3834 7.38734 44.9666 8.05467 45.419 8.80869L46.6847 10.9181C48.2326 13.4981 49.2143 16.3651 49.4735 19.3387C49.7541 22.5571 50.0447 26.7677 50.0001 29.9861C49.9884 30.8274 49.9521 31.7269 49.8966 32.6608C49.3764 41.4226 46.3243 49.6982 43.2215 58.1114C42.664 59.6228 42.105 61.1386 41.5587 62.6625C39.8509 67.4263 39.0815 70.8281 38.1647 74.8815C37.8247 76.3847 37.4645 77.9776 37.0285 79.7628C35.7604 84.9562 34.0831 92.6877 33.6362 94.7603C33.5616 95.1063 33.4829 95.4452 33.3972 95.7879L30.9815 105.451C30.7476 106.386 30.1881 107.208 29.4033 107.769L28.9677 108.08C28.2369 108.602 27.308 108.762 26.4445 108.516C25.65 108.289 24.9873 107.739 24.6178 107L22.9113 103.586C22.5946 102.953 22.3369 102.293 22.1438 101.615C21.551 99.5333 20.27 94.9817 19.4706 91.7592C18.959 89.6971 18.4116 87.2394 17.9047 84.8561C16.5476 78.4738 14.8927 72.1353 12.6732 65.9682C11.6036 62.9961 10.4337 59.787 9.43538 57.1464C8.22923 53.956 6.63716 49.9124 5.33072 46.627C3.77426 42.7128 2.68629 38.6316 2.1178 34.4627C1.70873 31.4628 1.56911 28.4323 1.70062 25.4075Z" stroke="#E62B3E" stroke-opacity="0.6" stroke-width="2" stroke-linecap="round" stroke-linejoin="round"/>
<path d="M22.6743 20.728L25.3903 18.11V16.92H19.4543V18.11H23.8503L20.5743 21.064L21.1763 22.058C21.4843 21.89 21.8763 21.792 22.2123 21.792C23.4303 21.792 24.2423 22.646 24.2423 23.892C24.2423 25.124 23.4583 25.978 22.2263 26.006C21.3303 26.02 20.5463 25.516 20.2523 24.578L19.0483 24.928C19.4823 26.328 20.7423 27.196 22.2403 27.196C24.1023 27.196 25.5303 25.824 25.5303 23.892C25.5303 22.128 24.4103 20.812 22.6743 20.728ZM30.521 20.504C29.835 20.504 29.149 20.742 28.631 21.162L28.827 18.096H33.111V16.92H27.693L27.385 22.184L28.491 22.604C28.855 22.086 29.485 21.652 30.381 21.652C31.557 21.652 32.551 22.604 32.551 23.822C32.551 25.012 31.599 25.992 30.381 25.992C29.443 25.992 28.533 25.376 28.281 24.382L27.077 24.704C27.483 26.174 28.785 27.21 30.339 27.21C32.215 27.21 33.811 25.684 33.811 23.822C33.811 21.946 32.383 20.504 30.521 20.504Z" fill="white"/>
<path d="M23.6 96.8313L29.2 102L26.4 97.2289L32 90.8675L26 84.1084L34 78.1446L27.6 69H18L26.4 76.1566L20 82.5181L27.6 90.4699L23.6 96.8313Z" fill="#E62B3E" fill-opacity="0.6"/>
</svg>
