<svg width="63" height="118" viewBox="0 0 63 118" fill="none" xmlns="http://www.w3.org/2000/svg">
<path d="M57 47.5L61.5 30.5L61.6342 29.829C62.5264 25.3682 62.133 20.7458 60.5 16.5L58.0852 10.463C57.6977 9.49425 57.1536 8.59583 56.4746 7.80367L55.2519 6.37726C54.7628 5.80657 54.1083 5.40207 53.3791 5.21977L53.1709 5.16772C52.7304 5.0576 52.2696 5.0576 51.8291 5.16772C50.9916 5.3771 50.1043 5.18346 49.4302 4.64416L47.1471 2.81771C46.0648 1.95187 44.7907 1.35814 43.4316 1.08632L42.5657 0.913149C41.1985 0.639707 39.7948 0.600744 38.4145 0.797925L35.6567 1.19191C34.2352 1.39497 32.8734 1.89873 31.662 2.66961C29.324 4.15743 26.4637 4.61592 23.7752 3.94379C22.605 3.65124 21.3862 3.5682 20.1873 3.70141L19.6619 3.75979C18.2304 3.91884 16.7826 3.84057 15.3766 3.52814L11.8849 2.7522C9.83813 2.29736 7.71974 3.12704 6.52629 4.85092C4.84905 7.27359 3.49024 9.90183 2.48327 12.671L2.39881 12.9033C0.814285 17.2607 0.0793805 21.8814 0.233848 26.5154L0.317273 29.0182C0.438715 32.6615 0.964346 36.28 1.8845 39.8073L3.5 46L5.5 63L7.47394 82.7394C7.82369 86.2369 8.53723 89.6884 9.60297 93.0379C10.8629 96.9975 12.6061 100.787 14.7932 104.32L18 109.5L20.688 113.196C21.1958 113.894 22.2904 113.664 22.4739 112.82L23.7787 106.818C23.9906 105.843 25.342 105.745 25.6922 106.679L28.5133 114.202C28.8061 114.983 29.5523 115.5 30.386 115.5H30.8944C31.2893 115.5 31.6753 115.617 32.0038 115.836L32.8495 116.4C33.7632 117.009 34.9972 116.767 35.6138 115.859L40.678 108.396C42.8883 105.138 44.8041 101.691 46.4028 98.0937C48.7903 92.7217 50.4529 87.0562 51.3468 81.2459L52 77L52.4391 68.8771C52.811 61.9968 54.1967 55.209 56.5515 48.7334L57 47.5Z" fill="#E62B3E" fill-opacity="0.35"/>
<path d="M55.2519 6.37726L54.4927 7.02806L55.7153 8.45446C56.323 9.16339 56.8099 9.96742 57.1567 10.8344L59.5691 16.8653C61.1321 20.9326 61.5082 25.3601 60.6536 29.6328L60.5254 30.2738L56.0448 47.2006L55.6117 48.3917C53.2233 54.9597 51.8178 61.8445 51.4405 68.8232L51.0041 76.8967L50.3584 81.0939C49.478 86.8165 47.8405 92.3966 45.489 97.6875C43.9144 101.23 42.0275 104.626 39.8505 107.834L34.7864 115.297C34.4781 115.751 33.8611 115.872 33.4042 115.568L32.5586 115.004C32.0657 114.675 31.4867 114.5 30.8944 114.5H30.386C29.9692 114.5 29.596 114.241 29.4497 113.851L26.6285 106.328C25.9282 104.461 23.2252 104.656 22.8015 106.605L21.4967 112.608L18.8306 108.942L15.6435 103.793C13.4996 100.33 11.7909 96.616 10.5559 92.7347C9.51124 89.4515 8.81181 86.0683 8.46898 82.6399L6.49504 62.9005L6.49315 62.8832L4.49315 45.8832C4.48777 45.8374 4.47924 45.7921 4.46762 45.7476L2.85212 39.5548C1.95065 36.0992 1.43569 32.5542 1.31672 28.9849L1.23329 26.4821C1.08308 21.9758 1.79774 17.4824 3.3386 13.245L3.42306 13.0128C4.40075 10.3241 5.72003 7.77233 7.34848 5.42013C8.3105 4.03054 10.0181 3.36175 11.668 3.72839L15.1597 4.50433C16.673 4.84063 18.2315 4.92487 19.7723 4.75368L20.2978 4.69529C21.3779 4.57528 22.4772 4.65006 23.5326 4.91393C26.4858 5.65224 29.6282 5.14918 32.1989 3.51327C33.2904 2.81871 34.5174 2.36481 35.7981 2.18186L38.5559 1.78787C39.824 1.60673 41.1136 1.64252 42.3696 1.89373L43.2355 2.0669C44.4378 2.30737 45.565 2.83261 46.5224 3.59858L48.8055 5.42503C49.7233 6.15929 50.9313 6.42294 52.0716 6.13787C52.3529 6.06755 52.6471 6.06755 52.9284 6.13787L53.1365 6.18991C53.6646 6.32192 54.1385 6.61481 54.4927 7.02805L55.2519 6.37726Z" stroke="#E62B3E" stroke-opacity="0.6" stroke-width="2" stroke-linecap="round" stroke-linejoin="round"/>
<path d="M28.5752 24H29.8352V22.138H30.8852V20.962H29.8352V18.12H28.5752V20.962H25.3552L28.6872 13.92H27.2732L23.9412 20.962V22.138H28.5752V24ZM33.0931 24H34.4371L38.0631 15.11V13.92H32.1411V15.11H36.7191L33.0931 24Z" fill="white"/>
<path d="M25.6 101.831L31.2 107L28.4 102.229L34 95.8675L28 89.1084L36 83.1446L29.6 74H20L28.4 81.1566L22 87.5181L29.6 95.4699L25.6 101.831Z" fill="#E62B3E" fill-opacity="0.6"/>
</svg>
