<svg width="61" height="130" viewBox="0 0 61 130" fill="none" xmlns="http://www.w3.org/2000/svg">
<path d="M51 35L47.5 21L44.5 13.5L41.5734 7.97203C40.5277 5.99678 39.266 4.14368 37.8115 2.44675L37.6964 2.31245C37.3795 1.94277 36.7834 2.04146 36.6026 2.49352C36.2045 3.4887 36 4.55069 36 5.62252V10.5L36.1519 13.8409C36.3825 18.9158 35.8194 23.9957 34.4827 28.8969C34.2182 29.8664 32.8379 29.8517 32.5942 28.8768L30 18.5L29.0433 11.803C28.6816 9.27087 28.5 6.71622 28.5 4.15835V3.66895C28.5 3.24784 28.3017 2.8513 27.9648 2.59863C27.2401 2.05509 26.1961 2.37381 25.8985 3.22942L23.7055 9.53431C23.3708 10.4964 21.9801 10.4007 21.7804 9.40191L21.07 5.85006C20.8521 4.76047 19.2857 4.78573 19.103 5.88178L19 6.5L16.5 16.5L12 32.5L8 48.5L2.5 78L1 95L0.423396 102.496C0.142966 106.141 0.452099 109.808 1.3389 113.356L1.41175 113.647C1.80329 115.213 2.31949 116.745 2.95542 118.229L5.53359 124.245C6.16423 125.717 7.20924 126.973 8.54129 127.861C10.131 128.921 12.0392 129.396 13.9403 129.206L14.6661 129.133C15.5516 129.045 16.4219 128.842 17.2552 128.529L21.234 127.037C23.0685 126.349 24.9924 125.929 26.9465 125.79L28.0764 125.709C30.0065 125.571 31.9449 125.815 33.7807 126.427C34.9226 126.808 36.1069 127.047 37.307 127.139L39.2155 127.286C41.0581 127.428 42.9114 127.251 44.6943 126.765L45.15 126.641C46.7041 126.217 48.3216 126.075 49.9259 126.221L51.6809 126.38C52.5491 126.459 53.4239 126.341 54.2402 126.035C55.9743 125.385 57.2932 123.945 57.7889 122.16L59.1305 117.33C59.3763 116.445 59.5438 115.54 59.6309 114.626L60.0249 110.489C60.3411 107.168 60.3921 103.828 60.1774 100.499L59.5 90L57 76L53.5 54.5L51 35Z" fill="#E62B3E" fill-opacity="0.35"/>
<path d="M29.01 18.6414C29.0149 18.6754 29.0215 18.7092 29.0299 18.7425L31.6241 29.1193C32.1175 31.0932 34.9121 31.1229 35.4474 29.16C36.8115 24.1584 37.3862 18.9744 37.1508 13.7955L37 10.4773V5.62252C37 4.87754 37.1121 4.13795 37.3316 3.42838C38.6207 4.97822 39.7461 6.65764 40.6896 8.43991L43.5913 13.9208L46.5463 21.3084L50.0156 35.1855L52.5081 54.6272C52.5096 54.6384 52.5112 54.6495 52.513 54.6607L56.013 76.1607L56.0156 76.1758L58.5057 90.1205L59.1794 100.564C59.3908 103.839 59.3406 107.126 59.0294 110.394L58.6354 114.531C58.5539 115.387 58.3971 116.234 58.167 117.063L56.8254 121.892C56.4152 123.369 55.324 124.561 53.8891 125.099C53.2137 125.352 52.4898 125.449 51.7714 125.384L50.0164 125.225C48.2933 125.068 46.5561 125.221 44.8868 125.676L44.4312 125.8C42.7588 126.257 41.0205 126.422 39.2922 126.289L37.3837 126.142C36.2651 126.056 35.1612 125.833 34.0969 125.478C32.1364 124.825 30.0664 124.564 28.0051 124.711L26.8753 124.792C24.8254 124.938 22.8072 125.379 20.8829 126.101L16.9041 127.593C16.1518 127.875 15.3661 128.058 14.5666 128.138L13.8408 128.211C12.1701 128.378 10.4931 127.96 9.09599 127.029C7.92534 126.248 7.00696 125.144 6.45273 123.851L3.87456 117.835C3.25965 116.401 2.7605 114.919 2.38189 113.404L2.30904 113.113L1.3389 113.356L2.30904 113.113C1.44831 109.67 1.14826 106.111 1.42045 102.573L1.99613 95.0879L1.99705 95.0767L3.49189 78.1359L8.9775 48.7131L12.9666 32.7567L17.4627 16.7707C17.4653 16.7614 17.4678 16.752 17.4701 16.7425L19.9701 6.74254C19.9766 6.71672 19.982 6.69065 19.9864 6.6644L20.0894 6.04618L20.7998 9.59802C21.1993 11.5956 23.9807 11.7869 24.65 9.86283L26.843 3.55794C26.9181 3.34185 27.1818 3.26136 27.3648 3.39863L27.9532 2.61411L27.3648 3.39863C27.4499 3.46245 27.5 3.56259 27.5 3.66895V4.15835C27.5 6.76354 27.6849 9.36545 28.0533 11.9445L29.01 18.6414Z" stroke="#E62B3E" stroke-opacity="0.6" stroke-width="2" stroke-linecap="round" stroke-linejoin="round"/>
<path d="M30.2234 48.884C31.2594 47.96 31.7634 47.302 31.7634 45.972C31.7634 44.124 30.3494 42.71 28.4734 42.71C26.5414 42.71 25.1134 44.054 25.1134 45.958H26.3874C26.3734 44.852 27.2554 43.9 28.4594 43.9C29.6214 43.9 30.4894 44.796 30.4894 45.958C30.4894 46.602 30.2794 47.176 29.5374 47.848L25.0714 51.866L25.0574 52.986H31.7634V51.796H26.9754L30.2234 48.884ZM33.9768 53H35.3208L38.9468 44.11V42.92H33.0248V44.11H37.6028L33.9768 53Z" fill="white"/>
<path d="M27.6 119.831L33.2 125L30.4 120.229L36 113.867L30 107.108L38 101.145L31.6 92H22L30.4 99.1566L24 105.518L31.6 113.47L27.6 119.831Z" fill="#E62B3E" fill-opacity="0.6"/>
</svg>
