<svg width="59" height="118" viewBox="0 0 59 118" fill="none" xmlns="http://www.w3.org/2000/svg">
<path d="M54 65.5L57 80.5L58.5 92L58.8136 98.5855C58.9368 101.173 58.5798 103.761 57.7607 106.218L57.7075 106.378C57.2368 107.79 56.6415 109.157 55.9287 110.464L55.5025 111.246C54.6365 112.833 52.7465 113.558 51.0413 112.956C47.4757 111.697 43.5691 111.813 40.0842 113.28L38.7619 113.837C36.939 114.605 34.9811 115 33.0032 115C30.6994 115 28.4272 114.464 26.3666 113.433L24.2186 112.359C22.5269 111.513 20.5192 111.597 18.9037 112.58L11.7226 116.951C10.7269 117.558 9.43961 117.36 8.67203 116.482C7.23394 114.839 6.07799 112.968 5.25111 110.947L2 103L1.82195 102.332C0.6197 97.8239 0.340129 93.1191 1 88.5L3.00056 81.4981C3.66577 79.1698 4.14215 76.7917 4.42507 74.3869C4.80722 71.1386 5.54204 67.9416 6.61652 64.8525L6.7142 64.5717C8.23006 60.2136 9.10642 55.6588 9.31594 51.0493L9.5 47V39.245C9.5 35.0888 9.84339 30.9396 10.5267 26.8399C11.1746 22.9526 12.126 19.122 13.3722 15.3833L13.7596 14.2212C14.5855 11.7435 15.5862 9.32759 16.7542 6.9916L18.5778 3.34433C18.8442 2.8116 19.3416 2.43168 19.9257 2.31487C20.838 2.13239 21.7507 2.6268 22.0963 3.49068L23.8901 7.97529C24.0889 8.47217 24.8041 8.43559 24.9511 7.92102L26.1368 3.77106C26.3766 2.93206 26.7807 2.14911 27.3258 1.46776C28.0534 0.558213 29.2077 0.101096 30.3608 0.265822L30.7575 0.322504C31.5357 0.433667 32.2098 0.919524 32.5613 1.62258L33.3509 3.20184C33.4365 3.37292 33.6348 3.45507 33.8162 3.39459L34.3262 3.2246C35.6096 2.79679 37.0206 3.28091 37.771 4.40655L38.3623 5.29348C39.7855 7.42823 41.0485 9.66551 42.1409 11.987C46.3623 20.9575 49.3981 30.4394 51.1716 40.1936L52.5 47.5L54 65.5Z" fill="#E62B3E" fill-opacity="0.35"/>
<path d="M53.0035 65.583C53.0066 65.621 53.0119 65.6588 53.0194 65.6961L56.0128 80.6629L57.5031 92.0886L57.8147 98.6331C57.9321 101.097 57.5921 103.561 56.812 105.902L56.7588 106.061C56.3068 107.417 55.7352 108.73 55.0508 109.985L54.6246 110.767C53.9936 111.923 52.6166 112.451 51.3741 112.013C47.5739 110.672 43.4103 110.795 39.6962 112.359L38.3739 112.915C36.6738 113.631 34.8478 114 33.0032 114C30.8546 114 28.7356 113.5 26.8138 112.539L24.6658 111.465C22.6663 110.465 20.2933 110.564 18.3838 111.726L11.2027 116.097C10.6223 116.451 9.872 116.335 9.42461 115.824L8.67203 116.482L9.4246 115.824C8.05923 114.263 6.96173 112.488 6.17665 110.569L2.94976 102.681L2.78819 102.075C1.62645 97.7181 1.35185 93.1728 1.98043 88.7086L3.96208 81.7728C4.64206 79.3928 5.12902 76.962 5.41822 74.5037C5.79189 71.3276 6.51039 68.2016 7.56102 65.181L7.65869 64.9002C9.2063 60.4508 10.101 55.8007 10.3149 51.0947L10.499 47.0454C10.4997 47.0303 10.5 47.0151 10.5 47V39.245C10.5 35.1439 10.8388 31.0497 11.5131 27.0043C12.1524 23.1685 13.0912 19.3887 14.3209 15.6996L14.7083 14.5374C15.5192 12.1046 16.5018 9.73248 17.6486 7.43882L19.4723 3.79155L18.5778 3.34433L19.4723 3.79155C19.6006 3.53482 19.8403 3.35174 20.1218 3.29545C20.5614 3.20751 21.0013 3.44577 21.1678 3.86207L22.9616 8.34668C23.5144 9.72867 25.5038 9.62691 25.9127 8.19574L24.9511 7.92102L25.9127 8.19574L27.0984 4.04578C27.3017 3.33426 27.6444 2.67028 28.1067 2.09245C28.6132 1.45931 29.4167 1.1411 30.2193 1.25577L30.6161 1.31245C31.0694 1.37721 31.4621 1.66024 31.6669 2.06979L32.5613 1.62258L31.6669 2.0698L32.4565 3.64906C32.7646 4.26525 33.4789 4.56113 34.1325 4.34327L34.6424 4.17328C35.498 3.88808 36.4387 4.21082 36.939 4.96125L37.5303 5.84818C38.926 7.94182 40.1647 10.136 41.2361 12.4127C45.4206 21.3048 48.4297 30.7037 50.1877 40.3725L51.5075 47.6313L53.0035 65.583Z" stroke="#E62B3E" stroke-opacity="0.6" stroke-width="2" stroke-linecap="round" stroke-linejoin="round"/>
<path d="M26.0526 29H27.3126V18.92H26.0526L24.1486 20.054V21.44L26.0526 20.292V29ZM33.5601 22.504C32.6641 22.504 31.8381 22.896 31.2501 23.54V22.182C31.2501 20.978 32.1881 19.9 33.5321 19.9C34.2741 19.9 34.9461 20.278 35.3521 20.852L36.2901 20.026C35.6321 19.186 34.6381 18.71 33.5321 18.71C31.4601 18.71 29.9761 20.208 29.9761 22.322V25.668C29.9761 27.698 31.4881 29.21 33.4201 29.21C35.2961 29.21 36.8501 27.712 36.8501 25.836C36.8501 23.96 35.4361 22.504 33.5601 22.504ZM33.4201 28.006C32.2161 28.006 31.2501 27.026 31.2501 25.836C31.2501 24.632 32.2161 23.652 33.4201 23.652C34.6241 23.652 35.5901 24.632 35.5901 25.836C35.5901 27.04 34.6241 28.006 33.4201 28.006Z" fill="white"/>
<path d="M27.6 107.831L33.2 113L30.4 108.229L36 101.867L30 95.1084L38 89.1446L31.6 80H22L30.4 87.1566L24 93.5181L31.6 101.47L27.6 107.831Z" fill="#E62B3E" fill-opacity="0.6"/>
</svg>
