<svg width="38" height="122" viewBox="0 0 38 122" fill="none" xmlns="http://www.w3.org/2000/svg">
<path d="M28.0878 4.34219L29.0589 4.9664C31.6386 6.62479 33.7238 8.94761 35.0953 11.6906C36.024 13.548 36.6059 15.5591 36.8125 17.6254L37.1963 21.4628C37.3984 23.4844 37.4383 25.5188 37.3153 27.5467L36.8002 36.0461C36.6006 39.3399 36.0624 42.6045 35.1941 45.7881L34.6479 47.7909C33.8861 50.5845 33.5 53.4672 33.5 56.3629C33.5 57.1207 33.4739 57.8746 33.4193 58.6305C33.2529 60.9347 32.8572 66.2717 32.5 70C31.97 75.532 30.9834 83.1736 30.4211 87.391C30.1447 89.4643 29.7844 91.5243 29.3535 93.5711C28.4523 97.8513 27.2409 102.06 25.7288 106.165L24.5 109.5L22 116L21.7537 116.677C20.8925 119.045 17.9606 119.868 15.9929 118.294C15.3496 117.78 14.8975 117.064 14.7088 116.262L13.1926 109.819C13.0643 109.273 12.9165 108.735 12.7525 108.199C12.1723 106.303 10.7195 101.44 10 98C8.5521 91.0771 8.5839 87.0486 8 80C7.52417 74.2561 7.17186 65.9238 7.04823 62.7719C7.01483 61.9205 7.02506 61.074 7.07509 60.2234L7.20223 58.0622C7.39732 54.7456 6.71799 51.436 5.23222 48.4644C4.74498 47.49 4.34259 46.4753 4.02953 45.4318L3.15875 42.5292C2.05605 38.8535 1.3477 35.0709 1.04568 31.2453L0.417433 23.2875C0.142691 19.8074 0.657131 16.3102 1.92239 13.0567L2.20375 12.3332C3.06044 10.1303 4.31949 8.10601 5.91665 6.36366L6.67053 5.54123C8.20187 3.87069 10.1059 2.58527 12.2279 1.78955C15.3154 0.631726 18.7068 0.568943 21.8351 1.6117L23.6453 2.21511C25.209 2.73633 26.7014 3.45089 28.0878 4.34219Z" fill="#E62B3E" fill-opacity="0.35"/>
<path d="M21.0667 115.641L21.0602 115.658L20.8139 116.336C20.1866 118.061 18.0509 118.66 16.6176 117.513C16.149 117.139 15.8196 116.617 15.6822 116.033L14.166 109.59C14.032 109.02 13.8783 108.461 13.7087 107.907C13.1275 106.007 11.6878 101.185 10.9788 97.7953C9.89578 92.6169 9.65425 89.1117 9.34539 84.6296C9.24613 83.1891 9.13992 81.6477 8.99659 79.9174C8.5228 74.1982 8.17117 65.8864 8.04746 62.7327C8.0154 61.9154 8.02516 61.1017 8.07337 60.2822L8.2005 58.1209C8.40588 54.6295 7.69074 51.1454 6.12665 48.0172C5.66509 47.0941 5.28392 46.133 4.98735 45.1444L4.11657 42.2418C3.03426 38.6341 2.33902 34.9215 2.04258 31.1666L1.41433 23.2088C1.15144 19.8788 1.64369 16.5324 2.85439 13.4192L3.13576 12.6957C3.94749 10.6084 5.14047 8.69029 6.6538 7.03938L7.40769 6.21696C8.83265 4.66246 10.6045 3.46632 12.579 2.72588C15.4521 1.64848 18.6079 1.59006 21.5189 2.56038L23.3291 3.16379C24.8137 3.65867 26.2307 4.33711 27.5471 5.18336L28.5181 5.80758C30.9467 7.36881 32.9097 9.55554 34.2009 12.1378C35.0751 13.8863 35.623 15.7797 35.8175 17.7249L36.2012 21.5623C36.3981 23.5307 36.4369 25.5117 36.3172 27.4862L35.8021 35.9856C35.6066 39.2109 35.0796 42.4076 34.2294 45.525L33.6832 47.5277C32.8979 50.4071 32.5 53.3783 32.5 56.3629C32.5 57.0977 32.4747 57.8275 32.4219 58.5584C32.2555 60.8635 31.8605 66.1895 31.5046 69.9046C30.9765 75.4161 29.9922 83.0412 29.4299 87.2589C29.157 89.3054 28.8011 91.3407 28.3749 93.3651C27.4838 97.5979 26.2858 101.76 24.7904 105.819L23.5667 109.141L23.5617 109.154L21.0667 115.641Z" stroke="#E62B3E" stroke-opacity="0.6" stroke-width="2" stroke-linecap="round" stroke-linejoin="round"/>
<path d="M16.7197 23H17.9797V21.138H19.0297V19.962H17.9797V17.12H16.7197V19.962H13.4997L16.8317 12.92H15.4177L12.0857 19.962V21.138H16.7197V23ZM23.9116 16.728L26.6276 14.11V12.92H20.6916V14.11H25.0876L21.8116 17.064L22.4136 18.058C22.7216 17.89 23.1136 17.792 23.4496 17.792C24.6676 17.792 25.4796 18.646 25.4796 19.892C25.4796 21.124 24.6956 21.978 23.4636 22.006C22.5676 22.02 21.7836 21.516 21.4896 20.578L20.2856 20.928C20.7196 22.328 21.9796 23.196 23.4776 23.196C25.3396 23.196 26.7676 21.824 26.7676 19.892C26.7676 18.128 25.6476 16.812 23.9116 16.728Z" fill="white"/>
<path d="M16.6 100.831L22.2 106L19.4 101.229L25 94.8675L19 88.1084L27 82.1446L20.6 73H11L19.4 80.1566L13 86.5181L20.6 94.4699L16.6 100.831Z" fill="#E62B3E" fill-opacity="0.6"/>
</svg>
