<svg width="59" height="118" viewBox="0 0 59 118" fill="none" xmlns="http://www.w3.org/2000/svg">
<path d="M2.22534 40.6197L2.14142 40.3889C2.04715 40.1297 1.95444 39.8716 1.86641 39.6102C1.55082 38.6729 0.765788 36.2424 0.500012 34.5C0.287013 33.1037 0.279452 31.3099 0.328719 29.8267C0.391418 27.9392 0.625505 26.0656 0.932045 24.2021C1.3003 21.9634 1.8691 18.8249 2.50001 16.5C2.8146 15.3408 3.26283 13.9483 3.69309 12.6795C4.51397 10.2589 6.08686 8.19511 8.00001 6.50004L8.07144 6.43675C10.7534 4.06032 13.6072 1.53155 17.1686 1.17566C18.649 1.02772 20.1943 0.937621 21.5 1.00004C25.5753 1.19486 29.7329 4.2072 33.7897 3.77256L41 3.00004L45.6635 1.83418C47.6731 1.33178 49.7844 2.12057 50.9723 3.81758L52.5 6.00004L54.4119 9.44143C56.454 13.1173 57.8195 17.13 58.4433 21.2885C58.8134 23.7558 58.9344 26.2558 58.6693 28.7366C58.4282 30.9926 58.0472 33.8392 57.5 36C56.6359 39.4125 55.3662 41.0882 54.5 44.5C54.2375 45.5339 53.9693 46.8949 53.7768 47.9359C53.5842 48.9775 53.4269 50.0171 53.2811 51.0662C52.7385 54.968 51.317 65.3236 50.5 72.5C50.4095 73.2949 50.3148 74.1527 50.2189 75.0401C49.36 82.9879 47.8276 90.8524 45.5 98.5L41.8804 107.549C41.6274 108.182 41.3145 108.789 40.9461 109.362L37.7595 114.319C37.3014 115.031 36.4536 115.391 35.6228 115.225C34.9246 115.085 34.348 114.595 34.098 113.928L33.5747 112.532C33.2593 111.692 32.3143 111.274 31.4805 111.608C30.8857 111.846 30.2063 111.706 29.7533 111.253L28.4547 109.955C28.158 109.658 27.9537 109.282 27.8666 108.871L27.723 108.194C27.4335 106.829 25.4102 107.108 25.5 108.5L25.9099 113.009C25.9681 113.648 25.7948 114.287 25.4218 114.81C24.4318 116.196 22.4168 116.318 21.2658 115.063L18.319 111.848C18.1066 111.616 17.9138 111.372 17.7413 111.109C16.923 109.864 14.3651 105.901 13 103C12.8095 102.595 12.6206 102.165 12.4347 101.718C9.55883 94.7974 8.72166 87.2423 8.16806 79.7687L8.00001 77.5L7.00001 62C6.33613 54.6973 4.73128 47.511 2.22534 40.6197Z" fill="#E62B3E" fill-opacity="0.35"/>
<path d="M8.66317 7.24852L8.6632 7.24849L8.73463 7.1852L8.73464 7.18519C11.476 4.75606 14.0865 2.48864 17.268 2.1707C18.7285 2.02475 20.218 1.9399 21.4523 1.9989C23.1279 2.07901 24.8325 2.68376 26.7108 3.35018C26.9118 3.4215 27.1148 3.49353 27.32 3.5657C29.3593 4.28296 31.6141 5.01137 33.8962 4.76687L41.1065 3.99435C41.1524 3.98944 41.1978 3.98136 41.2425 3.97018L45.906 2.80432C47.5137 2.4024 49.2027 3.03344 50.1531 4.39104L51.651 6.53103L53.5377 9.92707C55.5217 13.4983 56.8483 17.3967 57.4543 21.4369C57.8147 23.839 57.9292 26.2516 57.675 28.6303C57.4347 30.8787 57.0594 33.6662 56.5306 35.7546C56.1186 37.3814 55.6118 38.5928 55.0787 39.8633L55.0709 39.8818C54.5391 41.1493 53.9818 42.4775 53.5308 44.254C53.2597 45.3217 52.9865 46.71 52.7935 47.7541C52.5971 48.8163 52.4375 49.8722 52.2906 50.9285C51.7482 54.8292 50.325 65.1964 49.5064 72.3869C49.4157 73.1842 49.3208 74.0439 49.2247 74.9327C48.3733 82.8103 46.8563 90.599 44.5557 98.1682L40.952 107.178C40.7226 107.751 40.4389 108.301 40.1049 108.821L36.9183 113.778C36.6826 114.145 36.2464 114.33 35.8189 114.244C35.4596 114.172 35.1629 113.92 35.0343 113.577L34.511 112.181C33.9988 110.815 32.4636 110.138 31.1091 110.679C30.8857 110.769 30.6306 110.716 30.4604 110.546L29.1618 109.248C29.0019 109.088 28.8917 108.885 28.8448 108.663L28.7013 107.987C28.1544 105.409 24.3324 105.934 24.5021 108.564C24.5026 108.573 24.5033 108.582 24.5041 108.591L24.9141 113.1C24.9505 113.501 24.8419 113.901 24.6081 114.228C23.9875 115.097 22.7244 115.174 22.003 114.387L19.0561 111.172L18.319 111.848L19.0561 111.172C18.8774 110.977 18.7181 110.775 18.577 110.56L17.7413 111.109L18.577 110.56C17.7545 109.308 15.2354 105.402 13.9049 102.574C13.7219 102.185 13.5392 101.77 13.3581 101.334L12.4347 101.718L13.3581 101.334C10.5494 94.5752 9.71849 87.1625 9.16533 79.6948L8.99794 77.4357L8.99728 77.4262L7.99794 61.9357C7.99737 61.9269 7.9967 61.9182 7.9959 61.9095C7.32422 54.521 5.70052 47.2503 3.16513 40.2779L3.08121 40.0472C2.98753 39.7895 2.89818 39.5407 2.81412 39.291C2.49608 38.3465 1.73943 35.9938 1.48858 34.3492C1.29013 33.0483 1.27931 31.3308 1.32817 29.8599C1.38891 28.0314 1.61614 26.2042 1.91878 24.3644C2.28653 22.1288 2.84859 19.0337 3.46511 16.7619C3.77159 15.6326 4.21205 14.263 4.64011 13.0007C5.39134 10.7854 6.84374 8.86055 8.66317 7.24852Z" stroke="#E62B3E" stroke-opacity="0.6" stroke-width="2" stroke-linecap="round" stroke-linejoin="round"/>
<path d="M26.394 19.728L29.11 17.11V15.92H23.174V17.11H27.57L24.294 20.064L24.896 21.058C25.204 20.89 25.596 20.792 25.932 20.792C27.15 20.792 27.962 21.646 27.962 22.892C27.962 24.124 27.178 24.978 25.946 25.006C25.05 25.02 24.266 24.516 23.972 23.578L22.768 23.928C23.202 25.328 24.462 26.196 25.96 26.196C27.822 26.196 29.25 24.824 29.25 22.892C29.25 21.128 28.13 19.812 26.394 19.728ZM34.6607 19.504C33.7647 19.504 32.9387 19.896 32.3507 20.54V19.182C32.3507 17.978 33.2887 16.9 34.6327 16.9C35.3747 16.9 36.0467 17.278 36.4527 17.852L37.3907 17.026C36.7327 16.186 35.7387 15.71 34.6327 15.71C32.5607 15.71 31.0767 17.208 31.0767 19.322V22.668C31.0767 24.698 32.5887 26.21 34.5207 26.21C36.3967 26.21 37.9507 24.712 37.9507 22.836C37.9507 20.96 36.5367 19.504 34.6607 19.504ZM34.5207 25.006C33.3167 25.006 32.3507 24.026 32.3507 22.836C32.3507 21.632 33.3167 20.652 34.5207 20.652C35.7247 20.652 36.6907 21.632 36.6907 22.836C36.6907 24.04 35.7247 25.006 34.5207 25.006Z" fill="white"/>
<path d="M25.6 101.831L31.2 107L28.4 102.229L34 95.8675L28 89.1084L36 83.1446L29.6 74H20L28.4 81.1566L22 87.5181L29.6 95.4699L25.6 101.831Z" fill="#E62B3E" fill-opacity="0.6"/>
</svg>
