<svg width="61" height="108" viewBox="0 0 61 108" fill="none" xmlns="http://www.w3.org/2000/svg">
<path d="M0.999952 28C0.82932 26.5528 0.753016 24.8742 0.731929 23.2027C0.659142 17.433 2.11272 11.7799 4.29751 6.4393L5.3206 3.93842C5.43955 3.64764 5.5996 3.37543 5.79586 3.13011C6.78381 1.89517 8.51147 1.53947 9.9069 2.2837L12.4421 3.63579C14.0172 4.47588 15.9267 4.3822 17.412 3.39196C17.8019 3.13203 18.2274 2.93 18.6753 2.7922L22.3522 1.66084C23.7802 1.22147 25.2499 0.931819 26.7378 0.796558C28.9001 0.599982 31.0798 0.731392 33.2028 1.18633L34.3238 1.42653C36.1008 1.80732 37.8225 2.41126 39.4479 3.22399L41.9869 4.49348C43.3107 5.1554 44.7705 5.5 46.2506 5.5C47.08 5.5 47.9058 5.39178 48.7071 5.17809L52.2014 4.24629C53.7878 3.82324 55.4357 4.67642 56.0059 6.21607L59.0193 14.3522C59.6709 16.1115 60.1203 17.9625 60.353 19.8241C60.7761 23.2089 60.4812 26.6858 59.4781 29.946C59.1597 30.9808 58.771 31.9915 58.3332 32.9817C57.4355 35.0121 55.8528 38.7231 55 41.5C53.9988 44.7598 53.5736 46.6385 53 50C52.1762 54.8274 52.087 57.6036 52 62.5C51.9574 64.8948 52.0887 67.9731 52.2274 70.4123C52.382 73.1318 52.3056 75.8607 51.9203 78.5573C51.6405 80.5159 51.2034 82.4488 50.6133 84.3373L50.5076 84.6755C49.5063 87.8798 48.1174 90.9499 46.3718 93.8176L45.4612 95.3137C43.1619 99.091 40.4197 102.58 37.2928 105.707L36.7883 106.212C36.1545 106.845 35.086 106.672 34.6851 105.87C34.2404 104.981 34.0961 103.971 34.274 102.993L35 99L35.5513 95.5083C36.1796 91.5288 36.1623 87.474 35.5 83.5L33.8929 91.8568C33.2994 94.9427 32.3643 97.9529 31.1048 100.832L29.9884 103.383C29.6712 104.108 29.1289 104.712 28.4418 105.105C27.0001 105.928 25.1854 105.685 24.0113 104.511L23.4835 103.984C23.1629 103.663 22.8907 103.297 22.6757 102.898L16 90.5C13.6802 84.2035 11.8807 77.6856 10.634 71.0922C10.0827 68.1764 9.4948 65.0793 8.99995 62.5C7.6507 55.4672 7.13561 51.4718 5.49995 44.5C3.97441 37.9976 1.78201 34.633 0.999952 28Z" fill="#E62B3E" fill-opacity="0.35"/>
<path d="M35.9838 99.1789L35.9877 99.156L36.539 95.6643C37.1841 91.5786 37.1663 87.4156 36.4863 83.3356C36.4067 82.858 35.9965 82.5061 35.5124 82.5001C35.0283 82.4941 34.6094 82.8357 34.5179 83.3111L32.9109 91.668C32.3314 94.681 31.4184 97.6201 30.1886 100.431L29.0723 102.983C28.8412 103.511 28.4462 103.95 27.9457 104.236C26.8955 104.836 25.5736 104.659 24.7184 103.804L24.1906 103.276C23.9388 103.025 23.7251 102.737 23.5562 102.424L16.914 90.0882C14.6252 83.8645 12.8487 77.4227 11.6166 70.9064C11.0652 67.9903 10.4771 64.8922 9.98204 62.3116C9.53945 60.0046 9.18544 58.0162 8.85056 56.1351C8.17222 52.3248 7.57233 48.9552 6.47352 44.2716C5.83859 41.5653 5.08631 39.3803 4.38186 37.3342C4.22451 36.8772 4.06955 36.4271 3.91881 35.9797C3.09232 33.5265 2.37252 31.1012 1.99307 27.8829C1.82818 26.4843 1.75272 24.8443 1.73185 23.1901C1.66127 17.595 3.07101 12.0785 5.22306 6.81793L6.24614 4.31706C6.32889 4.1148 6.44022 3.92545 6.57673 3.7548C7.26394 2.8958 8.46567 2.64838 9.43631 3.16606L11.9715 4.51814C13.8716 5.53154 16.1749 5.41853 17.9667 4.22401C18.2762 4.0177 18.6139 3.85735 18.9694 3.74798L22.6463 2.61662C24.008 2.19764 25.4095 1.92143 26.8283 1.79245C28.8903 1.605 30.9688 1.73031 32.9933 2.16414L34.1142 2.40434C35.8088 2.76746 37.4507 3.34338 39.0007 4.11842L41.5397 5.38791C43.0024 6.11925 44.6153 6.5 46.2506 6.5C47.1669 6.5 48.0794 6.38043 48.9648 6.14432L52.459 5.21252C53.547 4.9224 54.6771 5.50751 55.0682 6.56339L58.0815 14.6995C58.7061 16.3859 59.1374 18.1619 59.3607 19.9482C59.7665 23.1943 59.4833 26.5286 58.5223 29.652C58.2173 30.6432 57.8433 31.6168 57.4186 32.5774C56.5214 34.6067 54.9162 38.3666 54.044 41.2064C53.0287 44.5122 52.5942 46.4332 52.0142 49.8318C51.1777 54.7339 51.0875 57.5695 51.0001 62.4822C50.9568 64.9163 51.09 68.0256 51.229 70.4691C51.3804 73.1325 51.3049 75.7943 50.9304 78.4159C50.6582 80.3213 50.2329 82.2018 49.6588 84.039L49.5531 84.3772C48.5761 87.5039 47.2209 90.4995 45.5176 93.2977L44.607 94.7938C42.3491 98.5031 39.6563 101.929 36.5857 105L36.0812 105.505C35.93 105.656 35.6752 105.614 35.5796 105.423C35.2316 104.727 35.1187 103.937 35.2579 103.172L35.9838 99.1789Z" stroke="#E62B3E" stroke-opacity="0.6" stroke-width="2" stroke-linecap="round" stroke-linejoin="round"/>
<path d="M28.5283 24H29.7883V22.138H30.8383V20.962H29.7883V18.12H28.5283V20.962H25.3083L28.6403 13.92H27.2263L23.8943 20.962V22.138H28.5283V24ZM37.6522 18.596C38.3662 18.106 38.7162 17.35 38.7162 16.468C38.7162 14.76 37.4422 13.71 35.6642 13.71C33.8862 13.71 32.6262 14.76 32.6262 16.468C32.6262 17.336 32.9902 18.106 33.6902 18.596C32.8082 19.17 32.3742 20.066 32.3742 21.116C32.3742 22.964 33.7322 24.21 35.6642 24.21C37.5962 24.21 38.9682 22.964 38.9682 21.116C38.9682 20.066 38.5202 19.156 37.6522 18.596ZM35.6642 14.914C36.6862 14.914 37.3862 15.432 37.3862 16.468C37.3862 17.504 36.6862 18.022 35.6642 18.022C34.6422 18.022 33.9422 17.504 33.9422 16.468C33.9422 15.432 34.6422 14.914 35.6642 14.914ZM35.6642 23.02C34.4882 23.02 33.6902 22.348 33.6902 21.116C33.6902 19.884 34.4742 19.212 35.6642 19.212C36.8542 19.212 37.6522 19.884 37.6522 21.116C37.6522 22.348 36.8402 23.02 35.6642 23.02Z" fill="white"/>
<path d="M28.6 78.8313L34.2 84L31.4 79.2289L37 72.8675L31 66.1084L39 60.1446L32.6 51H23L31.4 58.1566L25 64.5181L32.6 72.4699L28.6 78.8313Z" fill="#E62B3E" fill-opacity="0.6"/>
</svg>
