<svg width="43" height="126" viewBox="0 0 43 126" fill="none" xmlns="http://www.w3.org/2000/svg">
<path d="M16.9998 19L20.6647 6.63093C20.8877 5.87843 21.1763 5.14698 21.5273 4.445L22.2553 2.98913C22.4172 2.66516 22.6304 2.36943 22.8865 2.11331C23.8609 1.13893 25.3303 0.855937 26.5969 1.39875L27.1045 1.61631C27.6935 1.86873 28.2167 2.25302 28.6337 2.73955L29.6837 3.96448C30.554 4.97983 31.234 6.14385 31.691 7.40064L32.3277 9.15164C32.7748 10.3813 33.1081 11.6494 33.3232 12.94L34.4998 20L35.4998 33.5L36.4998 50V60.2322C36.4998 65.4011 36.9451 70.5604 37.8308 75.6529L38.4998 79.5L39.8553 84.696C40.9502 88.8932 41.7403 93.164 42.2193 97.4751L42.4998 100V102.457C42.4998 108.468 42.566 114.83 39.4998 120C37.847 122.787 34.7654 124.325 31.5805 124.922L30.8166 125.066C29.2799 125.354 27.7121 125.424 26.1581 125.252C23.7081 124.98 19.8317 124.513 16.9998 124C14.7484 123.592 11.7238 122.895 9.818 122.441C8.61253 122.154 7.4727 121.649 6.44162 120.961C4.53053 119.687 3.07649 117.836 2.29156 115.677L2.04797 115.007C1.68393 114.006 1.44348 112.967 1.35296 111.905C1.18381 109.922 0.936733 106.494 0.999824 104C1.11927 99.2787 1.60632 96.6375 2.49982 92C2.92309 89.8031 3.63536 87.0521 4.25967 84.7917C5.05231 81.9217 5.79232 79.0375 6.37625 76.1179L7.99982 68L9.99982 52L12.9998 34.5L16.9998 19Z" fill="#E62B3E" fill-opacity="0.35"/>
<path d="M37.5146 79.6713C37.5194 79.6986 37.5252 79.7256 37.5322 79.7524L38.8877 84.9484C39.9704 89.099 40.7517 93.3223 41.2254 97.5856L41.4998 100.055V102.457L41.4998 102.698C41.5004 108.702 41.5009 114.665 38.6397 119.49C37.1877 121.938 34.4225 123.372 31.3962 123.939L30.6324 124.083C29.1875 124.354 27.7191 124.419 26.2685 124.258C23.8192 123.986 19.9729 123.522 17.1781 123.016C14.9562 122.613 11.955 121.922 10.0497 121.468C8.96349 121.209 7.93247 120.753 6.99632 120.129C5.26257 118.973 3.94345 117.294 3.23135 115.336L2.98777 114.666C2.65137 113.741 2.4318 112.787 2.34934 111.82C2.18016 109.837 1.93796 106.458 1.9995 104.025C2.11679 99.3894 2.5907 96.814 3.48176 92.1892C3.89723 90.0328 4.60073 87.3131 5.22359 85.0579C6.01909 82.1775 6.76616 79.2673 7.35683 76.314L8.9804 68.1961C8.98518 68.1722 8.98908 68.1482 8.9921 68.124L10.9893 52.1466L13.9785 34.7098L17.9637 19.2671L21.6235 6.91502C21.8299 6.21867 22.097 5.5418 22.4218 4.89221L23.1497 3.43635C23.2636 3.20851 23.4135 3.00053 23.5936 2.82041C24.2789 2.13517 25.3123 1.93616 26.203 2.3179L26.7106 2.53545C27.1589 2.72757 27.5571 3.02004 27.8745 3.39034L28.6337 2.73955L27.8745 3.39034L28.9244 4.61527C29.7164 5.5393 30.3353 6.59863 30.7512 7.74238L31.3879 9.49338C31.8141 10.6655 32.1317 11.8742 32.3368 13.1044L33.3232 12.94L32.3368 13.1044L33.5059 20.1194L34.5021 33.5672L35.4998 50.0303V60.2322C35.4998 65.4586 35.9501 70.6752 36.8456 75.8243L37.5146 79.6713Z" stroke="#E62B3E" stroke-opacity="0.6" stroke-width="2" stroke-linecap="round" stroke-linejoin="round"/>
<path d="M20.8465 37H22.1065V26.92H20.8465L18.9425 28.054V29.44L20.8465 28.292V37ZM29.656 32.884C30.692 31.96 31.196 31.302 31.196 29.972C31.196 28.124 29.782 26.71 27.906 26.71C25.974 26.71 24.546 28.054 24.546 29.958H25.82C25.806 28.852 26.688 27.9 27.892 27.9C29.054 27.9 29.922 28.796 29.922 29.958C29.922 30.602 29.712 31.176 28.97 31.848L24.504 35.866L24.49 36.986H31.196V35.796H26.408L29.656 32.884Z" fill="white"/>
<path d="M19.6 118.831L25.2 124L22.4 119.229L28 112.867L22 106.108L30 100.145L23.6 91H14L22.4 98.1566L16 104.518L23.6 112.47L19.6 118.831Z" fill="#E62B3E" fill-opacity="0.6"/>
</svg>
