<svg width="60" height="97" viewBox="0 0 60 97" fill="none" xmlns="http://www.w3.org/2000/svg">
<path d="M16 34C18.1254 28.7534 20.4221 20.8311 21.2133 18.0275C21.4066 17.3426 21.58 16.6532 21.7401 15.9597L22.3038 13.517C22.7666 11.5112 23.4389 9.55959 24.3094 7.69423L25.9646 4.14725C26.3188 3.38826 26.803 2.69703 27.3952 2.10478L27.909 1.59099C28.9277 0.572296 30.3093 0 31.75 0C33.1907 0 34.5723 0.572297 35.591 1.59099L35.9837 1.98369C36.6538 2.65377 37.1758 3.45701 37.516 4.34148L39.1762 8.65801C39.392 9.2192 39.5889 9.78311 39.7683 10.357C40.4506 12.5397 42.2843 18.4239 43.5 22.5C44.1795 24.7782 44.9639 27.4903 45.7069 30.0911C47.5857 36.6678 50.1783 43.021 53.5 49L55.5134 53.3624C58.147 59.0686 59.6697 65.2241 60 71.5V78.106C60 80.3465 59.5563 82.5648 58.6946 84.6329C57.9048 86.5286 56.7774 88.2651 55.3674 89.7581L51.7196 93.6204C50.0467 95.3917 47.5312 96.092 45.1837 95.4399L40 94L37.9447 93.1346C33.1747 91.1262 27.8054 91.0778 23 93L15.568 95.8902C14.5317 96.2932 13.4295 96.5 12.3176 96.5C10.1767 96.5 8.10655 95.7342 6.48112 94.341L6.40506 94.2758C5.80418 93.7607 5.27196 93.1706 4.82148 92.5199L4.08197 91.4517C2.0662 88.5401 0.890007 85.1301 0.682052 81.5949L0.5 78.5V75.0014C0.5 72.0105 0.845961 69.0297 1.53099 66.1183C2.17509 63.3809 3.11474 60.7221 4.33431 58.1881C5.70297 55.3444 7.57458 51.4567 9 48.5C11.7306 42.8359 13.6391 39.8279 16 34Z" fill="#E62B3E" fill-opacity="0.35"/>
<path d="M16.9268 34.3755C19.0758 29.0707 21.3859 21.0976 22.1757 18.2991C22.3742 17.5959 22.5515 16.8907 22.7145 16.1846L23.2782 13.7418C23.7253 11.8043 24.3746 9.91903 25.2155 8.11712L26.8708 4.57014C27.1757 3.91676 27.5925 3.32173 28.1023 2.81189L27.3952 2.10478L28.1023 2.81189L28.6161 2.2981C29.4473 1.46694 30.5746 1 31.75 1C32.9254 1 34.0527 1.46694 34.8839 2.2981L35.2766 2.6908C35.8477 3.26194 36.2927 3.94658 36.5826 4.70045L38.2428 9.01699C38.4512 9.5587 38.641 10.1024 38.8138 10.6554C39.4963 12.8386 41.3281 18.7169 42.5417 22.7858C43.2196 25.0587 44.0028 27.7665 44.7453 30.3658C46.6408 37.0005 49.2559 43.4136 52.6076 49.4529L54.6055 53.7815C57.1822 59.3644 58.6735 65.3864 59 71.5265V78.106C59 80.2144 58.5825 82.302 57.7715 84.2483C57.0282 86.0323 55.9673 87.6664 54.6404 89.0715L50.9926 92.9338C49.5743 94.4355 47.4416 95.0292 45.4513 94.4764L40.3292 93.0536L38.3328 92.213C33.322 90.1032 27.6819 90.0517 22.6335 92.0696C22.6319 92.0702 22.6302 92.0709 22.6286 92.0715L15.2056 94.9582C14.2848 95.3163 13.3055 95.5 12.3176 95.5C10.4155 95.5 8.5761 94.8196 7.13192 93.5817L7.05586 93.5165L6.40506 94.2758L7.05585 93.5165C6.52001 93.0572 6.0454 92.531 5.64367 91.9507L4.90416 90.8825C2.99279 88.1217 1.87751 84.8883 1.68033 81.5362L1.5 78.4706V75.0014C1.5 72.0876 1.83704 69.1836 2.5044 66.3474C3.1319 63.6805 4.04731 61.0903 5.23538 58.6218C6.60403 55.778 8.47552 51.8907 9.90078 48.9343C10.8416 46.9828 11.6947 45.3302 12.5082 43.7542C14.0147 40.8357 15.3857 38.1799 16.9268 34.3755Z" stroke="#E62B3E" stroke-opacity="0.6" stroke-width="2" stroke-linecap="round" stroke-linejoin="round"/>
<path d="M26.8329 32H28.0929V21.92H26.8329L24.9289 23.054V24.44L26.8329 23.292V32ZM33.9204 25.504C33.2344 25.504 32.5484 25.742 32.0304 26.162L32.2264 23.096H36.5104V21.92H31.0924L30.7844 27.184L31.8904 27.604C32.2544 27.086 32.8844 26.652 33.7804 26.652C34.9564 26.652 35.9504 27.604 35.9504 28.822C35.9504 30.012 34.9984 30.992 33.7804 30.992C32.8424 30.992 31.9324 30.376 31.6804 29.382L30.4764 29.704C30.8824 31.174 32.1844 32.21 33.7384 32.21C35.6144 32.21 37.2104 30.684 37.2104 28.822C37.2104 26.946 35.7824 25.504 33.9204 25.504Z" fill="white"/>
<path d="M27.6 84.8313L33.2 90L30.4 85.2289L36 78.8675L30 72.1084L38 66.1446L31.6 57H22L30.4 64.1566L24 70.5181L31.6 78.4699L27.6 84.8313Z" fill="#E62B3E" fill-opacity="0.6"/>
</svg>
