<svg width="34" height="116" viewBox="0 0 34 116" fill="none" xmlns="http://www.w3.org/2000/svg">
<path d="M9.17436 0.88856L18.4998 0.5H22.6361C24.1905 0.5 25.7236 0.861916 27.114 1.55709C29.5929 2.79654 31.4701 5.00313 32.1065 7.70058C32.4788 9.27876 32.8402 11.0422 32.9998 12.5C33.5314 17.3564 33.0647 20.1473 32.4998 25C31.7602 31.3532 30.2974 34.7369 28.9998 41C27.6232 47.6447 27.0482 54.4187 26.5966 61.1894C26.5663 61.6432 26.5341 62.0826 26.4998 62.5C26.2765 65.2187 25.8333 68.6234 25.4207 71.5016C24.8467 75.5052 24.3739 79.5207 23.9586 83.5438C23.6182 86.8408 23.1248 90.8749 22.4998 94C21.9386 96.8059 20.912 100.676 20.3652 102.679C20.1243 103.562 19.9005 104.447 19.702 105.34L18.1407 112.366C18.0474 112.786 17.887 113.188 17.6657 113.557L17.0941 114.51C16.7254 115.124 16.0614 115.5 15.3448 115.5C14.8038 115.5 14.2849 115.285 13.9023 114.903L13.1895 114.19C12.4079 113.408 11.826 112.45 11.4931 111.396L9.32561 104.532C9.10852 103.844 8.9232 103.149 8.77357 102.444C8.28127 100.124 7.1083 94.4721 6.4998 90.5C5.21122 82.0885 4.63558 69.3378 4.52146 66.5506C4.5062 66.1778 4.49462 65.8135 4.48426 65.4406L4.25759 57.2801C4.08595 51.1012 3.43745 44.9486 2.57943 38.8272C2.14264 35.711 1.71931 32.3094 1.4998 29.5C1.07366 24.0458 0.672571 20.961 0.999804 15.5C1.15602 12.893 1.66832 9.43536 2.05103 7.09784C2.32713 5.41149 3.19924 3.88799 4.48525 2.76273C5.78904 1.62191 7.44342 0.960683 9.17436 0.88856Z" fill="#E62B3E" fill-opacity="0.35"/>
<path d="M9.21599 1.88769L18.5206 1.5H22.6361C24.0353 1.5 25.4153 1.82577 26.6668 2.45151C28.906 3.57111 30.5712 5.54809 31.1332 7.9302C31.5027 9.49633 31.8529 11.2126 32.0057 12.6088C32.4678 16.83 32.1589 19.414 31.6826 23.398C31.6259 23.872 31.5669 24.3657 31.5065 24.8844C31.1438 27.9998 30.6046 30.3865 29.9903 32.7858C29.8445 33.3553 29.6936 33.9282 29.5396 34.5133C29.0461 36.3882 28.5199 38.3873 28.0206 40.7971C26.629 47.5139 26.0508 54.3465 25.5988 61.1229C25.5688 61.5725 25.5369 62.0067 25.5032 62.4181C25.2824 65.1057 24.8427 68.4862 24.4308 71.3597C23.8545 75.3796 23.3802 79.4088 22.9639 83.4411C22.6242 86.732 22.1345 90.7273 21.5192 93.8039C20.9656 96.572 19.9475 100.411 19.4005 102.416C19.1564 103.31 18.9285 104.211 18.7259 105.123L17.1645 112.149C17.0945 112.464 16.9742 112.766 16.8082 113.042L16.2366 113.995C16.0486 114.308 15.7101 114.5 15.3448 114.5C15.069 114.5 14.8045 114.39 14.6094 114.195L13.8966 113.483C13.2286 112.815 12.7312 111.995 12.4467 111.094L10.2792 104.231C10.0712 103.572 9.89431 102.908 9.75179 102.236C9.25907 99.9139 8.09187 94.2887 7.48827 90.3486C6.20943 82.0006 5.63506 69.3046 5.52063 66.5097C5.50561 66.1428 5.49417 65.7832 5.48388 65.4128L5.2572 57.2524C5.08417 51.0233 4.43074 44.831 3.56975 38.6884C3.1339 35.5789 2.71389 32.201 2.49677 29.4221C2.42945 28.5606 2.36304 27.7603 2.30014 27.0025C1.96261 22.9356 1.72651 20.0909 1.99801 15.5598C2.1509 13.0084 2.65554 9.59474 3.03789 7.25941C3.27496 5.81145 4.02532 4.49394 5.14376 3.51531C6.27603 2.52457 7.71276 1.95033 9.21599 1.88769Z" stroke="#E62B3E" stroke-opacity="0.6" stroke-width="2" stroke-linecap="round" stroke-linejoin="round"/>
<path d="M14.6104 23H15.8704V21.138H16.9204V19.962H15.8704V17.12H14.6104V19.962H11.3904L14.7224 12.92H13.3084L9.97637 19.962V21.138H14.6104V23ZM23.4822 18.884C24.5182 17.96 25.0222 17.302 25.0222 15.972C25.0222 14.124 23.6082 12.71 21.7322 12.71C19.8002 12.71 18.3722 14.054 18.3722 15.958H19.6462C19.6322 14.852 20.5142 13.9 21.7182 13.9C22.8802 13.9 23.7482 14.796 23.7482 15.958C23.7482 16.602 23.5382 17.176 22.7962 17.848L18.3302 21.866L18.3162 22.986H25.0222V21.796H20.2342L23.4822 18.884Z" fill="white"/>
<path d="M11.6 96.8313L17.2 102L14.4 97.2289L20 90.8675L14 84.1084L22 78.1446L15.6 69H6L14.4 76.1566L8 82.5181L15.6 90.4699L11.6 96.8313Z" fill="#E62B3E" fill-opacity="0.6"/>
</svg>
