<svg width="55" height="144" viewBox="0 0 55 144" fill="none" xmlns="http://www.w3.org/2000/svg">
<path d="M48.9998 90.5C50.6175 98.4373 53.4496 102.468 54.4998 110.5C55.4871 118.051 54.4998 130 54.4998 130C54.4998 130 53.8612 136.145 51.4998 139C47.7776 143.5 41.0252 143.5 35.1838 143.5H35.1701H28.9998H18.4344C14.4891 143.5 10.397 143.392 6.90958 141.547C6.58321 141.374 6.27599 141.192 5.99981 141C3.84171 139.502 3.25432 138.308 1.99995 136C-0.152595 132.039 0.462782 129.008 0.499807 124.5C0.533638 120.381 0.925684 118.079 1.49981 114C3.34288 100.906 8.92502 94.5594 10.9998 81.5C12.6874 70.8778 11.4959 64.7084 12.4998 54C13.4742 43.6068 13.0463 37.5122 15.9998 27.5C17.7236 21.6563 21.3512 12.898 23.9701 6.8426C25.2393 3.90776 29.219 3.66466 30.8202 6.43242C34.2841 12.42 39.1901 21.3244 41.4998 27.5C45.177 37.3319 44.6211 43.5939 45.9998 54C47.8783 68.1783 46.1437 76.4859 48.9998 90.5Z" fill="#E62B3E" fill-opacity="0.35"/>
<path d="M6.57001 140.178L5.99981 141L6.57 140.178C4.70106 138.881 4.17255 137.907 3.02303 135.789C2.97597 135.702 2.92786 135.613 2.87858 135.523C1.2599 132.544 1.33522 130.227 1.44154 126.958C1.4662 126.199 1.49253 125.389 1.49977 124.508C1.52954 120.884 1.83902 118.713 2.31801 115.352C2.37317 114.965 2.43057 114.562 2.49005 114.139C3.39416 107.716 5.21208 102.949 7.09512 98.0989L7.214 97.7928C9.06072 93.038 10.9535 88.1647 11.9874 81.6569C12.8427 76.2738 12.9674 72.0187 13.0061 67.7915C13.0114 67.214 13.0151 66.6377 13.0188 66.0593C13.0423 62.4042 13.0663 58.6711 13.4954 54.0933C13.7582 51.2905 13.9198 48.8155 14.0705 46.5056C14.4857 40.1452 14.8192 35.0368 16.9589 27.7829C18.6631 22.0057 22.2668 13.3001 24.8879 7.23955C25.8335 5.05304 28.7679 4.88197 29.9546 6.93317C33.4223 12.9272 38.2867 21.7637 40.5632 27.8503C43.1408 34.7422 43.5909 39.7682 44.1405 45.9052C44.3637 48.3976 44.6033 51.0731 45.0085 54.1313C45.8237 60.2845 45.9522 65.3146 46.0782 70.2446C46.0961 70.944 46.1139 71.6414 46.1336 72.3398C46.2923 77.9609 46.5747 83.6085 48.0199 90.6997C48.7586 94.3241 49.7484 97.1567 50.6905 99.8531C50.8004 100.168 50.9097 100.48 51.0178 100.792C52.0525 103.776 52.9965 106.716 53.5082 110.63C53.9909 114.321 53.9936 119.129 53.8705 123.05C53.8092 125.003 53.7172 126.722 53.6406 127.953C53.6023 128.568 53.5678 129.06 53.543 129.399C53.5306 129.568 53.5206 129.698 53.5137 129.786L53.5058 129.885L53.505 129.898L53.5038 129.909L53.5038 129.91L53.4986 129.956C53.4938 129.997 53.4862 130.061 53.4757 130.143C53.4547 130.309 53.4218 130.551 53.3751 130.851C53.2813 131.452 53.1326 132.282 52.913 133.196C52.4629 135.069 51.7539 137.124 50.7293 138.363C49.0702 140.368 46.703 141.418 43.945 141.956C41.1732 142.497 38.1243 142.5 35.1838 142.5H35.1701H28.9998H18.4344C14.4637 142.5 10.6154 142.376 7.37719 140.663C7.0778 140.505 6.80627 140.342 6.57001 140.178Z" stroke="#E62B3E" stroke-opacity="0.6" stroke-width="2" stroke-linecap="round" stroke-linejoin="round"/>
<path d="M25.0565 45H26.3165V34.92H25.0565L23.1525 36.054V37.44L25.0565 36.292V45ZM30.744 45H32.004V34.92H30.744L28.84 36.054V37.44L30.744 36.292V45Z" fill="white"/>
<path d="M25.6 136.831L31.2 142L28.4 137.229L34 130.867L28 124.108L36 118.145L29.6 109H20L28.4 116.157L22 122.518L29.6 130.47L25.6 136.831Z" fill="#E62B3E" fill-opacity="0.6"/>
</svg>
