<svg width="61" height="106" viewBox="0 0 61 106" fill="none" xmlns="http://www.w3.org/2000/svg">
<path d="M36.0283 2.26343L35.6309 1.80489C35.1995 1.3071 34.3821 1.56149 34.3093 2.2162L33.8253 6.57273C33.6088 8.52041 33.5656 10.4834 33.6959 12.4388C33.8977 15.4653 33.6831 18.5051 33.0583 21.4733L32.5994 23.6529C32.4286 24.4642 31.3003 24.5408 31.0214 23.76L28.7027 17.2676C27.5696 14.0948 26.7057 10.8323 26.1202 7.51452L25.8215 5.82178C25.6079 4.61129 25.2555 3.42945 24.7713 2.29964L24.7534 2.25801C24.4354 1.51584 23.4142 1.43721 22.9863 2.12193L22.2456 3.30701C21.758 4.08719 21.0646 4.71771 20.2417 5.12915L20.0664 5.21678C19.0679 5.71605 18.3235 6.60989 18.013 7.68226L13 25L9.5 37L5 52L3.07234 58.4255C1.36658 64.1114 0.5 70.0158 0.5 75.952V76.4097C0.5 79.4647 0.752407 82.5144 1.25464 85.5279L2.08635 90.5181C2.36084 92.1651 2.85796 93.7671 3.56404 95.2801L4.22456 96.6955C5.38059 99.1727 7.26519 101.238 9.62648 102.615L10.5629 103.162C11.5111 103.715 12.5616 104.07 13.6509 104.206C15.1851 104.398 16.7422 104.148 18.1395 103.487L19.8217 102.69C23.4449 100.973 27.6165 100.831 31.3481 102.297L35.1512 103.792C37.9929 104.908 41.0915 105.202 44.0924 104.639C46.3389 104.218 48.4713 103.328 50.3506 102.027L51.4879 101.239C53.1518 100.087 54.619 98.6747 55.8332 97.0557C57.587 94.7174 58.7722 92.0028 59.2951 89.127L59.9472 85.5403C60.315 83.5175 60.5 81.4658 60.5 79.4098V77.7339C60.5 74.2531 60.1562 70.7809 59.4736 67.3678L57 55L50 34L47.0091 22.4104C46.3379 19.8095 45.4186 17.279 44.2637 14.8538C42.0978 10.3054 39.3277 6.07038 36.0283 2.26343Z" fill="#E62B3E" fill-opacity="0.35"/>
<path d="M23.8521 2.69354L23.8521 2.69356C24.3061 3.75276 24.6364 4.86073 24.8367 5.99557L25.1354 7.6883C25.7307 11.0614 26.609 14.3783 27.761 17.6039L30.0797 24.0964C30.6979 25.8272 33.1993 25.6575 33.5779 23.8589L34.0368 21.6793C34.6805 18.6216 34.9016 15.49 34.6937 12.3722C34.5673 10.4759 34.6093 8.57209 34.8191 6.68316L35.2414 2.8824L35.2726 2.91836L36.0184 2.27199L35.2726 2.91836C38.513 6.65727 41.2337 10.8166 43.3608 15.2837C44.4882 17.6511 45.3856 20.1213 46.0409 22.6603L49.0317 34.2499C49.0375 34.2722 49.044 34.2943 49.0513 34.3162L56.0316 55.2572L58.493 67.5639C59.1627 70.9124 59.5 74.319 59.5 77.7339V79.4098C59.5 81.4058 59.3204 83.3977 58.9633 85.3614L58.3112 88.9481C57.8161 91.6712 56.6938 94.2416 55.0332 96.4557C53.8835 97.9887 52.4942 99.3262 50.9187 100.417L49.7814 101.204C48.0177 102.425 46.0164 103.261 43.9081 103.656C41.0918 104.184 38.1838 103.909 35.5168 102.861L31.7137 101.367C27.7252 99.7998 23.2663 99.9515 19.3936 101.786L17.7114 102.583C16.486 103.163 15.1204 103.382 13.7749 103.214C12.8196 103.095 11.8984 102.783 11.0668 102.298L10.1304 101.752C7.94492 100.477 6.20068 98.5653 5.13074 96.2726L4.47022 94.8572C3.80247 93.4263 3.33234 91.9113 3.07274 90.3537L2.24104 85.3635C1.74786 82.4044 1.5 79.4096 1.5 76.4097V75.952C1.5 70.1131 2.35237 64.3055 4.03016 58.7129L5.95783 52.2873L10.4578 37.2873L10.4579 37.2874L10.46 37.28L13.96 25.28L13.9606 25.2781L18.9736 7.96032C19.2064 7.15604 19.7647 6.48566 20.5136 6.11121L20.6889 6.02358C21.6764 5.52984 22.5085 4.77322 23.0936 3.83701L23.8343 2.65193L23.8521 2.69354Z" stroke="#E62B3E" stroke-opacity="0.6" stroke-width="2" stroke-linecap="round" stroke-linejoin="round"/>
<path d="M29.1765 41.884C30.2125 40.96 30.7165 40.302 30.7165 38.972C30.7165 37.124 29.3025 35.71 27.4265 35.71C25.4945 35.71 24.0665 37.054 24.0665 38.958H25.3405C25.3265 37.852 26.2085 36.9 27.4125 36.9C28.5745 36.9 29.4425 37.796 29.4425 38.958C29.4425 39.602 29.2325 40.176 28.4905 40.848L24.0245 44.866L24.0105 45.986H30.7165V44.796H25.9285L29.1765 41.884ZM37.536 40.596C38.25 40.106 38.6 39.35 38.6 38.468C38.6 36.76 37.326 35.71 35.548 35.71C33.77 35.71 32.51 36.76 32.51 38.468C32.51 39.336 32.874 40.106 33.574 40.596C32.692 41.17 32.258 42.066 32.258 43.116C32.258 44.964 33.616 46.21 35.548 46.21C37.48 46.21 38.852 44.964 38.852 43.116C38.852 42.066 38.404 41.156 37.536 40.596ZM35.548 36.914C36.57 36.914 37.27 37.432 37.27 38.468C37.27 39.504 36.57 40.022 35.548 40.022C34.526 40.022 33.826 39.504 33.826 38.468C33.826 37.432 34.526 36.914 35.548 36.914ZM35.548 45.02C34.372 45.02 33.574 44.348 33.574 43.116C33.574 41.884 34.358 41.212 35.548 41.212C36.738 41.212 37.536 41.884 37.536 43.116C37.536 44.348 36.724 45.02 35.548 45.02Z" fill="white"/>
<path d="M26.6 95.8313L32.2 101L29.4 96.2289L35 89.8675L29 83.1084L37 77.1446L30.6 68H21L29.4 75.1566L23 81.5181L30.6 89.4699L26.6 95.8313Z" fill="#E62B3E" fill-opacity="0.6"/>
</svg>
