<svg width="45" height="121" viewBox="0 0 45 121" fill="none" xmlns="http://www.w3.org/2000/svg">
<path d="M35.5 23.5C35.5 23.5 32.0287 13.8233 29 8C27.8971 5.87937 26.1633 2.94409 25.3923 1.65336C25.1342 1.22134 24.7829 0.855295 24.3642 0.576145C23.8007 0.20047 23.1386 0 22.4613 0H21.8724C21.2946 0 20.7206 0.09315 20.1724 0.275865L19.1764 0.607857C18.3983 0.867239 17.6722 1.26226 17.0317 1.77466C16.0301 2.57592 15.268 3.63737 14.8492 4.8497C14.4202 6.09155 13.8711 7.72701 13.5 9C12.5456 12.2738 11.5 17.5 11.5 17.5L9.5 24.5C9.5 24.5 7.48561 30.2363 6.5 34C5.31306 38.5325 4.22417 45.527 4.03049 46.7983C4.01 46.9327 3.99038 47.0673 3.97114 47.202L2 61L0.964672 66.6943C0.324602 70.2147 0.172039 73.8064 0.511275 77.3684L0.962059 82.1016C0.987352 82.3672 1.01491 82.6293 1.04797 82.894C1.25737 84.5707 2.14214 91.221 3.5 95.5C4.34047 98.1486 5.92662 101.667 6.82848 103.593C7.26943 104.534 7.76356 105.447 8.31702 106.327C9.45981 108.144 11.6082 111.418 13.5 113.5C15.8837 116.123 19.9759 119.184 21.6986 120.429C22.219 120.805 22.8442 121 23.4864 121C24.4431 121 25.3479 120.565 25.9456 119.818L31 113.5L35.3105 107.753C36.4354 106.253 37.4506 104.674 38.3484 103.028L40.5474 98.9965C42.1731 96.016 43.3387 92.8067 44.0045 89.4776C44.3344 87.8282 44.5402 86.1564 44.6202 84.4762L44.7516 81.7169C44.9165 78.2544 44.619 74.7854 43.867 71.4016L43 67.5L42.0616 63.7463C41.3561 60.9243 40.9757 58.0352 40.8448 55.1293C40.657 50.9581 40.2655 44.6397 39.5 40C39.0138 37.0529 38 32.5 38 32.5L35.5 23.5Z" fill="#E62B3E" fill-opacity="0.35"/>
<path d="M9.5 24.5L10.4435 24.8313C10.4501 24.8126 10.4561 24.7938 10.4615 24.7747L12.4615 17.7747C12.4689 17.7488 12.4753 17.7226 12.4806 17.6962L12.4806 17.696L12.4807 17.6954L12.4812 17.6928L12.4834 17.6819L12.4922 17.6384L12.5266 17.4689C12.5568 17.3209 12.6011 17.1055 12.6572 16.8366C12.7695 16.2986 12.9291 15.5472 13.1183 14.6943C13.4982 12.9825 13.9924 10.8839 14.46 9.27988C14.8239 8.03187 15.3661 6.41587 15.7944 5.17622C16.1495 4.14819 16.7977 3.24244 17.6564 2.55553C18.2047 2.11683 18.8264 1.77862 19.4927 1.55654L20.4886 1.22455C20.9348 1.07582 21.402 1 21.8724 1H22.4613C22.9412 1 23.4103 1.14203 23.8095 1.4082C24.1069 1.60646 24.3535 1.86431 24.5338 2.1662C25.3058 3.45848 27.0252 6.37029 28.1128 8.46142C29.6023 11.3253 31.2119 15.1607 32.456 18.302C33.0763 19.8681 33.6025 21.2533 33.9735 22.2469C34.159 22.7435 34.3056 23.142 34.4057 23.416C34.4557 23.553 34.4941 23.6588 34.52 23.7302L34.5465 23.8037L37.0294 32.7423L37.0352 32.7681L37.0679 32.9164C37.0964 33.0457 37.1377 33.2342 37.1888 33.4696C37.291 33.9404 37.4323 34.5989 37.5887 35.349C37.9024 36.8531 38.2738 38.711 38.5133 40.1628C39.2683 44.7387 39.6581 51.005 39.8458 55.1743C39.9793 58.137 40.3675 61.0932 41.0914 63.9888L42.0266 67.7297L42.8908 71.6185C43.6235 74.9156 43.9134 78.2956 43.7527 81.6693L43.6213 84.4287C43.5437 86.0589 43.344 87.681 43.0239 89.2814C42.3779 92.5117 41.2469 95.6257 39.6695 98.5177L37.4705 102.549C36.5958 104.153 35.6065 105.691 34.5105 107.153L30.2094 112.887L25.1647 119.193C24.7568 119.703 24.1393 120 23.4864 120C23.0464 120 22.6279 119.867 22.2845 119.619C20.555 118.368 16.5444 115.364 14.2401 112.828C12.4144 110.818 10.3075 107.614 9.16353 105.795C8.63323 104.952 8.1586 104.075 7.73407 103.169C6.83165 101.242 5.27161 97.7767 4.45316 95.1975C3.12735 91.0195 2.25119 84.459 2.04026 82.7701C2.00877 82.518 1.98225 82.2661 1.95755 82.0068L1.50677 77.2736C1.17623 73.8029 1.32488 70.3033 1.94854 66.8732L2.98387 61.1789C2.98613 61.1664 2.98816 61.1539 2.98995 61.1414L4.96109 47.3434C4.98008 47.2105 4.99922 47.0792 5.01908 46.9489C5.21395 45.6698 6.29588 38.7268 7.46738 34.2533C7.95197 32.4029 8.69388 30.0521 9.31948 28.1512C9.63138 27.2036 9.91267 26.3728 10.1159 25.779C10.2176 25.4822 10.2996 25.2448 10.3562 25.0818L10.4212 24.8951L10.438 24.8471L10.4422 24.8351L10.4432 24.8322L10.4435 24.8315L10.4435 24.8313L9.5 24.5Z" stroke="#E62B3E" stroke-opacity="0.6" stroke-width="2" stroke-linecap="round" stroke-linejoin="round"/>
<path d="M19.6 114.831L25.2 120L22.4 115.229L28 108.867L22 102.108L30 96.1446L23.6 87H14L22.4 94.1566L16 100.518L23.6 108.47L19.6 114.831Z" fill="#E62B3E" fill-opacity="0.6"/>
<path d="M19.868 27.884C20.904 26.96 21.408 26.302 21.408 24.972C21.408 23.124 19.994 21.71 18.118 21.71C16.186 21.71 14.758 23.054 14.758 24.958H16.032C16.018 23.852 16.9 22.9 18.104 22.9C19.266 22.9 20.134 23.796 20.134 24.958C20.134 25.602 19.924 26.176 19.182 26.848L14.716 30.866L14.702 31.986H21.408V30.796H16.62L19.868 27.884ZM26.2954 25.728L29.0114 23.11V21.92H23.0754V23.11H27.4714L24.1954 26.064L24.7974 27.058C25.1054 26.89 25.4974 26.792 25.8334 26.792C27.0514 26.792 27.8634 27.646 27.8634 28.892C27.8634 30.124 27.0794 30.978 25.8474 31.006C24.9514 31.02 24.1674 30.516 23.8734 29.578L22.6694 29.928C23.1034 31.328 24.3634 32.196 25.8614 32.196C27.7234 32.196 29.1514 30.824 29.1514 28.892C29.1514 27.128 28.0314 25.812 26.2954 25.728Z" fill="white"/>
</svg>
