<svg width="60" height="108" viewBox="0 0 60 108" fill="none" xmlns="http://www.w3.org/2000/svg">
<path d="M57.5 35C57.7813 33.7056 58.0397 32.2325 58.2706 30.733C59.3092 23.9885 58.6551 17.1203 57 10.5L55.5187 5.68564C55.1991 4.6471 54.3361 3.86722 53.2706 3.65412C52.7656 3.55312 52.243 3.58566 51.7545 3.74852L49.9283 4.35722C47.7102 5.09659 45.3055 5.05207 43.1163 4.23111L38.1179 2.35672C35.7199 1.45746 33.1992 0.927731 30.642 0.785667L30.3856 0.771423C27.2106 0.595035 24.0616 1.43074 21.3919 3.15821L21.254 3.24744C18.6094 4.95863 15.2676 5.17939 12.4209 3.83096C9.70154 2.54284 6.45266 3.69941 5.15898 6.41614L3.82496 9.21759C2.94417 11.0672 2.26338 13.0056 1.79415 14.9999C0.93954 18.632 0.799301 22.3956 1.38124 26.0812L1.46906 26.6374C1.822 28.8727 2.41365 31.0637 3.23386 33.1728L3.69147 34.3495C4.8932 37.4396 5.73677 40.6574 6.20566 43.9396L7 49.5L7.26824 55.133C7.42246 58.3717 7.2978 61.6176 6.89564 64.8349L6.71278 66.2978C6.23951 70.0839 6.24976 73.9148 6.74326 77.6983C7.24564 81.5499 8.24463 85.3202 9.71532 88.9152L9.97634 89.5533C11.3217 92.8418 13.0117 95.9786 15.018 98.911L18.5 104L20.4608 106.614C21.0093 107.346 22.0783 107.422 22.7248 106.775C22.9053 106.595 23.0368 106.371 23.1069 106.126L23.1323 106.037C23.5216 104.674 25.2314 104.231 26.2334 105.233L26.8141 105.814C27.2533 106.253 27.8489 106.5 28.47 106.5H29.0129C29.6343 106.5 30.2194 106.207 30.5922 105.71L30.7153 105.546C31.1783 104.929 31.9979 104.699 32.7143 104.986C33.4636 105.285 34.3204 105.019 34.7681 104.348L35 104L41 94C44.9666 86.0668 47.3166 77.4541 48.6787 68.6898C48.9349 67.0412 49.211 65.4338 49.5 64C50.7353 57.8718 51.8239 54.5225 53.5 48.5C54.9743 43.2027 56.3321 40.3732 57.5 35Z" fill="#E62B3E" fill-opacity="0.35"/>
<path d="M21.3919 3.15821L21.9351 3.99778C24.4271 2.38531 27.3665 1.60524 30.3301 1.76988L30.5865 1.78413C33.0426 1.92057 35.4636 2.42935 37.7668 3.29305L42.7652 5.16744C45.1689 6.06883 47.8092 6.11771 50.2446 5.3059L52.0707 4.6972C52.3941 4.58938 52.7402 4.56783 53.0745 4.6347C53.7799 4.77579 54.3513 5.29214 54.5629 5.97973L56.0363 10.7684C57.663 17.2863 58.2944 24.0077 57.2822 30.5808C57.0531 32.0689 56.7983 33.5203 56.5228 34.7876C55.9492 37.4267 55.3294 39.4409 54.6647 41.4667C54.5386 41.8511 54.4105 42.2369 54.2807 42.628C53.7266 44.2969 53.1402 46.063 52.5366 48.2319C52.185 49.4953 51.8584 50.6436 51.5504 51.7268C50.3967 55.7835 49.502 58.9292 48.5197 63.8024C48.2268 65.2556 47.9481 66.8787 47.6906 68.5362C46.3416 77.2163 44.0207 85.7113 40.1227 93.5185L34.1547 103.465L33.936 103.793C33.7507 104.071 33.396 104.181 33.0857 104.057C31.9494 103.603 30.6496 103.967 29.9153 104.946L29.7922 105.11L30.5922 105.71L29.7922 105.11C29.6083 105.356 29.3195 105.5 29.0129 105.5H28.47C28.1141 105.5 27.7729 105.359 27.5212 105.107L26.9405 104.526C25.3993 102.985 22.7695 103.667 22.1708 105.762L22.1454 105.851L23.1069 106.126L22.1454 105.851C22.122 105.933 22.078 106.008 22.0177 106.068L22.7248 106.775L22.0176 106.068C21.8015 106.284 21.4441 106.259 21.2608 106.014L19.313 103.417L15.8433 98.3463C13.8769 95.4722 12.2205 92.3978 10.9019 89.1747L10.6409 88.5366C9.20286 85.0215 8.22607 81.3349 7.73486 77.569C7.25233 73.8696 7.24231 70.1238 7.70505 66.4218L7.88791 64.959C8.29719 61.6847 8.42406 58.3814 8.26711 55.0854L7.99887 49.4524C7.99737 49.421 7.9944 49.3897 7.98995 49.3586L7.19561 43.7982C6.71591 40.4403 5.8529 37.1484 4.62348 33.987L4.16587 32.8103C3.37157 30.7679 2.79861 28.6461 2.45683 26.4814L2.36901 25.9252C1.80728 22.3677 1.94265 18.7348 2.76757 15.2289C3.22049 13.304 3.87763 11.4329 4.72782 9.64752L6.06184 6.84607C7.11842 4.62725 9.77186 3.68266 11.9928 4.7347C15.1526 6.23141 18.8618 5.98638 21.7972 4.08701L21.9351 3.99778L21.3919 3.15821Z" stroke="#E62B3E" stroke-opacity="0.6" stroke-width="2" stroke-linecap="round" stroke-linejoin="round"/>
<path d="M25.6059 18.728L28.3219 16.11V14.92H22.3859V16.11H26.7819L23.5059 19.064L24.1079 20.058C24.4159 19.89 24.8079 19.792 25.1439 19.792C26.3619 19.792 27.1739 20.646 27.1739 21.892C27.1739 23.124 26.3899 23.978 25.1579 24.006C24.2619 24.02 23.4779 23.516 23.1839 22.578L21.9799 22.928C22.4139 24.328 23.6739 25.196 25.1719 25.196C27.0339 25.196 28.4619 23.824 28.4619 21.892C28.4619 20.128 27.3419 18.812 25.6059 18.728ZM35.4266 19.596C36.1406 19.106 36.4906 18.35 36.4906 17.468C36.4906 15.76 35.2166 14.71 33.4386 14.71C31.6606 14.71 30.4006 15.76 30.4006 17.468C30.4006 18.336 30.7646 19.106 31.4646 19.596C30.5826 20.17 30.1486 21.066 30.1486 22.116C30.1486 23.964 31.5066 25.21 33.4386 25.21C35.3706 25.21 36.7426 23.964 36.7426 22.116C36.7426 21.066 36.2946 20.156 35.4266 19.596ZM33.4386 15.914C34.4606 15.914 35.1606 16.432 35.1606 17.468C35.1606 18.504 34.4606 19.022 33.4386 19.022C32.4166 19.022 31.7166 18.504 31.7166 17.468C31.7166 16.432 32.4166 15.914 33.4386 15.914ZM33.4386 24.02C32.2626 24.02 31.4646 23.348 31.4646 22.116C31.4646 20.884 32.2486 20.212 33.4386 20.212C34.6286 20.212 35.4266 20.884 35.4266 22.116C35.4266 23.348 34.6146 24.02 33.4386 24.02Z" fill="white"/>
<path d="M23.6 99.8313L29.2 105L26.4 100.229L32 93.8675L26 87.1084L34 81.1446L27.6 72H18L26.4 79.1566L20 85.5181L27.6 93.4699L23.6 99.8313Z" fill="#E62B3E" fill-opacity="0.6"/>
</svg>
