<svg width="35" height="118" viewBox="0 0 35 118" fill="none" xmlns="http://www.w3.org/2000/svg">
<path d="M11.4235 0.765566L17.0004 0.5H24.2626C25.0842 0.5 25.9021 0.609533 26.6947 0.825705C29.4149 1.56759 31.6477 3.5105 32.7584 6.10207L33.2344 7.21274C33.7416 8.39619 34.0508 9.65499 34.1495 10.9388L34.6275 17.1531C34.8755 20.3766 34.8064 23.6166 34.4212 26.8266L33.5004 34.5C31.8385 41.4797 30.9784 48.6205 30.6822 55.7892C30.6284 57.09 30.5679 58.3598 30.5004 59.5C30.0137 67.7237 29.3597 72.3068 28.5004 80.5C28.3013 82.3981 28.0513 84.6778 27.8128 86.819C27.2798 91.6041 26.501 96.3623 25.2124 101.001C24.554 103.372 23.7783 105.938 23.0004 108C21.8866 110.952 19.9713 114.982 19.0402 116.9C18.7112 117.577 18.0246 118 17.2717 118C16.4967 118 15.7931 117.551 15.4789 116.842C14.9198 115.582 14.0401 113.541 13.5004 112C12.5832 109.381 11.7426 105.622 11.3088 103.538C11.0956 102.514 10.9156 101.486 10.7533 100.452C10.4157 98.3027 9.8161 94.3561 9.50037 91.5C8.90371 86.1027 8.60326 78.1105 8.52288 75.708C8.50705 75.2349 8.49107 74.7651 8.4711 74.2921C8.36588 71.7997 7.98704 63.2697 7.50037 57.5L7.47912 57.2506C6.92046 50.7515 5.59075 44.3501 4.14431 37.9895C3.90668 36.9445 3.68528 35.9254 3.50037 35C2.65793 30.7842 1.86879 24.9925 1.41045 21.3745C1.12534 19.124 0.901772 16.8656 0.981503 14.5985C1.06899 12.1108 1.40882 8.78532 2.50037 6.5C2.75078 5.97573 3.08306 5.41762 3.44941 4.86557C5.19548 2.23442 8.26925 0.915768 11.4235 0.765566Z" fill="#B0D0D4"/>
<path opacity="0.6" d="M27 76.5C27 81.1944 23.1944 85 18.5 85C15.9758 85 13.7095 83.901 12.1513 82.1521C10.8124 80.6493 10 78.6707 10 76.5C10 71.8056 13.8056 68 18.5 68C20.9447 68 23.1471 69.0308 24.6991 70.6844C26.1269 72.2056 27 74.2498 27 76.5Z" stroke="white" stroke-width="2"/>
<path d="M15.3979 18.728L18.1139 16.11V14.92H12.1779V16.11H16.5739L13.2979 19.064L13.8999 20.058C14.2079 19.89 14.5999 19.792 14.9359 19.792C16.1539 19.792 16.9659 20.646 16.9659 21.892C16.9659 23.124 16.1819 23.978 14.9499 24.006C14.0539 24.02 13.2699 23.516 12.9759 22.578L11.7719 22.928C12.2059 24.328 13.4659 25.196 14.9639 25.196C16.8259 25.196 18.2539 23.824 18.2539 21.892C18.2539 20.128 17.1339 18.812 15.3979 18.728ZM21.8446 25H23.1046V14.92H21.8446L19.9406 16.054V17.44L21.8446 16.292V25Z" fill="white"/>
</svg>
