<svg width="61" height="130" viewBox="0 0 61 130" fill="none" xmlns="http://www.w3.org/2000/svg">
<path d="M51 35L47.5 21L44.5 13.5L41.5734 7.97203C40.5277 5.99678 39.266 4.14368 37.8115 2.44675L37.6964 2.31245C37.3795 1.94277 36.7834 2.04146 36.6026 2.49352C36.2045 3.4887 36 4.55069 36 5.62252V10.5L36.1519 13.8409C36.3825 18.9158 35.8194 23.9957 34.4827 28.8969C34.2182 29.8664 32.8379 29.8517 32.5942 28.8768L30 18.5L29.0433 11.803C28.6816 9.27087 28.5 6.71622 28.5 4.15835V3.66895C28.5 3.24784 28.3017 2.8513 27.9648 2.59863C27.2401 2.05509 26.1961 2.37381 25.8985 3.22942L23.7055 9.53431C23.3708 10.4964 21.9801 10.4007 21.7804 9.40191L21.07 5.85006C20.8521 4.76047 19.2857 4.78573 19.103 5.88178L19 6.5L16.5 16.5L12 32.5L8 48.5L2.5 78L1 95L0.423396 102.496C0.142966 106.141 0.452099 109.808 1.3389 113.356L1.41175 113.647C1.80329 115.213 2.31949 116.745 2.95542 118.229L5.53359 124.245C6.16423 125.717 7.20924 126.973 8.54129 127.861C10.131 128.921 12.0392 129.396 13.9403 129.206L14.6661 129.133C15.5516 129.045 16.4219 128.842 17.2552 128.529L21.234 127.037C23.0685 126.349 24.9924 125.929 26.9465 125.79L28.0764 125.709C30.0065 125.571 31.9449 125.815 33.7807 126.427C34.9226 126.808 36.1069 127.047 37.307 127.139L39.2155 127.286C41.0581 127.428 42.9114 127.251 44.6943 126.765L45.15 126.641C46.7041 126.217 48.3216 126.075 49.9259 126.221L51.6809 126.38C52.5491 126.459 53.4239 126.341 54.2402 126.035C55.9743 125.385 57.2932 123.945 57.7889 122.16L59.1305 117.33C59.3763 116.445 59.5438 115.54 59.6309 114.626L60.0249 110.489C60.3411 107.168 60.3921 103.828 60.1774 100.499L59.5 90L57 76L53.5 54.5L51 35Z" fill="#B0D0D4"/>
<path opacity="0.6" d="M38 107.5C38 112.194 34.1944 116 29.5 116C26.9758 116 24.7095 114.901 23.1513 113.152C21.8124 111.649 21 109.671 21 107.5C21 102.806 24.8056 99 29.5 99C31.9447 99 34.1471 100.031 35.6991 101.684C37.1269 103.206 38 105.25 38 107.5Z" stroke="white" stroke-width="2"/>
<path d="M30.2234 50.884C31.2594 49.96 31.7634 49.302 31.7634 47.972C31.7634 46.124 30.3494 44.71 28.4734 44.71C26.5414 44.71 25.1134 46.054 25.1134 47.958H26.3874C26.3734 46.852 27.2554 45.9 28.4594 45.9C29.6214 45.9 30.4894 46.796 30.4894 47.958C30.4894 48.602 30.2794 49.176 29.5374 49.848L25.0714 53.866L25.0574 54.986H31.7634V53.796H26.9754L30.2234 50.884ZM33.9768 55H35.3208L38.9468 46.11V44.92H33.0248V46.11H37.6028L33.9768 55Z" fill="white"/>
</svg>
