<svg width="57" height="140" viewBox="0 0 57 140" fill="none" xmlns="http://www.w3.org/2000/svg">
<path d="M40.0005 20.5C38.8412 16.3329 36.6272 11.0202 34.9983 7.3473C33.7127 4.44844 32.144 0.917312 29.0005 0.500025C24.9439 -0.0384587 22.5028 4.84537 20.7336 8.53531C19.9356 10.1997 19.1153 11.9849 18.5005 13.5C16.341 18.8214 15.3986 21.93 14.0005 27.5C12.2655 34.412 11.0005 45.5 11.0005 45.5L8.00047 72L7.3268 85.1366C7.11061 89.3523 6.22846 93.5072 4.71312 97.4471L4.50047 98C4.50047 98 1.60497 105.467 1.00047 110.5C0.277146 116.522 0.56796 120.106 2.00047 126C2.49548 128.037 3.43029 130.524 4.27178 132.566C5.33047 135.135 7.37797 137.143 9.8961 138.318C12.2702 139.426 14.8582 140 17.478 140H27.0005H44.5916C45.1941 140 45.7925 139.912 46.3575 139.703C47.9883 139.099 51.508 137.606 53.0005 135.5C53.3654 134.985 53.7264 134.319 54.0646 133.604C55.6161 130.321 56.1591 126.675 56.3426 123.049C56.4193 121.534 56.4832 119.917 56.5005 118.5C56.5266 116.356 56.1918 113.665 55.832 111.425C55.3565 108.465 54.457 105.596 53.3747 102.8L49.0005 91.5C49.0005 91.5 46.5825 83.6451 45.5005 78.5C43.121 67.1858 44.0958 60.5098 43.0005 49C41.9403 37.8589 42.9998 31.282 40.0005 20.5Z" fill="#B0D0D4"/>
<path opacity="0.6" d="M37 119.5C37 124.194 33.1944 128 28.5 128C25.9758 128 23.7095 126.901 22.1513 125.152C20.8124 123.649 20 121.671 20 119.5C20 114.806 23.8056 111 28.5 111C30.9447 111 33.1471 112.031 34.6991 113.684C36.1269 115.206 37 117.25 37 119.5Z" stroke="white" stroke-width="2"/>
<path d="M24.9685 39.884C26.0045 38.96 26.5085 38.302 26.5085 36.972C26.5085 35.124 25.0945 33.71 23.2185 33.71C21.2865 33.71 19.8585 35.054 19.8585 36.958H21.1325C21.1185 35.852 22.0005 34.9 23.2045 34.9C24.3665 34.9 25.2345 35.796 25.2345 36.958C25.2345 37.602 25.0245 38.176 24.2825 38.848L19.8165 42.866L19.8025 43.986H26.5085V42.796H21.7205L24.9685 39.884ZM29.954 44H31.214V33.92H29.954L28.05 35.054V36.44L29.954 35.292V44Z" fill="white"/>
</svg>
