<svg width="63" height="118" viewBox="0 0 63 118" fill="none" xmlns="http://www.w3.org/2000/svg">
<path d="M57 47.5L61.5 30.5L61.6342 29.829C62.5264 25.3682 62.133 20.7458 60.5 16.5L58.0852 10.463C57.6977 9.49425 57.1536 8.59583 56.4746 7.80367L55.2519 6.37726C54.7628 5.80657 54.1083 5.40207 53.3791 5.21977L53.1709 5.16772C52.7304 5.0576 52.2696 5.0576 51.8291 5.16772C50.9916 5.3771 50.1043 5.18346 49.4302 4.64416L47.1471 2.81771C46.0648 1.95187 44.7907 1.35814 43.4316 1.08632L42.5657 0.913149C41.1985 0.639707 39.7948 0.600744 38.4145 0.797925L35.6567 1.19191C34.2352 1.39497 32.8734 1.89873 31.662 2.66961C29.324 4.15743 26.4637 4.61592 23.7752 3.94379C22.605 3.65124 21.3862 3.5682 20.1873 3.70141L19.6619 3.75979C18.2304 3.91884 16.7826 3.84057 15.3766 3.52814L11.8849 2.7522C9.83813 2.29736 7.71974 3.12704 6.52629 4.85092C4.84905 7.27359 3.49024 9.90183 2.48327 12.671L2.39881 12.9033C0.814285 17.2607 0.0793805 21.8814 0.233848 26.5154L0.317273 29.0182C0.438715 32.6615 0.964346 36.28 1.8845 39.8073L3.5 46L5.5 63L7.47394 82.7394C7.82369 86.2369 8.53723 89.6884 9.60297 93.0379C10.8629 96.9975 12.6061 100.787 14.7932 104.32L18 109.5L20.688 113.196C21.1958 113.894 22.2904 113.664 22.4739 112.82L23.7787 106.818C23.9906 105.843 25.342 105.745 25.6922 106.679L28.5133 114.202C28.8061 114.983 29.5523 115.5 30.386 115.5H30.8944C31.2893 115.5 31.6753 115.617 32.0038 115.836L32.8495 116.4C33.7632 117.009 34.9972 116.767 35.6138 115.859L40.678 108.396C42.8883 105.138 44.8041 101.691 46.4028 98.0937C48.7903 92.7217 50.4529 87.0562 51.3468 81.2459L52 77L52.4391 68.8771C52.811 61.9968 54.1967 55.209 56.5515 48.7334L57 47.5Z" fill="#B0D0D4"/>
<path opacity="0.6" d="M37 85.5C37 90.1944 33.1944 94 28.5 94C25.9758 94 23.7095 92.901 22.1513 91.1521C20.8124 89.6493 20 87.6707 20 85.5C20 80.8056 23.8056 77 28.5 77C30.9447 77 33.1471 78.0308 34.6991 79.6844C36.1269 81.2056 37 83.2498 37 85.5Z" stroke="white" stroke-width="2"/>
<path d="M28.5752 26H29.8352V24.138H30.8852V22.962H29.8352V20.12H28.5752V22.962H25.3552L28.6872 15.92H27.2732L23.9412 22.962V24.138H28.5752V26ZM33.0931 26H34.4371L38.0631 17.11V15.92H32.1411V17.11H36.7191L33.0931 26Z" fill="white"/>
</svg>
