<svg width="47" height="119" viewBox="0 0 47 119" fill="none" xmlns="http://www.w3.org/2000/svg">
<path d="M41 34.5L35 10.5L33.9763 6.74638C33.6616 5.59255 33.1315 4.50865 32.4139 3.55187L31.7693 2.69236C30.9458 1.59435 29.7856 0.7959 28.4659 0.418842L27.9051 0.258591C27.3103 0.0886582 26.6835 0.0632908 26.077 0.184601C25.0673 0.386548 24.1791 0.981338 23.6079 1.83812L21.9492 4.3262C21.6501 4.77481 21.3841 5.2446 21.1533 5.73185L17 14.5L12.5 27L10 37.5L8.68045 50.0357C8.22921 54.3225 7.15788 58.5211 5.5 62.5L2.98034 71.4988C2.32768 73.8297 1.84926 76.2059 1.54903 78.6078L1.06124 82.5101C0.689844 85.4812 0.832028 88.4941 1.48158 91.4171C2.15513 94.4481 3.36365 97.3347 5.0504 99.9415L8 104.5L14.827 113.603C15.274 114.199 15.7915 114.738 16.3681 115.21C19.1864 117.516 23.0959 117.952 26.3529 116.324L26.6896 116.155C27.5584 115.721 28.3579 115.16 29.0622 114.491L33.2715 110.492C36.405 107.515 39.0602 104.072 41.1431 100.285C42.7091 97.438 43.9393 94.4187 44.8089 91.2878L44.8823 91.0238C45.6258 88.3472 46.1161 85.6066 46.3468 82.8383L46.5133 80.8398C46.8371 76.9543 46.8141 73.0477 46.4444 69.1663L46 64.5L43.5 50L41 34.5Z" fill="#B0D0D4"/>
<path opacity="0.6" d="M32 92.5C32 97.1944 28.1944 101 23.5 101C20.9758 101 18.7095 99.901 17.1513 98.1521C15.8124 96.6493 15 94.6707 15 92.5C15 87.8056 18.8056 84 23.5 84C25.9447 84 28.1471 85.0308 29.6991 86.6844C31.1269 88.2056 32 90.2498 32 92.5Z" stroke="white" stroke-width="2"/>
<path d="M21.9559 33H23.2159V22.92H21.9559L20.0519 24.054V25.44L21.9559 24.292V33ZM29.0854 26.728L31.8014 24.11V22.92H25.8654V24.11H30.2614L26.9854 27.064L27.5874 28.058C27.8954 27.89 28.2874 27.792 28.6234 27.792C29.8414 27.792 30.6534 28.646 30.6534 29.892C30.6534 31.124 29.8694 31.978 28.6374 32.006C27.7414 32.02 26.9574 31.516 26.6634 30.578L25.4594 30.928C25.8934 32.328 27.1534 33.196 28.6514 33.196C30.5134 33.196 31.9414 31.824 31.9414 29.892C31.9414 28.128 30.8214 26.812 29.0854 26.728Z" fill="white"/>
</svg>
