<svg width="60" height="108" viewBox="0 0 60 108" fill="none" xmlns="http://www.w3.org/2000/svg">
<path d="M57.5 35C57.7813 33.7056 58.0397 32.2325 58.2706 30.733C59.3092 23.9885 58.6551 17.1203 57 10.5L55.5187 5.68564C55.1991 4.6471 54.3361 3.86722 53.2706 3.65412C52.7656 3.55312 52.243 3.58566 51.7545 3.74852L49.9283 4.35722C47.7102 5.09659 45.3055 5.05207 43.1163 4.23111L38.1179 2.35672C35.7199 1.45746 33.1992 0.927731 30.642 0.785667L30.3856 0.771423C27.2106 0.595035 24.0616 1.43074 21.3919 3.15821L21.254 3.24744C18.6094 4.95863 15.2676 5.17939 12.4209 3.83096C9.70154 2.54284 6.45266 3.69941 5.15898 6.41614L3.82496 9.21759C2.94417 11.0672 2.26338 13.0056 1.79415 14.9999C0.93954 18.632 0.799301 22.3956 1.38124 26.0812L1.46906 26.6374C1.822 28.8727 2.41365 31.0637 3.23386 33.1728L3.69147 34.3495C4.8932 37.4396 5.73677 40.6574 6.20566 43.9396L7 49.5L7.26824 55.133C7.42246 58.3717 7.2978 61.6176 6.89564 64.8349L6.71278 66.2978C6.23951 70.0839 6.24976 73.9148 6.74326 77.6983C7.24564 81.5499 8.24463 85.3202 9.71532 88.9152L9.97634 89.5533C11.3217 92.8418 13.0117 95.9786 15.018 98.911L18.5 104L20.4608 106.614C21.0093 107.346 22.0783 107.422 22.7248 106.775C22.9053 106.595 23.0368 106.371 23.1069 106.126L23.1323 106.037C23.5216 104.674 25.2314 104.231 26.2334 105.233L26.8141 105.814C27.2533 106.253 27.8489 106.5 28.47 106.5H29.0129C29.6343 106.5 30.2194 106.207 30.5922 105.71L30.7153 105.546C31.1783 104.929 31.9979 104.699 32.7143 104.986C33.4636 105.285 34.3204 105.019 34.7681 104.348L35 104L41 94C44.9666 86.0668 47.3166 77.4541 48.6787 68.6898C48.9349 67.0412 49.211 65.4338 49.5 64C50.7353 57.8718 51.8239 54.5225 53.5 48.5C54.9743 43.2027 56.3321 40.3732 57.5 35Z" fill="#B0D0D4"/>
<path opacity="0.6" d="M37 79.5C37 84.1944 33.1944 88 28.5 88C25.9758 88 23.7095 86.901 22.1513 85.1521C20.8124 83.6493 20 81.6707 20 79.5C20 74.8056 23.8056 71 28.5 71C30.9447 71 33.1471 72.0308 34.6991 73.6844C36.1269 75.2056 37 77.2498 37 79.5Z" stroke="white" stroke-width="2"/>
<path d="M25.6059 20.728L28.3219 18.11V16.92H22.3859V18.11H26.7819L23.5059 21.064L24.1079 22.058C24.4159 21.89 24.8079 21.792 25.1439 21.792C26.3619 21.792 27.1739 22.646 27.1739 23.892C27.1739 25.124 26.3899 25.978 25.1579 26.006C24.2619 26.02 23.4779 25.516 23.1839 24.578L21.9799 24.928C22.4139 26.328 23.6739 27.196 25.1719 27.196C27.0339 27.196 28.4619 25.824 28.4619 23.892C28.4619 22.128 27.3419 20.812 25.6059 20.728ZM35.4266 21.596C36.1406 21.106 36.4906 20.35 36.4906 19.468C36.4906 17.76 35.2166 16.71 33.4386 16.71C31.6606 16.71 30.4006 17.76 30.4006 19.468C30.4006 20.336 30.7646 21.106 31.4646 21.596C30.5826 22.17 30.1486 23.066 30.1486 24.116C30.1486 25.964 31.5066 27.21 33.4386 27.21C35.3706 27.21 36.7426 25.964 36.7426 24.116C36.7426 23.066 36.2946 22.156 35.4266 21.596ZM33.4386 17.914C34.4606 17.914 35.1606 18.432 35.1606 19.468C35.1606 20.504 34.4606 21.022 33.4386 21.022C32.4166 21.022 31.7166 20.504 31.7166 19.468C31.7166 18.432 32.4166 17.914 33.4386 17.914ZM33.4386 26.02C32.2626 26.02 31.4646 25.348 31.4646 24.116C31.4646 22.884 32.2486 22.212 33.4386 22.212C34.6286 22.212 35.4266 22.884 35.4266 24.116C35.4266 25.348 34.6146 26.02 33.4386 26.02Z" fill="white"/>
</svg>
