<svg width="50" height="108" viewBox="0 0 50 108" fill="none" xmlns="http://www.w3.org/2000/svg">
<path d="M18.0001 3.5L22.7687 5.72532C24.4488 6.50938 26.4217 6.29408 27.9542 5.25056C29.5718 4.14911 31.7135 2.79082 33.5001 2C34.1691 1.7039 34.9681 1.40775 35.7615 1.13755C38.1013 0.340707 40.7703 0.734349 42.5001 2.5C42.7018 2.70584 42.9041 2.93238 43.1047 3.17323C45.8026 6.41165 47.4358 10.4216 48.5001 14.5C50.1994 21.0112 49.566 27.8645 48.7048 34.5385L48.0001 40C47.3349 43.3263 46.3662 46.5847 45.1064 49.7343L44.3959 51.5106C44.132 52.1702 43.8593 52.8247 43.5816 53.4785C42.7874 55.3485 41.0477 59.5091 40.0001 62.5C37.905 68.4815 35.8595 77.5455 35.2112 80.5181L35.1751 80.6838C35.0438 81.2861 34.9134 81.8839 34.7774 82.4861L31.5001 97L29.9789 103.085C29.6717 104.313 28.9001 105.375 27.8262 106.046L27.3243 106.36C26.1912 107.068 24.7712 107.136 23.576 106.538C22.8756 106.188 22.2991 105.631 21.9241 104.944L20.3301 102.022C19.7787 101.011 19.3502 99.9378 19.0535 98.8253L18.1713 95.5168C17.7242 93.8405 17.3811 92.1405 17.1205 90.4253C16.6559 87.3673 15.8283 82.2138 15.0001 78.5C14.174 74.7952 12.7452 69.8237 11.8377 66.7696C11.2877 64.9188 10.6735 63.0926 10.0195 61.276L6.50012 51.5L5.07745 47.5481C3.03399 41.8719 1.71074 35.9615 1.13877 29.9558C1.04635 28.9854 0.972505 28.0134 0.934609 27.0393C0.84521 24.7414 0.725392 20.2131 1.00012 17C1.06121 16.2856 1.15364 15.4976 1.26323 14.6904C1.9165 9.87788 2.49806 4.25142 6.50012 1.5C8.53451 0.101356 11.2385 0.541781 13.5003 1.53132L18.0001 3.5Z" fill="#B0D0D4"/>
<path opacity="0.6" d="M34 71.5C34 76.1944 30.1944 80 25.5 80C22.9758 80 20.7095 78.901 19.1513 77.1521C17.8124 75.6493 17 73.6707 17 71.5C17 66.8056 20.8056 63 25.5 63C27.9447 63 30.1471 64.0308 31.6991 65.6844C33.1269 67.2056 34 69.2498 34 71.5Z" stroke="white" stroke-width="2"/>
<path d="M22.5967 25H23.8567V23.138H24.9067V21.962H23.8567V19.12H22.5967V21.962H19.3767L22.7087 14.92H21.2947L17.9627 21.962V23.138H22.5967V25ZM29.7465 18.504C29.0605 18.504 28.3745 18.742 27.8565 19.162L28.0525 16.096H32.3365V14.92H26.9185L26.6105 20.184L27.7165 20.604C28.0805 20.086 28.7105 19.652 29.6065 19.652C30.7825 19.652 31.7765 20.604 31.7765 21.822C31.7765 23.012 30.8245 23.992 29.6065 23.992C28.6685 23.992 27.7585 23.376 27.5065 22.382L26.3025 22.704C26.7085 24.174 28.0105 25.21 29.5645 25.21C31.4405 25.21 33.0365 23.684 33.0365 21.822C33.0365 19.946 31.6085 18.504 29.7465 18.504Z" fill="white"/>
</svg>
