<svg width="34" height="119" viewBox="0 0 34 119" fill="none" xmlns="http://www.w3.org/2000/svg">
<path d="M10.6353 0.5H16.5L22.4251 0.151462C24.1121 0.0522295 25.7955 0.397768 27.307 1.1535C29.6656 2.33279 31.4388 4.42596 32.2142 6.94631L32.528 7.96615C32.8413 8.98429 33.0193 10.0392 33.0573 11.1038L33.2529 16.5824C33.417 21.1751 32.9883 25.7686 31.99 30.2544C31.4867 32.5161 30.9421 34.9751 30.5 37L30.3705 37.5941C28.4324 46.4996 27.6486 55.6016 27.2034 64.7047C27.147 65.8583 27.0799 66.9742 27 68C26.6033 73.0951 25.9789 75.912 25.5 81C24.9863 86.4571 25.3135 89.5794 24.5 95C23.9731 98.5109 22.7685 103.46 22.2476 105.53C22.0843 106.179 21.9274 106.827 21.7822 107.48L20.0985 115.057C20.0332 115.351 19.9241 115.633 19.7748 115.894L19.632 116.144C18.7809 117.633 16.7908 117.992 15.473 116.894C15.1615 116.635 14.9111 116.309 14.7396 115.942L12.5045 111.153C11.8362 109.72 11.2977 108.231 10.8955 106.703L9 99.5L7.49633 90.1021C7.16549 88.0343 6.88424 85.965 6.66738 83.8822C6.19252 79.3214 5.34014 70.7006 5 64.5C4.88348 62.3759 4.79107 59.8795 4.71904 57.448C4.51307 50.4953 3.90121 43.557 2.7094 36.7041L2.5 35.5L1.60685 29.9178C0.870744 25.3172 0.590188 20.6551 0.769255 15.9994L0.920329 12.0715C0.973348 10.693 1.14286 9.32141 1.42706 7.97148C2.34378 3.61704 6.18537 0.5 10.6353 0.5Z" fill="#B0D0D4"/>
<path opacity="0.6" d="M24 75.5C24 80.1944 20.1944 84 15.5 84C12.9758 84 10.7095 82.901 9.1513 81.1521C7.8124 79.6493 7 77.6707 7 75.5C7 70.8056 10.8056 67 15.5 67C17.9447 67 20.1471 68.0308 21.6991 69.6844C23.1269 71.2056 24 73.2498 24 75.5Z" stroke="white" stroke-width="2"/>
<path d="M15.8203 25H17.0803V23.138H18.1303V21.962H17.0803V19.12H15.8203V21.962H12.6003L15.9323 14.92H14.5183L11.1863 21.962V23.138H15.8203V25ZM21.5702 25H22.8302V14.92H21.5702L19.6662 16.054V17.44L21.5702 16.292V25Z" fill="white"/>
</svg>
