<svg width="59" height="118" viewBox="0 0 59 118" fill="none" xmlns="http://www.w3.org/2000/svg">
<path d="M2.22534 40.6197L2.14142 40.3889C2.04715 40.1297 1.95444 39.8716 1.86641 39.6102C1.55082 38.6729 0.765788 36.2424 0.500012 34.5C0.287013 33.1037 0.279452 31.3099 0.328719 29.8267C0.391418 27.9392 0.625505 26.0656 0.932045 24.2021C1.3003 21.9634 1.8691 18.8249 2.50001 16.5C2.8146 15.3408 3.26283 13.9483 3.69309 12.6795C4.51397 10.2589 6.08686 8.19511 8.00001 6.50004L8.07144 6.43675C10.7534 4.06032 13.6072 1.53155 17.1686 1.17566C18.649 1.02772 20.1943 0.937621 21.5 1.00004C25.5753 1.19486 29.7329 4.2072 33.7897 3.77256L41 3.00004L45.6635 1.83418C47.6731 1.33178 49.7844 2.12057 50.9723 3.81758L52.5 6.00004L54.4119 9.44143C56.454 13.1173 57.8195 17.13 58.4433 21.2885C58.8134 23.7558 58.9344 26.2558 58.6693 28.7366C58.4282 30.9926 58.0472 33.8392 57.5 36C56.6359 39.4125 55.3662 41.0882 54.5 44.5C54.2375 45.5339 53.9693 46.8949 53.7768 47.9359C53.5842 48.9775 53.4269 50.0171 53.2811 51.0662C52.7385 54.968 51.317 65.3236 50.5 72.5C50.4095 73.2949 50.3148 74.1527 50.2189 75.0401C49.36 82.9879 47.8276 90.8524 45.5 98.5L41.8804 107.549C41.6274 108.182 41.3145 108.789 40.9461 109.362L37.7595 114.319C37.3014 115.031 36.4536 115.391 35.6228 115.225C34.9246 115.085 34.348 114.595 34.098 113.928L33.5747 112.532C33.2593 111.692 32.3143 111.274 31.4805 111.608C30.8857 111.846 30.2063 111.706 29.7533 111.253L28.4547 109.955C28.158 109.658 27.9537 109.282 27.8666 108.871L27.723 108.194C27.4335 106.829 25.4102 107.108 25.5 108.5L25.9099 113.009C25.9681 113.648 25.7948 114.287 25.4218 114.81C24.4318 116.196 22.4168 116.318 21.2658 115.063L18.319 111.848C18.1066 111.616 17.9138 111.372 17.7413 111.109C16.923 109.864 14.3651 105.901 13 103C12.8095 102.595 12.6206 102.165 12.4347 101.718C9.55883 94.7974 8.72166 87.2423 8.16806 79.7687L8.00001 77.5L7.00001 62C6.33613 54.6973 4.73128 47.511 2.22534 40.6197Z" fill="#B0D0D4"/>
<path opacity="0.6" d="M38 80.5C38 85.1944 34.1944 89 29.5 89C26.9758 89 24.7095 87.901 23.1513 86.1521C21.8124 84.6493 21 82.6707 21 80.5C21 75.8056 24.8056 72 29.5 72C31.9447 72 34.1471 73.0308 35.6991 74.6844C37.1269 76.2056 38 78.2498 38 80.5Z" stroke="white" stroke-width="2"/>
<path d="M26.394 21.728L29.11 19.11V17.92H23.174V19.11H27.57L24.294 22.064L24.896 23.058C25.204 22.89 25.596 22.792 25.932 22.792C27.15 22.792 27.962 23.646 27.962 24.892C27.962 26.124 27.178 26.978 25.946 27.006C25.05 27.02 24.266 26.516 23.972 25.578L22.768 25.928C23.202 27.328 24.462 28.196 25.96 28.196C27.822 28.196 29.25 26.824 29.25 24.892C29.25 23.128 28.13 21.812 26.394 21.728ZM34.6607 21.504C33.7647 21.504 32.9387 21.896 32.3507 22.54V21.182C32.3507 19.978 33.2887 18.9 34.6327 18.9C35.3747 18.9 36.0467 19.278 36.4527 19.852L37.3907 19.026C36.7327 18.186 35.7387 17.71 34.6327 17.71C32.5607 17.71 31.0767 19.208 31.0767 21.322V24.668C31.0767 26.698 32.5887 28.21 34.5207 28.21C36.3967 28.21 37.9507 26.712 37.9507 24.836C37.9507 22.96 36.5367 21.504 34.6607 21.504ZM34.5207 27.006C33.3167 27.006 32.3507 26.026 32.3507 24.836C32.3507 23.632 33.3167 22.652 34.5207 22.652C35.7247 22.652 36.6907 23.632 36.6907 24.836C36.6907 26.04 35.7247 27.006 34.5207 27.006Z" fill="white"/>
</svg>
