<svg width="61" height="108" viewBox="0 0 61 108" fill="none" xmlns="http://www.w3.org/2000/svg">
<path d="M0.999952 28C0.82932 26.5528 0.753016 24.8742 0.731929 23.2027C0.659142 17.433 2.11272 11.7799 4.29751 6.4393L5.3206 3.93842C5.43955 3.64764 5.5996 3.37543 5.79586 3.13011C6.78381 1.89517 8.51147 1.53947 9.9069 2.2837L12.4421 3.63579C14.0172 4.47588 15.9267 4.3822 17.412 3.39196C17.8019 3.13203 18.2274 2.93 18.6753 2.7922L22.3522 1.66084C23.7802 1.22147 25.2499 0.931819 26.7378 0.796558C28.9001 0.599982 31.0798 0.731392 33.2028 1.18633L34.3238 1.42653C36.1008 1.80732 37.8225 2.41126 39.4479 3.22399L41.9869 4.49348C43.3107 5.1554 44.7705 5.5 46.2506 5.5C47.08 5.5 47.9058 5.39178 48.7071 5.17809L52.2014 4.24629C53.7878 3.82324 55.4357 4.67642 56.0059 6.21607L59.0193 14.3522C59.6709 16.1115 60.1203 17.9625 60.353 19.8241C60.7761 23.2089 60.4812 26.6858 59.4781 29.946C59.1597 30.9808 58.771 31.9915 58.3332 32.9817C57.4355 35.0121 55.8528 38.7231 55 41.5C53.9988 44.7598 53.5736 46.6385 53 50C52.1762 54.8274 52.087 57.6036 52 62.5C51.9574 64.8948 52.0887 67.9731 52.2274 70.4123C52.382 73.1318 52.3056 75.8607 51.9203 78.5573C51.6405 80.5159 51.2034 82.4488 50.6133 84.3373L50.5076 84.6755C49.5063 87.8798 48.1174 90.9499 46.3718 93.8176L45.4612 95.3137C43.1619 99.091 40.4197 102.58 37.2928 105.707L36.7883 106.212C36.1545 106.845 35.086 106.672 34.6851 105.87C34.2404 104.981 34.0961 103.971 34.274 102.993L35 99L35.5513 95.5083C36.1796 91.5288 36.1623 87.474 35.5 83.5L33.8929 91.8568C33.2994 94.9427 32.3643 97.9529 31.1048 100.832L29.9884 103.383C29.6712 104.108 29.1289 104.712 28.4418 105.105C27.0001 105.928 25.1854 105.685 24.0113 104.511L23.4835 103.984C23.1629 103.663 22.8907 103.297 22.6757 102.898L16 90.5C13.6802 84.2035 11.8807 77.6856 10.634 71.0922C10.0827 68.1764 9.4948 65.0793 8.99995 62.5C7.6507 55.4672 7.13561 51.4718 5.49995 44.5C3.97441 37.9976 1.78201 34.633 0.999952 28Z" fill="#B0D0D4"/>
<path d="M27.5283 26H28.7883V24.138H29.8383V22.962H28.7883V20.12H27.5283V22.962H24.3083L27.6403 15.92H26.2263L22.8943 22.962V24.138H27.5283V26ZM36.6522 20.596C37.3662 20.106 37.7162 19.35 37.7162 18.468C37.7162 16.76 36.4422 15.71 34.6642 15.71C32.8862 15.71 31.6262 16.76 31.6262 18.468C31.6262 19.336 31.9902 20.106 32.6902 20.596C31.8082 21.17 31.3742 22.066 31.3742 23.116C31.3742 24.964 32.7322 26.21 34.6642 26.21C36.5962 26.21 37.9682 24.964 37.9682 23.116C37.9682 22.066 37.5202 21.156 36.6522 20.596ZM34.6642 16.914C35.6862 16.914 36.3862 17.432 36.3862 18.468C36.3862 19.504 35.6862 20.022 34.6642 20.022C33.6422 20.022 32.9422 19.504 32.9422 18.468C32.9422 17.432 33.6422 16.914 34.6642 16.914ZM34.6642 25.02C33.4882 25.02 32.6902 24.348 32.6902 23.116C32.6902 21.884 33.4742 21.212 34.6642 21.212C35.8542 21.212 36.6522 21.884 36.6522 23.116C36.6522 24.348 35.8402 25.02 34.6642 25.02Z" fill="white"/>
<path opacity="0.6" d="M39 68.5C39 73.1944 35.1944 77 30.5 77C27.9758 77 25.7095 75.901 24.1513 74.1521C22.8124 72.6493 22 70.6707 22 68.5C22 63.8056 25.8056 60 30.5 60C32.9447 60 35.1471 61.0308 36.6991 62.6844C38.1269 64.2056 39 66.2498 39 68.5Z" stroke="white" stroke-width="2"/>
</svg>
