<svg width="59" height="118" viewBox="0 0 59 118" fill="none" xmlns="http://www.w3.org/2000/svg">
<path d="M54 65.5L57 80.5L58.5 92L58.8136 98.5855C58.9368 101.173 58.5798 103.761 57.7607 106.218L57.7075 106.378C57.2368 107.79 56.6415 109.157 55.9287 110.464L55.5025 111.246C54.6365 112.833 52.7465 113.558 51.0413 112.956C47.4757 111.697 43.5691 111.813 40.0842 113.28L38.7619 113.837C36.939 114.605 34.9811 115 33.0032 115C30.6994 115 28.4272 114.464 26.3666 113.433L24.2186 112.359C22.5269 111.513 20.5192 111.597 18.9037 112.58L11.7226 116.951C10.7269 117.558 9.43961 117.36 8.67203 116.482C7.23394 114.839 6.07799 112.968 5.25111 110.947L2 103L1.82195 102.332C0.6197 97.8239 0.340129 93.1191 1 88.5L3.00056 81.4981C3.66577 79.1698 4.14215 76.7917 4.42507 74.3869C4.80722 71.1386 5.54204 67.9416 6.61652 64.8525L6.7142 64.5717C8.23006 60.2136 9.10642 55.6588 9.31594 51.0493L9.5 47V39.245C9.5 35.0888 9.84339 30.9396 10.5267 26.8399C11.1746 22.9526 12.126 19.122 13.3722 15.3833L13.7596 14.2212C14.5855 11.7435 15.5862 9.32759 16.7542 6.9916L18.5778 3.34433C18.8442 2.8116 19.3416 2.43168 19.9257 2.31487C20.838 2.13239 21.7507 2.6268 22.0963 3.49068L23.8901 7.97529C24.0889 8.47217 24.8041 8.43559 24.9511 7.92102L26.1368 3.77106C26.3766 2.93206 26.7807 2.14911 27.3258 1.46776C28.0534 0.558213 29.2077 0.101096 30.3608 0.265822L30.7575 0.322504C31.5357 0.433667 32.2098 0.919524 32.5613 1.62258L33.3509 3.20184C33.4365 3.37292 33.6348 3.45507 33.8162 3.39459L34.3262 3.2246C35.6096 2.79679 37.0206 3.28091 37.771 4.40655L38.3623 5.29348C39.7855 7.42823 41.0485 9.66551 42.1409 11.987C46.3623 20.9575 49.3981 30.4394 51.1716 40.1936L52.5 47.5L54 65.5Z" fill="#B0D0D4"/>
<path opacity="0.6" d="M38 95.5C38 100.194 34.1944 104 29.5 104C26.9758 104 24.7095 102.901 23.1513 101.152C21.8124 99.6493 21 97.6707 21 95.5C21 90.8056 24.8056 87 29.5 87C31.9447 87 34.1471 88.0308 35.6991 89.6844C37.1269 91.2056 38 93.2498 38 95.5Z" stroke="white" stroke-width="2"/>
<path d="M26.0526 31H27.3126V20.92H26.0526L24.1486 22.054V23.44L26.0526 22.292V31ZM33.5601 24.504C32.6641 24.504 31.8381 24.896 31.2501 25.54V24.182C31.2501 22.978 32.1881 21.9 33.5321 21.9C34.2741 21.9 34.9461 22.278 35.3521 22.852L36.2901 22.026C35.6321 21.186 34.6381 20.71 33.5321 20.71C31.4601 20.71 29.9761 22.208 29.9761 24.322V27.668C29.9761 29.698 31.4881 31.21 33.4201 31.21C35.2961 31.21 36.8501 29.712 36.8501 27.836C36.8501 25.96 35.4361 24.504 33.5601 24.504ZM33.4201 30.006C32.2161 30.006 31.2501 29.026 31.2501 27.836C31.2501 26.632 32.2161 25.652 33.4201 25.652C34.6241 25.652 35.5901 26.632 35.5901 27.836C35.5901 29.04 34.6241 30.006 33.4201 30.006Z" fill="white"/>
</svg>
