<svg width="55" height="144" viewBox="0 0 55 144" fill="none" xmlns="http://www.w3.org/2000/svg">
<path d="M48.9998 90.5C50.6175 98.4373 53.4496 102.468 54.4998 110.5C55.4871 118.051 54.4998 130 54.4998 130C54.4998 130 53.8612 136.145 51.4998 139C47.7776 143.5 41.0252 143.5 35.1838 143.5H35.1701H28.9998H18.4344C14.4891 143.5 10.397 143.392 6.90958 141.547C6.58321 141.374 6.27599 141.192 5.99981 141C3.84171 139.502 3.25432 138.308 1.99995 136C-0.152595 132.039 0.462782 129.008 0.499807 124.5C0.533638 120.381 0.925684 118.079 1.49981 114C3.34288 100.906 8.92502 94.5594 10.9998 81.5C12.6874 70.8778 11.4959 64.7084 12.4998 54C13.4742 43.6068 13.0463 37.5122 15.9998 27.5C17.7236 21.6563 21.3512 12.898 23.9701 6.8426C25.2393 3.90776 29.219 3.66466 30.8202 6.43242C34.2841 12.42 39.1901 21.3244 41.4998 27.5C45.177 37.3319 44.6211 43.5939 45.9998 54C47.8783 68.1783 46.1437 76.4859 48.9998 90.5Z" fill="#B0D0D4"/>
<path opacity="0.6" d="M20.5221 127.355C19.5622 125.979 19 124.306 19 122.5C19 117.806 22.8056 114 27.5 114C29.5794 114 31.4835 114.746 32.9611 115.986L20.5221 127.355ZM21.8503 128.851L34.3324 117.442C35.3807 118.856 36 120.605 36 122.5C36 127.194 32.1944 131 27.5 131C25.3311 131 23.3527 130.189 21.8503 128.851Z" stroke="white" stroke-width="2"/>
<path d="M25.0495 47H26.3165V36.92H25.0495L23.1525 38.054V39.447L25.0495 38.299V47ZM30.737 47H32.004V36.92H30.737L28.84 38.054V39.447L30.737 38.299V47Z" fill="white"/>
</svg>
