<svg width="57" height="117" viewBox="0 0 57 117" fill="none" xmlns="http://www.w3.org/2000/svg">
<path d="M46 37L45.951 36.694C44.6541 28.588 42.4914 20.6446 39.5 13L34.4366 3.29506C34.0533 2.56048 32.9942 2.58392 32.6438 3.33474L30.7367 7.4213C30.4102 8.1209 29.4478 8.20238 29.0084 7.56762L25.861 3.02145C25.6406 2.70313 25.2563 2.54062 24.8744 2.60426L23.2285 2.87858C22.7955 2.95075 22.366 2.73206 22.1697 2.3394L21.2514 0.502721C21.1125 0.225076 20.7749 0.112538 20.4973 0.251361C18.8573 1.07133 17.4429 2.27999 16.3772 3.77198L16.2581 3.93866C15.7542 4.64416 15.3277 5.40193 14.9862 6.19883L12.5 12L9.5 21L7.5 30.5L6.5 42.5L6.13049 57.2804C6.0437 60.752 5.62068 64.2069 4.86736 67.5969L4.59936 68.8029C4.20034 70.5985 3.66848 72.362 3.00818 74.0787L2.85353 74.4808C1.95404 76.8195 1.32113 79.2521 0.966772 81.7326C0.65635 83.9055 0.561325 86.1039 0.683083 88.2955L0.764699 89.7646C0.921263 92.5827 1.32511 95.3817 1.97157 98.1292L3 102.5L4.24991 107.5C4.41614 108.165 4.65464 108.809 4.96115 109.422L5.62764 110.755C6.19091 111.882 7.13526 112.772 8.29294 113.268C9.39833 113.742 10.6315 113.828 11.7918 113.511L15.5 112.5L15.8098 112.387C19.2555 111.134 22.8486 110.332 26.5 110H26.7404C29.8045 110 32.7602 111.134 35.0378 113.184C36.0065 114.056 37.1067 114.77 38.2977 115.299L39.9078 116.015C40.6279 116.335 41.4072 116.5 42.1952 116.5C43.369 116.5 44.5135 116.133 45.4687 115.451L46.0652 115.025C47.0102 114.35 47.7951 113.475 48.3645 112.463L52 106L53.9325 102.135C54.9707 100.059 55.6674 97.8284 55.9957 95.5302C56.3296 93.1925 56.278 90.816 55.8428 88.4951L55.5336 86.846C55.1786 84.9526 54.6521 83.0954 53.9606 81.2974L52.6324 77.8441C50.8819 73.293 49.5961 68.5766 48.7945 63.7669L47 53L46 37Z" fill="#B0D0D4"/>
<path opacity="0.6" d="M37 94.5C37 99.1944 33.1944 103 28.5 103C25.9758 103 23.7095 101.901 22.1513 100.152C20.8124 98.6493 20 96.6707 20 94.5C20 89.8056 23.8056 86 28.5 86C30.9447 86 33.1471 87.0308 34.6991 88.6844C36.1269 90.2056 37 92.2498 37 94.5Z" stroke="white" stroke-width="2"/>
<path d="M24.9646 29.884C26.0006 28.96 26.5046 28.302 26.5046 26.972C26.5046 25.124 25.0906 23.71 23.2146 23.71C21.2826 23.71 19.8546 25.054 19.8546 26.958H21.1286C21.1146 25.852 21.9966 24.9 23.2006 24.9C24.3626 24.9 25.2306 25.796 25.2306 26.958C25.2306 27.602 25.0206 28.176 24.2786 28.848L19.8126 32.866L19.7986 33.986H26.5046V32.796H21.7166L24.9646 29.884ZM31.7701 27.504C30.8741 27.504 30.0481 27.896 29.4601 28.54V27.182C29.4601 25.978 30.3981 24.9 31.7421 24.9C32.4841 24.9 33.1561 25.278 33.5621 25.852L34.5001 25.026C33.8421 24.186 32.8481 23.71 31.7421 23.71C29.6701 23.71 28.1861 25.208 28.1861 27.322V30.668C28.1861 32.698 29.6981 34.21 31.6301 34.21C33.5061 34.21 35.0601 32.712 35.0601 30.836C35.0601 28.96 33.6461 27.504 31.7701 27.504ZM31.6301 33.006C30.4261 33.006 29.4601 32.026 29.4601 30.836C29.4601 29.632 30.4261 28.652 31.6301 28.652C32.8341 28.652 33.8001 29.632 33.8001 30.836C33.8001 32.04 32.8341 33.006 31.6301 33.006Z" fill="white"/>
</svg>
