<svg width="34" height="116" viewBox="0 0 34 116" fill="none" xmlns="http://www.w3.org/2000/svg">
<path d="M9.17436 0.88856L18.4998 0.5H22.6361C24.1905 0.5 25.7236 0.861916 27.114 1.55709C29.5929 2.79654 31.4701 5.00313 32.1065 7.70058C32.4788 9.27876 32.8402 11.0422 32.9998 12.5C33.5314 17.3564 33.0647 20.1473 32.4998 25C31.7602 31.3532 30.2974 34.7369 28.9998 41C27.6232 47.6447 27.0482 54.4187 26.5966 61.1894C26.5663 61.6432 26.5341 62.0826 26.4998 62.5C26.2765 65.2187 25.8333 68.6234 25.4207 71.5016C24.8467 75.5052 24.3739 79.5207 23.9586 83.5438C23.6182 86.8408 23.1248 90.8749 22.4998 94C21.9386 96.8059 20.912 100.676 20.3652 102.679C20.1243 103.562 19.9005 104.447 19.702 105.34L18.1407 112.366C18.0474 112.786 17.887 113.188 17.6657 113.557L17.0941 114.51C16.7254 115.124 16.0614 115.5 15.3448 115.5C14.8038 115.5 14.2849 115.285 13.9023 114.903L13.1895 114.19C12.4079 113.408 11.826 112.45 11.4931 111.396L9.32561 104.532C9.10852 103.844 8.9232 103.149 8.77357 102.444C8.28127 100.124 7.1083 94.4721 6.4998 90.5C5.21122 82.0885 4.63558 69.3378 4.52146 66.5506C4.5062 66.1778 4.49462 65.8135 4.48426 65.4406L4.25759 57.2801C4.08595 51.1012 3.43745 44.9486 2.57943 38.8272C2.14264 35.711 1.71931 32.3094 1.4998 29.5C1.07366 24.0458 0.672571 20.961 0.999804 15.5C1.15602 12.893 1.66832 9.43536 2.05103 7.09784C2.32713 5.41149 3.19924 3.88799 4.48525 2.76273C5.78904 1.62191 7.44342 0.960683 9.17436 0.88856Z" fill="#B0D0D4"/>
<path opacity="0.6" d="M23 71.5C23 76.1944 19.1944 80 14.5 80C11.9758 80 9.70954 78.901 8.1513 77.1521C6.8124 75.6493 6 73.6707 6 71.5C6 66.8056 9.80558 63 14.5 63C16.9447 63 19.1471 64.0308 20.6991 65.6844C22.1269 67.2056 23 69.2498 23 71.5Z" stroke="white" stroke-width="2"/>
<path d="M14.6104 25H15.8704V23.138H16.9204V21.962H15.8704V19.12H14.6104V21.962H11.3904L14.7224 14.92H13.3084L9.97637 21.962V23.138H14.6104V25ZM23.4822 20.884C24.5182 19.96 25.0222 19.302 25.0222 17.972C25.0222 16.124 23.6082 14.71 21.7322 14.71C19.8002 14.71 18.3722 16.054 18.3722 17.958H19.6462C19.6322 16.852 20.5142 15.9 21.7182 15.9C22.8802 15.9 23.7482 16.796 23.7482 17.958C23.7482 18.602 23.5382 19.176 22.7962 19.848L18.3302 23.866L18.3162 24.986H25.0222V23.796H20.2342L23.4822 20.884Z" fill="white"/>
</svg>
