<svg width="57" height="101" viewBox="0 0 57 101" fill="none" xmlns="http://www.w3.org/2000/svg">
<path d="M4.5 43.5C3.04967 52.5634 1.58717 65.9542 1.13898 70.1755C1.04465 71.064 0.977678 71.9464 0.933058 72.8388L0.790141 75.6972C0.598085 79.5383 1.05422 83.3843 2.13941 87.074L2.68221 88.9195C2.89365 89.6384 3.16855 90.3371 3.50367 91.0073L4.57295 93.1459C6.06041 96.1208 9.101 98 12.4271 98C13.7903 98 15.1348 97.6826 16.3541 97.073L17.5486 96.4757C18.182 96.159 18.7913 95.7961 19.3714 95.39L20.9101 94.3129C22.5958 93.1329 24.6037 92.5 26.6614 92.5C28.5173 92.5 30.3369 93.015 31.9175 93.9877L36 96.5L41.9627 99.1832C44.4465 100.301 47.3447 99.9541 49.4946 98.282C50.1599 97.7645 50.7313 97.1365 51.1838 96.4255L52.184 94.8537C53.3843 92.9676 54.2249 90.8754 54.6634 88.6831L55.1434 86.283C55.3809 85.0953 55.5502 83.8967 55.6352 82.6885C55.7765 80.6798 55.9804 77.4058 56 75C56.0277 71.6072 55.7115 67.1604 55.4275 63.9002C55.1718 60.9645 54.9624 58.0275 54.8164 55.0843C54.6602 51.9362 54.3971 47.7101 54 44.5C53.2921 38.7778 51.4551 30.601 50.7662 27.632C50.5903 26.874 50.401 26.1237 50.203 25.3713L48 17L45.6936 9.69637C45.2339 8.24066 44.5546 6.86369 43.6792 5.61308L42.147 3.42429C41.7224 2.81768 41.1532 2.32658 40.4909 1.99544L40.2042 1.85208C39.1314 1.31568 37.8686 1.31568 36.7958 1.85208C35.9611 2.26945 35.3085 2.97865 34.9619 3.84517L34.7907 4.27318C34.5981 4.75482 34.4812 5.2634 34.4442 5.78082L34 12V17.8284C34 19.9348 33.7417 22.0334 33.2308 24.077L31.7976 29.8096C31.6029 30.5885 31.2001 31.2999 30.6324 31.8676L29.4362 33.0638C28.3669 34.1331 26.6331 34.1331 25.5638 33.0638C25.1956 32.6956 24.94 32.23 24.827 31.7216L24 28L23.9451 27.5063C23.3171 21.8539 23.3355 16.1483 24 10.5L24.6928 6.3432C24.8902 5.15901 24.6294 3.9441 23.9635 2.94521L23.9137 2.87055C23.3239 1.98579 22.4386 1.33961 21.4162 1.04748C20.1963 0.698949 18.8859 0.883818 17.8101 1.55621L17.1059 1.99632C16.0581 2.65118 15.2242 3.59757 14.7064 4.71944L12.9662 8.48997C12.6556 9.16282 12.3835 9.84754 12.1528 10.5518C11.3149 13.1092 9.16553 19.789 8 24.5C6.18801 31.824 5.69215 36.05 4.5 43.5Z" fill="#B0D0D4"/>
<path opacity="0.6" d="M37 76.5C37 81.1944 33.1944 85 28.5 85C25.9758 85 23.7095 83.901 22.1513 82.1521C20.8124 80.6493 20 78.6707 20 76.5C20 71.8056 23.8056 68 28.5 68C30.9447 68 33.1471 69.0308 34.6991 70.6844C36.1269 72.2056 37 74.2498 37 76.5Z" stroke="white" stroke-width="2"/>
<path d="M25.2303 52H26.4903V41.92H25.2303L23.3263 43.054V44.44L25.2303 43.292V52ZM33.5078 52H34.7678V50.138H35.8178V48.962H34.7678V46.12H33.5078V48.962H30.2878L33.6198 41.92H32.2058L28.8738 48.962V50.138H33.5078V52Z" fill="white"/>
</svg>
