<svg width="56" height="102" viewBox="0 0 56 102" fill="none" xmlns="http://www.w3.org/2000/svg">
<path d="M48.6001 27.902L45.9995 17.5L43.0784 9.5711C42.693 8.5251 42.2316 7.50872 41.6978 6.53011L40.058 3.52384C39.6894 2.84804 39.19 2.25234 38.5889 1.77146L38.3661 1.59322C37.4815 0.885544 36.3824 0.5 35.2495 0.5H35.0033C34.0299 0.5 33.0854 0.831301 32.3253 1.43941C31.4736 2.12073 30.9137 3.10103 30.7594 4.18071L30.6712 4.79874C30.5579 5.59118 30.6082 6.39842 30.8188 7.1707L31.9995 11.5L32.3987 14.0947C32.7973 16.6857 32.8346 19.3195 32.5095 21.9207L32.1961 24.4273C32.0658 25.4703 31.7856 26.4891 31.3643 27.452L28.8169 33.2745C28.6241 33.7152 28.1887 34 27.7077 34C27.2702 34 26.8668 33.7641 26.6524 33.3828L23.5152 27.8056C22.843 26.6105 22.3778 25.3102 22.1395 23.9598L21.5085 20.3842C21.1699 18.4651 20.9995 16.52 20.9995 14.5712V10L20.6387 5.66974C20.5497 4.60149 20.0359 3.6136 19.2124 2.92735L18.9832 2.73641C18.0608 1.96775 16.8064 1.73105 15.6673 2.11074C14.9119 2.36255 14.2662 2.86671 13.8387 3.5385L11.9007 6.58395C11.3022 7.52443 10.8213 8.53477 10.4688 9.59233L7.99954 17L5.04726 31.2694C5.01545 31.4231 4.98392 31.5733 4.95156 31.7269C4.63115 33.2482 2.79031 42.0844 1.99954 48C1.03915 55.1845 0.751613 59.256 0.499542 66.5C0.371971 70.1662 0.415591 75.2153 0.458107 78.1411C0.480993 79.7159 0.477286 81.287 0.547713 82.8605C0.634469 84.7988 0.869768 87.535 1.49954 89.5C2.30927 92.0266 4.38562 95.1957 5.40998 96.6721C5.79566 97.2279 6.26435 97.7167 6.78798 98.1451C9.58769 100.436 13.5549 100.63 16.5648 98.6232L18.9995 97L25.2184 93.1132C26.3824 92.3857 27.7274 92 29.1 92C30.6589 92 32.1719 92.5043 33.4668 93.3724C34.545 94.0954 35.885 94.9447 36.9995 95.5C38.5521 96.2735 40.7487 97.0153 42.2653 97.4871C43.4042 97.8413 44.6088 97.9063 45.7877 97.7249C48.714 97.2747 51.1944 95.3324 52.3331 92.5995L54.3397 87.7837C55.1074 85.9411 55.5594 83.9823 55.6766 81.9895L55.8482 79.0733C55.9489 77.3601 55.9254 75.6431 55.7601 73.9349C55.5653 71.9223 55.278 69.1168 54.9995 67C54.2501 61.3029 53.4089 58.1737 52.4995 52.5C51.6285 47.0653 50.5906 39.5823 49.9921 35.1718C49.6599 32.7238 49.1992 30.2987 48.6001 27.902Z" fill="#B0D0D4"/>
<path opacity="0.6" d="M36 72.5C36 77.1944 32.1944 81 27.5 81C24.9758 81 22.7095 79.901 21.1513 78.1521C19.8124 76.6493 19 74.6707 19 72.5C19 67.8056 22.8056 64 27.5 64C29.9447 64 32.1471 65.0308 33.6991 66.6844C35.1269 68.2056 36 70.2498 36 72.5Z" stroke="white" stroke-width="2"/>
<path d="M25.2791 48.884C26.3151 47.96 26.8191 47.302 26.8191 45.972C26.8191 44.124 25.4051 42.71 23.5291 42.71C21.5971 42.71 20.1691 44.054 20.1691 45.958H21.4431C21.4291 44.852 22.3111 43.9 23.5151 43.9C24.6771 43.9 25.5451 44.796 25.5451 45.958C25.5451 46.602 25.3351 47.176 24.5931 47.848L20.1271 51.866L20.1131 52.986H26.8191V51.796H22.0311L25.2791 48.884ZM32.5811 53H33.8411V51.138H34.8911V49.962H33.8411V47.12H32.5811V49.962H29.3611L32.6931 42.92H31.2791L27.9471 49.962V51.138H32.5811V53Z" fill="white"/>
</svg>
