<svg width="61" height="106" viewBox="0 0 61 106" fill="none" xmlns="http://www.w3.org/2000/svg">
<path d="M1.00014 85C1.36101 87.4306 2.24545 90.4549 3.0349 92.8593C3.93869 95.6119 5.55816 98.058 7.60676 100.107C9.19198 101.692 11.0224 103.011 13.0275 104.014L13.1962 104.098C15.689 105.344 18.4638 105.919 21.2465 105.764L21.8659 105.73C24.5878 105.578 27.2419 104.823 29.6352 103.517L31.5001 102.5L34.0102 101.131C35.8834 100.109 38.138 100.069 40.0464 101.023C40.68 101.34 41.3489 101.58 42.0392 101.74L45.7348 102.593C46.9033 102.862 48.1089 102.932 49.3007 102.8C51.0719 102.603 52.7652 101.964 54.2252 100.942L54.5097 100.743C56.1441 99.5992 57.4674 98.0654 58.3597 96.2809L58.7198 95.5606C59.5659 93.8685 60.088 92.033 60.2593 90.1489L60.6798 85.5237C60.8929 83.1792 60.8976 80.8204 60.6936 78.475L60.3273 74.2625C60.1095 71.7581 59.6939 69.2749 59.0842 66.8361C58.3631 63.9517 57.3641 61.1452 56.1666 58.4239C55.5883 57.1099 54.9767 55.6874 54.5001 54.5C52.4991 49.5142 51.7754 46.5706 50.0001 41.5C47.8778 35.4379 46.7175 32.028 44.5001 26C42.0464 19.3293 38.0001 9 38.0001 9L36.1206 5.24095C35.8154 4.63045 35.0017 4.49842 34.5191 4.98106L33.8474 5.65274C33.4062 6.0939 32.6732 6.02781 32.3181 5.51484L30.3106 2.61512C29.7536 1.81062 28.4604 2.20047 28.4214 3.17817C28.3162 5.81877 28.0709 9.53013 27.5001 12C27.0411 13.9862 26.5344 15.0326 26.0001 17C25.4749 18.9344 24.9146 21.5043 24.5211 23.4027C24.3726 24.1189 23.3616 24.1908 23.1182 23.501C21.7138 19.522 20.9028 15.3579 20.7112 11.1427L20.6335 9.43496C20.5448 7.48199 20.2869 5.5404 19.8628 3.63197L19.7446 3.10014C19.6485 2.66784 19.0897 2.54731 18.8239 2.90158L17.6018 4.53114C14.8837 8.15523 12.7426 12.178 11.2543 16.4567C10.0892 19.8066 9.34471 23.2845 8.94061 26.8081C8.57856 29.9651 8.0695 33.9381 7.50014 37C6.43518 42.7271 5.15467 45.7903 4.00014 51.5C2.43482 59.2412 1.47038 63.6161 1.00014 71.5C0.686234 76.7627 0.225889 79.7851 1.00014 85Z" fill="#B0D0D4"/>
<path opacity="0.6" d="M39 83.5C39 88.1944 35.1944 92 30.5 92C27.9758 92 25.7095 90.901 24.1513 89.1521C22.8124 87.6493 22 85.6707 22 83.5C22 78.8056 25.8056 75 30.5 75C32.9447 75 35.1471 76.0308 36.6991 77.6844C38.1269 79.2056 39 81.2498 39 83.5Z" stroke="white" stroke-width="2"/>
<path d="M24.7645 46H26.0245V35.92H24.7645L22.8605 37.054V38.44L24.7645 37.292V46ZM33.826 40.596C34.54 40.106 34.89 39.35 34.89 38.468C34.89 36.76 33.616 35.71 31.838 35.71C30.06 35.71 28.8 36.76 28.8 38.468C28.8 39.336 29.164 40.106 29.864 40.596C28.982 41.17 28.548 42.066 28.548 43.116C28.548 44.964 29.906 46.21 31.838 46.21C33.77 46.21 35.142 44.964 35.142 43.116C35.142 42.066 34.694 41.156 33.826 40.596ZM31.838 36.914C32.86 36.914 33.56 37.432 33.56 38.468C33.56 39.504 32.86 40.022 31.838 40.022C30.816 40.022 30.116 39.504 30.116 38.468C30.116 37.432 30.816 36.914 31.838 36.914ZM31.838 45.02C30.662 45.02 29.864 44.348 29.864 43.116C29.864 41.884 30.648 41.212 31.838 41.212C33.028 41.212 33.826 41.884 33.826 43.116C33.826 44.348 33.014 45.02 31.838 45.02Z" fill="white"/>
</svg>
