<svg width="15" height="16" viewBox="0 0 15 16" fill="none" xmlns="http://www.w3.org/2000/svg">
<path d="M14.2353 5.46522L6.60454 13.0113C5.34017 14.2617 3.29003 14.2617 2.02567 13.0113C0.7613 11.7608 0.7613 9.73376 2.02567 8.48331L8.89372 1.69195C9.73681 0.858488 11.103 0.858488 11.9461 1.69195C12.7892 2.52538 12.7892 3.87714 11.9461 4.71058L5.07807 11.502C4.65679 11.919 3.97341 11.919 3.5516 11.502C3.13032 11.0855 3.13032 10.4097 3.5516 9.99265L9.65642 3.95591L8.89318 3.20126L2.78891 9.23852C1.94582 10.072 1.94582 11.4237 2.78891 12.2572C3.63201 13.0906 4.99822 13.0906 5.84131 12.2572L12.7094 5.46576C13.9738 4.21534 13.9738 2.18826 12.7094 0.937817C11.445 -0.312606 9.39488 -0.312606 8.13052 0.937817L0.88082 8.10652L0.907092 8.13277C-0.409819 9.80716 -0.294047 12.2277 1.26244 13.7664C2.81894 15.3052 5.26567 15.4205 6.95935 14.1175L6.98562 14.1438L14.998 6.22041L14.2353 5.46522Z" fill="#303032"/>
</svg>
