<svg width="22" height="29" viewBox="0 0 22 29" fill="none" xmlns="http://www.w3.org/2000/svg">
<path fill-rule="evenodd" clip-rule="evenodd" d="M9.9699 28.6155C8.68846 28.3485 6.93905 27.5473 6.83369 24.8937C6.82389 24.6438 7.0444 24.4478 7.29187 24.4821C9.1981 24.7443 12.2584 24.9697 15.5048 23.5731C15.6175 23.5241 15.7425 23.6074 15.7425 23.7323C15.7376 26.1286 12.1432 26.9176 9.9258 27.0058C8.89673 27.0425 9.2177 27.807 9.9699 28.6155Z" fill="#303032"/>
<path fill-rule="evenodd" clip-rule="evenodd" d="M5.39535 19.408C5.04987 19.2413 4.7289 18.7317 4.65295 18.0506C4.59169 17.5164 4.65785 17.0631 4.80241 16.5707C4.86611 16.3575 5.04742 16.2007 5.29489 16.2791C8.58546 17.3376 13.8999 17.7908 17.482 15.9728C17.6437 15.8895 17.8397 16.0169 17.8348 16.2007C17.8152 16.8769 17.6045 17.4356 17.2664 17.9011C16.8156 18.5234 16.0291 19.1017 15.0441 19.457C11.8981 20.5889 8.57811 20.5742 5.39535 19.408Z" fill="#303032"/>
<path fill-rule="evenodd" clip-rule="evenodd" d="M6.46864 23.2791C6.41964 23.2644 6.37798 23.2375 6.34123 23.2032C6.06681 22.9557 5.861 22.5024 5.77524 22.179C5.66009 21.7429 5.72379 21.3557 5.81935 20.9392C5.861 20.7579 6.00311 20.6207 6.21382 20.6746C9.43089 21.5101 13.1086 21.5518 16.186 19.9812C16.3796 19.8832 16.6001 20.0474 16.5682 20.2605C16.5045 20.6673 16.4065 21.2136 16.2913 21.5199C15.5318 23.5462 9.18587 24.1171 6.46864 23.2791Z" fill="#303032"/>
<path d="M21.5201 5.90239C21.574 5.72353 21.6009 5.54712 21.6156 5.36581C21.7479 3.74625 20.5571 2.30065 18.9327 2.27125C18.5382 2.2639 18.1584 2.33005 17.8154 2.47216C17.0534 2.78333 16.2179 2.95484 15.3432 2.95484C14.5175 2.95484 13.7775 2.75883 13.0817 2.47216C10.1047 1.22258 7.71338 5.29475 7.71338 5.29475C16.2252 5.3413 16.3968 10.3739 16.3968 10.3886C18.8322 9.96721 20.8316 8.2227 21.5201 5.90239Z" fill="#29A5B1"/>
<path d="M18.9327 2.27387C18.5382 2.26652 18.1584 2.33268 17.8154 2.47479C17.0534 2.78596 16.2179 2.95747 15.3432 2.95747C14.5175 2.95747 13.7775 2.76146 13.0817 2.47479C11.0725 1.64173 9.41133 0.0344238 7.03467 0.0344238C5.95415 0.0344238 4.93488 0.296591 4.03567 0.757222C2.41856 1.59028 1.30864 3.08488 0.818604 4.80489C4.19738 2.33758 7.71091 5.29248 7.71091 5.29248C7.71091 5.29248 8.23525 4.39817 9.10016 3.57491C9.56079 3.13633 10.1194 2.7198 10.7442 2.46744C11.1362 2.31063 11.5528 2.21997 11.9914 2.22977C11.5528 2.21997 11.1362 2.31063 10.7442 2.46744C10.117 2.71735 9.56079 3.13633 9.10016 3.57491C8.23525 4.39817 7.71091 5.29248 7.71091 5.29248C10.0288 7.27221 11.4278 10.4868 15.2574 10.4868C15.6445 10.4868 16.0243 10.4525 16.3943 10.3864C18.8298 9.96494 20.8291 8.21797 21.5176 5.90012C21.5715 5.72125 21.5984 5.54484 21.6131 5.36353C21.7479 3.74642 20.5571 2.30328 18.9327 2.27387ZM12.7313 2.35228C12.5867 2.31063 12.4446 2.28122 12.305 2.26162C12.4471 2.27877 12.5892 2.31063 12.7313 2.35228Z" fill="#29A5B1"/>
<path d="M16.475 10.8416C16.4383 10.849 16.4015 10.8514 16.3648 10.8588C16.3574 10.9445 16.3501 11.0327 16.3378 11.1185C16.11 13.0198 15.2745 14.7325 14.0298 16.0605C18.1265 15.7273 21.1157 12.5617 21.8336 8.8717C22.01 7.97004 22.0492 7.03653 21.9365 6.10547C21.1818 8.54093 19.0477 10.3982 16.475 10.8416Z" fill="#29A5B1"/>
<path d="M7.19634 13.9217C7.04443 13.6154 6.90967 13.2993 6.79451 12.9735C6.74796 12.8436 6.70631 12.7113 6.6671 12.579C6.5446 12.1674 6.45149 11.741 6.39023 11.3049C6.35348 11.0403 6.32653 10.7708 6.31183 10.4988C6.30448 10.3542 6.30203 10.2097 6.30203 10.0651C6.30203 9.73436 6.31918 9.40848 6.35593 9.08996C6.39269 8.76899 6.44414 8.45537 6.51274 8.1442C6.53479 8.04129 6.56175 7.93839 6.58625 7.83793C6.78471 7.07838 7.08608 6.36048 7.46831 5.69404C7.44871 5.67688 7.43155 5.65973 7.41195 5.64258C7.22819 5.49067 4.10423 2.9768 1.09053 5.17705L0.659301 5.49067C0.607848 5.76509 0.571095 6.04196 0.553944 6.32128C0.512291 6.93872 0.522092 7.55371 0.578446 8.154C0.590697 8.28631 0.605398 8.41617 0.622549 8.54603C0.629899 8.60973 0.64215 8.67098 0.649501 8.73469C0.661751 8.80819 0.671552 8.88415 0.683803 8.95765C0.696054 9.02381 0.708305 9.08751 0.720555 9.15367C0.735256 9.22472 0.747507 9.29578 0.762208 9.36438C0.776909 9.43054 0.79161 9.49424 0.806311 9.56039C0.823462 9.629 0.838163 9.6976 0.857765 9.76621C0.874916 9.82991 0.892067 9.89607 0.909218 9.95977C0.928819 10.0284 0.948421 10.097 0.968022 10.1631C0.987623 10.2244 1.00477 10.2881 1.02683 10.3493C1.04888 10.4204 1.07338 10.489 1.09788 10.5576C1.11748 10.6164 1.13708 10.6752 1.15913 10.7316C1.19099 10.8149 1.22284 10.8933 1.25469 10.9717C1.27429 11.0182 1.29144 11.0648 1.31104 11.1113C1.3625 11.229 1.41395 11.3466 1.47031 11.4642C1.49481 11.5132 1.51931 11.5622 1.54381 11.6112C1.57811 11.6822 1.61487 11.7533 1.65162 11.8243C1.67857 11.8758 1.70797 11.9273 1.73737 11.9787C1.77413 12.0449 1.81088 12.1086 1.84763 12.1723C1.87948 12.2237 1.91134 12.2752 1.94319 12.3266C1.98239 12.3879 2.02159 12.4516 2.06325 12.5128C2.0951 12.5618 2.1294 12.6133 2.1637 12.6623C2.20535 12.7236 2.24946 12.7848 2.29356 12.8436C2.32786 12.8902 2.36217 12.9367 2.39647 12.9833C2.44547 13.047 2.49447 13.1082 2.54593 13.1695C2.58023 13.2111 2.61208 13.2528 2.64638 13.292C2.71254 13.3704 2.78114 13.4464 2.84975 13.5199C2.86935 13.5419 2.88895 13.5664 2.911 13.5885C3.00166 13.684 3.09231 13.7771 3.18787 13.8678C3.22217 13.8996 3.25648 13.9315 3.29078 13.9633C3.35448 14.0221 3.41819 14.0809 3.48679 14.1373C3.52844 14.1716 3.5701 14.2059 3.61175 14.2402C3.673 14.2917 3.73671 14.3431 3.80041 14.3921C3.84451 14.4264 3.89107 14.4607 3.93762 14.495C4.00133 14.5416 4.06748 14.5881 4.13363 14.6347C4.18019 14.6665 4.22674 14.6984 4.27574 14.7302C4.34435 14.7743 4.4154 14.8184 4.48646 14.8625C4.53301 14.892 4.57956 14.9214 4.62857 14.9483C4.70697 14.9949 4.78538 15.0365 4.86623 15.0806C4.90789 15.1027 4.95199 15.1272 4.99364 15.1492C5.10635 15.208 5.22151 15.2619 5.33911 15.3158C5.35137 15.3207 5.36117 15.3281 5.37342 15.333C5.50328 15.3918 5.63558 15.4457 5.77034 15.4971C5.81445 15.5143 5.85855 15.529 5.90265 15.5437C5.99576 15.578 6.08886 15.6123 6.18442 15.6417C6.23832 15.6589 6.29223 15.676 6.34858 15.6907C6.43679 15.7177 6.52499 15.7446 6.61565 15.7667C6.67445 15.7814 6.73326 15.7961 6.79451 15.8108C6.88517 15.8328 6.97337 15.8524 7.06648 15.872C7.12773 15.8843 7.18899 15.8965 7.25024 15.9088C7.3458 15.9259 7.44136 15.9431 7.53691 15.9578C7.59572 15.9676 7.65697 15.9774 7.71822 15.9872C7.82603 16.0019 7.93384 16.0141 8.0441 16.0264C8.09555 16.0313 8.147 16.0386 8.20091 16.0435C8.36507 16.0582 8.52923 16.0705 8.69829 16.0778C8.1764 15.5241 7.72557 14.9018 7.3605 14.2255C7.29925 14.1275 7.24779 14.0246 7.19634 13.9217Z" fill="#29A5B1"/>
</svg>
