<svg width="21" height="21" viewBox="0 0 21 21" fill="none" xmlns="http://www.w3.org/2000/svg">
<path d="M10.9745 7.55078C9.11075 7.55078 7.59961 9.06198 7.59961 10.9258C7.59961 12.7896 9.11075 14.3008 10.9745 14.3008C12.8382 14.3008 14.3494 12.7896 14.3494 10.9258C14.3494 9.06198 12.8382 7.55078 10.9745 7.55078Z" fill="white"/>
<path d="M14.501 0.900391H7.44883C3.87238 0.900391 0.900391 3.87238 0.900391 7.44883V14.4506C0.900391 18.0775 3.87238 20.9991 7.44883 20.9991H14.4506C18.0775 20.9991 20.9991 18.0271 20.9991 14.4506V7.44883C21.0494 3.87238 18.0775 0.900391 14.501 0.900391ZM10.9749 16.2137C8.10368 16.2137 5.73616 13.8965 5.73616 10.9749C5.73616 8.0533 8.10368 5.73616 10.9749 5.73616C13.8462 5.73616 16.2137 8.0533 16.2137 10.9749C16.2137 13.8462 13.8965 16.2137 10.9749 16.2137ZM16.1129 6.99548C15.4077 6.99548 14.8536 6.39101 14.8536 5.73616C14.8536 5.08132 15.4581 4.42648 16.1129 4.42648C16.8181 4.42648 17.3722 5.03095 17.3722 5.68579C17.3722 6.44138 16.8181 6.99548 16.1129 6.99548Z" fill="white"/>
</svg>
