<svg width="92" height="70" viewBox="0 0 92 70" fill="none" xmlns="http://www.w3.org/2000/svg">
<path d="M33 19.2835V46.1384C33 48.2324 34.119 50.1607 35.9524 51.2136L59.3571 64.6411C61.1786 65.6821 63.4286 65.6821 65.25 64.6411L88.6548 51.2136C90.4762 50.1725 91.6071 48.2324 91.6071 46.1384V19.2835C91.6071 17.1895 90.4881 15.2612 88.6548 14.2083L65.25 0.780803C63.4286 -0.260268 61.1786 -0.260268 59.3571 0.780803L35.9524 14.2201C34.119 15.2612 33 17.2013 33 19.2835Z" fill="#CDF5FA"/>
<path d="M4.02639 24H77.4955C79.7125 24 81.5219 25.8102 81.5219 28.0281C81.5219 40.6794 81.5219 53.3306 81.5219 65.9719C81.5219 68.1898 79.7025 70 77.4955 70H4.02639C1.81933 70 0 68.1898 0 65.9719C0 53.3306 0 40.6794 0 28.0281C0 25.8102 1.80939 24 4.02639 24ZM1.89886 31.4495H79.6131V28.0281C79.6131 26.8644 78.6587 25.8997 77.4955 25.8997H4.02639C2.85327 25.8997 1.89886 26.8545 1.89886 28.0281V31.4495ZM79.6131 38.5609H1.89886V65.9719C1.89886 67.1455 2.85327 68.1003 4.02639 68.1003H77.4955C78.6587 68.1003 79.6131 67.1455 79.6131 65.9719V38.5609ZM79.6131 33.3492H1.89886V36.6512H79.6131V33.3492Z" fill="#303032"/>
<path d="M68.7466 54.534C71.2718 54.534 73.3297 56.5928 73.3297 59.1191C73.3297 61.6453 71.2718 63.7042 68.7466 63.7042C67.832 63.7042 66.9869 63.4356 66.2711 62.9781C64.4617 64.1418 62.0857 63.8832 60.5547 62.3615C59.7196 61.526 59.2125 60.3822 59.2125 59.1191C59.2125 57.8559 59.7196 56.7122 60.5547 55.8767C62.0857 54.355 64.4617 54.0964 66.2711 55.2601C66.9869 54.8025 67.832 54.534 68.7466 54.534ZM64.8395 61.5061C64.412 60.8099 64.1635 59.9943 64.1635 59.1191C64.1635 58.2438 64.412 57.4283 64.8395 56.7321L64.76 56.7022C63.0401 56.0259 61.1909 57.2791 61.1909 59.1191C61.1909 60.9491 63.0401 62.2222 64.76 61.5359L64.8395 61.5061ZM68.7466 56.5132C67.3051 56.5132 66.1419 57.6769 66.1419 59.1191C66.1419 60.5612 67.3051 61.7249 68.7466 61.7249C70.1881 61.7249 71.3513 60.5612 71.3513 59.1191C71.3513 57.6769 70.1881 56.5132 68.7466 56.5132Z" fill="#303032"/>
<path d="M9.39456 49.0837H14.097V54.7827H8.40039V49.0837H9.39456ZM12.1186 51.0629H10.3887V52.8035H12.1186V51.0629Z" fill="#303032"/>
<path d="M33.305 49.0837H38.0173V54.7827H32.3207V49.0837H33.305ZM36.029 51.0629H34.2991V52.8035H36.029V51.0629Z" fill="#303032"/>
<path d="M20.9176 49.0837H25.62V54.7827H19.9234V49.0837H20.9176ZM23.6416 51.0629H21.9117V52.8035H23.6416V51.0629Z" fill="#303032"/>
<path d="M8.13306 62.6399H33.0768V64.5495H8.13306V62.6399Z" fill="#303032"/>
</svg>
