<svg width="26" height="26" viewBox="0 0 26 26" fill="none" xmlns="http://www.w3.org/2000/svg">
<circle cx="13" cy="13" r="13" fill="#CDF5FA"/>
<path fill-rule="evenodd" clip-rule="evenodd" d="M9.66668 8.00001H7.26175C8.87056 6.15949 10.6327 5.50001 13 5.50001C17.1421 5.50001 20.5 8.85787 20.5 13C20.5 17.1421 17.1421 20.5 13 20.5C8.85787 20.5 5.50001 17.1421 5.50001 13H3.83334C3.83334 18.0626 7.9374 22.1667 13 22.1667C18.0626 22.1667 22.1667 18.0626 22.1667 13C22.1667 7.9374 18.0626 3.83334 13 3.83334C10.3222 3.83334 8.19757 4.59214 6.33334 6.54705V4.65935H4.66668V9.66668H9.66668V8.00001ZM17.1667 12.1667H13.8333V8.00001H12.1667V13.8333H17.1667V12.1667Z" fill="#303032"/>
</svg>
