<svg width="26" height="27" viewBox="0 0 26 27" fill="none" xmlns="http://www.w3.org/2000/svg">
<ellipse cx="13" cy="13.112" rx="13" ry="13.1112" fill="#CDF5FA"/>
<path fill-rule="evenodd" clip-rule="evenodd" d="M15.588 4.97058C16.3846 4.74299 17.2148 5.20423 17.4424 6.00078C17.4807 6.13479 17.5001 6.27349 17.5001 6.41286V10.6686H19.0001V12.1686H17.5001V15.3528C17.5001 16.0226 17.0562 16.6111 16.4122 16.7951L11.6047 18.1687H19.0001V9.16871H17.5001V7.66871H19.0001C19.8286 7.66871 20.5001 8.34028 20.5001 9.16871V18.1687C20.5001 18.9971 19.8286 19.6687 19.0001 19.6687H7.00012C6.17169 19.6687 5.50012 18.9971 5.50012 18.1687H5.52017C5.50684 18.088 5.50012 18.0063 5.50012 17.9243V8.98429C5.50012 8.31457 5.94409 7.72599 6.58804 7.542L15.588 4.97058ZM7.00019 8.98426V17.9242L16.0002 15.3528V6.41283L7.00019 8.98426ZM14.5001 10.6687C14.5001 11.0829 14.1643 11.4187 13.7501 11.4187C13.3358 11.4187 13.0001 11.0829 13.0001 10.6687C13.0001 10.2545 13.3358 9.91871 13.7501 9.91871C14.1643 9.91871 14.5001 10.2545 14.5001 10.6687Z" fill="#303032"/>
</svg>
