<svg width="40" height="52" viewBox="0 0 40 52" fill="none" xmlns="http://www.w3.org/2000/svg">
<path d="M32.9832 33.5087C32.1059 35.3219 30.8168 37.2925 29.4528 39.1518C25.4601 44.594 20.0737 50.9527 13.4012 49.9345C8.0944 49.1247 5.26816 43.3689 3.72393 38.2275C3.38757 37.1076 3.08272 35.9981 2.85711 35.002C0.836204 26.0798 0.407695 20.6391 1.8529 11.6077C2.65085 6.62122 5.30356 1.491 10.3475 1.73687C12.2932 1.83171 14.1191 1.96452 15.4096 2.1505C20.9662 2.95122 24.1334 4.58083 28.4643 8.1235C35.5836 13.9471 37.3908 24.082 33.5013 32.417C33.3216 32.8021 33.1482 33.1677 32.9832 33.5087Z" fill="#E62B3E" fill-opacity="0.35" stroke="#E35967" stroke-width="2" stroke-linecap="round" stroke-linejoin="round"/>
<path d="M13.55 43.7711L18.1 48L15.825 44.0964L20.375 38.8916L15.5 33.3614L22 28.4819L16.8 21H9L15.825 26.8554L10.625 32.0602L16.8 38.5663L13.55 43.7711Z" fill="#E62B3E" fill-opacity="0.6"/>
</svg>
