<svg width="34" height="31" viewBox="0 0 34 31" fill="none" xmlns="http://www.w3.org/2000/svg">
<path d="M27.0857 3.29284L28.6348 4.06738C29.2104 4.35521 29.759 4.69426 30.2739 5.08043L30.4615 5.22111C31.1503 5.73775 31.7623 6.34967 32.2789 7.03852L32.3422 7.12297C32.7788 7.70512 33.1369 8.34224 33.4072 9.01788L33.4262 9.06539C33.8052 10.0131 34 11.0244 34 12.0451C34 13.0072 33.827 13.9614 33.4892 14.8622L32.936 16.3374C32.6457 17.1114 32.2984 17.8628 31.897 18.5854L31.7679 18.8178C30.5986 20.9225 29.0641 22.8022 27.236 24.3691L26.5 25L23.5 27.5L23.1603 27.7265C20.6672 29.3885 17.397 29.2978 15 27.5L13.2888 26.0333C12.106 25.0194 10.7499 24.2272 9.2858 23.6948C7.13378 22.9123 5.22767 21.5732 3.76172 19.8141L3.5 19.5L2.71603 18.5592C1.5866 17.2039 0.777766 15.6111 0.349877 13.8995L0.332513 13.8301C0.111671 12.9467 0 12.0396 0 11.129V10.7045C0 9.25476 0.337537 7.82493 0.98588 6.52824C1.32734 5.84532 1.75126 5.20686 2.24816 4.62715L2.38678 4.46542C3.76652 2.85573 5.57952 1.67614 7.61021 1.06694L8.48285 0.805144C9.16 0.602 9.8514 0.4498 10.5513 0.34982L10.8677 0.304617C12.2844 0.102227 13.7199 0.0654443 15.1451 0.195011L18.5 0.5L19.5689 0.713787C22.178 1.2356 24.7059 2.10293 27.0857 3.29284Z" fill="#E62B3E" fill-opacity="0.35"/>
<path d="M31.5422 7.72295L31.5422 7.72297C31.9262 8.23487 32.241 8.79511 32.4787 9.38922C32.4787 9.38924 32.4787 9.38926 32.4787 9.38927L32.4977 9.43673L32.4977 9.43678C32.8295 10.2664 33 11.1516 33 12.0451C33 12.8873 32.8485 13.7226 32.5528 14.5111L31.9996 15.9863C31.7268 16.714 31.4003 17.4204 31.0228 18.0998L30.8937 18.3321C29.7821 20.3331 28.3232 22.1202 26.5853 23.6098L25.8545 24.2362L22.9009 26.6976L22.6056 26.8944C20.474 28.3155 17.6806 28.244 15.6251 26.7187L13.9396 25.274C12.6655 24.1819 11.2047 23.3286 9.62755 22.755C7.64166 22.0329 5.88272 20.7972 4.52994 19.1739L4.26822 18.8598L3.48425 17.9191C2.4512 16.6794 1.71139 15.2225 1.32002 13.657L1.30266 13.5875C1.10164 12.7835 1 11.9578 1 11.129V10.7045C1 9.41 1.30139 8.13328 1.88031 6.97545C2.1852 6.36567 2.56373 5.79558 3.00741 5.27794L3.14604 5.11621C4.40113 3.65194 6.05033 2.57893 7.89755 2.02476L8.7702 1.76297C9.39958 1.57416 10.0422 1.4327 10.6927 1.33977L11.0091 1.29457C12.349 1.10315 13.7066 1.06836 15.0546 1.1909L18.3563 1.49106L19.3728 1.69437C21.8947 2.19875 24.3381 3.0371 26.6385 4.18727L28.1875 4.9618C28.7095 5.22281 29.207 5.53025 29.6739 5.88043L29.8615 6.02111C30.4745 6.48089 31.0191 7.02546 31.4789 7.6385C31.4789 7.63851 31.4789 7.63851 31.4789 7.63852L31.5422 7.72295Z" stroke="#E62B3E" stroke-opacity="0.6" stroke-width="2" stroke-linecap="round" stroke-linejoin="round"/>
<path d="M15.15 23.8675L18.3 27L16.725 24.1084L19.875 20.253L16.5 16.1566L21 12.5422L17.4 7H12L16.725 11.3373L13.125 15.1928L17.4 20.012L15.15 23.8675Z" fill="#E62B3E" fill-opacity="0.6"/>
</svg>
