<svg width="24" height="37" viewBox="0 0 24 37" fill="none" xmlns="http://www.w3.org/2000/svg">
<path d="M1.95427 5.63719L2.32714 4.51859C2.44223 4.1733 2.58169 3.83661 2.74447 3.51107L2.9487 3.1026C3.3119 2.37619 3.82843 1.73726 4.46261 1.22991C5.45781 0.433751 6.70981 0 7.98428 0C9.27895 0 10.5508 0.440621 11.5617 1.24939L12.5 2L13.0499 2.41239C15.3333 4.12499 17.3089 6.21342 18.8922 8.58837C19.9606 10.1908 20.8415 11.9106 21.5177 13.7139L21.7444 14.3184C22.9053 17.4142 23.5 20.6936 23.5 24L23.152 27.4797C23.0518 28.482 22.7417 29.452 22.242 30.3266C21.4377 31.734 20.1808 32.8277 18.6758 33.4297L16.9043 34.1383C16.3023 34.3791 15.6827 34.5732 15.051 34.719L9.5 36L7.9115 36.2888C5.57304 36.714 3.22354 35.6024 2.06926 33.5247C1.6939 32.849 1.46385 32.1024 1.39388 31.3326L1 27V19.5L0.741708 14.5925C0.581989 11.5578 0.993298 8.52011 1.95427 5.63719Z" fill="#E62B3E" fill-opacity="0.35"/>
<path d="M11.8753 2.78087C11.8834 2.78737 11.8917 2.79375 11.9 2.8L12.4499 3.21239L13.0499 2.41239L12.4499 3.21239C14.6426 4.85697 16.5398 6.86245 18.0602 9.14307C19.0861 10.6819 19.932 12.3333 20.5814 14.065L20.8081 14.6695C21.9211 17.6376 22.4941 20.7809 22.5 23.9506L22.157 27.3802C22.0707 28.2429 21.8039 29.0777 21.3737 29.8304C20.6815 31.0417 19.5997 31.9831 18.3044 32.5012L16.5329 33.2098C15.9785 33.4316 15.4079 33.6104 14.8261 33.7446L9.29803 35.0203L7.73262 35.3049C5.81566 35.6535 3.88964 34.7422 2.94342 33.039C2.63571 32.4852 2.44713 31.8731 2.38977 31.2421L2 26.9546V19.5C2 19.4825 1.99954 19.4649 1.99862 19.4474L1.74033 14.5399C1.58718 11.6302 1.98156 8.71761 2.90295 5.95341L3.27582 4.83482C3.37595 4.53442 3.49728 4.2415 3.63889 3.95828L3.84313 3.54982C4.14162 2.95283 4.56612 2.42773 5.08731 2.01078C5.90297 1.35825 6.93401 1 7.98428 1C9.05475 1 10.1056 1.36512 10.937 2.03026L11.8753 2.78087Z" stroke="#E62B3E" stroke-opacity="0.6" stroke-width="2" stroke-linecap="round" stroke-linejoin="round"/>
<path d="M9.85 29.241L13.7 33L11.775 29.5301L15.625 24.9036L11.5 19.988L17 15.6506L12.6 9H6L11.775 14.2048L7.375 18.8313L12.6 24.6145L9.85 29.241Z" fill="#E62B3E" fill-opacity="0.6"/>
</svg>
