<svg width="27" height="34" viewBox="0 0 27 34" fill="none" xmlns="http://www.w3.org/2000/svg">
<path d="M14 4L16.8456 2.37397C17.279 2.12628 17.7496 1.95008 18.2391 1.85217L18.4262 1.81476C19.4389 1.61222 20.4907 1.79441 21.3762 2.32574C22.1076 2.76457 22.6867 3.41729 23.027 4.19941C23.3351 4.90751 23.7176 5.79941 24 6.5C25.0503 9.10562 25.363 11.9596 24.8632 14.7241C24.7504 15.3482 24.6279 15.9615 24.5 16.5C23.698 19.8774 22.0995 23.0009 20.3135 25.9776L20 26.5L17.4051 29.8363C16.8075 30.6047 16.0651 31.2485 15.22 31.7314L14.848 31.944C13.6503 32.6284 12.2586 32.8941 10.893 32.699C9.97597 32.568 9.09995 32.2333 8.32922 31.7195L7.58643 31.2243C6.86512 30.7434 6.20846 30.172 5.63252 29.5241L4.28914 28.0128C3.10397 26.6795 2.08996 25.1835 1.5 23.5C0.71851 21.2699 1.00345 18.8253 1.93431 16.6533L2 16.5L3.95043 13.2493C4.64875 12.0854 5.44957 10.9862 6.34335 9.96474C7.77378 8.32996 9.43042 6.90792 11.2631 5.74169L14 4Z" fill="#E62B3E" fill-opacity="0.35" stroke="#E35967" stroke-width="2" stroke-linecap="round" stroke-linejoin="round"/>
<path d="M12.5 27.7108L16 31L14.25 27.9639L17.75 23.9157L14 19.6145L19 15.8193L15 10H9L14.25 14.5542L10.25 18.6024L15 23.6627L12.5 27.7108Z" fill="#E62B3E" fill-opacity="0.6"/>
</svg>
