<svg width="39" height="35" viewBox="0 0 39 35" fill="none" xmlns="http://www.w3.org/2000/svg">
<path d="M17.458 3.07551L28.5857 1.06119C29.9873 0.807463 31.4214 1.31503 32.2888 2.44489C33.3016 3.76423 34.6048 5.5875 35.3496 7.12285C37.5147 11.5859 37.6414 14.662 38.3496 19.568C38.6448 21.6131 38.7676 24.279 38.8178 26.3374C38.8679 28.3903 38.0892 30.3653 36.7121 31.8887C35.2009 33.5605 33.0812 34.5548 30.8296 34.6482L22.3496 35H13.6694C11.8255 35 10.0175 34.4902 8.44518 33.5268L7.78681 33.1235C5.58156 31.7723 3.98553 29.6194 3.3338 27.1166L1.70368 20.8566C1.14978 18.7295 1.29323 16.4678 2.31478 14.5215C3.33583 12.5762 4.7902 10.1438 6.34961 8.61627C7.71401 7.27976 9.82002 5.98832 11.5288 5.05587C13.3707 4.05078 15.3933 3.44927 17.458 3.07551Z" fill="#E62B3E" fill-opacity="0.35"/>
<path d="M17.6362 4.05952L28.7638 2.0452C29.8215 1.85374 30.8709 2.24023 31.4956 3.05384C32.5039 4.36732 33.7527 6.12217 34.4499 7.55932C36.2078 11.183 36.5596 13.8047 37.0598 17.5331C37.1516 18.2174 37.2484 18.939 37.3599 19.7109C37.6461 21.6935 37.7681 24.3094 37.8181 26.3618C37.8616 28.1435 37.186 29.8733 35.9703 31.2181C34.639 32.6908 32.7717 33.5668 30.7881 33.6491L22.3289 34H13.6694C12.0099 34 10.3827 33.5411 8.96761 32.6742L8.30923 32.2708C6.32451 31.0548 4.88808 29.1171 4.30153 26.8646L2.67141 20.6046C2.17024 18.68 2.31149 16.6795 3.20022 14.9863C4.21525 13.0525 5.60968 10.7409 7.04938 9.33064C8.30881 8.09695 10.3105 6.8599 12.0078 5.93367C13.728 4.99498 15.6405 4.42079 17.6362 4.05952Z" stroke="#E62B3E" stroke-opacity="0.6" stroke-width="2" stroke-linecap="round" stroke-linejoin="round"/>
<path d="M20.2 30.0843L24.4 34L22.3 30.3855L26.5 25.5663L22 20.4458L28 15.9277L23.2 9H16L22.3 14.4217L17.5 19.241L23.2 25.2651L20.2 30.0843Z" fill="#E62B3E" fill-opacity="0.6"/>
</svg>
