<svg width="32" height="31" viewBox="0 0 32 31" fill="none" xmlns="http://www.w3.org/2000/svg">
<path d="M29.7136 13.665L29.5607 13.3083C29.1877 12.4379 28.7357 11.6036 28.2105 10.8157L27 9L26.6853 8.52797C25.5745 6.86175 24.1217 5.45108 22.4236 4.38973C21.4779 3.79866 20.4654 3.3218 19.4074 2.96913L18.1257 2.54189C17.0445 2.18151 15.9304 1.92881 14.7996 1.78745L13.7437 1.65546C12.9182 1.55228 12.0827 1.55961 11.2592 1.67725C9.77483 1.88931 8.3631 2.45493 7.14292 3.32649L6.63077 3.69231C5.87946 4.22896 5.19293 4.85094 4.58494 5.54578L3.79618 6.44723C2.62788 7.78242 1.90512 9.44876 1.72859 11.2141C1.57886 12.7114 1.82797 14.2215 2.45062 15.5914L3.08955 16.997C3.69295 18.3245 4.49639 19.5515 5.47185 20.6354L7.0664 22.4071C8.01987 23.4665 9.07418 24.4306 10.2144 25.2858L11.7219 26.4164C13.5472 27.7854 15.6748 28.6958 17.9254 29.0709L18.6034 29.1839C19.8574 29.3929 21.1389 29.3722 22.3854 29.1229C24.4163 28.7167 26.2815 27.7185 27.746 26.254L28.0457 25.9543C29.0041 24.9959 29.7462 23.8434 30.2221 22.5743C30.7338 21.2098 30.9246 19.7457 30.7796 18.2957L30.6987 17.4865C30.567 16.1699 30.2348 14.8812 29.7136 13.665Z" fill="#E62B3E" fill-opacity="0.35" stroke="#E35967" stroke-width="2" stroke-linecap="round" stroke-linejoin="round"/>
<path d="M14.15 24.8675L17.3 28L15.725 25.1084L18.875 21.253L15.5 17.1566L20 13.5422L16.4 8H11L15.725 12.3373L12.125 16.1928L16.4 21.012L14.15 24.8675Z" fill="#E62B3E" fill-opacity="0.6"/>
</svg>
