<svg width="36" height="34" viewBox="0 0 36 34" fill="none" xmlns="http://www.w3.org/2000/svg">
<path d="M26.5 8L20.5 4.5L18.5318 3.37533C17.5131 2.7932 16.4394 2.31312 15.3263 1.94208L14.4104 1.63679C14.1372 1.54574 13.8573 1.47622 13.5733 1.42889C11.9444 1.15739 10.2795 1.63045 9.03666 2.71792L8.17421 3.47256C7.39883 4.15103 6.763 4.974 6.30223 5.89554L4.5 9.5L2.39578 13.1072C1.48167 14.6743 1 16.4559 1 18.2701C1 20.3724 1.64665 22.4238 2.85222 24.146L3.1445 24.5636C4.03937 25.842 5.17766 26.9312 6.49417 27.769L8.24488 28.8831C9.41242 29.6261 10.6467 30.2587 11.9316 30.7726L13.1815 31.2726C14.3918 31.7567 15.6394 32.1421 16.912 32.4249L17.6696 32.5932C18.8862 32.8636 20.1288 33 21.3751 33H22.584C24.1769 33 25.7521 32.6657 27.2078 32.0188C28.7178 31.3476 30.0637 30.3558 31.1518 29.1122L31.2634 28.9847C32.4078 27.6768 33.2584 26.1386 33.7578 24.474L33.9704 23.7654C34.3216 22.5947 34.5 21.3791 34.5 20.1569C34.5 17.7686 33.8189 15.4298 32.5367 13.4148L32.4709 13.3114C31.501 11.7873 30.2236 10.4824 28.7204 9.48029L26.5 8Z" fill="#E62B3E" fill-opacity="0.35" stroke="#E35967" stroke-width="2" stroke-linecap="round" stroke-linejoin="round"/>
<path d="M15.85 28.241L19.7 32L17.775 28.5301L21.625 23.9036L17.5 18.988L23 14.6506L18.6 8H12L17.775 13.2048L13.375 17.8313L18.6 23.6145L15.85 28.241Z" fill="#E62B3E" fill-opacity="0.6"/>
</svg>
