<svg width="41" height="36" viewBox="0 0 41 36" fill="none" xmlns="http://www.w3.org/2000/svg">
<path d="M22.1213 32.4851L22.1374 32.4808L27.449 30.9632C28.5968 30.6352 29.7187 30.2225 30.8055 29.7286L32.7779 28.832C34.1081 28.2274 35.3187 27.3884 36.3518 26.3553C38.0529 24.6542 39.2124 22.4877 39.6841 20.1288L39.9903 18.5981C39.994 18.5794 39.9967 18.5605 39.9983 18.5415L40.2647 15.3446C40.4247 13.4247 40.1485 11.4934 39.4569 9.69521C38.4509 7.07961 36.6131 4.86715 34.2265 3.39843L33.9644 3.82426L34.2265 3.39843L34.0089 3.26457C32.1357 2.11179 30.0097 1.43287 27.8151 1.28656L23.5333 1.00111C23.5222 1.00037 23.5111 1 23.5 1H14C13.9889 1 13.9778 1.00037 13.9667 1.00111L9.39501 1.30589C7.3862 1.43981 5.47908 2.2385 3.97434 3.57605C2.39654 4.97854 1.35756 6.88763 1.03656 8.97411L0.680932 11.2857C0.560486 12.0686 0.5 12.8596 0.5 13.6517V16.2435C0.5 18.4437 0.732434 20.6377 1.19343 22.789L1.59078 24.6433C1.8787 25.9869 2.33537 27.2888 2.9499 28.5178L3.7236 30.0652C4.30285 31.2237 5.13418 32.2378 6.15657 33.033C8.19736 34.6203 10.8398 35.2145 13.3636 34.6536L14.1085 34.4881L14.1085 34.4883L14.1213 34.4851L22.1213 32.4851Z" fill="#B0D0D4" stroke="#B0D0D4" stroke-linecap="round" stroke-linejoin="round"/>
<path opacity="0.6" d="M26 18C26 21.3137 23.3137 24 20 24C18.2182 24 16.6188 23.2246 15.5185 21.9896C14.5732 20.9287 14 19.5325 14 18C14 14.6863 16.6863 12 20 12C21.7257 12 23.28 12.7273 24.3759 13.8949C25.384 14.969 26 16.4115 26 18Z" stroke="white" stroke-width="2"/>
</svg>
