<svg width="42" height="36" viewBox="0 0 42 36" fill="none" xmlns="http://www.w3.org/2000/svg">
<path d="M15.5 1C15.4793 1 15.4586 1.00129 15.438 1.00386L12.6054 1.35793C11.8008 1.4585 11.0061 1.62616 10.2294 1.85916L9.35276 2.12216C7.30481 2.73654 5.47163 3.91599 4.06366 5.52509C3.06949 6.66128 2.31158 7.98411 1.83416 9.41637L1.52752 10.3363C0.845212 12.3832 0.578976 14.5459 0.74446 16.6972L0.825054 17.7449C0.945876 19.3156 1.30498 20.8587 1.89004 22.3214L2.00913 22.6191C2.71164 24.3754 3.76356 25.9707 5.10109 27.3082C6.16264 28.3697 7.38837 29.2532 8.73113 29.9246L9.31959 30.2188C10.994 31.056 12.7886 31.6272 14.6388 31.9119L18.4056 32.4914L24.8876 33.9872C24.8976 33.9895 24.9077 33.9915 24.9178 33.9932L29.567 34.7681C30.5345 34.9293 31.5267 34.8515 32.4572 34.5413C33.6629 34.1394 34.7103 33.3659 35.449 32.3317L36.1164 31.3973C36.6694 30.6231 37.1035 29.7705 37.4044 28.8679L38.4743 25.6581C38.4764 25.652 38.4783 25.6458 38.4801 25.6395C38.4819 25.6335 38.4835 25.6274 38.4851 25.6213L39.9851 19.6213C39.9896 19.6031 39.9931 19.5847 39.9956 19.5661L40.545 15.4453C40.8514 13.1477 40.6654 10.8112 39.9993 8.59096L39.8211 7.9969C39.5828 7.2026 39.2548 6.43804 38.8433 5.71803L38.4474 5.02522C37.7397 3.78671 36.7133 2.76029 35.4748 2.05257C34.2677 1.36281 32.9015 1 31.5113 1H28H22H15.5Z" fill="#B0D0D4" stroke="#B0D0D4" stroke-linecap="round" stroke-linejoin="round"/>
<path opacity="0.6" d="M27 18C27 21.3137 24.3137 24 21 24C19.2182 24 17.6188 23.2246 16.5185 21.9896C15.5732 20.9287 15 19.5325 15 18C15 14.6863 17.6863 12 21 12C22.7257 12 24.28 12.7273 25.3759 13.8949C26.384 14.969 27 16.4115 27 18Z" stroke="white" stroke-width="2"/>
</svg>
