<svg width="28" height="35" viewBox="0 0 28 35" fill="none" xmlns="http://www.w3.org/2000/svg">
<path d="M11.2481 2.06588C11.2315 2.05643 11.2145 2.04793 11.197 2.04043L8.65929 0.952854C7.93453 0.642245 7.12798 0.577617 6.36301 0.768859C5.62054 0.954477 4.95632 1.37139 4.46638 1.95932L3.64593 2.94386C2.9198 3.81522 2.39979 4.83928 2.1247 5.93966L1.51493 8.37873C1.5095 8.40046 1.50553 8.42253 1.50306 8.44478L1.46681 8.77099C1.15363 11.5897 1.31939 14.441 1.9571 17.2044C2.33414 18.8382 2.87361 20.4303 3.56747 21.9567L4.21776 23.3874C4.77937 24.6229 5.43981 25.8111 6.19264 26.9403L7.09451 28.2931C7.77643 29.316 8.59556 30.2404 9.52896 31.0405L10.6225 31.9778C11.3704 32.6189 12.2479 33.0908 13.1951 33.3615C14.7077 33.7936 16.323 33.6912 17.769 33.0716L18.4786 32.7674C18.9846 32.5506 19.4696 32.2879 19.9276 31.9825L20.4334 31.6453C22.6971 30.1362 24.5278 28.0624 25.7445 25.629L25.9472 25.2236C25.9516 25.2148 25.9557 25.206 25.9596 25.197L26.4484 24.0565C27.1459 22.4289 27.3824 20.6409 27.1319 18.888C27.036 18.2168 26.8707 17.553 26.6226 16.9138C26.4269 16.4096 26.1757 15.7817 25.9557 15.2943C25.4917 14.2661 24.6407 13.0157 23.9667 12.0931C23.2583 11.1235 22.4502 10.2431 21.617 9.40993C19.7539 7.54679 17.6853 5.90117 15.4509 4.50468L14.765 4.076C14.7594 4.07252 14.7538 4.06914 14.7481 4.06588L11.2481 2.06588Z" fill="#B0D0D4" stroke="#B0D0D4" stroke-linecap="round" stroke-linejoin="round"/>
<path opacity="0.6" d="M20 17C20 20.3137 17.3137 23 14 23C12.2182 23 10.6188 22.2246 9.51849 20.9896C8.57322 19.9287 8 18.5325 8 17C8 13.6863 10.6863 11 14 11C15.7257 11 17.28 11.7273 18.3759 12.8949C19.384 13.969 20 15.4115 20 17Z" stroke="white" stroke-width="2"/>
</svg>
