<svg width="36" height="31" viewBox="0 0 36 31" fill="none" xmlns="http://www.w3.org/2000/svg">
<path d="M17.9502 1.50248C17.9292 1.50459 17.9082 1.50804 17.8876 1.5128L13.8976 2.43357C12.196 2.82625 10.5378 3.38812 8.94799 4.11078L6.99344 4.99921C6.15608 5.37983 5.37361 5.87114 4.66699 6.45999L4.18743 6.85962C3.13281 7.73847 2.32483 8.87645 1.84281 10.1619C1.27906 11.6652 1.1857 13.3043 1.5751 14.862L2.0299 16.6812C2.36345 18.0153 2.89259 19.2928 3.60015 20.4721L4.05018 21.2221C5.08445 22.9459 6.37499 24.5023 7.87749 25.8379L9.48039 27.2627C9.95881 27.6879 10.4721 28.0722 11.0149 28.4115L12.0839 29.0796C13.5725 30.01 15.3316 30.4107 17.0764 30.2168C18.4607 30.063 19.7785 29.5411 20.8928 28.7054L23.2934 26.9049L28.2867 23.4096C28.3001 23.4003 28.313 23.3902 28.3254 23.3796L30.3332 21.6587C31.358 20.7802 32.2575 19.7652 33.0062 18.642L33.2764 18.2368C33.7226 17.5674 34.0906 16.8491 34.373 16.0959L33.9197 15.9259L34.373 16.0959L34.3978 16.0299C35.1305 14.0761 35.2518 11.9457 34.7457 9.92129C34.5635 9.19255 34.2986 8.47914 33.963 7.808C32.9386 5.75918 31.2657 4.07382 29.2145 3.04825L27.6662 2.27406C26.6653 1.77361 25.5951 1.42563 24.4913 1.24166C23.5124 1.07851 22.5162 1.04588 21.5288 1.14463L17.9502 1.50248Z" fill="#B0D0D4" stroke="#B0D0D4" stroke-linecap="round" stroke-linejoin="round"/>
<path opacity="0.6" d="M24 16C24 19.3137 21.3137 22 18 22C16.2182 22 14.6188 21.2246 13.5185 19.9896C12.5732 18.9287 12 17.5325 12 16C12 12.6863 14.6863 10 18 10C19.7257 10 21.28 10.7273 22.3759 11.8949C23.384 12.969 24 14.4115 24 16Z" stroke="white" stroke-width="2"/>
</svg>
