<svg width="30" height="37" viewBox="0 0 30 37" fill="none" xmlns="http://www.w3.org/2000/svg">
<path d="M6.50125 13.6546C6.48922 13.6735 6.47848 13.6932 6.4691 13.7135L4.23569 18.5526C3.55211 20.0337 3.12028 21.6184 2.95797 23.2415L2.81741 24.6472C2.70421 25.7792 2.83167 26.9223 3.19142 28.0016C3.58753 29.1899 4.25488 30.2697 5.14061 31.1554L5.987 32.0018C7.12732 33.1421 8.46781 34.0628 9.94147 34.7177L10.4926 34.9627C11.9647 35.6169 13.5288 36.0405 15.1298 36.2184L16.0207 36.3173C17.1456 36.4423 18.2835 36.3808 19.3884 36.1353L20.0038 35.9985C21.8253 35.5937 23.4614 34.5966 24.6559 33.1631C25.3296 32.3548 25.8461 31.4276 26.1788 30.4294L27.0387 27.8497C27.5959 26.1781 27.9579 24.4476 28.1174 22.6927L28.4196 19.3684L29.0563 15.23C29.3535 13.2984 29.4054 11.337 29.211 9.39242L29.0519 7.80208C28.9865 7.14796 28.8486 6.50313 28.6407 5.87947L28.4163 5.20633C28.022 4.02344 27.2943 2.97971 26.3206 2.20079C25.388 1.45474 24.2671 0.981424 23.0821 0.833293L22.4539 0.754769C21.0551 0.579925 19.6349 0.747161 18.315 1.24212L17.9167 1.39145C16.5217 1.91458 15.2549 2.73032 14.2014 3.78383L12.1498 5.83543C10.9202 7.06495 9.82898 8.42535 8.89545 9.89231L6.50125 13.6546Z" fill="#B0D0D4" stroke="#B0D0D4" stroke-linecap="round" stroke-linejoin="round"/>
<path opacity="0.6" d="M23 18C23 21.3137 20.3137 24 17 24C15.2182 24 13.6188 23.2246 12.5185 21.9896C11.5732 20.9287 11 19.5325 11 18C11 14.6863 13.6863 12 17 12C18.7257 12 20.28 12.7273 21.3759 13.8949C22.384 14.969 23 16.4115 23 18Z" stroke="white" stroke-width="2"/>
</svg>
