<svg width="36" height="32" viewBox="0 0 36 32" fill="none" xmlns="http://www.w3.org/2000/svg">
<path d="M9.33595 5.67831C8.00305 7.1265 6.65265 9.39052 5.43184 11.7861C4.20075 14.2018 3.08154 16.7916 2.22536 18.9018C1.03651 21.832 1.13885 25.2216 3.10203 27.8027C4.30711 29.387 6.09296 30.1683 7.98554 30.5646C9.87388 30.96 11.9356 30.9851 13.7488 31.0057C13.9828 31.0084 14.2113 31.0067 14.4306 30.9997C18.2422 30.878 20.4041 30.2456 23.9732 28.9708C25.0228 28.5959 26.2081 28.0572 27.3338 27.4992C28.9153 26.7152 30.6864 25.8063 32.1242 24.6381C33.5665 23.4663 34.7232 21.9936 34.9951 20.07C35.1931 18.6696 35.1827 17.3282 34.9956 15.9335C34.7783 14.3135 34.1337 13.0979 33.34 11.9903C32.9713 11.4758 32.5663 10.9791 32.1606 10.4817C32.1338 10.4488 32.107 10.4159 32.0802 10.3831C31.6445 9.84846 31.2067 9.30673 30.7867 8.71164C29.5217 6.91935 28.3679 5.49783 27.0164 4.33686C25.6597 3.17132 24.1215 2.28329 22.1013 1.53137C17.9354 -0.0191886 13.1601 1.2666 10.231 4.59044C9.92133 4.94185 9.62005 5.30566 9.33595 5.67831Z" fill="#B0D0D4" stroke="#B0D0D4" stroke-linecap="round" stroke-linejoin="round"/>
<path opacity="0.6" d="M22 19C22 22.3137 19.3137 25 16 25C14.2182 25 12.6188 24.2246 11.5185 22.9896C10.5732 21.9287 10 20.5325 10 19C10 15.6863 12.6863 13 16 13C17.7257 13 19.28 13.7273 20.3759 14.8949C21.384 15.969 22 17.4115 22 19Z" stroke="white" stroke-width="2"/>
</svg>
