<svg width="36" height="34" viewBox="0 0 36 34" fill="none" xmlns="http://www.w3.org/2000/svg">
<path d="M26.7773 7.58397C26.769 7.57843 26.7606 7.57314 26.7519 7.56811L20.7519 4.06811L20.7519 4.06809L20.7481 4.06588L18.7799 2.94121C17.7326 2.34274 16.6287 1.84919 15.4844 1.46774L14.5685 1.16245C14.2705 1.06314 13.9653 0.987319 13.6555 0.935691C11.8788 0.639574 10.063 1.15553 8.70741 2.34163L7.84496 3.09628C7.02072 3.81749 6.34482 4.69233 5.85502 5.67193L4.05999 9.26198L1.96389 12.8553C1.00517 14.4988 0.5 16.3674 0.5 18.2701C0.5 20.475 1.1782 22.6265 2.44261 24.4328L2.73489 24.8503C3.66747 26.1826 4.85374 27.3178 6.22573 28.1909L7.97644 29.3049C9.17019 30.0646 10.4321 30.7114 11.7459 31.2369L12.9958 31.7368C14.2312 32.231 15.5046 32.6243 16.8035 32.913L17.5611 33.0813C18.8134 33.3596 20.0923 33.5 21.3751 33.5H22.584C24.2469 33.5 25.8913 33.151 27.4108 32.4757C28.9872 31.7751 30.3922 30.7397 31.5281 29.4415L31.6396 29.314C32.8312 27.9522 33.7168 26.3508 34.2367 24.6176L34.4493 23.9091C34.8145 22.6918 35 21.4277 35 20.1569C35 17.6735 34.2918 15.2415 32.9585 13.1464L32.8927 13.0429C31.8854 11.4601 30.5588 10.105 28.9978 9.06427L26.7773 7.58397Z" fill="#B0D0D4" stroke="#B0D0D4" stroke-linecap="round" stroke-linejoin="round"/>
<path opacity="0.6" d="M24 17C24 20.3137 21.3137 23 18 23C16.2182 23 14.6188 22.2246 13.5185 20.9896C12.5732 19.9287 12 18.5325 12 17C12 13.6863 14.6863 11 18 11C19.7257 11 21.28 11.7273 22.3759 12.8949C23.384 13.969 24 15.4115 24 17Z" stroke="white" stroke-width="2"/>
</svg>
