<svg width="39" height="40" viewBox="0 0 39 40" fill="none" xmlns="http://www.w3.org/2000/svg">
<path d="M21.4424 2.26927L19.3046 1.65845C17.7757 1.22161 16.1933 1 14.6032 1H13.1695C12.0655 1 10.9705 1.19856 9.93682 1.58619C8.34349 2.18369 6.94693 3.21109 5.90221 4.55431L5.02919 5.67675C4.34543 6.55588 3.76718 7.51221 3.30631 8.52611L3.20866 8.74094C2.08739 11.2077 1.60113 13.9159 1.79419 16.6187L1.84513 17.3318C1.94804 18.7726 2.21446 20.197 2.63926 21.5776L3.38563 24.0033C3.79395 25.3303 4.05374 26.6986 4.16022 28.0829L4.31956 30.1543C4.43822 31.6969 4.91441 33.1907 5.71042 34.5174L6.16272 35.2712C7.02863 36.7144 8.35785 37.8217 9.93371 38.4126C10.9651 38.7994 12.0693 38.9526 13.167 38.8611L17.5 38.5L20.1872 38.2557C22.0591 38.0855 23.942 38.0725 25.8161 38.2166L28.5165 38.4243C29.1702 38.4746 29.8274 38.4532 30.4765 38.3605L31.1673 38.2618C32.3655 38.0906 33.4924 37.5897 34.4222 36.8148C35.4492 35.959 36.1886 34.8083 36.5404 33.5185L37.0522 31.6418C37.3494 30.5521 37.5 29.4277 37.5 28.2983V26.4873C37.5 24.5022 37.2747 22.5235 36.8283 20.5892L36.713 20.0895C36.2389 18.0353 35.5548 16.0353 34.6713 14.1211L33.7201 12.0603C33.2414 11.023 32.6544 10.0392 31.9689 9.12524C30.6695 7.39263 29.0362 5.93779 27.1655 4.84652L26.2976 4.34024C24.7718 3.45024 23.1408 2.75452 21.4424 2.26927Z" fill="#E62B3E" fill-opacity="0.35" stroke="#E35967" stroke-width="2" stroke-linecap="round" stroke-linejoin="round"/>
<path d="M17.55 33.6145L22.1 38L19.825 33.9518L24.375 28.5542L19.5 22.8193L26 17.759L20.8 10H13L19.825 16.0723L14.625 21.4699L20.8 28.2169L17.55 33.6145Z" fill="#E62B3E" fill-opacity="0.6"/>
</svg>
