<svg width="37" height="31" viewBox="0 0 37 31" fill="none" xmlns="http://www.w3.org/2000/svg">
<path d="M36 18.5L34.5 12.5L34 9.5L33.8856 9.09944C33.3021 7.05725 32.2844 5.16516 30.9022 3.55256L30.5204 3.10708C30.1742 2.70325 29.791 2.33277 29.3756 2.00051L29.181 1.8448C28.0818 0.965459 26.7607 0.407582 25.3639 0.232986C24.1396 0.0799502 22.8965 0.226326 21.7412 0.659548L19.5 1.5L13.5 4.5L13.0576 4.76542C10.0253 6.58484 7.16135 8.67132 4.5 11L3.26821 12.2318C2.11118 13.3888 1.29037 14.8385 0.89351 16.426C0.633255 17.467 0.560674 18.5461 0.679173 19.6126L0.78275 20.5447C0.926724 21.8405 1.26949 23.1064 1.79899 24.2977L2.17985 25.1547C2.71939 26.3686 3.53078 27.4423 4.55133 28.2928C5.50594 29.0883 6.62046 29.6692 7.8193 29.9962L9.40456 30.4285C10.7953 30.8078 12.2304 31 13.672 31H19L25.124 30.6172C26.3706 30.5393 27.6041 30.3188 28.8004 29.9599L30.3697 29.4891C31.4454 29.1664 32.4448 28.6293 33.3076 27.9103C34.4168 26.986 35.2682 25.7848 35.7752 24.4329C36.2503 23.166 36.4123 21.7986 36.2445 20.456L36 18.5Z" fill="#E62B3E" fill-opacity="0.35"/>
<path d="M33.5136 12.6644C33.518 12.6906 33.5234 12.7167 33.5299 12.7425L35.0152 18.6839L35.2522 20.58C35.3999 21.7615 35.2573 22.9659 34.8388 24.0818C34.3926 25.2718 33.643 26.3292 32.6674 27.1421C31.9082 27.7748 31.0289 28.2473 30.0823 28.5313L28.513 29.0021C27.3899 29.339 26.2319 29.5461 25.0616 29.6192L18.9688 30H13.672C12.3193 30 10.9727 29.8197 9.66767 29.4638L8.08242 29.0314C7.0219 28.7422 6.03598 28.2283 5.19151 27.5246C4.28872 26.7722 3.57095 25.8224 3.09366 24.7485L2.7128 23.8916C2.22502 22.7941 1.90926 21.628 1.77663 20.4343L1.67306 19.5021C1.56768 18.5538 1.63222 17.5942 1.86365 16.6685C2.21655 15.2569 2.94645 13.9678 3.97531 12.9389L5.18346 11.7308C7.79297 9.45004 10.6003 7.40603 13.5721 5.62291L13.9816 5.37725L19.9003 2.4179L22.0923 1.59588C23.0961 1.21948 24.1761 1.0923 25.2399 1.22526C26.4534 1.37696 27.6013 1.86166 28.5563 2.62567L28.7509 2.78138C29.1174 3.07458 29.4556 3.40151 29.7611 3.75787L30.1429 4.20336C31.4314 5.70662 32.3801 7.47043 32.924 9.37415L33.0229 9.72027L33.5136 12.6644Z" stroke="#E62B3E" stroke-opacity="0.6" stroke-width="2" stroke-linecap="round" stroke-linejoin="round"/>
<path d="M18.15 26.8675L21.3 30L19.725 27.1084L22.875 23.253L19.5 19.1566L24 15.5422L20.4 10H15L19.725 14.3373L16.125 18.1928L20.4 23.012L18.15 26.8675Z" fill="#E62B3E" fill-opacity="0.6"/>
</svg>
