<svg width="39" height="36" viewBox="0 0 39 36" fill="none" xmlns="http://www.w3.org/2000/svg">
<path d="M38.632 19.8402L38.3277 21.3616C38.1123 22.4383 38.1574 23.5508 38.459 24.6066L38.4756 24.6646C38.8183 25.8642 38.8183 27.1358 38.4756 28.3354C38.1637 29.4271 37.5787 30.4213 36.7758 31.2242L36.2523 31.7477C35.4245 32.5755 34.4514 33.2438 33.3816 33.7193L32.2644 34.2158C31.0923 34.7368 29.8623 35.1159 28.6004 35.3454L27.3625 35.5705C25.7907 35.8562 24.1964 36 22.5988 36H19L15.7275 35.7025C14.2462 35.5678 12.7823 35.2847 11.3576 34.8573L10.3922 34.5677C9.13639 34.1909 7.93658 33.6479 6.82474 32.953L6.37112 32.6694C5.13437 31.8965 4.05116 30.9015 3.17609 29.7348C2.07385 28.2651 1.32891 26.559 1.00029 24.7516L0.5 22L0.142641 17.3543C0.047714 16.1203 0.0563237 14.8804 0.16838 13.6478L0.33817 11.7801C0.44533 10.6014 0.745248 9.44819 1.22596 8.36658L1.61657 7.48771C2.19363 6.18932 3.12765 5.08157 4.30987 4.29342C5.0962 3.7692 5.97453 3.39831 6.89861 3.2003L12.5 2L19 1L27 0.5H28.9454C30.6069 0.5 32.2268 1.01912 33.5787 1.98481C34.5151 2.65367 35.2956 3.51734 35.8666 4.51648L36.2657 5.21492C36.7533 6.06821 37.1309 6.97979 37.3894 7.92794L37.8758 9.71122C38.2911 11.2339 38.5659 12.7914 38.697 14.3642L38.8442 16.1298C38.9475 17.3704 38.8761 18.6195 38.632 19.8402Z" fill="#E62B3E" fill-opacity="0.35"/>
<path d="M10.6796 33.6098L10.3922 34.5677L10.6796 33.6098C9.50915 33.2587 8.39096 32.7526 7.35474 32.105L6.90112 31.8215C5.76888 31.1138 4.77721 30.2029 3.97609 29.1348C2.96699 27.7893 2.28501 26.2274 1.98416 24.5727L1.4931 21.8719L1.1397 17.2776C1.04905 16.0993 1.05727 14.9154 1.16427 13.7384L1.33406 11.8707C1.43132 10.8009 1.7035 9.75433 2.13977 8.77272L2.53038 7.89385C3.0305 6.76858 3.83998 5.80853 4.86457 5.12547C5.54606 4.67115 6.30727 4.34971 7.10814 4.1781L12.6809 2.98393L19.1074 1.99524L27.0312 1.5H28.9454C30.3984 1.5 31.8151 1.954 32.9975 2.79854C33.8164 3.38349 34.499 4.13882 34.9983 5.01262L35.8666 4.51648L34.9983 5.01262L35.3974 5.71106C35.8431 6.49106 36.1883 7.32435 36.4247 8.19106L36.911 9.97433C37.3102 11.4381 37.5745 12.9353 37.7005 14.4472L38.697 14.3642L37.7005 14.4472L37.8476 16.2128C37.9432 17.3601 37.8772 18.5152 37.6514 19.6441L37.3471 21.1654C37.1005 22.3984 37.1521 23.6724 37.4975 24.8813L37.5141 24.9393C37.8055 25.9594 37.8055 27.0406 37.5141 28.0607C37.2488 28.989 36.7514 29.8344 36.0687 30.517L35.5452 31.0406C34.8042 31.7816 33.9331 32.3799 32.9755 32.8055L31.8582 33.302C30.7589 33.7906 29.6051 34.1463 28.4215 34.3615L27.1836 34.5866C25.6708 34.8616 24.1364 35 22.5988 35H19.0453L15.818 34.7066C14.4035 34.578 13.0055 34.3076 11.645 33.8995L10.6796 33.6098Z" stroke="#E62B3E" stroke-opacity="0.6" stroke-width="2" stroke-linecap="round" stroke-linejoin="round"/>
<path d="M18.2 29.9277L22.4 34L20.3 30.241L24.5 25.2289L20 19.9036L26 15.2048L21.2 8H14L20.3 13.6386L15.5 18.6506L21.2 24.9157L18.2 29.9277Z" fill="#E62B3E" fill-opacity="0.6"/>
</svg>
