<svg width="41" height="36" viewBox="0 0 41 36" fill="none" xmlns="http://www.w3.org/2000/svg">
<path d="M22 32L14 34L13.2552 34.1655C10.8768 34.694 8.38669 34.1341 6.46354 32.6383C5.50008 31.889 4.71667 30.9333 4.17082 29.8416L3.39712 28.2942C2.80143 27.1029 2.35877 25.8409 2.07968 24.5385L1.68233 22.6842C1.22871 20.5673 1 18.4084 1 16.2435V13.6517C1 12.885 1.05854 12.1195 1.17512 11.3617L1.53075 9.05014C1.83404 7.07872 2.81573 5.27491 4.30653 3.94975C5.72829 2.68597 7.53023 1.93132 9.42827 1.80478L14 1.5H23.5L27.7818 1.78545C29.8954 1.92636 31.9428 2.5802 33.7469 3.6904L33.9644 3.82426C36.2577 5.23553 38.0236 7.36143 38.9903 9.8747C39.6548 11.6025 39.9201 13.4582 39.7664 15.3031L39.5 18.5L39.1938 20.0308C38.7414 22.2929 37.6295 24.3705 35.9983 26.0017C35.0075 26.9925 33.8466 27.797 32.571 28.3768L30.5986 29.2734C29.5343 29.7571 28.4356 30.1612 27.3116 30.4824L22 32Z" fill="#E62B3E" fill-opacity="0.35" stroke="#E35967" stroke-width="2" stroke-linecap="round" stroke-linejoin="round"/>
<path d="M18.85 27.241L22.7 31L20.775 27.5301L24.625 22.9036L20.5 17.988L26 13.6506L21.6 7H15L20.775 12.2048L16.375 16.8313L21.6 22.6145L18.85 27.241Z" fill="#E62B3E" fill-opacity="0.6"/>
</svg>
