<svg width="40" height="37" viewBox="0 0 40 37" fill="none" xmlns="http://www.w3.org/2000/svg">
<path d="M33.5775 12.3045L36.5 17.5L37.4586 19.8966C38.1329 21.5823 38.216 23.4467 37.6943 25.1857L37.6086 25.4714C37.2117 26.7945 36.4342 27.9715 35.373 28.8559C34.472 29.6067 33.3976 30.1205 32.2475 30.3505L26.5 31.5L17 34.5L13.6024 35.4266C12.2184 35.8041 10.7674 35.8668 9.35596 35.6102L8.77675 35.5049C6.98051 35.1783 5.35143 34.2433 4.16329 32.8572C3.39733 31.9635 2.83936 30.911 2.52968 29.7755L2.2083 28.5971C1.7425 26.8892 1.68145 25.0928 2.02863 23.3568C2.33904 21.8048 2.32265 20.2019 1.9793 18.6568C1.66273 17.2323 1.62332 15.7601 1.86323 14.3206L2.12698 12.7381C2.37392 11.2565 2.86725 9.82671 3.5865 8.50808C4.8352 6.21879 6.72237 4.3418 9.01837 3.10549L9.27435 2.96766C11.071 2.00022 13.0524 1.42483 15.0878 1.27944L15.5358 1.24745C17.8203 1.08426 20.1138 1.39779 22.2707 2.16812L22.3819 2.20781C24.7642 3.05865 26.9279 4.4279 28.7167 6.21668L29.7248 7.22475C31.2345 8.7345 32.5308 10.4436 33.5775 12.3045Z" fill="#E62B3E" fill-opacity="0.35" stroke="#E35967" stroke-width="2" stroke-linecap="round" stroke-linejoin="round"/>
<path d="M17.2 28.9277L21.4 33L19.3 29.241L23.5 24.2289L19 18.9036L25 14.2048L20.2 7H13L19.3 12.6386L14.5 17.6506L20.2 23.9157L17.2 28.9277Z" fill="#E62B3E" fill-opacity="0.6"/>
</svg>
