<svg width="28" height="35" viewBox="0 0 28 35" fill="none" xmlns="http://www.w3.org/2000/svg">
<path d="M11.5033 5.18899L13.5549 3.13738C14.558 2.13435 15.7641 1.35769 17.0923 0.859618L17.4905 0.710283C18.7347 0.243737 20.0734 0.0861001 21.3919 0.250908L22.0201 0.329432C23.1135 0.466113 24.1478 0.902842 25.0083 1.59123C25.9067 2.30994 26.5782 3.27298 26.942 4.36444L27.1664 5.03759C27.3625 5.62609 27.4927 6.23458 27.5544 6.85183L27.7134 8.44218C27.9037 10.3449 27.8529 12.264 27.5621 14.154L26.9231 18.3077L26.6195 21.6475C26.4634 23.3639 26.1094 25.0565 25.5643 26.6916L24.7045 29.2713C24.3914 30.2103 23.9055 31.0826 23.2718 31.843C22.148 33.1916 20.609 34.1296 18.8953 34.5104L18.2799 34.6472C17.2287 34.8808 16.1462 34.9393 15.076 34.8204L14.185 34.7214C12.635 34.5492 11.1208 34.1392 9.69571 33.5058L9.14454 33.2608C7.72696 32.6308 6.43748 31.7452 5.34056 30.6483L4.49417 29.8019C3.66332 28.971 3.03733 27.9581 2.66576 26.8434C2.3283 25.8311 2.20874 24.7588 2.31492 23.6969L2.45549 22.2913C2.61227 20.7235 3.02939 19.1927 3.68967 17.7621L5.92308 12.9231L8.31728 9.16075C9.23122 7.72457 10.2996 6.39271 11.5033 5.18899Z" fill="#E62B3E" fill-opacity="0.35"/>
<path d="M25.9347 18.1556C25.9316 18.1761 25.9291 18.1966 25.9272 18.2172L25.6236 21.5569C25.4745 23.1966 25.1363 24.8135 24.6157 26.3754L23.7558 28.955C23.4822 29.7758 23.0575 30.5382 22.5036 31.2029C21.5214 32.3815 20.1762 33.2014 18.6784 33.5343L18.063 33.671L18.2799 34.6472L18.063 33.671C17.1192 33.8807 16.1473 33.9333 15.1864 33.8265L14.2955 33.7275C12.8476 33.5667 11.4331 33.1836 10.1018 32.592L9.55067 32.347C8.24526 31.7668 7.0578 30.9513 6.04767 29.9411L5.20127 29.0948C4.4802 28.3737 3.93692 27.4946 3.61444 26.5272C3.32157 25.6486 3.21781 24.718 3.30996 23.7964L3.45052 22.3908C3.59625 20.9336 3.98393 19.5109 4.59763 18.1812L6.80285 13.4032L9.16095 9.69763C10.0357 8.323 11.0583 7.04823 12.2104 5.89609L14.262 3.84449C15.1641 2.94239 16.2489 2.24389 17.4434 1.79595L17.8417 1.64661C18.9342 1.23689 20.11 1.09845 21.2678 1.24319L21.896 1.32171C22.8063 1.43549 23.6673 1.79905 24.3836 2.3721C25.1314 2.97039 25.6905 3.77208 25.9933 4.68067L26.2177 5.35381C26.3904 5.87202 26.505 6.40781 26.5594 6.95134L26.7184 8.54168C26.9003 10.3606 26.8517 12.1952 26.5737 14.002L25.9347 18.1556Z" stroke="#E62B3E" stroke-opacity="0.6" stroke-width="2" stroke-linecap="round" stroke-linejoin="round"/>
<path d="M14.85 30.241L18.7 34L16.775 30.5301L20.625 25.9036L16.5 20.988L22 16.6506L17.6 10H11L16.775 15.2048L12.375 19.8313L17.6 25.6145L14.85 30.241Z" fill="#E62B3E" fill-opacity="0.6"/>
</svg>
