<svg width="40" height="34" viewBox="0 0 40 34" fill="none" xmlns="http://www.w3.org/2000/svg">
<path d="M13.8584 3.07353L18.7876 1.71377C22.7548 0.619366 26.9972 1.19829 30.5261 3.31564C31.8344 4.10064 33.0157 5.08015 34.0294 6.22052L34.0803 6.27779C35.6719 8.06834 36.828 10.2026 37.4583 12.5139L38 14.5L38.6984 18.3414C38.8986 19.4426 38.9565 20.5649 38.8707 21.6808L38.721 23.6272C38.5784 25.481 37.7773 27.2227 36.4626 28.5374C35.5042 29.4959 34.3121 30.1876 33.0044 30.5442L29.5 31.5L28.9347 31.5808C24.6503 32.1928 20.3279 32.5 16 32.5L14.9797 32.3866C12.7044 32.1338 10.5435 31.256 8.73637 29.8505L8.65963 29.7908C7.56178 28.9369 6.6228 27.8965 5.88566 26.7171L5.41733 25.9677C4.81304 25.0009 4.42674 23.9139 4.28532 22.7825L4.24617 22.4694C4.08544 21.1835 3.55901 19.9708 2.72941 18.9753C1.92566 18.0108 1.40597 16.8418 1.22841 15.5989L1.15 15.05C1.05051 14.3535 1.05051 13.6465 1.15 12.95C1.37719 11.3597 2.11406 9.88594 3.25 8.75L3.66118 8.33882C4.21807 7.78193 4.84439 7.2991 5.52467 6.90227L7.49069 5.75543C9.48847 4.59006 11.6289 3.68858 13.8584 3.07353Z" fill="#E62B3E" fill-opacity="0.35" stroke="#E35967" stroke-width="2" stroke-linecap="round" stroke-linejoin="round"/>
<path d="M19.85 28.241L23.7 32L21.775 28.5301L25.625 23.9036L21.5 18.988L27 14.6506L22.6 8H16L21.775 13.2048L17.375 17.8313L22.6 23.6145L19.85 28.241Z" fill="#E62B3E" fill-opacity="0.6"/>
</svg>
