<svg width="38" height="33" viewBox="0 0 38 33" fill="none" xmlns="http://www.w3.org/2000/svg">
<path d="M6.38773 4.84259L7.19534 3.91961C7.72669 3.31235 8.37122 2.81439 9.09294 2.45353C10.3289 1.83553 11.7357 1.64714 13.0908 1.91815L14.8359 2.26718C15.6099 2.42198 16.3657 2.65672 17.0911 2.96763L20.9292 4.61252C22.3077 5.2033 23.6387 5.8992 24.9105 6.69407C26.301 7.56315 27.616 8.5476 28.8416 9.63701L31.5 12L33.6998 14.1998C34.8755 15.3755 35.6916 16.8621 36.0523 18.4853C36.3467 19.8102 36.3286 21.1855 35.9994 22.5023L35.8606 23.0576C35.6213 24.0147 35.2518 24.9344 34.7623 25.7909L34.6414 26.0026C33.8908 27.3161 32.8447 28.4369 31.5859 29.2761C30.8652 29.7566 30.0836 30.1388 29.2619 30.4127L28.4654 30.6782C26.8325 31.2225 25.1225 31.5 23.4012 31.5H20.5H13.5L10.1122 31.192C8.71638 31.0651 7.35661 30.6783 6.10301 30.0515L5.43313 29.7166C4.48794 29.244 3.65076 28.5809 2.97424 27.7691C2.01267 26.6152 1.41156 25.2041 1.24569 23.7112L1.14098 22.7688C1.04732 21.9259 1.05315 21.0748 1.15834 20.2333L1.2925 19.16C1.43059 18.0553 1.6608 16.964 1.98071 15.8976L3 12.5L3.74572 9.76568C4.24208 7.9457 5.14549 6.26229 6.38773 4.84259Z" fill="#E62B3E" fill-opacity="0.35" stroke="#E35967" stroke-width="2" stroke-linecap="round" stroke-linejoin="round"/>
<path d="M14.85 27.241L18.7 31L16.775 27.5301L20.625 22.9036L16.5 17.988L22 13.6506L17.6 7H11L16.775 12.2048L12.375 16.8313L17.6 22.6145L14.85 27.241Z" fill="#E62B3E" fill-opacity="0.6"/>
</svg>
