<svg width="34" height="31" viewBox="0 0 34 31" fill="none" xmlns="http://www.w3.org/2000/svg">
<path d="M8.71948 5.99997C6.14148 8.78829 3.39533 14.8834 1.68868 19.0898C0.550347 21.8955 0.667008 25.09 2.5 27.5C2.85874 27.9716 3.4394 28.3864 4.07527 28.7356C6.10822 29.852 8.45614 30.2145 10.7677 30.404C11.6727 30.4782 12.6174 30.5254 13.4146 30.5C17.1527 30.3806 19.2593 29.7664 22.805 28.5C23.8281 28.1345 24.9936 27.6055 26.1117 27.0512C29.2817 25.4799 33.0049 23.5032 33.5001 20C33.6911 18.6484 33.6816 17.3531 33.5001 16C33.0942 12.9743 31.1026 11.4431 29.3782 8.99997C26.866 5.44063 24.874 3.46905 20.9269 1.99997C20.2816 1.75977 19.4281 1.52592 18.5548 1.31708C15.9783 0.701 13.2539 1.3323 11.3271 3.15031C10.4422 3.98533 9.50794 4.96277 8.71948 5.99997Z" fill="#E62B3E" fill-opacity="0.35"/>
<path d="M9.45374 6.67884C9.47552 6.65528 9.49615 6.63068 9.51557 6.60514C10.2601 5.62569 11.153 4.68951 12.0134 3.87764C13.6752 2.30959 16.0467 1.74555 18.3222 2.28966C19.184 2.49573 19.9905 2.71845 20.5781 2.93716C22.4583 3.63696 23.8362 4.44138 25.039 5.47466C26.2524 6.51706 27.3229 7.8222 28.5612 9.57661C29.0145 10.2188 29.4823 10.7967 29.9175 11.3307C29.9417 11.3604 29.9658 11.3899 29.9897 11.4193C30.4032 11.9265 30.7803 12.389 31.1207 12.864C31.8259 13.8481 32.3348 14.8345 32.5089 16.1329C32.6793 17.4027 32.6872 18.6059 32.5099 19.86C32.311 21.2675 31.4606 22.4321 30.1783 23.4739C28.8872 24.523 27.2594 25.3662 25.6676 26.1552C24.5646 26.702 23.4388 27.2117 22.4686 27.5582C18.9697 28.808 16.9739 29.3858 13.3827 29.5005C12.6406 29.5242 11.739 29.4803 10.8494 29.4074C8.56559 29.2202 6.39562 28.8689 4.55663 27.859C3.96465 27.5339 3.52862 27.2005 3.29593 26.8946C1.72333 24.827 1.57801 22.0224 2.61532 19.4658C3.46293 17.3767 4.56411 14.8301 5.7683 12.4672C6.98301 10.0836 8.26318 7.96653 9.45374 6.67884Z" stroke="#E62B3E" stroke-opacity="0.6" stroke-width="2" stroke-linecap="round" stroke-linejoin="round"/>
<path d="M16.15 26.0241L19.3 29L17.725 26.253L20.875 22.5904L17.5 18.6988L22 15.2651L18.4 10H13L17.725 14.1205L14.125 17.7831L18.4 22.3614L16.15 26.0241Z" fill="#E62B3E" fill-opacity="0.6"/>
</svg>
