<svg width="24" height="37" viewBox="0 0 24 37" fill="none" xmlns="http://www.w3.org/2000/svg">
<path d="M11 2.5L13.5393 0.912926C14.4826 0.323362 15.604 0.0862837 16.7052 0.243599C17.8605 0.408643 18.9136 0.996264 19.6607 1.89281L20.5343 2.94116C20.8442 3.313 21.1208 3.71134 21.3609 4.1316L21.5761 4.50809C22.5144 6.15015 23.0886 7.97479 23.2598 9.85827L23.5 12.5L23.5348 12.9176C23.8443 16.6314 23.8134 20.3658 23.4426 24.074L23.0975 27.525C23.0326 28.1741 22.9206 28.8177 22.7623 29.4506L21.9276 32.7895C21.6525 33.8901 20.9769 34.8487 20.033 35.478C19.0496 36.1336 17.8501 36.3818 16.6873 36.1704L13 35.5L8.63137 34.3086C7.87821 34.1031 7.14176 33.8408 6.42838 33.5237L4.32132 32.5873C3.45313 32.2014 2.69023 31.6128 2.09673 30.8709C1.3809 29.9761 0.939329 28.8933 0.82531 27.7531L0.622005 25.72C0.540853 24.9085 0.537171 24.0911 0.611009 23.2789L0.72564 22.018C0.907935 20.0127 1.32157 18.0353 1.9583 16.1251L2.40958 14.7713C2.8027 13.5919 3.27903 12.4419 3.83498 11.33L3.95049 11.099C5.62885 7.74231 8.03763 4.80407 11 2.5Z" fill="#E62B3E" fill-opacity="0.35"/>
<path d="M4.84492 11.5462C6.44893 8.33821 8.74773 5.52825 11.5739 3.32055L14.0693 1.76092C14.8126 1.2964 15.6961 1.1096 16.5638 1.23355C17.4741 1.36359 18.3038 1.82659 18.8925 2.53299L19.7661 3.58135C20.0385 3.90819 20.2816 4.25834 20.4927 4.62774L20.7078 5.00423C21.575 6.52181 22.1057 8.20812 22.2639 9.9488L22.5035 12.583L22.5041 12.5905L22.5383 13.0006C22.8427 16.6537 22.8123 20.3269 22.4476 23.9745L22.1025 27.4255C22.0424 28.0264 21.9387 28.6222 21.7922 29.2081L20.9575 32.5469C20.7427 33.4063 20.2153 34.1546 19.4783 34.646C18.7105 35.1578 17.774 35.3516 16.8662 35.1866L13.2214 34.5239L8.89449 33.3438C8.19023 33.1517 7.50159 32.9064 6.83452 32.6099L4.72746 31.6734L4.32132 32.5873L4.72746 31.6734C4.00552 31.3526 3.37113 30.8631 2.87759 30.2462C2.28235 29.5022 1.91516 28.6017 1.82035 27.6536L1.61704 25.6205C1.54221 24.8722 1.53881 24.1184 1.6069 23.3694L1.72153 22.1085C1.89685 20.18 2.29464 18.2784 2.90698 16.4413L3.35826 15.0875C3.73642 13.953 4.19462 12.8468 4.72941 11.7772L4.84492 11.5462Z" stroke="#E62B3E" stroke-opacity="0.6" stroke-width="2" stroke-linecap="round" stroke-linejoin="round"/>
<path d="M11.85 30.241L15.7 34L13.775 30.5301L17.625 25.9036L13.5 20.988L19 16.6506L14.6 10H8L13.775 15.2048L9.375 19.8313L14.6 25.6145L11.85 30.241Z" fill="#E62B3E" fill-opacity="0.6"/>
</svg>
