<svg width="26" height="33" viewBox="0 0 26 33" fill="none" xmlns="http://www.w3.org/2000/svg">
<path d="M3.03004 2.26396L3.85049 1.27941C4.27254 0.772956 4.8447 0.413825 5.48428 0.253931C6.14323 0.0891918 6.83801 0.144863 7.46233 0.412427L10 1.5L13.5 3.5L14.1859 3.92868C16.3882 5.30511 18.4271 6.9271 20.2635 8.76349C21.0873 9.58729 21.8757 10.4474 22.563 11.3881C23.2357 12.309 24.0591 13.5232 24.5 14.5C24.7142 14.9746 24.9614 15.5921 25.1565 16.0947C25.3895 16.6949 25.5459 17.3214 25.637 17.9587C25.8744 19.6209 25.6502 21.3163 24.9888 22.8595L24.5 24L24.2973 24.4054C23.1195 26.761 21.3474 28.7684 19.1561 30.2293L18.6503 30.5665C18.2177 30.8549 17.7596 31.1031 17.2817 31.3079L16.5721 31.612C15.2318 32.1864 13.7345 32.2813 12.3324 31.8807C11.4545 31.6299 10.6411 31.1924 9.94787 30.5982L8.85436 29.6609C7.95571 28.8906 7.16707 28.0006 6.51053 27.0158L5.60867 25.663C4.87076 24.5561 4.22342 23.3915 3.67294 22.1805L3.02265 20.7498C2.34259 19.2537 1.81384 17.6933 1.44429 16.0919C0.819266 13.3835 0.656796 10.5888 0.963755 7.82621L1 7.5L1.60977 5.06093C1.86661 4.03358 2.3521 3.07748 3.03004 2.26396Z" fill="#E62B3E" fill-opacity="0.35"/>
<path d="M3.79826 2.90414L4.61871 1.9196C4.90496 1.5761 5.29303 1.33252 5.72681 1.22407C6.17374 1.11234 6.64497 1.1501 7.06841 1.33157L9.55352 2.39662L12.9867 4.35846L13.6559 4.77668C15.794 6.113 17.7735 7.68772 19.5564 9.47059C20.3615 10.2757 21.1105 11.0951 21.7555 11.978L22.563 11.3881L21.7555 11.978C22.4258 12.8955 23.194 14.0373 23.5885 14.9114C23.7911 15.3603 24.0304 15.9572 24.2243 16.4565C24.427 16.9788 24.5656 17.5305 24.647 18.1002C24.8585 19.5807 24.6588 21.0909 24.0696 22.4656L23.5924 23.5791L23.4029 23.9582C22.3029 26.1581 20.6479 28.0329 18.6014 29.3972L18.0956 29.7344C17.7138 29.989 17.3095 30.208 16.8878 30.3887L17.2817 31.3079L16.8877 30.3887L16.1781 30.6928C15.0492 31.1766 13.7881 31.2566 12.6071 30.9192C11.8677 30.7079 11.1826 30.3394 10.5987 29.8389L9.50515 28.9016C8.67599 28.1909 7.94835 27.3697 7.34258 26.4611L6.44072 25.1083C5.73266 24.0462 5.11151 22.9287 4.58331 21.7667L3.93302 20.336C3.28054 18.9006 2.77324 17.4035 2.41868 15.8671C1.81901 13.2685 1.66313 10.5872 1.95764 7.93664L1.98646 7.67728L2.57991 5.30347C2.80023 4.42217 3.2167 3.602 3.79826 2.90414Z" stroke="#E62B3E" stroke-opacity="0.6" stroke-width="2" stroke-linecap="round" stroke-linejoin="round"/>
<path d="M10.85 28.241L14.7 32L12.775 28.5301L16.625 23.9036L12.5 18.988L18 14.6506L13.6 8H7L12.775 13.2048L8.375 17.8313L13.6 23.6145L10.85 28.241Z" fill="#E62B3E" fill-opacity="0.6"/>
</svg>
