<svg width="35" height="36" viewBox="0 0 35 36" fill="none" xmlns="http://www.w3.org/2000/svg">
<path d="M14.9992 3.34647L16.8153 2.64798C17.9319 2.21851 19.1075 1.96203 20.3015 1.8874L22.2032 1.76855C24.8916 1.60052 27.4894 2.77204 29.1431 4.8983C29.7102 5.62746 30.1492 6.44774 30.4414 7.32407L31.8678 11.6033C32.2886 12.8658 32.6099 14.1594 32.8287 15.4721L33.0321 16.6927C33.3421 18.5524 33.3539 20.4495 33.0672 22.3129L32.9944 22.7862C32.6684 24.9056 31.9055 26.9342 30.7543 28.7432L30.1928 29.6257C29.4062 30.8616 28.3704 31.9197 27.1515 32.7324C25.4226 33.8849 23.3912 34.5 21.3133 34.5H20.4709C18.8376 34.5 17.2182 34.1993 15.6938 33.613L13.4378 32.7453C12.1484 32.2494 10.9043 31.6426 9.71966 30.9318L8.61109 30.2667C7.21227 29.4274 5.95302 28.3749 4.8788 27.1472L4.40914 26.6105C3.47737 25.5456 2.74169 24.3112 2.24486 22.9863C1.75476 21.6794 1.5 20.285 1.5 18.8892V18.8398C1.5 17.296 1.81358 15.7683 2.42171 14.3493C2.80565 13.4535 3.3029 12.6106 3.90129 11.8412L4.6682 10.8552C5.88336 9.29283 7.3123 7.90924 8.913 6.74509L9.40124 6.39001C11.1263 5.13541 13.0083 4.11219 14.9992 3.34647Z" fill="#E62B3E" fill-opacity="0.35" stroke="#E35967" stroke-width="2" stroke-linecap="round" stroke-linejoin="round"/>
<path d="M17.85 30.241L21.7 34L19.775 30.5301L23.625 25.9036L19.5 20.988L25 16.6506L20.6 10H14L19.775 15.2048L15.375 19.8313L20.6 25.6145L17.85 30.241Z" fill="#E62B3E" fill-opacity="0.6"/>
</svg>
