<svg width="33" height="34" viewBox="0 0 33 34" fill="none" xmlns="http://www.w3.org/2000/svg">
<path d="M23.1498 3.55489L23.7093 3.94653C24.2362 4.31534 24.7471 4.70567 25.2369 5.12256C26.2292 5.9673 27.9871 7.48714 29 8.5C29.4852 8.98516 29.9774 9.58664 30.419 10.1745C31.536 11.6616 32.1705 13.438 32.5032 15.2679L32.603 15.8167C32.8655 17.2604 32.8655 18.7396 32.603 20.1833C32.2084 22.3538 31.2328 24.3768 29.7801 26.037L29.5675 26.28C28.8584 27.0904 28.0541 27.8121 27.172 28.4296L26.2277 29.0906C24.4188 30.3569 22.4361 31.3546 20.3413 32.0529L17.8153 32.8949C16.6097 33.2968 15.3592 33.5493 14.0921 33.6468L12.5346 33.7666C10.5541 33.9189 8.57189 33.4938 6.82807 32.5426C4.9869 31.5383 3.49726 29.9945 2.55934 28.1187L2.14818 27.2964C1.71735 26.4347 1.38212 25.5285 1.14848 24.5939L0.95262 23.8105C0.323231 21.2929 0.176137 18.679 0.519107 16.1067L0.691139 14.8165C0.896672 13.275 1.2332 11.7538 1.69706 10.2694L2.91837 6.36121C3.30174 5.13443 3.9416 4.0032 4.79549 3.04257C6.51575 1.10728 8.98149 0 11.5708 0H12.5663C13.1877 0 13.8081 0.0513418 14.421 0.153501L15.1054 0.26757C17.9985 0.749747 20.7471 1.87294 23.1498 3.55489Z" fill="#E62B3E" fill-opacity="0.35"/>
<path d="M22.5764 4.37412L23.1359 4.76576C23.6401 5.11871 24.1257 5.48991 24.5887 5.88403C25.5856 6.73269 27.313 8.22718 28.2929 9.20711C28.7311 9.64533 29.1915 10.2054 29.6194 10.7751C30.6162 12.1022 31.2052 13.7189 31.5194 15.4467L31.6192 15.9956C31.8602 17.321 31.8602 18.679 31.6192 20.0044C31.2569 21.9971 30.3612 23.8543 29.0275 25.3785L28.8149 25.6215C28.1589 26.3713 27.4147 27.0391 26.5985 27.6104L25.6542 28.2714C23.9243 29.4823 22.0283 30.4365 20.025 31.1042L17.4991 31.9462C16.371 32.3222 15.201 32.5585 14.0154 32.6497L12.4579 32.7695C10.6702 32.907 8.88097 32.5233 7.30692 31.6647C5.645 30.7582 4.30037 29.3647 3.45376 27.6715L3.0426 26.8491C2.64441 26.0528 2.33457 25.2152 2.11862 24.3514L1.92276 23.5679C1.32399 21.1728 1.18405 18.686 1.51033 16.2389L1.68237 14.9486C1.88039 13.4634 2.20462 11.9978 2.65154 10.5677L3.87285 6.65948C4.21393 5.56804 4.7832 4.5616 5.5429 3.70694C7.07339 1.98513 9.26713 1 11.5708 1H12.5663C13.1326 1 13.698 1.04679 14.2566 1.1399L14.941 1.25396C17.687 1.71162 20.2958 2.7777 22.5764 4.37412Z" stroke="#E62B3E" stroke-opacity="0.6" stroke-width="2" stroke-linecap="round" stroke-linejoin="round"/>
<path d="M13.55 28.7711L18.1 33L15.825 29.0964L20.375 23.8916L15.5 18.3614L22 13.4819L16.8 6H9L15.825 11.8554L10.625 17.0602L16.8 23.5663L13.55 28.7711Z" fill="#E62B3E" fill-opacity="0.6"/>
</svg>
