<svg width="41" height="38" viewBox="0 0 41 38" fill="none" xmlns="http://www.w3.org/2000/svg">
<path d="M26 3L19.5 2L14.4827 1.37283C12.5324 1.12905 10.5528 1.43055 8.76356 2.24384C6.95727 3.06488 5.41672 4.37492 4.31612 6.02582L4.25064 6.12405C3.42538 7.36192 2.85867 8.75374 2.5845 10.216L2.09733 12.8142C1.70091 14.9285 1.59054 17.0864 1.76918 19.2301L2 22V23.9811C2 25.3195 2.20012 26.6504 2.59373 27.9296L2.9889 29.2139C3.64285 31.3393 5.01049 33.1737 6.8607 34.4071C7.94242 35.1283 9.15866 35.6235 10.4365 35.8631L13.4369 36.4257C15.4708 36.807 17.5448 36.9303 19.6096 36.7927L24 36.5L28.5006 35.5999C30.4768 35.2046 32.3439 34.3862 33.9738 33.2009L34.5098 32.811C36.1411 31.6246 37.4313 30.0296 38.2505 28.1863C38.747 27.0692 39.062 25.8802 39.1836 24.6638L39.3292 23.2075C39.4429 22.0711 39.4618 20.9273 39.3858 19.7877L39 14L38.6144 11.6866C38.2188 9.31279 36.9607 7.16859 35.0815 5.66522C33.7188 4.57501 32.0888 3.86983 30.3611 3.62302L26 3Z" fill="#E62B3E" fill-opacity="0.35" stroke="#E35967" stroke-width="2" stroke-linecap="round" stroke-linejoin="round"/>
<path d="M18.85 32.241L22.7 36L20.775 32.5301L24.625 27.9036L20.5 22.988L26 18.6506L21.6 12H15L20.775 17.2048L16.375 21.8313L21.6 27.6145L18.85 32.241Z" fill="#E62B3E" fill-opacity="0.6"/>
</svg>
