<svg width="40" height="34" viewBox="0 0 40 34" fill="none" xmlns="http://www.w3.org/2000/svg">
<path d="M38.5204 7.73463L38.3422 7.14057C38.1148 6.38266 37.8018 5.65313 37.4092 4.9661L37.0133 4.27329C36.3499 3.1123 35.3877 2.15012 34.2267 1.48669C33.0952 0.840104 31.8145 0.5 30.5113 0.5H27H21H14.5L11.6674 0.854071C10.8905 0.951187 10.1231 1.11308 9.3731 1.33807L8.49644 1.60107C6.53856 2.18843 4.78599 3.31601 3.43995 4.85434C2.48951 5.94056 1.76493 7.20521 1.3085 8.57449L1.00186 9.49441C0.340628 11.4781 0.0826146 13.574 0.242987 15.6588L0.323581 16.7066C0.440513 18.2267 0.788057 19.7201 1.35428 21.1357L1.47337 21.4334C2.15073 23.1268 3.16499 24.665 4.45465 25.9546C5.47819 26.9782 6.66005 27.83 7.95474 28.4774L8.5432 28.7716C10.1711 29.5856 11.9159 30.1409 13.7148 30.4177L17.5 31L24 32.5L28.6492 33.2749C29.5363 33.4227 30.446 33.3513 31.2991 33.067C32.4046 32.6985 33.3648 31.9893 34.0421 31.0411L34.7095 30.1067C35.2336 29.373 35.645 28.5651 35.9301 27.7098L37 24.5L38.5 18.5L39.0494 14.3792C39.3464 12.1519 39.1661 9.8869 38.5204 7.73463Z" fill="#E62B3E" fill-opacity="0.35"/>
<path d="M17.7249 30.0256C17.7008 30.0201 17.6765 30.0154 17.6521 30.0116L13.8669 29.4293C12.1707 29.1683 10.5254 28.6447 8.99041 27.8772L8.40195 27.5829L8.01862 28.3496L8.40195 27.5829C7.2034 26.9837 6.10929 26.1951 5.16175 25.2475C3.96786 24.0536 3.02891 22.6297 2.40185 21.062L2.28276 20.7643C1.75421 19.4429 1.42979 18.0488 1.32064 16.6299L1.24004 15.5821C1.08989 13.6302 1.33146 11.6679 1.95055 9.81064L2.25719 8.89071C2.67162 7.64742 3.32953 6.49913 4.19253 5.51285C5.41473 4.11605 7.00604 3.09222 8.78379 2.55889L9.66045 2.2959C10.357 2.08692 11.0698 1.93655 11.7915 1.84635L14.5623 1.5H21H27H30.5113C31.6405 1.5 32.7501 1.79469 33.7306 2.35494C34.7365 2.92977 35.5702 3.76347 36.1451 4.76942L37.0133 4.27329L36.1451 4.76943L36.541 5.46224C36.8959 6.0833 37.1788 6.74278 37.3843 7.42792L38.3422 7.14057L37.3843 7.42792L37.5626 8.02198C38.1675 10.0384 38.3364 12.1604 38.0582 14.2471L37.5162 18.312L36.0392 24.2202L34.9814 27.3936C34.7278 28.1543 34.3619 28.8729 33.8958 29.5254L33.2284 30.4598C32.6739 31.236 31.8878 31.8166 30.9829 32.1183C30.2845 32.3511 29.5398 32.4095 28.8136 32.2885L24.1948 31.5187L17.7249 30.0256Z" stroke="#E62B3E" stroke-opacity="0.6" stroke-width="2" stroke-linecap="round" stroke-linejoin="round"/>
<path d="M18.85 27.241L22.7 31L20.775 27.5301L24.625 22.9036L20.5 17.988L26 13.6506L21.6 7H15L20.775 12.2048L16.375 16.8313L21.6 22.6145L18.85 27.241Z" fill="#E62B3E" fill-opacity="0.6"/>
</svg>
