<svg width="36" height="31" viewBox="0 0 36 31" fill="none" xmlns="http://www.w3.org/2000/svg">
<path d="M18 2L21.5785 1.64215C22.522 1.5478 23.4738 1.57897 24.4091 1.73485C25.4638 1.91063 26.4862 2.24311 27.4426 2.72128L28.9909 3.49547C30.9442 4.47208 32.5392 6.07839 33.5158 8.03161C33.8352 8.67048 34.0874 9.3496 34.2606 10.0426C34.7421 11.9686 34.6267 13.9955 33.9296 15.8544L33.9049 15.9204C33.6358 16.6377 33.2854 17.3219 32.8604 17.9594L32.5902 18.3647C31.8668 19.4498 30.9979 20.4304 30.0078 21.2791L28 23L23 26.5L20.5928 28.3054C19.55 29.0875 18.3167 29.5759 17.0212 29.7199C15.3883 29.9013 13.7421 29.5263 12.3489 28.6556L11.2799 27.9875C10.7609 27.6631 10.27 27.2956 9.81257 26.8889L8.20967 25.4642C6.74508 24.1623 5.4871 22.6452 4.47892 20.9649L4.02889 20.2148C3.34672 19.0779 2.83655 17.8462 2.51498 16.5599L2.06017 14.7407C1.69536 13.2814 1.78283 11.7458 2.31097 10.3374C2.76255 9.13319 3.5195 8.06708 4.50752 7.24373L4.98708 6.8441C5.65932 6.2839 6.40372 5.81649 7.20034 5.45439L9.15489 4.56596C10.7144 3.8571 12.3409 3.30595 14.01 2.92076L18 2Z" fill="#E62B3E" fill-opacity="0.35" stroke="#E35967" stroke-width="2" stroke-linecap="round" stroke-linejoin="round"/>
<path d="M16.5 24.7108L20 28L18.25 24.9639L21.75 20.9157L18 16.6145L23 12.8193L19 7H13L18.25 11.5542L14.25 15.6024L19 20.6627L16.5 24.7108Z" fill="#E62B3E" fill-opacity="0.6"/>
</svg>
