<svg width="42" height="34" viewBox="0 0 42 34" fill="none" xmlns="http://www.w3.org/2000/svg">
<path d="M7.05395 3.27404L7.42145 2.97336C7.80664 2.6582 8.21423 2.37146 8.64099 2.11541C9.86682 1.37991 11.234 0.908256 12.6525 0.730942C13.8735 0.57831 15.1131 0.645984 16.3102 0.931007L21.967 2.27787C23.9863 2.75864 25.9675 3.38701 27.8948 4.1579L32.5 6L34.5 7C38.366 8.933 39.933 13.634 38 17.5L35 23L34.0077 25.5799C33.0344 28.1106 31.1931 30.2128 28.8128 31.5112C27.614 32.1651 26.3077 32.5989 24.9559 32.792L23.9654 32.9335C21.3577 33.306 18.67 33.0567 16.1709 32.2236C14.7408 31.7469 13.2377 31.4552 11.7329 31.3666L6.18274 31.0402C5.72881 31.0135 5.27691 30.9392 4.83821 30.8195C1.99019 30.0428 0 27.452 0 24.5C0 21.1734 0.299349 17.8536 0.894427 14.5806L1 14L1.26714 12.7534C2.06526 9.02878 4.10583 5.68614 7.05395 3.27404Z" fill="#E62B3E" fill-opacity="0.35"/>
<path d="M34.1221 22.5211C34.101 22.5598 34.0825 22.5999 34.0667 22.641L33.0744 25.2209C32.1862 27.5302 30.506 29.4485 28.3339 30.6333C27.24 31.23 26.048 31.6258 24.8144 31.8021L23.824 31.9436C21.3717 32.2939 18.8407 32.0595 16.4871 31.275C14.9747 30.7708 13.3851 30.4621 11.7916 30.3684L6.24146 30.0419C5.85695 30.0193 5.47354 29.9563 5.10133 29.8547C2.68575 29.196 1 26.9984 1 24.5C1 21.2334 1.29395 17.9734 1.8783 14.7595L1.98108 14.1943L2.24494 12.9629C2.99554 9.46008 4.91461 6.31647 7.68718 4.048L8.05469 3.74731C8.40238 3.46284 8.77028 3.20402 9.15549 2.9729C10.2619 2.30908 11.496 1.88329 12.7765 1.72322C13.8789 1.58542 14.998 1.64654 16.0786 1.90381L21.7354 3.25067C23.7071 3.72011 25.6416 4.33366 27.5234 5.08638L32.09 6.91303L34.0528 7.89443C37.4197 9.57787 38.7874 13.6683 37.1132 17.0374L34.1221 22.5211Z" stroke="#E62B3E" stroke-opacity="0.6" stroke-width="2" stroke-linecap="round" stroke-linejoin="round"/>
<path d="M17.85 28.241L21.7 32L19.775 28.5301L23.625 23.9036L19.5 18.988L25 14.6506L20.6 8H14L19.775 13.2048L15.375 17.8313L20.6 23.6145L17.85 28.241Z" fill="#E62B3E" fill-opacity="0.6"/>
</svg>
