<svg width="37" height="38" viewBox="0 0 37 38" fill="none" xmlns="http://www.w3.org/2000/svg">
<path d="M14.6179 1.9607L18.0093 0.830242C19.659 0.280344 21.3865 0 23.1255 0H23.3938C24.7905 0 26.1796 0.203883 27.5173 0.605202L27.8292 0.698769C29.5893 1.22678 31.2156 2.12613 32.5985 3.33615C33.8541 4.43486 34.8866 5.77315 35.6327 7.2655C36.5297 9.05939 37 11.0442 37 13.0498V13.3584C37 15.1046 36.6786 16.8358 36.0517 18.4655L35.7408 19.2739C34.9206 21.4064 34.5 23.6717 34.5 25.9565V26.2017C34.5 27.397 34.3692 28.5887 34.1099 29.7555L33.8621 30.8705C33.6225 31.9489 33.2008 32.9787 32.6153 33.9155L32.2194 34.549C31.4255 35.8192 30.2621 36.8162 28.8853 37.4063C27.9713 37.798 26.9873 38 25.9929 38H24.1716C22.7303 38 21.2954 37.8078 19.9049 37.4286L19.6907 37.3702C17.5815 36.7949 15.3846 36.6115 13.2092 36.8291L11.5 37L7.46919 37.3664C6.50492 37.4541 5.53399 37.3003 4.64404 36.9189C3.26769 36.329 2.17099 35.2323 1.58113 33.856L1.45619 33.5644C1.15435 32.8602 0.976991 32.1088 0.931995 31.3439L0.700721 27.4123C0.567364 25.1452 0.699361 22.8703 1.09403 20.6339L1.37069 19.0661C1.78803 16.7011 2.54547 14.4091 3.61945 12.2611L4.29174 10.9165C5.41784 8.66431 7.00749 6.67569 8.95636 5.08116C10.638 3.70527 12.5566 2.6478 14.6179 1.9607Z" fill="#E62B3E" fill-opacity="0.35"/>
<path d="M27.5419 1.65659L27.8292 0.698769L27.5419 1.6566C29.1649 2.14351 30.6647 2.97288 31.94 4.08873C33.0975 5.10161 34.05 6.33606 34.7383 7.71271C35.5661 9.36827 36 11.2 36 13.0498V13.3584C36 14.9818 35.7011 16.5913 35.1184 18.1065L34.8075 18.9149C33.9432 21.162 33.5 23.549 33.5 25.9565V26.2017C33.5 27.324 33.3772 28.443 33.1337 29.5385L32.8859 30.6536C32.6709 31.6211 32.2926 32.545 31.7673 33.3855L31.3714 34.019C30.6856 35.1162 29.6807 35.9775 28.4914 36.4872C27.7018 36.8255 26.8518 37 25.9929 37H24.1716C22.8192 37 21.4728 36.8197 20.1681 36.4639L19.9538 36.4054C17.7266 35.798 15.4068 35.6043 13.1097 35.834L11.4095 36.0041L11.4005 36.005L7.37865 36.3705C6.57973 36.4432 5.7753 36.3157 5.03795 35.9997C3.89763 35.511 2.98898 34.6024 2.50027 33.462L2.37533 33.1705C2.11906 32.5725 1.96847 31.9347 1.93027 31.2852L1.699 27.3535C1.57021 25.1642 1.69768 22.9674 2.07881 20.8076L2.35547 19.2399C2.75605 16.97 3.48305 14.77 4.51387 12.7083L5.18616 11.3637C6.24922 9.23763 7.74985 7.36036 9.58959 5.85512C11.1771 4.55627 12.9882 3.55801 14.9341 2.90939L18.3255 1.77893C19.8732 1.26302 21.494 1 23.1255 1H23.3938C24.6931 1 25.9855 1.18968 27.23 1.56303L27.5419 1.65659Z" stroke="#E62B3E" stroke-opacity="0.6" stroke-width="2" stroke-linecap="round" stroke-linejoin="round"/>
<path d="M16.85 31.241L20.7 35L18.775 31.5301L22.625 26.9036L18.5 21.988L24 17.6506L19.6 11H13L18.775 16.2048L14.375 20.8313L19.6 26.6145L16.85 31.241Z" fill="#E62B3E" fill-opacity="0.6"/>
</svg>
