<svg width="35" height="33" viewBox="0 0 35 33" fill="none" xmlns="http://www.w3.org/2000/svg">
<path d="M12.2967 4.1839L18 1.5L20.3125 0.508944C21.096 0.173148 21.9396 0 22.792 0H22.845C24.24 0 25.5935 0.474776 26.6828 1.34624C27.2237 1.77896 27.6875 2.30005 28.0547 2.88746L30 6L32.5 10.5L33.6392 13.3481C34.2079 14.7696 34.5 16.2866 34.5 17.8177V18.2333C34.5 19.4016 34.2899 20.5603 33.8797 21.6542C33.3026 23.193 32.3456 24.5609 31.0978 25.6305L30.7448 25.933C29.9191 26.6408 28.9975 27.2284 28.0075 27.6784L24 29.5L20.7697 30.9683C19.2637 31.6529 17.6709 32.1276 16.0358 32.3791L14.6068 32.599C12.8905 32.863 11.137 32.7411 9.4738 32.2421C7.84428 31.7533 6.3412 30.9144 5.06965 29.7841L4.78726 29.5331C3.28183 28.195 2.09767 26.5344 1.32298 24.6751L1.15077 24.2618C0.394646 22.4472 0.0852113 20.4775 0.248471 18.5183C0.413682 16.5358 1.05803 14.6231 2.12609 12.9447L2.62004 12.1685C3.53416 10.732 4.67155 9.45055 5.98934 8.37236L7.10777 7.45728C8.69655 6.15737 10.4393 5.05798 12.2967 4.1839Z" fill="#E62B3E" fill-opacity="0.35"/>
<path d="M12.7225 5.08872L18.41 2.41226L20.7064 1.42809C21.3654 1.14564 22.075 1 22.792 1H22.845C24.0129 1 25.1461 1.39749 26.0581 2.1271C26.511 2.48939 26.8993 2.92566 27.2067 3.41746L29.1384 6.50816L31.5951 10.9302L32.7108 13.7195L33.6392 13.3481L32.7108 13.7195C33.2321 15.0229 33.5 16.4138 33.5 17.8177V18.2333C33.5 19.2817 33.3115 20.3215 32.9434 21.3031C32.4255 22.684 31.5668 23.9114 30.447 24.8712L30.094 25.1738C29.3398 25.8203 28.498 26.357 27.5936 26.7681L23.5862 28.5896L20.3559 30.058C18.9332 30.7047 17.4284 31.1531 15.8838 31.3907L14.4547 31.6106C12.8854 31.852 11.282 31.7406 9.76115 31.2843C8.27112 30.8373 6.89671 30.0702 5.73401 29.0367L5.45163 28.7857C4.05862 27.5475 2.9629 26.0109 2.24605 24.2905L2.07384 23.8772C1.37929 22.2103 1.09505 20.401 1.24502 18.6014C1.39678 16.7803 1.98866 15.0233 2.96976 13.4816L3.46371 12.7054C4.32073 11.3586 5.38709 10.1572 6.62258 9.14632L7.74101 8.23124C9.26627 6.98329 10.9394 5.92785 12.7225 5.08872Z" stroke="#E62B3E" stroke-opacity="0.6" stroke-width="2" stroke-linecap="round" stroke-linejoin="round"/>
<path d="M16.15 27.8675L19.3 31L17.725 28.1084L20.875 24.253L17.5 20.1566L22 16.5422L18.4 11H13L17.725 15.3373L14.125 19.1928L18.4 24.012L16.15 27.8675Z" fill="#E62B3E" fill-opacity="0.6"/>
</svg>
