<svg width="40" height="37" viewBox="0 0 40 37" fill="none" xmlns="http://www.w3.org/2000/svg">
<path d="M25 4L18 2L14.5 1.5L12.1364 1.16235C11.3891 1.05558 10.6271 1.12429 9.91093 1.36302C8.68738 1.77087 7.67596 2.64807 7.09918 3.80164L6.05787 5.88426C5.68726 6.62547 5.40584 7.40801 5.2195 8.21549L4 13.5L2.79631 17.412C2.26698 19.1323 1.92461 20.9047 1.77513 22.6984L1.60142 24.7829C1.5341 25.5908 1.57346 26.404 1.71847 27.2016L1.86704 28.0187C2.26772 30.2225 3.63507 32.1306 5.59307 33.2184C6.52041 33.7336 7.54674 34.0456 8.60391 34.1337L13 34.5L17.4058 35.1778C18.7999 35.3923 20.2083 35.5 21.6188 35.5H23.021C25.3226 35.5 27.6065 35.0976 29.7695 34.3111L31.0801 33.8345C31.6912 33.6123 32.2734 33.3177 32.8144 32.9571C34.2354 32.0097 35.3226 30.6396 35.9223 29.0405L36.5 27.5L37.5927 23.8577C37.8636 22.9546 38.0472 22.0277 38.141 21.0896C38.3769 18.7314 38.0404 16.351 37.1602 14.1505L37.0886 13.9715C36.6973 12.9931 36.2054 12.0581 35.6209 11.1813C34.8769 10.0653 33.9887 9.05258 32.9793 8.16937L32.8402 8.04766C31.2935 6.69431 29.5091 5.63968 27.5777 4.93733L25 4Z" fill="#E62B3E" fill-opacity="0.35" stroke="#E35967" stroke-width="2" stroke-linecap="round" stroke-linejoin="round"/>
<path d="M16.85 31.241L20.7 35L18.775 31.5301L22.625 26.9036L18.5 21.988L24 17.6506L19.6 11H13L18.775 16.2048L14.375 20.8313L19.6 26.6145L16.85 31.241Z" fill="#E62B3E" fill-opacity="0.6"/>
</svg>
