<svg width="41" height="38" viewBox="0 0 41 38" fill="none" xmlns="http://www.w3.org/2000/svg">
<path d="M19.9547 37.4979C19.9698 37.4993 19.9849 37.5 20 37.5H23.5988C25.2264 37.5 26.8506 37.3535 28.4519 37.0624L29.6898 36.8373C30.9909 36.6008 32.259 36.2098 33.4674 35.6727L34.5847 35.1762C35.7105 34.6758 36.7347 33.9724 37.6059 33.1012L38.1294 32.5777C38.9923 31.7148 39.6211 30.6462 39.9564 29.4728C40.3248 28.1834 40.3248 26.8166 39.9564 25.5272L39.9398 25.4692C39.66 24.4901 39.6183 23.4582 39.818 22.4596L40.1222 20.9383C40.3756 19.6716 40.4497 18.3756 40.3424 17.0883L40.1953 15.3227C40.0617 13.7194 39.7815 12.1318 39.3582 10.5797L38.8718 8.79638L38.3894 8.92794L38.8718 8.79638C38.6021 7.80752 38.2083 6.85678 37.6998 5.96685L37.3007 5.26841C36.6939 4.20661 35.8645 3.28876 34.8693 2.57794C33.4326 1.55168 31.7111 1 29.9454 1H28C27.9896 1 27.9792 1.00032 27.9688 1.00097L19.9688 1.50097C19.9538 1.50191 19.9388 1.50353 19.924 1.50581L13.424 2.50581C13.4143 2.5073 13.4048 2.50906 13.3952 2.5111L7.79385 3.7114C6.80816 3.92261 5.87128 4.31822 5.03252 4.8774C3.77148 5.71809 2.7752 6.89969 2.15967 8.28464L1.76906 9.16351C1.26612 10.2951 0.952337 11.5016 0.840223 12.7349L0.670433 14.6026C0.555849 15.863 0.547045 17.1308 0.644114 18.3927L1.00147 23.0383C1.00279 23.0555 1.00499 23.0725 1.00807 23.0894L1.50835 25.841C1.85086 27.7248 2.62727 29.503 3.77609 31.0348C4.68813 32.2508 5.81711 33.2878 7.10612 34.0934L7.55974 34.377C8.7094 35.0955 9.95 35.657 11.2486 36.0466L12.214 36.3362C13.6707 36.7732 15.1676 37.0628 16.6822 37.2004L19.9547 37.4979Z" fill="#B0D0D4" stroke="#B0D0D4" stroke-linecap="round" stroke-linejoin="round"/>
<path opacity="0.6" d="M27 19C27 22.3137 24.3137 25 21 25C19.2182 25 17.6188 24.2246 16.5185 22.9896C15.5732 21.9287 15 20.5325 15 19C15 15.6863 17.6863 13 21 13C22.7257 13 24.28 13.7273 25.3759 14.8949C26.384 15.969 27 17.4115 27 19Z" stroke="white" stroke-width="2"/>
</svg>
