<svg width="28" height="36" viewBox="0 0 28 36" fill="none" xmlns="http://www.w3.org/2000/svg">
<path d="M19.9096 8.71327C19.8985 8.69744 19.8865 8.68226 19.8737 8.66782L16.8443 5.25977C16.1766 4.50862 15.4352 3.82641 14.6312 3.22341L13.2885 2.21638C12.2464 1.43481 11.0318 0.915066 9.74688 0.700916L9.68787 0.691081L9.60609 1.18175L9.68787 0.691081C8.90454 0.560526 8.10579 0.55124 7.31964 0.663547L6.84086 0.731943C5.49294 0.924504 4.24384 1.54906 3.28104 2.51186C2.47454 3.31835 1.90239 4.32887 1.62577 5.43538L1.32262 6.64795C1.10835 7.50505 1 8.38519 1 9.26866V11.804C1 13.2898 1.10546 14.7738 1.31559 16.2446L2.00503 21.0707L2.67105 25.7329C2.90122 27.3441 3.47224 28.8877 4.34603 30.2608L5.15051 31.525C6.13591 33.0735 7.6547 34.2071 9.41952 34.7113C10.0899 34.9028 10.7837 35 11.4809 35H12.7489C14.6286 35 16.5061 34.6567 18.2651 33.9971C19.2291 33.6356 20.1622 33.1758 21.0356 32.6299L21.5315 32.32C23.0638 31.3623 24.3747 30.0893 25.377 28.5858L26.091 27.5149C26.6755 26.6381 27.0563 25.6415 27.2053 24.5984C27.4083 23.1774 27.1732 21.7283 26.5312 20.4444L25.4523 18.2865C24.1099 15.2679 22.4802 12.3855 20.5856 9.67902L19.9096 8.71327Z" fill="#B0D0D4" stroke="#B0D0D4" stroke-linecap="round" stroke-linejoin="round"/>
<path opacity="0.6" d="M19 18C19 21.3137 16.3137 24 13 24C11.2182 24 9.61885 23.2246 8.51849 21.9896C7.57322 20.9287 7 19.5325 7 18C7 14.6863 9.68629 12 13 12C14.7257 12 16.28 12.7273 17.3759 13.8949C18.384 14.969 19 16.4115 19 18Z" stroke="white" stroke-width="2"/>
</svg>
