<svg width="40" height="37" viewBox="0 0 40 37" fill="none" xmlns="http://www.w3.org/2000/svg">
<path d="M25.1709 3.5301C25.1598 3.52609 25.1487 3.52246 25.1374 3.51924L18.1374 1.51924C18.1155 1.51299 18.0932 1.50824 18.0707 1.50503L14.5707 1.00503L12.2072 0.667375C11.383 0.549632 10.5427 0.625401 9.75281 0.888683C8.40346 1.33847 7.28806 2.30586 6.65197 3.57803L5.61066 5.66066C5.22238 6.43722 4.92754 7.25707 4.73231 8.10306L3.51684 13.3701L2.31842 17.2649C1.77852 19.0196 1.42932 20.8274 1.27686 22.6569L1.10315 24.7414C1.03218 25.593 1.07367 26.4503 1.22654 27.291L1.37511 28.1082C1.80258 30.4593 3.26134 32.4949 5.35024 33.6554C6.33958 34.2051 7.43454 34.5379 8.56239 34.6319L12.9411 34.9968L17.3298 35.672C18.749 35.8903 20.1829 36 21.6188 36H23.021C25.3809 36 27.7226 35.5875 29.9404 34.781L31.251 34.3044L31.0801 33.8345L31.251 34.3044C31.8996 34.0686 32.5176 33.7559 33.0918 33.3731C34.6 32.3676 35.754 30.9133 36.3905 29.2161L36.9682 27.6756C36.9721 27.6651 36.9757 27.6544 36.9789 27.6437L38.0716 24.0013C38.3517 23.0677 38.5416 22.1093 38.6386 21.1393C38.8824 18.7011 38.5345 16.24 37.6244 13.9648L37.5528 13.7858L37.0886 13.9715L37.5528 13.7858C37.1486 12.7753 36.6406 11.8095 36.0369 10.904C35.2685 9.75132 34.3511 8.70531 33.3085 7.79308L33.1694 7.67138L32.8402 8.04766L33.1694 7.67137C31.5762 6.27729 29.7381 5.19092 27.7485 4.46743L25.1709 3.5301Z" fill="#B0D0D4" stroke="#B0D0D4" stroke-linecap="round" stroke-linejoin="round"/>
<path opacity="0.6" d="M26 18C26 21.3137 23.3137 24 20 24C18.2182 24 16.6188 23.2246 15.5185 21.9896C14.5732 20.9287 14 19.5325 14 18C14 14.6863 16.6863 12 20 12C21.7257 12 23.28 12.7273 24.3759 13.8949C25.384 14.969 26 16.4115 26 18Z" stroke="white" stroke-width="2"/>
</svg>
