<svg width="40" height="34" viewBox="0 0 40 34" fill="none" xmlns="http://www.w3.org/2000/svg">
<path d="M38.4919 14.4106C38.4909 14.405 38.4898 14.3995 38.4886 14.394C38.4868 14.3855 38.4847 14.3769 38.4824 14.3684L37.9407 12.3823C37.2901 9.99668 36.0968 7.79376 34.454 5.9456L34.4031 5.88834C33.3557 4.71006 32.1351 3.69799 30.7833 2.88689C27.1371 0.699162 22.7537 0.100989 18.6546 1.23177L13.7255 2.59154C11.4543 3.21808 9.27386 4.1364 7.23876 5.32354L5.27274 6.47038C4.55536 6.88885 3.89489 7.39801 3.30763 7.98526L2.89645 8.39644C1.68401 9.60889 0.897514 11.1819 0.655025 12.8793C0.54883 13.6227 0.54883 14.3773 0.655025 15.1207L0.733439 15.6696C0.924108 17.0043 1.48219 18.2596 2.3453 19.2954L2.72941 18.9753L2.3453 19.2954C3.11363 20.2174 3.60117 21.3405 3.75004 22.5314L3.78918 22.8446C3.93961 24.048 4.35053 25.2043 4.99333 26.2327L5.46167 26.9821C6.2299 28.2112 7.20849 29.2956 8.35266 30.1855L8.4294 30.2452C10.3094 31.7074 12.5574 32.6206 14.9245 32.8836L15.9448 32.9969C15.9631 32.999 15.9816 33 16 33C20.3515 33 24.6976 32.6911 29.0054 32.0757L29.5707 31.995C29.5912 31.992 29.6116 31.9878 29.6316 31.9824L33.136 31.0266C34.5277 30.6471 35.7962 29.9109 36.8162 28.8909C38.2153 27.4918 39.0678 25.6384 39.2195 23.6655L39.3692 21.7192C39.4584 20.5605 39.3982 19.3953 39.1904 18.252L38.4919 14.4106Z" fill="#B0D0D4" stroke="#B0D0D4" stroke-linecap="round" stroke-linejoin="round"/>
<path opacity="0.6" d="M26 16C26 19.3137 23.3137 22 20 22C18.2182 22 16.6188 21.2246 15.5185 19.9896C14.5732 18.9287 14 17.5325 14 16C14 12.6863 16.6863 10 20 10C21.7257 10 23.28 10.7273 24.3759 11.8949C25.384 12.969 26 14.4115 26 16Z" stroke="white" stroke-width="2"/>
</svg>
