<svg width="32" height="31" viewBox="0 0 32 31" fill="none" xmlns="http://www.w3.org/2000/svg">
<path d="M30.1731 13.468L30.0203 13.1113L29.5607 13.3083L30.0203 13.1113C29.6352 12.2129 29.1687 11.3516 28.6265 10.5383L27.416 8.72265L27.1013 8.25062C25.9512 6.52536 24.4469 5.06469 22.6886 3.96573C21.7093 3.35372 20.661 2.85996 19.5655 2.49479L18.2838 2.06754C17.1714 1.69676 16.0251 1.43675 14.8617 1.29132L13.8057 1.15932C12.9362 1.05063 12.056 1.05835 11.1885 1.18228C9.62481 1.40566 8.13766 2.0015 6.8523 2.91962L6.34015 3.28544C5.55738 3.84456 4.8421 4.49259 4.20865 5.21653L3.41989 6.11797C2.18309 7.53146 1.41796 9.2955 1.23107 11.1644C1.07257 12.7494 1.33628 14.3481 1.99544 15.7983L2.63437 17.2039C3.25892 18.5779 4.09054 19.848 5.10021 20.9699L6.69475 22.7416C7.66992 23.8251 8.74823 24.8112 9.91441 25.6858L11.4219 26.8164C13.3113 28.2335 15.5135 29.1758 17.8432 29.5641L18.5212 29.6771C19.8349 29.8961 21.1775 29.8744 22.4835 29.6132C24.6111 29.1877 26.5652 28.1419 28.0995 26.6076L28.3993 26.3078C29.4081 25.299 30.1893 24.0858 30.6903 22.7498C31.229 21.3135 31.4297 19.7724 31.2771 18.2459L31.1962 17.4368C31.0594 16.0694 30.7144 14.7311 30.1731 13.468Z" fill="#B0D0D4" stroke="#B0D0D4" stroke-linecap="round" stroke-linejoin="round"/>
<path opacity="0.6" d="M22 16C22 19.3137 19.3137 22 16 22C14.2182 22 12.6188 21.2246 11.5185 19.9896C10.5732 18.9287 10 17.5325 10 16C10 12.6863 12.6863 10 16 10C17.7257 10 19.28 10.7273 20.3759 11.8949C21.384 12.969 22 14.4115 22 16Z" stroke="white" stroke-width="2"/>
</svg>
