<svg width="40" height="52" viewBox="0 0 40 52" fill="none" xmlns="http://www.w3.org/2000/svg">
<path d="M29.8559 39.4476C31.2279 37.5775 32.5369 35.5789 33.4333 33.7265C33.5995 33.383 33.7739 33.0152 33.9544 32.6284C37.9304 24.1081 36.0952 13.7196 28.7809 7.73648C26.5991 5.95184 24.6886 4.63077 22.6088 3.65602C20.5262 2.68 18.2954 2.06118 15.481 1.65561C14.1657 1.46608 12.3201 1.33243 10.3719 1.23746C7.64478 1.10453 5.57405 2.43722 4.10664 4.41194C2.64961 6.37267 1.76596 8.98671 1.35918 11.5287C-0.0979023 20.6343 0.337233 26.1403 2.36946 35.1124C2.59851 36.1237 2.9068 37.2451 3.24506 38.3713C4.02442 40.9661 5.13638 43.7497 6.74507 45.9964C8.35645 48.2469 10.4956 49.9969 13.3258 50.4288C16.8533 50.967 20.006 49.5457 22.7442 47.3563C25.4791 45.1695 27.8565 42.1729 29.8559 39.4476Z" fill="#B0D0D4" stroke="#B0D0D4" stroke-linecap="round" stroke-linejoin="round"/>
<path opacity="0.6" d="M22 34C22 37.3137 19.3137 40 16 40C14.2182 40 12.6188 39.2246 11.5185 37.9896C10.5732 36.9287 10 35.5325 10 34C10 30.6863 12.6863 28 16 28C17.7257 28 19.28 28.7273 20.3759 29.8949C21.384 30.969 22 32.4115 22 34Z" stroke="white" stroke-width="2"/>
</svg>
