<svg width="39" height="40" viewBox="0 0 39 40" fill="none" xmlns="http://www.w3.org/2000/svg">
<path d="M12.5453 38.498L12.5498 38.4975L14.2589 38.3266C16.3735 38.1151 18.5089 38.2934 20.5591 38.8526L20.7734 38.911C22.2068 39.3019 23.6859 39.5 25.1716 39.5H26.9929C28.055 39.5 29.106 39.2843 30.0822 38.8659C31.5528 38.2356 32.7954 37.1707 33.6434 35.814L34.0393 35.1805C34.6549 34.1955 35.0982 33.1128 35.3502 31.9789L35.598 30.8639C35.8652 29.6615 36 28.4335 36 27.2017V26.9565C36 24.7331 36.4093 22.5286 37.2075 20.4534L37.5184 19.645C38.1673 17.958 38.5 16.1659 38.5 14.3584V14.0498C38.5 11.9662 38.0115 9.90494 37.08 8.04189C36.3049 6.49169 35.2324 5.10149 33.9277 3.95986C32.491 2.70276 30.8014 1.76841 28.9729 1.21986L28.661 1.12629L28.5173 1.6052L28.661 1.12629C27.2767 0.710987 25.8391 0.5 24.3938 0.5H24.1255C22.3328 0.5 20.5518 0.789008 18.8512 1.3559L15.4598 2.48636C13.3408 3.19269 11.3685 4.27977 9.63974 5.69418C7.63631 7.33335 6.00216 9.37765 4.84452 11.6929L4.17223 13.0375C3.07668 15.2286 2.30403 17.5667 1.8783 19.9792L1.60163 21.547C1.2002 23.8218 1.06594 26.1357 1.20158 28.4416L1.43286 32.3733C1.48125 33.1959 1.672 34.004 1.99662 34.7614L2.12155 35.0529C2.76199 36.5473 3.95272 37.738 5.44708 38.3784C6.41334 38.7926 7.46751 38.9596 8.51445 38.8644L12.5453 38.498Z" fill="#B0D0D4" stroke="#B0D0D4" stroke-linecap="round" stroke-linejoin="round"/>
<path opacity="0.6" d="M26 20C26 23.3137 23.3137 26 20 26C18.2182 26 16.6188 25.2246 15.5185 23.9896C14.5732 22.9287 14 21.5325 14 20C14 16.6863 16.6863 14 20 14C21.7257 14 23.28 14.7273 24.3759 15.8949C25.384 16.969 26 18.4115 26 20Z" stroke="white" stroke-width="2"/>
</svg>
