<svg width="32" height="30" viewBox="0 0 32 30" fill="none" xmlns="http://www.w3.org/2000/svg">
<path d="M24.3345 23.3716C24.3483 23.3592 24.3614 23.3461 24.3737 23.3322L27.0401 20.3325C27.9545 19.3038 28.7294 18.1592 29.3449 16.9282L30.1884 15.2412C30.7221 14.1738 31 12.9967 31 11.8033C31 10.2011 30.4994 8.63889 29.5681 7.33511L29.1885 6.80368L28.7816 7.09429L29.1885 6.80367C28.6421 6.03865 27.9876 5.3569 27.2455 4.77971L26.589 4.26916C24.6982 2.7985 22.4909 1.78828 20.142 1.3185L18.7839 1.04687C18.628 1.0157 18.4695 1 18.3105 1C18.0511 1 17.7934 1.04182 17.5473 1.12385L14.9834 1.97847C12.8495 2.68978 10.8583 3.77307 9.10181 5.17824L8.83661 5.3904C7.37555 6.55925 6.07749 7.91836 4.97698 9.43156L3.67176 11.2262C2.93111 12.2446 2.33156 13.3585 1.88942 14.5376L1.77989 14.8296C1.26417 16.2049 1 17.6617 1 19.1305V19.8862C1 21.688 1.50635 23.4536 2.46131 24.9815C3.23504 26.2195 4.28054 27.265 5.5185 28.0387C7.04644 28.9936 8.81199 29.5 10.6138 29.5H11.9689C13.3649 29.5 14.7655 29.2924 16.1017 28.8915C18.162 28.2734 20.0801 27.2006 21.68 25.7607L24.3345 23.3716Z" fill="#B0D0D4" stroke="#B0D0D4" stroke-linecap="round" stroke-linejoin="round"/>
<path opacity="0.6" d="M22 15C22 18.3137 19.3137 21 16 21C14.2182 21 12.6188 20.2246 11.5185 18.9896C10.5732 17.9287 10 16.5325 10 15C10 11.6863 12.6863 9 16 9C17.7257 9 19.28 9.72726 20.3759 10.8949C21.384 11.969 22 13.4115 22 15Z" stroke="white" stroke-width="2"/>
</svg>
