<svg width="43" height="36" viewBox="0 0 43 36" fill="none" xmlns="http://www.w3.org/2000/svg">
<path d="M33.7236 6.55279C33.7112 6.54659 33.6986 6.54091 33.6857 6.53576L29.0805 4.69367C27.1305 3.91368 25.1259 3.2779 23.0828 2.79146L17.426 1.4446C16.1707 1.14571 14.8708 1.07475 13.5904 1.2348C12.1029 1.42074 10.6693 1.91532 9.38374 2.68666C8.9362 2.95518 8.50877 3.25588 8.10483 3.58638L7.73733 3.88707C4.70144 6.37097 2.60012 9.81313 1.77823 13.6486L1.5111 14.8952L1.50807 14.9106L1.40249 15.4912C0.802049 18.7936 0.5 22.1434 0.5 25.5C0.5 28.6789 2.64241 31.4662 5.70665 32.3019C6.17859 32.4306 6.66474 32.5106 7.15338 32.5393L12.7035 32.8658C14.1641 32.9517 15.6239 33.235 17.0128 33.698C19.5846 34.5553 22.3506 34.8121 25.0361 34.4285L26.0266 34.287C27.4375 34.0854 28.8009 33.6327 30.0522 32.9502C32.5367 31.595 34.4585 29.4008 35.4744 26.7594L36.4548 24.2104L39.4389 18.7394C39.4418 18.7342 39.4446 18.7289 39.4472 18.7236C41.5037 14.6106 39.8366 9.60928 35.7236 7.55279L33.7236 6.55279Z" fill="#B0D0D4" stroke="#B0D0D4" stroke-linecap="round" stroke-linejoin="round"/>
<path opacity="0.6" d="M25 19C25 22.3137 22.3137 25 19 25C17.2182 25 15.6188 24.2246 14.5185 22.9896C13.5732 21.9287 13 20.5325 13 19C13 15.6863 15.6863 13 19 13C20.7257 13 22.28 13.7273 23.3759 14.8949C24.384 15.969 25 17.4115 25 19Z" stroke="white" stroke-width="2"/>
</svg>
