<svg width="35" height="36" viewBox="0 0 35 36" fill="none" xmlns="http://www.w3.org/2000/svg">
<path d="M24.9961 4.53691L24.4366 4.14527C21.9727 2.42056 19.1542 1.26881 16.1876 0.774373L15.5032 0.660304C14.8631 0.553617 14.2152 0.5 13.5663 0.5H12.5708C9.83867 0.5 7.23693 1.66836 5.42178 3.71039C4.52079 4.72401 3.84564 5.91763 3.44113 7.21207L2.21982 11.1203C1.74748 12.6317 1.40481 14.1807 1.19552 15.7504L1.02349 17.0406C0.672182 19.6754 0.822853 22.353 1.46755 24.9317L1.66341 25.7152C1.9059 26.6852 2.25382 27.6257 2.70096 28.52L3.11212 29.3423C4.0957 31.3094 5.65785 32.9284 7.58864 33.9815C9.41735 34.979 11.496 35.4249 13.5729 35.2651L15.1304 35.1453C16.4384 35.0447 17.729 34.784 18.9735 34.3692L21.4994 33.5273C23.6399 32.8137 25.666 31.7942 27.5144 30.5002L28.4587 29.8392C29.3738 29.1987 30.2082 28.4499 30.9438 27.6093L31.1564 27.3663C32.6686 25.638 33.6842 23.5322 34.095 21.2727C34.3682 19.7699 34.3682 18.2301 34.095 16.7273L33.9952 16.1784C33.6532 14.2976 32.9958 12.4413 31.8187 10.8742C31.3703 10.2773 30.8622 9.65507 30.3536 9.14645C29.3242 8.11712 27.551 6.58461 26.561 5.74183C26.0579 5.31356 25.5343 4.91365 24.9961 4.53691Z" fill="#B0D0D4" stroke="#B0D0D4" stroke-linecap="round" stroke-linejoin="round"/>
<path opacity="0.6" d="M21 21C21 24.3137 18.3137 27 15 27C13.2182 27 11.6188 26.2246 10.5185 24.9896C9.57322 23.9287 9 22.5325 9 21C9 17.6863 11.6863 15 15 15C16.7257 15 18.28 15.7273 19.3759 16.8949C20.384 17.969 21 19.4115 21 21Z" stroke="white" stroke-width="2"/>
</svg>
