<svg width="41" height="38" viewBox="0 0 41 38" fill="none" xmlns="http://www.w3.org/2000/svg">
<path d="M19.576 1.50581L19.562 1.50386L14.5447 0.876693C12.5027 0.621452 10.43 0.937122 8.55666 1.78865C6.66543 2.6483 5.05245 4.01994 3.9001 5.74847L3.83461 5.8467C2.97201 7.1406 2.37965 8.59541 2.09306 10.1239L1.6059 12.7221C1.20122 14.8804 1.08854 17.0833 1.2709 19.2716L1.5 22.0208V23.9811C1.5 25.3694 1.70757 26.7498 2.11584 28.0767L2.51101 29.361C3.19883 31.5964 4.63731 33.5258 6.58335 34.8232C7.72109 35.5817 9.00033 36.1025 10.3443 36.3545L13.3448 36.9171C15.42 37.3062 17.5361 37.432 19.6428 37.2916L24.0333 36.9989C24.055 36.9974 24.0767 36.9946 24.0981 36.9903L28.5987 36.0902C30.6456 35.6808 32.5796 34.8331 34.2678 33.6053L34.8039 33.2154C36.5062 31.9774 37.8526 30.3129 38.7075 28.3893C39.2255 27.2237 39.5542 25.9828 39.6811 24.7136L39.8268 23.2573C39.9432 22.0933 39.9626 20.9217 39.8847 19.7545L39.4989 13.9667C39.4978 13.9503 39.4959 13.934 39.4932 13.9178L39.1076 11.6044C38.6917 9.10908 37.3693 6.85511 35.3939 5.27479C33.9613 4.12877 32.2479 3.38749 30.4318 3.12804L26.076 2.50581L26.0707 2.50503L19.576 1.50581Z" fill="#B0D0D4" stroke="#B0D0D4" stroke-linecap="round" stroke-linejoin="round"/>
<path opacity="0.6" d="M26 19C26 22.3137 23.3137 25 20 25C18.2182 25 16.6188 24.2246 15.5185 22.9896C14.5732 21.9287 14 20.5325 14 19C14 15.6863 16.6863 13 20 13C21.7257 13 23.28 13.7273 24.3759 14.8949C25.384 15.969 26 17.4115 26 19Z" stroke="white" stroke-width="2"/>
</svg>
