<svg width="40" height="37" viewBox="0 0 40 37" fill="none" xmlns="http://www.w3.org/2000/svg">
<path d="M25.3876 35.4872C25.3976 35.4895 25.4077 35.4915 25.4178 35.4932L29.0528 36.099C30.6941 36.3726 32.3798 36.1191 33.8681 35.375C35.1638 34.7271 36.2557 33.7343 37.0235 32.5058L37.3055 32.0546C38.0815 30.813 38.5683 29.4129 38.73 27.9578L38.8433 26.9375C38.9492 25.985 38.9588 25.0241 38.872 24.0696L38.6781 21.9363C38.5608 20.6466 38.556 19.3492 38.6635 18.0586L38.7516 17.0013C38.9196 14.9851 38.7333 12.955 38.2009 11.003L38.0621 10.494L37.5797 10.6256L38.0621 10.494C37.664 9.03434 37.0332 7.64835 36.1939 6.38945L35.6524 5.57714L35.2363 5.85449L35.6524 5.57714C34.7962 4.29299 33.6529 3.22579 32.3129 2.46007C31.2243 1.83799 30.0278 1.42746 28.7865 1.25014L24.6265 0.655858C23.9001 0.552083 23.1672 0.5 22.4335 0.5C18.8057 0.5 15.2927 1.77186 12.5058 4.0943L11.9886 4.5253C11.0926 5.27201 10.274 6.1071 9.54536 7.01791L8.35201 8.50959C7.17593 9.97969 6.11606 11.5391 5.18201 13.1737L3.4915 16.1321C2.85595 17.2443 2.36378 18.4325 2.02673 19.6684L1.54428 21.4374C1.17643 22.7861 1.16132 24.2068 1.50039 25.5631L1.53133 25.6869C1.86975 27.0406 2.56971 28.2768 3.55637 29.2635C4.66366 30.3708 6.0823 31.1141 7.62299 31.3942L10.8945 31.989L18.8787 33.9851L18.8787 33.9852L18.8876 33.9872L25.3876 35.4872Z" fill="#B0D0D4" stroke="#B0D0D4" stroke-linecap="round" stroke-linejoin="round"/>
<path opacity="0.6" d="M26 19C26 22.3137 23.3137 25 20 25C18.2182 25 16.6188 24.2246 15.5185 22.9896C14.5732 21.9287 14 20.5325 14 19C14 15.6863 16.6863 13 20 13C21.7257 13 23.28 13.7273 24.3759 14.8949C25.384 15.969 26 17.4115 26 19Z" stroke="white" stroke-width="2"/>
</svg>
