<svg width="26" height="39" viewBox="0 0 26 39" fill="none" xmlns="http://www.w3.org/2000/svg">
<path d="M3.29725 4.28746L3.74447 4.51107L3.29725 4.28746C3.1239 4.63417 2.97537 4.99274 2.85279 5.36048L2.47993 6.47907C1.49917 9.42135 1.07939 12.5216 1.2424 15.6187L1.5 20.5131V28C1.5 28.0151 1.50069 28.0302 1.50205 28.0453L1.89593 32.3779C1.97221 33.217 2.22299 34.0309 2.63218 34.7675C3.89048 37.0324 6.45174 38.2442 9.00095 37.7808L10.5894 37.4919C10.5971 37.4905 10.6048 37.489 10.6124 37.4872L16.1634 36.2062C16.8201 36.0547 17.4642 35.8528 18.09 35.6025L19.8615 34.8939C21.4713 34.25 22.8158 33.0801 23.6761 31.5746C24.2107 30.6391 24.5423 29.6016 24.6495 28.5295L24.9975 25.0498C24.9992 25.0332 25 25.0166 25 25C25 21.6337 24.3945 18.2948 23.2125 15.1428L22.9859 14.5383C22.2962 12.6992 21.3978 10.9453 20.3083 9.31102C18.6935 6.8889 16.6787 4.759 14.3499 3.01239L13.8062 2.60468L12.8741 1.85896C11.7734 0.97837 10.391 0.5 8.98428 0.5C7.59771 0.5 6.23524 0.9715 5.15027 1.83947C4.45959 2.39202 3.89705 3.08787 3.50149 3.879L3.29725 4.28746Z" fill="#B0D0D4" stroke="#B0D0D4" stroke-linecap="round" stroke-linejoin="round"/>
<path opacity="0.6" d="M18 20C18 23.3137 15.3137 26 12 26C10.2182 26 8.61885 25.2246 7.51849 23.9896C6.57322 22.9287 6 21.5325 6 20C6 16.6863 8.68629 14 12 14C13.7257 14 15.28 14.7273 16.3759 15.8949C17.384 16.969 18 18.4115 18 20Z" stroke="white" stroke-width="2"/>
</svg>
