<svg width="26" height="39" viewBox="0 0 26 39" fill="none" xmlns="http://www.w3.org/2000/svg">
<path d="M11.735 3.076C11.7205 3.08505 11.7065 3.09484 11.693 3.10532C8.67172 5.45523 6.21502 8.45192 4.50328 11.8754L4.38777 12.1064C3.82123 13.2395 3.33584 14.4114 2.93524 15.6132L2.48396 16.967C1.83503 18.9138 1.41348 20.929 1.22769 22.9727L1.11306 24.2336C1.03635 25.0775 1.04018 25.9267 1.12449 26.7698L1.32779 28.8028C1.45141 30.0391 1.93017 31.2131 2.70629 32.1833C3.34979 32.9876 4.17694 33.6258 5.11825 34.0442L7.22531 34.9806C7.96185 35.308 8.72221 35.5789 9.49981 35.7909L13.8684 36.9824C13.8823 36.9862 13.8964 36.9894 13.9106 36.9919L17.5979 37.6624C18.8882 37.897 20.2191 37.6215 21.3103 36.8941C22.3578 36.1957 23.1074 35.1321 23.4127 33.9107L24.2474 30.5719C24.4115 29.9155 24.5277 29.248 24.595 28.5748L24.9401 25.1237C25.314 21.3852 25.3451 17.6203 25.0331 13.8761L24.9983 13.4585L24.9979 13.4547L24.7578 10.813C24.5801 8.85813 23.9841 6.96433 23.0102 5.26002L22.795 4.88353C22.5404 4.43785 22.247 4.01541 21.9184 3.62107L21.0448 2.57271C20.2184 1.5811 19.0537 0.931169 17.7759 0.748624C16.5579 0.574627 15.3176 0.836846 14.2743 1.48893L11.735 3.076Z" fill="#B0D0D4" stroke="#B0D0D4" stroke-linecap="round" stroke-linejoin="round"/>
<path opacity="0.6" d="M19 19C19 22.3137 16.3137 25 13 25C11.2182 25 9.61885 24.2246 8.51849 22.9896C7.57322 21.9287 7 20.5325 7 19C7 15.6863 9.68629 13 13 13C14.7257 13 16.28 13.7273 17.3759 14.8949C18.384 15.969 19 17.4115 19 19Z" stroke="white" stroke-width="2"/>
</svg>
