<svg width="40" height="37" viewBox="0 0 40 37" fill="none" xmlns="http://www.w3.org/2000/svg">
<path d="M36.9642 17.3143C36.9561 17.2939 36.9466 17.274 36.9358 17.2549L34.0133 12.0593C32.9442 10.1587 31.6203 8.41317 30.0783 6.8712L29.0702 5.86313C27.2291 4.02199 25.0021 2.61267 22.55 1.73694L22.3827 2.20538L22.55 1.73694L22.4389 1.69725C20.2167 0.90361 17.8538 0.580598 15.5001 0.748717L15.0522 0.780713C12.9463 0.931135 10.8962 1.52647 9.0373 2.52742L8.78132 2.66526C6.39998 3.94752 4.44267 5.89428 3.14756 8.26865C2.40157 9.6363 1.8899 11.1192 1.63379 12.6559L1.37003 14.2384C1.11957 15.7412 1.16071 17.2781 1.4912 18.7653C1.81943 20.2423 1.83513 21.7748 1.53834 23.2588C1.17597 25.0707 1.23965 26.9457 1.72592 28.7287L2.0473 29.907C2.37646 31.114 2.96952 32.2327 3.78366 33.1826C5.04654 34.6559 6.77808 35.6497 8.68731 35.9968L9.26651 36.1021C10.7514 36.3721 12.2779 36.3061 13.734 35.909L17.1316 34.9824C17.1379 34.9806 17.1443 34.9788 17.1506 34.9768L26.6247 31.985L32.3456 30.8408C33.5773 30.5944 34.728 30.0442 35.693 29.24C36.8296 28.2928 37.6624 27.0322 38.0875 25.6151L38.1732 25.3294C38.7274 23.4821 38.6391 21.5015 37.9229 19.7109L36.9642 17.3143Z" fill="#B0D0D4" stroke="#B0D0D4" stroke-linecap="round" stroke-linejoin="round"/>
<path opacity="0.6" d="M26 19C26 22.3137 23.3137 25 20 25C18.2182 25 16.6188 24.2246 15.5185 22.9896C14.5732 21.9287 14 20.5325 14 19C14 15.6863 16.6863 13 20 13C21.7257 13 23.28 13.7273 24.3759 14.8949C25.384 15.969 26 17.4115 26 19Z" stroke="white" stroke-width="2"/>
</svg>
