<svg width="35" height="36" viewBox="0 0 35 36" fill="none" xmlns="http://www.w3.org/2000/svg">
<path d="M16.6358 2.18131L14.8197 2.8798C12.7881 3.66119 10.8675 4.70536 9.10715 5.98564L8.61892 6.34072C6.98028 7.53246 5.51748 8.94883 4.27352 10.5482L3.50661 11.5342C2.88198 12.3373 2.36292 13.2172 1.96214 14.1524C1.32733 15.6336 1 17.2283 1 18.8398V18.8892C1 20.3454 1.2657 21.7992 1.77669 23.1618C2.29449 24.5427 3.06115 25.8292 4.03285 26.9397L4.50252 27.4765C5.61099 28.7433 6.91041 29.8293 8.35384 30.6954L9.46241 31.3605C10.6718 32.0862 11.9419 32.7057 13.2583 33.212L15.5143 34.0797C17.096 34.688 18.7762 35 20.4709 35H21.3133C23.4899 35 25.6178 34.3557 27.4288 33.1484C28.7057 32.2972 29.7907 31.1888 30.6146 29.8941L31.1761 29.0117C32.3646 27.1442 33.152 25.0501 33.4886 22.8623L33.5614 22.389C33.8562 20.4731 33.844 18.5225 33.5253 16.6105L33.3219 15.3899C33.0988 14.0514 32.7712 12.7325 32.3421 11.4452L30.9157 7.16596C30.6057 6.23585 30.1397 5.36523 29.5378 4.59133C27.7826 2.3346 25.0254 1.09119 22.172 1.26952L20.2704 1.38838C19.0255 1.46618 17.7999 1.73357 16.6358 2.18131Z" fill="#B0D0D4" stroke="#B0D0D4" stroke-linecap="round" stroke-linejoin="round"/>
<path opacity="0.6" d="M23 18C23 21.3137 20.3137 24 17 24C15.2182 24 13.6188 23.2246 12.5185 21.9896C11.5732 20.9287 11 19.5325 11 18C11 14.6863 13.6863 12 17 12C18.7257 12 20.28 12.7273 21.3759 13.8949C22.384 14.969 23 16.4115 23 18Z" stroke="white" stroke-width="2"/>
</svg>
