<svg width="35" height="31" viewBox="0 0 35 31" fill="none" xmlns="http://www.w3.org/2000/svg">
<path d="M31.9569 14.7969C31.9538 14.79 31.9506 14.7832 31.9472 14.7764L31.3708 13.6235C30.0787 11.0393 28.5862 8.56038 26.9069 6.20938L25.4064 4.10873C24.7026 3.12343 23.7685 2.32523 22.6855 1.78373C21.6547 1.26833 20.518 1 19.3656 1H18.8346C17.5575 1 16.2931 1.25289 15.1142 1.74407L13.57 2.38748C11.6896 3.17102 9.9554 4.26746 8.44117 5.63027L7.88731 6.12874C6.37929 7.48596 5.06262 9.04172 3.97339 10.7534L2.72602 12.7135C2.27052 13.4293 1.92081 14.2071 1.68773 15.0229C1.22497 16.6426 1.23627 18.361 1.7203 19.9744L2.19869 19.8309L1.7203 19.9744L1.77042 20.1415C2.28806 21.8669 3.29034 23.4074 4.65808 24.5798L5.14003 24.9928C5.85819 25.6084 6.64914 26.1336 7.49516 26.5566L8.68134 27.1497C11.1125 28.3653 13.7451 29.127 16.4497 29.3975L17.4502 29.4975L17.4502 29.4975L17.4547 29.4979L21.2456 29.8426C22.414 29.9488 23.59 29.9435 24.7574 29.8267L26.2283 29.6797C27.493 29.5532 28.724 29.197 29.8609 28.6286L30.8639 28.1271C31.8327 27.6426 32.6584 26.9137 33.2593 26.0124C34.0717 24.7938 34.4284 23.3278 34.2667 21.8722L34.1462 20.7881C34.0416 19.8468 33.7926 18.9273 33.408 18.0619L31.9569 14.7969Z" fill="#B0D0D4" stroke="#B0D0D4" stroke-linecap="round" stroke-linejoin="round"/>
<path opacity="0.6" d="M24 16C24 19.3137 21.3137 22 18 22C16.2182 22 14.6188 21.2246 13.5185 19.9896C12.5732 18.9287 12 17.5325 12 16C12 12.6863 14.6863 10 18 10C19.7257 10 21.28 10.7273 22.3759 11.8949C23.384 12.969 24 14.4115 24 16Z" stroke="white" stroke-width="2"/>
</svg>
