<svg width="365" height="412" viewBox="0 0 365 412" fill="none" xmlns="http://www.w3.org/2000/svg">
<path opacity="0.3" d="M364 290.15L364 121.85C364 108.727 357.069 96.642 345.714 90.0434L200.75 5.89332C189.468 -0.63109 175.532 -0.631092 164.25 5.89332L19.2863 90.0434C8.00474 96.5678 1 108.727 1 121.85L0.999986 290.15C0.999985 303.273 7.93098 315.358 19.2863 321.957L164.25 406.107C175.532 412.631 189.468 412.631 200.75 406.107L345.714 321.882C357.069 315.358 364 303.199 364 290.15Z" stroke="#28A5B1" stroke-miterlimit="10"/>
<path d="M109 52.9783L109 39.0217C109 37.9335 108.427 36.9313 107.489 36.3841L95.5082 29.4058C94.5759 28.8647 93.4241 28.8647 92.4918 29.4058L80.5113 36.3841C79.5789 36.9251 79 37.9335 79 39.0217L79 52.9783C79 54.0665 79.5728 55.0687 80.5113 55.6159L92.4918 62.5942C93.4241 63.1353 94.5759 63.1353 95.5082 62.5942L107.489 55.6098C108.427 55.0687 109 54.0604 109 52.9783Z" fill="#29A5B1"/>
</svg>
