<svg width="43" height="34" viewBox="0 0 43 34" fill="none" xmlns="http://www.w3.org/2000/svg">
<path d="M8.31513 0.201605L0.545702 10.8846C0.41736 11.0619 0.430568 11.3278 0.575808 11.4916L20.9706 33.8286C21.1522 34.0345 21.5173 34.0345 21.6989 33.8286L42.0937 11.4916C42.2389 11.3278 42.2521 11.0619 42.1238 10.8846L34.3544 0.201605C34.2638 0.078799 34.1124 0.00314957 33.9598 0.00436355H8.70919C8.54355 -0.025743 8.36801 0.106429 8.31513 0.201605ZM9.4229 0.975542H20.3031L12.9282 9.98929L9.4229 0.975542ZM22.3517 0.975542H33.2471L29.7418 10.0045L22.3517 0.975542ZM21.335 1.24869L29.0589 10.6873H13.6263L21.335 1.24869ZM8.57312 1.49148L12.1543 10.6873H1.88107L8.57312 1.49148ZM34.0969 1.49148L40.7889 10.6873H30.5156L34.0969 1.49148ZM2.04797 11.6585H12.5185L20.2728 31.6131L2.04797 11.6585ZM13.5656 11.6585H29.1044L21.335 31.6738L13.5656 11.6585ZM30.1515 11.6585H40.622L22.3972 31.6131L30.1515 11.6585Z" fill="#303032"/>
</svg>
