<svg width="72" height="56" viewBox="0 0 72 56" fill="none" xmlns="http://www.w3.org/2000/svg">
<path d="M6.95745 0.470703H65.0426C68.3273 0.470703 71 3.13816 71 6.41654V49.1523C71 52.4307 68.3273 55.0981 65.0426 55.0981H6.95745C3.67266 55.0981 1 52.4307 1 49.1523V6.41654C1 3.13816 3.67266 0.470703 6.95745 0.470703ZM6.95745 53.6117H65.0426C67.5067 53.6117 69.5106 51.6116 69.5106 49.1523V6.41654C69.5106 3.9572 67.5067 1.95716 65.0426 1.95716H6.95745C4.4933 1.95716 2.48936 3.9572 2.48936 6.41654V20.2035H12.1702C15.455 20.2035 18.1277 22.8709 18.1277 26.1493V29.4195C18.1277 32.6979 15.455 35.3654 12.1702 35.3654H2.48936V49.1523C2.48936 51.6116 4.4933 53.6117 6.95745 53.6117ZM2.48936 21.6899V33.8789H12.1702C14.6344 33.8789 16.6383 31.8789 16.6383 29.4195V26.1493C16.6383 23.69 14.6344 21.6899 12.1702 21.6899H2.48936Z" fill="#303032" stroke="#303032" stroke-width="0.4"/>
<path d="M7.63952 27.0411H11.488V28.5275H7.63952V27.0411Z" fill="#303032" stroke="#303032" stroke-width="0.4"/>
</svg>
