<svg width="82" height="46" viewBox="0 0 82 46" fill="none" xmlns="http://www.w3.org/2000/svg">
<path d="M4.02639 0H77.4955C79.7125 0 81.5219 1.81016 81.5219 4.02811C81.5219 16.6794 81.5219 29.3306 81.5219 41.9719C81.5219 44.1898 79.7025 46 77.4955 46H4.02639C1.81933 46 0 44.1898 0 41.9719C0 29.3306 0 16.6794 0 4.02811C0 1.81016 1.80939 0 4.02639 0ZM1.89886 7.44951H79.6131V4.02811C79.6131 2.86443 78.6587 1.89968 77.4955 1.89968H4.02639C2.85327 1.89968 1.89886 2.85449 1.89886 4.02811V7.44951ZM79.6131 14.5609H1.89886V41.9719C1.89886 43.1455 2.85327 44.1003 4.02639 44.1003H77.4955C78.6587 44.1003 79.6131 43.1455 79.6131 41.9719V14.5609ZM79.6131 9.34919H1.89886V12.6512H79.6131V9.34919Z" fill="#303032"/>
<path d="M68.7466 30.534C71.2718 30.534 73.3297 32.5928 73.3297 35.1191C73.3297 37.6453 71.2718 39.7042 68.7466 39.7042C67.832 39.7042 66.9869 39.4356 66.2711 38.9781C64.4617 40.1418 62.0857 39.8832 60.5547 38.3615C59.7196 37.526 59.2125 36.3822 59.2125 35.1191C59.2125 33.8559 59.7196 32.7122 60.5547 31.8767C62.0857 30.355 64.4617 30.0964 66.2711 31.2601C66.9869 30.8025 67.832 30.534 68.7466 30.534ZM64.8395 37.5061C64.412 36.8099 64.1635 35.9943 64.1635 35.1191C64.1635 34.2438 64.412 33.4283 64.8395 32.7321L64.76 32.7022C63.0401 32.0259 61.1909 33.2791 61.1909 35.1191C61.1909 36.9491 63.0401 38.2222 64.76 37.5359L64.8395 37.5061ZM68.7466 32.5132C67.3051 32.5132 66.1419 33.6769 66.1419 35.1191C66.1419 36.5612 67.3051 37.7249 68.7466 37.7249C70.1881 37.7249 71.3513 36.5612 71.3513 35.1191C71.3513 33.6769 70.1881 32.5132 68.7466 32.5132Z" fill="#303032"/>
<path d="M9.39456 25.0836H14.097V30.7827H8.40039V25.0836H9.39456ZM12.1186 27.0629H10.3887V28.8034H12.1186V27.0629Z" fill="#303032"/>
<path d="M33.305 25.0836H38.0173V30.7827H32.3207V25.0836H33.305ZM36.029 27.0629H34.2991V28.8034H36.029V27.0629Z" fill="#303032"/>
<path d="M20.9176 25.0836H25.62V30.7827H19.9234V25.0836H20.9176ZM23.6416 27.0629H21.9117V28.8034H23.6416V27.0629Z" fill="#303032"/>
<path d="M8.13306 38.6399H33.0768V40.5495H8.13306V38.6399Z" fill="#303032"/>
</svg>
