<svg width="62" height="55" viewBox="0 0 62 55" fill="none" xmlns="http://www.w3.org/2000/svg">
<path d="M7.59052 16.4268V37.9107C7.59052 39.5859 8.48573 41.1286 9.9524 41.9709L28.6762 52.7129C30.1334 53.5457 31.9334 53.5457 33.3905 52.7129L52.1143 41.9709C53.5715 41.138 54.4762 39.5859 54.4762 37.9107V16.4268C54.4762 14.7516 53.581 13.2089 52.1143 12.3666L33.3905 1.62464C31.9334 0.791786 30.1334 0.791786 28.6762 1.62464L9.9524 12.3761C8.48573 13.2089 7.59052 14.7611 7.59052 16.4268Z" stroke="#28A5B1" stroke-miterlimit="10"/>
<path opacity="0.3" d="M43.3146 0.999999L18.6854 0.999998C16.7649 0.999998 14.9964 2.01196 14.0307 3.66989L1.7161 24.8355C0.761307 26.4826 0.761307 28.5174 1.7161 30.1645L14.0307 51.3301C14.9855 52.9773 16.7649 54 18.6854 54L43.3146 54C45.2351 54 47.0036 52.988 47.9693 51.3301L60.2839 30.1645C61.2387 28.5174 61.2387 26.4826 60.2839 24.8355L47.9584 3.6699C47.0036 2.01196 45.2242 0.999999 43.3146 0.999999Z" stroke="#28A5B1" stroke-miterlimit="10"/>
<path fill-rule="evenodd" clip-rule="evenodd" d="M28 21.0557L29.1178 20L36 26.5L29.1178 33L28 31.9443L33.7644 26.5L28 21.0557Z" fill="#303032"/>
</svg>
