<svg width="93" height="71" viewBox="0 0 93 71" fill="none" xmlns="http://www.w3.org/2000/svg">
<path d="M34 19.2835V46.1384C34 48.2324 35.119 50.1607 36.9524 51.2136L60.3571 64.6411C62.1785 65.6821 64.4286 65.6821 66.25 64.6411L89.6548 51.2136C91.4762 50.1725 92.6071 48.2324 92.6071 46.1384V19.2835C92.6071 17.1895 91.4881 15.2612 89.6548 14.2083L66.25 0.780803C64.4286 -0.260268 62.1785 -0.260268 60.3571 0.780803L36.9524 14.2201C35.119 15.2612 34 17.2013 34 19.2835Z" fill="#CDF5FA"/>
<path d="M6.95745 15.4707H65.0426C68.3273 15.4707 71 18.1382 71 21.4165V64.1523C71 67.4307 68.3273 70.0981 65.0426 70.0981H6.95745C3.67266 70.0981 1 67.4307 1 64.1523V21.4165C1 18.1382 3.67266 15.4707 6.95745 15.4707ZM6.95745 68.6117H65.0426C67.5067 68.6117 69.5106 66.6116 69.5106 64.1523V21.4165C69.5106 18.9572 67.5067 16.9572 65.0426 16.9572H6.95745C4.4933 16.9572 2.48936 18.9572 2.48936 21.4165V35.2035H12.1702C15.455 35.2035 18.1277 37.8709 18.1277 41.1493V44.4195C18.1277 47.6979 15.455 50.3654 12.1702 50.3654H2.48936V64.1523C2.48936 66.6116 4.4933 68.6117 6.95745 68.6117ZM2.48936 36.6899V48.8789H12.1702C14.6344 48.8789 16.6383 46.8789 16.6383 44.4195V41.1493C16.6383 38.69 14.6344 36.6899 12.1702 36.6899H2.48936Z" fill="#303032" stroke="#303032" stroke-width="0.4"/>
<path d="M7.63952 42.0411H11.488V43.5275H7.63952V42.0411Z" fill="#303032" stroke="#303032" stroke-width="0.4"/>
</svg>
