<svg width="92" height="75" viewBox="0 0 92 75" fill="none" xmlns="http://www.w3.org/2000/svg">
<path d="M33 23.2835V50.1384C33 52.2324 34.119 54.1607 35.9524 55.2136L59.3571 68.6411C61.1786 69.6821 63.4286 69.6821 65.25 68.6411L88.6548 55.2136C90.4762 54.1725 91.6071 52.2324 91.6071 50.1384V23.2835C91.6071 21.1895 90.4881 19.2612 88.6548 18.2083L65.25 4.7808C63.4286 3.73973 61.1786 3.73973 59.3571 4.7808L35.9524 18.2201C34.119 19.2612 33 21.2013 33 23.2835Z" fill="#CDF5FA"/>
<path d="M36.0073 16.0438L44.1262 13.0648C44.6634 12.8686 44.9381 12.2757 44.7398 11.7385C44.5911 11.3254 44.5911 10.8729 44.7398 10.4598C44.9133 9.99081 45.2563 9.62309 45.7046 9.41443C46.1549 9.20371 46.657 9.18512 47.1238 9.35659C48.0845 9.70985 48.5782 10.7779 48.227 11.7385C48.0287 12.2736 48.3055 12.8665 48.8406 13.0648L74.2117 22.3778L73.4762 27.1438H31.6256C31.0554 27.1438 30.5927 27.6066 30.5927 28.1768C30.5927 28.7449 31.0554 29.2097 31.6256 29.2097H74.3563C74.8686 29.2097 75.3004 28.8358 75.3768 28.3317L76.3767 21.8572C76.4511 21.3738 76.1743 20.9007 75.7115 20.7313L50.3879 11.4349C50.5367 9.71605 49.5285 8.04062 47.8345 7.41672C46.8511 7.0552 45.7851 7.10271 44.8369 7.54274C43.8845 7.98278 43.1615 8.76574 42.8041 9.74704C42.6058 10.2904 42.5293 10.8647 42.5789 11.4328L35.2967 14.1061C34.7637 14.3023 34.4868 14.8952 34.6831 15.4344C34.8794 15.9653 35.4723 16.2401 36.0073 16.0438Z" fill="#303032"/>
<path d="M41.6883 58.669H41.6367C41.0645 58.669 40.6038 59.1338 40.6038 59.7019C40.6038 60.2701 41.0645 60.7349 41.6367 60.7349H51.3298C51.9 60.7349 52.3628 60.2701 52.3628 59.7019C52.3628 59.1338 51.9 58.669 51.3298 58.669H51.2761C50.7183 50.1059 50.7183 41.4437 51.2761 32.8806H51.3298C51.9 32.8806 52.3628 32.4179 52.3628 31.8477C52.3628 31.2796 51.9 30.8147 51.3298 30.8147H41.6367C41.0645 30.8147 40.6038 31.2796 40.6038 31.8477C40.6038 32.4179 41.0645 32.8806 41.6367 32.8806H41.6883C42.2461 41.4437 42.2461 50.1059 41.6883 58.669ZM49.2102 32.8785C48.6545 41.4437 48.6545 50.1059 49.2102 58.6669H43.7563C44.312 50.1018 44.312 41.4437 43.7563 32.8785H49.2102Z" fill="#303032"/>
<path d="M62.3465 58.669H62.2949C61.7227 58.669 61.262 59.1338 61.262 59.7019C61.262 60.2701 61.7227 60.7349 62.2949 60.7349H71.988C72.5582 60.7349 73.021 60.2701 73.021 59.7019C73.021 59.1338 72.5582 58.669 71.988 58.669H71.9343C71.3765 50.1059 71.3765 41.4437 71.9343 32.8806H71.988C72.5582 32.8806 73.021 32.4179 73.021 31.8477C73.021 31.2796 72.5582 30.8147 71.988 30.8147H62.2949C61.7227 30.8147 61.262 31.2796 61.262 31.8477C61.262 32.4179 61.7227 32.8806 62.2949 32.8806H62.3465C62.9043 41.4437 62.9043 50.1059 62.3465 58.669ZM69.8684 32.8785C69.3127 41.4437 69.3127 50.1059 69.8684 58.6669H64.4145C64.9702 50.1018 64.9702 41.4437 64.4145 32.8785H69.8684Z" fill="#303032"/>
<path d="M20.9753 58.669C20.4051 58.669 19.9424 59.1338 19.9424 59.7019C19.9424 60.2701 20.4051 60.7349 20.9753 60.7349H30.6705C31.2386 60.7349 31.7034 60.2701 31.7034 59.7019C31.7034 59.1338 31.2386 58.669 30.6705 58.669H30.6168C30.059 50.1059 30.059 41.4437 30.6168 32.8806H30.6705C31.2386 32.8806 31.7034 32.4179 31.7034 31.8477C31.7034 31.2796 31.2386 30.8147 30.6705 30.8147H27.8795C27.3114 30.8147 26.8466 31.2796 26.8466 31.8477C26.8466 32.4179 27.3114 32.8806 27.8795 32.8806H28.5468C27.9931 41.4458 27.9931 50.108 28.5468 58.669H23.097C23.6093 50.7112 23.6589 42.6626 23.2209 34.713C23.1879 34.1449 22.7231 33.6925 22.1343 33.738C21.5662 33.771 21.1282 34.2565 21.1592 34.8267C21.5951 42.7369 21.5476 50.7526 21.029 58.669H20.9753Z" fill="#303032"/>
<path d="M11.6426 66.0527C11.6426 66.6208 12.1053 67.0857 12.6755 67.0857H80.2856C80.8558 67.0857 81.3186 66.6208 81.3186 66.0527C81.3186 65.4825 80.8558 65.0198 80.2856 65.0198H12.6755C12.1033 65.0198 11.6426 65.4825 11.6426 66.0527Z" fill="#303032"/>
<path d="M85.8652 72.3433H7.09721C6.52703 72.3433 6.06427 72.8081 6.06427 73.3762C6.06427 73.9443 6.52703 74.4091 7.09721 74.4091H85.8652C86.4353 74.4091 86.8981 73.9443 86.8981 73.3762C86.8981 72.8081 86.4395 72.3433 85.8652 72.3433Z" fill="#303032"/>
<path d="M16.2957 32.5893C25.2802 32.5893 32.5893 25.2802 32.5893 16.2957C32.5893 7.30909 25.2802 0 16.2957 0C7.30909 0 0 7.30909 0 16.2957C0.00206588 25.2802 7.31116 32.5893 16.2957 32.5893ZM16.2957 2.06588C24.1419 2.06588 30.5234 8.44739 30.5234 16.2957C30.5234 24.1419 24.1419 30.5234 16.2957 30.5234C8.44946 30.5234 2.06588 24.1419 2.06588 16.2957C2.06795 8.44739 8.45152 2.06588 16.2957 2.06588Z" fill="#303032"/>
<path d="M7.2064 17.3287H15.2633V25.3857C15.2633 25.9559 15.7261 26.4186 16.2963 26.4186C16.8644 26.4186 17.3292 25.9559 17.3292 25.3857V17.3287H25.3862C25.9563 17.3287 26.4191 16.8639 26.4191 16.2958C26.4191 15.7256 25.9563 15.2629 25.3862 15.2629H17.3292V7.20591C17.3292 6.63573 16.8644 6.17297 16.2963 6.17297C15.7261 6.17297 15.2633 6.63573 15.2633 7.20591V15.2629H7.2064C6.63622 15.2629 6.17346 15.7256 6.17346 16.2958C6.17346 16.8639 6.63415 17.3287 7.2064 17.3287Z" fill="#303032"/>
</svg>
