<svg width="48" height="59" viewBox="0 0 48 59" fill="none" xmlns="http://www.w3.org/2000/svg">
<path d="M2 0.5H46C46.8284 0.5 47.5 1.17157 47.5 2V52.3045L41.7811 58.5H2C1.17157 58.5 0.5 57.8284 0.5 57V2C0.5 1.17157 1.17157 0.5 2 0.5Z" stroke="#29A5B1"/>
<path d="M4.12 15H5.544V10.744H8.68C8.888 10.744 9.224 10.728 9.528 10.68C11.384 10.392 12.376 8.93598 12.376 7.11198C12.376 5.27198 11.384 3.83198 9.528 3.54398C9.224 3.49598 8.904 3.47998 8.68 3.47998H4.12V15ZM5.544 9.38398V4.82398H8.632C8.824 4.82398 9.112 4.83998 9.352 4.90398C10.456 5.14398 10.92 6.15198 10.92 7.11198C10.92 8.07198 10.456 9.06398 9.352 9.31998C9.112 9.36798 8.824 9.38398 8.632 9.38398H5.544Z" fill="#29A5B1"/>
<path d="M13.9794 15H17.5314C17.7554 15 18.4594 15 18.9874 14.92C21.6594 14.568 23.0354 12.184 23.0354 9.23998C23.0354 6.29598 21.6594 3.89598 18.9874 3.54398C18.4434 3.47998 17.7554 3.47998 17.5314 3.47998H13.9794V15ZM15.4514 13.64V4.83998H17.5314C17.9154 4.83998 18.4914 4.85598 18.8754 4.91998C20.7314 5.25598 21.5314 7.06398 21.5314 9.23998C21.5314 11.368 20.7634 13.208 18.8754 13.544C18.4914 13.624 17.9314 13.64 17.5314 13.64H15.4514Z" fill="#29A5B1"/>
<path d="M24.87 15H26.294V9.94398H30.63V8.51998H26.294V4.90398H31.59V3.47998H24.87V15Z" fill="#29A5B1"/>
</svg>
