<svg width="120" height="126" viewBox="0 0 120 126" fill="none" xmlns="http://www.w3.org/2000/svg">
<g filter="url(#filter0_d)">
<path d="M32.0048 30.1192V55.3527C32.0048 57.3202 33.0563 59.1321 34.7789 60.1215L56.7706 72.7382C58.482 73.7164 60.5962 73.7164 62.3076 72.7382L84.2993 60.1215C86.0107 59.1433 87.0734 57.3202 87.0734 55.3527V30.1192C87.0734 28.1516 86.0219 26.3397 84.2993 25.3504L62.3076 12.7337C60.5962 11.7554 58.482 11.7554 56.7706 12.7337L34.7789 25.3615C33.0563 26.3397 32.0048 28.1628 32.0048 30.1192Z" fill="#29A5B1"/>
</g>
<path fill-rule="evenodd" clip-rule="evenodd" d="M58.937 51.547C58.2177 51.3981 57.2343 50.9471 57.1753 49.4565C57.1697 49.316 57.2947 49.205 57.4338 49.2247C58.5043 49.3722 60.2239 49.4986 62.0475 48.7133C62.1107 48.6852 62.181 48.7329 62.181 48.8018C62.1782 50.1477 60.1593 50.5916 58.9132 50.6408C58.3343 50.6647 58.5142 51.0932 58.937 51.547Z" fill="white"/>
<path fill-rule="evenodd" clip-rule="evenodd" d="M56.3672 46.3749C56.1734 46.2808 55.9935 45.9956 55.95 45.6135C55.9163 45.3128 55.9514 45.0585 56.0343 44.7818C56.0694 44.6609 56.1719 44.5738 56.311 44.6174C58.1599 45.2117 61.1453 45.466 63.1572 44.4446C63.2485 44.3982 63.3581 44.4699 63.3553 44.5724C63.344 44.9532 63.226 45.265 63.0363 45.5278C62.7835 45.8776 62.3409 46.2021 61.7888 46.4016C60.02 47.0395 58.1543 47.0296 56.3672 46.3749Z" fill="white"/>
<path fill-rule="evenodd" clip-rule="evenodd" d="M56.9702 48.5497C56.9435 48.5413 56.9196 48.5258 56.8986 48.5076C56.7454 48.3685 56.6288 48.1142 56.5796 47.9316C56.515 47.6871 56.5515 47.4694 56.6049 47.2347C56.6288 47.1322 56.7089 47.0549 56.8269 47.0858C58.6336 47.5551 60.7003 47.5789 62.4297 46.6952C62.5379 46.6405 62.6629 46.7318 62.6446 46.8512C62.6095 47.0802 62.5533 47.3865 62.4887 47.5593C62.0616 48.7001 58.4973 49.0204 56.9702 48.5497Z" fill="white"/>
<path d="M64.6776 41.1431C63.8838 41.5618 63.1589 41.7177 62.5155 41.7177C62.3876 42.7855 61.9184 43.7492 61.2187 44.4938C63.5214 44.307 65.2002 42.5284 65.6034 40.4547C65.3449 40.7174 65.0415 40.9521 64.6776 41.1431Z" fill="white"/>
<path d="M65.6019 40.4555C65.7705 39.5872 65.7171 38.6684 65.3897 37.7917C65.4291 37.928 65.4319 38.1486 65.4319 38.2975C65.4319 38.4422 65.4586 38.5827 65.4221 38.7162C65.0329 40.0466 63.9357 41.0666 62.5476 41.3082C62.542 41.4459 62.5307 41.5822 62.5153 41.7171C63.1601 41.7185 63.8837 41.5611 64.6774 41.1425C65.0413 40.9514 65.3448 40.7168 65.6019 40.4555Z" fill="white"/>
<path d="M53.7963 38.172C53.7177 38.4474 53.6671 38.734 53.6474 39.0248C53.4648 41.7658 55.0102 44.3606 58.2204 44.5053C57.3873 43.623 56.8759 42.4345 56.8759 41.1265C56.8759 40.1375 57.1681 39.2172 57.6697 38.4459C57.6697 38.4459 55.6944 36.7853 53.7963 38.172Z" fill="white"/>
<path d="M65.426 38.7881C65.4555 38.687 65.4723 38.5886 65.4808 38.4875C65.5552 37.5771 64.8865 36.7665 63.9733 36.7496C63.7513 36.7454 63.5378 36.7819 63.3453 36.862C62.9168 37.0362 62.4476 37.1331 61.9572 37.1331C61.4936 37.1331 61.0778 37.0236 60.6858 36.862C59.0139 36.1595 57.6694 38.4481 57.6694 38.4481C62.4518 38.4748 62.5473 41.3015 62.5473 41.31C63.9157 41.0725 65.0396 40.0905 65.426 38.7881Z" fill="white"/>
<path d="M60.6847 36.8605C59.5566 36.3941 58.6237 35.4907 57.2877 35.4907C56.6807 35.4907 56.1075 35.6368 55.6032 35.8967C54.6956 36.3646 54.0718 37.2047 53.7965 38.1727C55.6945 36.7875 57.6684 38.4467 57.6684 38.4467C57.6684 38.4467 59.0129 36.1581 60.6847 36.8605Z" fill="white"/>
<path d="M57.6692 38.4458C58.9715 39.5585 59.7583 41.3638 61.9078 41.3638C62.1256 41.3638 62.3391 41.3441 62.547 41.3076C62.547 41.2992 62.4501 38.4725 57.6692 38.4458Z" fill="white"/>
<path d="M65.4257 38.7881C65.4552 38.687 65.4721 38.5886 65.4805 38.4875C65.555 37.5771 64.8862 36.7665 63.973 36.7496C63.7511 36.7454 63.5375 36.7819 63.345 36.862C62.9165 37.0362 62.4473 37.1331 61.957 37.1331C61.4934 37.1331 61.0775 37.0236 60.6855 36.862C59.0137 36.1595 57.6692 38.4481 57.6692 38.4481C62.4515 38.4748 62.547 41.3015 62.547 41.31C63.9154 41.0725 65.0394 40.0905 65.4257 38.7881Z" fill="white"/>
<path d="M57.6696 38.4465C57.6696 38.4465 55.5945 38.3622 53.6613 40.0523C53.8819 42.3831 55.4147 44.3794 58.2203 44.5059C57.3872 43.6236 56.8758 42.435 56.8758 41.1271C56.8758 40.138 57.168 39.2178 57.6696 38.4465Z" fill="white"/>
<path d="M57.6695 38.4459C57.6695 38.4459 55.6942 36.7853 53.7975 38.172C53.7188 38.4474 53.6683 38.734 53.6486 39.0248C53.6261 39.3718 53.6303 39.716 53.6626 40.0518C55.5944 38.3617 57.6695 38.4459 57.6695 38.4459Z" fill="white"/>
<path d="M58.9175 50.643C59.0341 50.6388 59.1577 50.6304 59.2842 50.6191C59.2139 50.2258 59.1774 49.8226 59.1774 49.4109C59.1774 49.3856 59.1788 49.3589 59.1802 49.3336C58.5059 49.3519 57.9088 49.2915 57.4381 49.2269C57.299 49.2072 57.174 49.3182 57.1796 49.4587C57.2386 50.9493 58.2221 51.3989 58.9414 51.5492C58.5185 51.094 58.3387 50.6655 58.9175 50.643Z" fill="white"/>
<path d="M59.6673 46.8532C59.916 46.2266 60.2532 45.6379 60.6662 45.0984C59.1166 45.2333 57.4869 44.9945 56.3138 44.618C56.1747 44.5744 56.0721 44.6615 56.037 44.7823C55.9541 45.0591 55.919 45.3134 55.9527 45.614C55.9963 45.9962 56.1761 46.2828 56.37 46.3755C57.4546 46.7717 58.5659 46.9304 59.6673 46.8532Z" fill="white"/>
<path d="M59.2107 48.7474C59.2543 48.2866 59.3442 47.8371 59.4762 47.4044C58.5785 47.4268 57.6766 47.3074 56.8308 47.0868C56.7114 47.0559 56.6313 47.1332 56.6088 47.2358C56.5554 47.4704 56.5189 47.6881 56.5835 47.9326C56.6313 48.1138 56.7479 48.3681 56.9025 48.5086C56.9235 48.5269 56.9474 48.5423 56.9741 48.5508C57.5319 48.7222 58.3607 48.7882 59.2107 48.7474Z" fill="white"/>
<path opacity="0.3" d="M73.9639 12L45.0361 12C42.7805 12 40.7033 13.1886 39.5691 15.1359L25.1052 39.9954C23.9838 41.9301 23.9838 44.3199 25.1052 46.2546L39.5691 71.1141C40.6905 73.0488 42.7805 74.25 45.0361 74.25L73.9639 74.25C76.2195 74.25 78.2967 73.0614 79.4309 71.1141L93.8948 46.2546C95.0162 44.3199 95.0162 41.9301 93.8948 39.9954L79.4181 15.1359C78.2967 13.1886 76.2068 12 73.9639 12Z" stroke="#28A5B1" stroke-miterlimit="10"/>
<defs>
<filter id="filter0_d" x="0.00480652" y="0" width="119.069" height="125.472" filterUnits="userSpaceOnUse" color-interpolation-filters="sRGB">
<feFlood flood-opacity="0" result="BackgroundImageFix"/>
<feColorMatrix in="SourceAlpha" type="matrix" values="0 0 0 0 0 0 0 0 0 0 0 0 0 0 0 0 0 0 127 0"/>
<feOffset dy="20"/>
<feGaussianBlur stdDeviation="16"/>
<feColorMatrix type="matrix" values="0 0 0 0 0.107431 0 0 0 0 0.478761 0 0 0 0 0.495833 0 0 0 0.5 0"/>
<feBlend mode="normal" in2="BackgroundImageFix" result="effect1_dropShadow"/>
<feBlend mode="normal" in="SourceGraphic" in2="effect1_dropShadow" result="shape"/>
</filter>
</defs>
</svg>
