<svg width="14" height="17" viewBox="0 0 14 17" fill="none" xmlns="http://www.w3.org/2000/svg">
<path d="M11.7386 6.04472C11.4044 6.04472 11.1008 6.17228 10.8749 6.37857V5.83705C10.8749 5.14205 10.3095 4.57661 9.6145 4.57661C9.26622 4.57661 8.95056 4.71861 8.72232 4.94764C8.6003 4.37942 8.09458 3.95182 7.49036 3.95182C7.15612 3.95182 6.85253 4.08354 6.62666 4.29675V1.61982C6.62666 0.924824 6.06122 0.359375 5.36622 0.359375C4.67123 0.359375 4.10578 0.924824 4.10578 1.61982V9.1091L3.54745 7.54071C3.30517 6.86016 2.5546 6.50356 1.87385 6.74604C1.54534 6.86293 1.2815 7.10184 1.13099 7.41888C0.980483 7.73572 0.96209 8.09113 1.07344 8.40085L1.87009 11.5744C2.55717 13.9782 2.84178 14.9732 5.08459 15.9999C5.7509 16.3049 6.48209 16.3504 7.18915 16.3941C7.44922 16.4101 7.73047 16.4224 8.02456 16.4224C8.84317 16.4224 9.76224 16.3272 10.6166 15.9558C12.1291 15.2986 13.0197 13.7636 12.9991 11.8521V7.26481C12.9991 6.59197 12.4336 6.04472 11.7386 6.04472ZM12.6021 11.8543C12.6211 13.6291 11.8399 14.9916 10.4584 15.5921C9.3744 16.0632 8.1547 16.0565 7.21308 15.9979C6.54221 15.9562 5.8486 15.9131 5.24914 15.639C3.17246 14.6884 2.92148 13.8107 2.25101 11.4652L1.45238 8.28653C1.3711 8.0579 1.38395 7.81028 1.48897 7.58897C1.59399 7.36785 1.77793 7.20113 2.00656 7.11964C2.23519 7.03835 2.48301 7.05121 2.70412 7.15623C2.92524 7.26125 3.09197 7.44518 3.17345 7.67382L4.11705 10.3244C4.15384 10.4277 4.26697 10.4813 4.37041 10.4447C4.47266 10.4083 4.52606 10.2964 4.49105 10.1939C4.49639 10.1761 4.50213 10.1583 4.50213 10.1387V1.61982C4.50213 1.14357 4.88958 0.756119 5.36583 0.756119C5.84208 0.756119 6.22953 1.14357 6.22953 1.61982V5.21227V7.99244C6.22953 8.10201 6.31833 8.19081 6.4279 8.19081C6.53747 8.19081 6.62627 8.10201 6.62627 7.99244V5.21227C6.62627 4.73601 7.01372 4.34857 7.48997 4.34857C7.96622 4.34857 8.35367 4.73601 8.35367 5.21227V5.83705V8.17993V8.33618C8.35367 8.44575 8.44247 8.53455 8.55204 8.53455C8.66161 8.53455 8.75041 8.44575 8.75041 8.33618V8.17993V5.83705C8.75041 5.3608 9.13786 4.97335 9.61411 4.97335C10.0904 4.97335 10.4778 5.3608 10.4778 5.83705V7.26481V8.5571V8.64847C10.4778 8.75804 10.5666 8.84684 10.6762 8.84684C10.7857 8.84684 10.8745 8.75804 10.8745 8.64847V8.5571V7.26481C10.8745 6.81091 11.262 6.44146 11.7382 6.44146C12.2145 6.44146 12.6019 6.81091 12.6019 7.26481V11.8543H12.6021Z" fill="white" stroke="white" stroke-width="0.4"/>
</svg>
