<svg width="26" height="26" viewBox="0 0 26 26" fill="none" xmlns="http://www.w3.org/2000/svg">
<circle cx="13" cy="13" r="13" fill="#CDF5FA"/>
<path fill-rule="evenodd" clip-rule="evenodd" d="M10 8.5H8.5V7.75H7V10H19V7.75H17.5V8.5H16V7.75H10V8.5ZM7 19V11.5H19V19H7ZM16 6.25H10V5.5H8.5V6.25H7C6.17157 6.25 5.5 6.92157 5.5 7.75V19C5.5 19.8284 6.17157 20.5 7 20.5H19C19.8284 20.5 20.5 19.8284 20.5 19V7.75C20.5 6.92157 19.8284 6.25 19 6.25H17.5V5.5H16V6.25ZM15.4697 12.4697L12.25 15.6893L10.5303 13.9697L9.46965 15.0303L12.25 17.8106L16.5303 13.5303L15.4697 12.4697Z" fill="#303032"/>
</svg>
