<svg width="26" height="27" viewBox="0 0 26 27" fill="none" xmlns="http://www.w3.org/2000/svg">
<ellipse cx="13" cy="13.1112" rx="13" ry="13.1112" fill="#CDF5FA"/>
<path fill-rule="evenodd" clip-rule="evenodd" d="M13 22.3563C7.93743 22.3563 3.83337 18.2171 3.83337 13.1112C3.83337 8.00526 7.93743 3.86609 13 3.86609C18.0626 3.86609 22.1667 8.00526 22.1667 13.1112C22.1667 18.2171 18.0626 22.3563 13 22.3563ZM13 20.6753C17.1422 20.6753 20.5 17.2888 20.5 13.1112C20.5 8.9336 17.1422 5.54701 13 5.54701C8.8579 5.54701 5.50004 8.9336 5.50004 13.1112C5.50004 17.2888 8.8579 20.6753 13 20.6753ZM17.1667 12.2707H13.8334V8.0684H12.1667V13.9516H17.1667V12.2707Z" fill="#303032"/>
</svg>
