<svg width="81" height="81" viewBox="0 0 81 81" fill="none" xmlns="http://www.w3.org/2000/svg">
<path d="M22 19.2835V46.1384C22 48.2324 23.119 50.1607 24.9524 51.2136L48.3571 64.6411C50.1786 65.6821 52.4286 65.6821 54.25 64.6411L77.6548 51.2136C79.4762 50.1725 80.6071 48.2324 80.6071 46.1384V19.2835C80.6071 17.1895 79.4881 15.2612 77.6548 14.2083L54.25 0.780803C52.4286 -0.260268 50.1786 -0.260268 48.3571 0.780803L24.9524 14.2201C23.119 15.2612 22 17.2013 22 19.2835Z" fill="#CDF5FA"/>
<path d="M0.796875 11.875C0.27532 11.8859 0.00916406 12.2905 0 12.6719V79.6094C7.96875e-05 80.0266 0.379631 80.4062 0.796875 80.4062H50.2031C50.6204 80.4062 50.9999 80.0266 51 79.6094V12.6719C50.9999 12.2546 50.6204 11.875 50.2031 11.875H0.796875ZM1.59375 13.4688H49.4062V78.8125H1.59375V13.4688ZM7.96875 19.8438C7.52872 19.8438 7.17188 20.2005 7.17188 20.6406C7.17188 21.0807 7.52872 21.4375 7.96875 21.4375H43.0312C43.4714 21.4375 43.8281 21.0807 43.8281 20.6406C43.8281 20.2005 43.4714 19.8438 43.0312 19.8438H7.96875ZM7.96875 27.0156C7.52872 27.0156 7.17188 27.3724 7.17188 27.8125C7.17188 28.2526 7.52872 28.6094 7.96875 28.6094H43.0312C43.4714 28.6094 43.8281 28.2526 43.8281 27.8125C43.8281 27.3724 43.4714 27.0156 43.0312 27.0156H7.96875ZM7.96875 34.1875C7.52872 34.1875 7.17188 34.5443 7.17188 34.9844C7.17188 35.4245 7.52872 35.7812 7.96875 35.7812H43.0312C43.4714 35.7812 43.8281 35.4245 43.8281 34.9844C43.8281 34.5443 43.4714 34.1875 43.0312 34.1875H7.96875ZM25.5 41.3594C20.2283 41.3594 15.9375 45.6502 15.9375 50.9219C15.9375 53.7387 17.1797 56.2672 19.125 58.019V70.8438C19.125 71.4499 19.9874 71.839 20.4448 71.4414L25.5 67.1084L30.5552 71.4414C31.0126 71.839 31.8721 71.4502 31.875 70.8438V58.019C33.8203 56.2672 35.0625 53.7387 35.0625 50.9219C35.0625 45.6502 30.7717 41.3594 25.5 41.3594ZM25.5 42.9531C29.9105 42.9531 33.4688 46.5114 33.4688 50.9219C33.4688 53.5344 32.2159 55.8448 30.2812 57.2969C28.9499 58.2962 27.2979 58.8906 25.5 58.8906C23.7021 58.8906 22.0501 58.2962 20.7188 57.2969C18.7841 55.8448 17.5312 53.5344 17.5312 50.9219C17.5312 46.5114 21.0895 42.9531 25.5 42.9531ZM20.7188 59.2143C22.1252 60.029 23.7615 60.4844 25.5 60.4844C27.2385 60.4844 28.8748 60.029 30.2812 59.2143V69.1006L26.0229 65.4399C25.736 65.1904 25.264 65.1904 24.9771 65.4399L20.7188 69.1006V59.2143Z" fill="#303032"/>
</svg>
