<svg width="103" height="81" viewBox="0 0 103 81" fill="none" xmlns="http://www.w3.org/2000/svg">
<path d="M44 19.2835V46.1384C44 48.2324 45.119 50.1607 46.9524 51.2136L70.3571 64.6411C72.1786 65.6821 74.4286 65.6821 76.25 64.6411L99.6548 51.2136C101.476 50.1725 102.607 48.2324 102.607 46.1384V19.2835C102.607 17.1895 101.488 15.2612 99.6548 14.2083L76.25 0.780803C74.4286 -0.260268 72.1786 -0.260268 70.3571 0.780803L46.9524 14.2201C45.119 15.2612 44 17.2013 44 19.2835Z" fill="#CDF5FA"/>
<path d="M69.2 64.6139L78.0031 71.7268C78.7074 72.2959 79.745 71.7106 79.6223 70.8134L77.2083 53.1611C81.7722 50.2333 84.8722 45.1528 84.8722 39.2972C84.8722 30.5139 77.8972 23.2806 69.2 22.9361V15C69.2 13.3431 67.8568 12 66.2 12H4C2.34315 12 1 13.3431 1 15V78.2C1 79.3046 1.89543 80.2 3 80.2H67.2C68.3046 80.2 69.2 79.3046 69.2 78.2V64.6139ZM4.29167 78.8222C3.1871 78.8222 2.29167 77.9268 2.29167 76.8222V16.3778C2.29167 14.7209 3.63481 13.3778 5.29167 13.3778H64.8222C66.4791 13.3778 67.8222 14.7209 67.8222 16.3778V23.0222C59.125 23.3667 52.15 30.6 52.15 39.3833C52.15 45.2389 55.1639 50.3194 59.8139 53.2472L57.3999 70.8996C57.2772 71.7967 58.3148 72.382 59.0192 71.8129L67.8222 64.7V76.8222C67.8222 77.9268 66.9268 78.8222 65.8222 78.8222H4.29167ZM60.8129 68.5577C60.11 69.1238 59.076 68.5424 59.1944 67.6477L61.0194 53.85C63.2583 54.9694 65.7555 55.6583 68.5111 55.6583C71.2667 55.6583 73.7639 54.9694 76.0028 53.85L77.8963 67.6147C78.02 68.5135 76.9792 69.0992 76.2751 68.5271L68.5972 62.2889L60.8129 68.5577ZM68.5111 54.3667C60.2444 54.3667 53.5278 47.65 53.5278 39.3833C53.5278 31.1167 60.2444 24.4 68.5111 24.4C76.7778 24.4 83.4944 31.1167 83.4944 39.3833C83.4944 47.65 76.7778 54.3667 68.5111 54.3667Z" fill="#303032" stroke="#303032" stroke-width="0.3"/>
<path d="M14.3472 66.1638V67.4555H44.2277V66.8527V66.1638H14.3472Z" fill="#303032" stroke="#303032" stroke-width="0.3"/>
<path d="M21.524 35.9L29.696 28.052L29.696 26H15.044L15.044 28.016H26.924L17.564 36.836L18.68 38.528C19.616 38.06 20.804 37.772 21.812 37.772C25.412 37.772 27.788 40.22 27.788 44.072C27.788 47.852 25.628 50.336 21.848 50.408C19.184 50.48 16.916 49.076 15.98 46.304L14 46.952C15.08 50.372 18.068 52.46 21.884 52.46C26.636 52.46 29.984 49.076 29.984 44.072C29.984 38.924 26.492 35.54 21.524 35.9Z" fill="#303032"/>
<path d="M37.308 45.488H39.198V38.18H46.506V36.29H39.198V29H37.308V36.29H30V38.18H37.308V45.488Z" fill="#303032"/>
</svg>
