<svg width="100" height="89" viewBox="0 0 100 89" fill="none" xmlns="http://www.w3.org/2000/svg">
<path d="M11.8184 26.3232V61.5893C11.8184 64.3391 13.2879 66.8714 15.6954 68.2541L46.4307 85.8871C48.8226 87.2543 51.7774 87.2543 54.1693 85.8871L84.9046 68.2541C87.2965 66.887 88.7817 64.3391 88.7817 61.5893V26.3232C88.7817 23.5734 87.3122 21.0411 84.9046 19.6584L54.1693 2.02536C51.7774 0.658214 48.8226 0.658214 46.4307 2.02536L15.6954 19.6739C13.2879 21.0411 11.8184 23.5889 11.8184 26.3232Z" fill="#28A5B1"/>
<path d="M46.5 37.9378L57 44L46.5 50.0622L46.5 37.9378Z" stroke="white"/>
<path opacity="0.3" d="M70.4596 0.999999L30.0303 0.999997C26.8779 0.999997 23.9749 2.66114 22.3898 5.38266L2.17514 40.1261C0.607842 42.83 0.607842 46.17 2.17514 48.8739L22.3897 83.6173C23.957 86.3212 26.8779 88 30.0303 88L70.4596 88C73.612 88 76.515 86.3388 78.1001 83.6173L98.3148 48.8739C99.8821 46.17 99.8821 42.83 98.3148 40.1261L78.0823 5.38266C76.515 2.66115 73.5942 0.999999 70.4596 0.999999Z" stroke="#28A5B1" stroke-miterlimit="10"/>
</svg>
