<svg width="24" height="16" viewBox="0 0 24 16" fill="none" xmlns="http://www.w3.org/2000/svg">
<path d="M22.0253 1.52357C20.1114 0.0709366 15.8582 0 12 0C8.14177 0 3.88861 0.0709366 1.97468 1.52357C0.0607595 2.9762 0 6.12356 0 7.99988C0 9.87619 0.0607595 13.0236 1.97468 14.4762C3.88861 15.9288 8.14177 16 12 16V15.9998C15.8582 15.9998 20.1114 15.9288 22.0253 14.4762C23.9392 13.0236 24 9.87619 24 7.99988C24 6.12356 23.9392 2.9762 22.0253 1.52357ZM15.8026 8.42308L15.8033 8.42405L9.28356 11.8852C9.24857 11.9104 9.21041 11.9305 9.16934 11.946L9.16132 11.9503L9.16083 11.9486C9.10809 11.9675 9.05195 11.9796 8.99265 11.9796C8.71583 11.9796 8.4915 11.7559 8.4915 11.4804V4.50437C8.4915 4.22861 8.71607 4.00514 8.99265 4.00514C9.07066 4.00514 9.14382 4.02451 9.20968 4.05623L9.20992 4.05599L15.8033 7.57668L15.8031 7.57716C15.9452 7.66529 16.0407 7.82121 16.0407 8.00012C16.0405 8.17904 15.9447 8.33495 15.8026 8.42308Z" fill="white"/>
</svg>
