<svg width="50" height="108" viewBox="0 0 50 108" fill="none" xmlns="http://www.w3.org/2000/svg">
<path d="M18.0001 3.5L22.7687 5.72532C24.4488 6.50938 26.4217 6.29408 27.9542 5.25056C29.5718 4.14911 31.7135 2.79082 33.5001 2C34.1691 1.7039 34.9681 1.40775 35.7615 1.13755C38.1013 0.340707 40.7703 0.734349 42.5001 2.5C42.7018 2.70584 42.9041 2.93238 43.1047 3.17323C45.8026 6.41165 47.4358 10.4216 48.5001 14.5C50.1994 21.0112 49.566 27.8645 48.7048 34.5385L48.0001 40C47.3349 43.3263 46.3662 46.5847 45.1064 49.7343L44.3959 51.5106C44.132 52.1702 43.8593 52.8247 43.5816 53.4785C42.7874 55.3485 41.0477 59.5091 40.0001 62.5C37.905 68.4815 35.8595 77.5455 35.2112 80.5181L35.1751 80.6838C35.0438 81.2861 34.9134 81.8839 34.7774 82.4861L31.5001 97L29.9789 103.085C29.6717 104.313 28.9001 105.375 27.8262 106.046L27.3243 106.36C26.1912 107.068 24.7712 107.136 23.576 106.538C22.8756 106.188 22.2991 105.631 21.9241 104.944L20.3301 102.022C19.7787 101.011 19.3502 99.9378 19.0535 98.8253L18.1713 95.5168C17.7242 93.8405 17.3811 92.1405 17.1205 90.4253C16.6559 87.3673 15.8283 82.2138 15.0001 78.5C14.174 74.7952 12.7452 69.8237 11.8377 66.7696C11.2877 64.9188 10.6735 63.0926 10.0195 61.276L6.50012 51.5L5.07745 47.5481C3.03399 41.8719 1.71074 35.9615 1.13877 29.9558C1.04635 28.9854 0.972505 28.0134 0.934609 27.0393C0.84521 24.7414 0.725392 20.2131 1.00012 17C1.06121 16.2856 1.15364 15.4976 1.26323 14.6904C1.9165 9.87788 2.49806 4.25142 6.50012 1.5C8.53451 0.101356 11.2385 0.541781 13.5003 1.53132L18.0001 3.5Z" fill="#E62B3E" fill-opacity="0.35"/>
<path d="M34.2342 80.305L34.2342 80.3051L34.198 80.4708L34.1978 80.4716C34.0665 81.0742 33.937 81.6681 33.802 82.2659L30.5272 96.7685L29.0087 102.842C28.7644 103.82 28.1505 104.664 27.2962 105.198L26.7943 105.512C25.9566 106.035 24.9068 106.085 24.0233 105.644C23.5054 105.385 23.0792 104.973 22.802 104.465L21.208 101.543C20.6948 100.602 20.2959 99.6031 20.0198 98.5677L19.1375 95.2592C18.701 93.6223 18.365 91.9586 18.1092 90.2751C17.6445 87.217 16.8126 82.0331 15.9761 78.2823C15.1417 74.5403 13.7039 69.5393 12.7963 66.4848C12.2396 64.6115 11.619 62.7668 10.9604 60.9373L7.44101 51.1613L6.01834 47.2094C4.00321 41.6118 2.69831 35.7835 2.13426 29.861C2.04301 28.9028 1.97081 27.9504 1.93385 27.0005C1.84436 24.7002 1.72768 20.229 1.99649 17.0852C2.05573 16.3923 2.14597 15.6217 2.25414 14.8249C2.28355 14.6082 2.31271 14.3909 2.34192 14.1733C2.64168 11.9399 2.94607 9.67185 3.58125 7.6177C4.27373 5.3782 5.32329 3.5226 7.06665 2.32404C8.65965 1.22886 10.9286 1.49774 13.0995 2.44748L17.5882 4.4113L22.3458 6.63151C24.3668 7.57465 26.7129 7.30559 28.517 6.07714C30.1276 4.9805 32.2064 3.66623 33.9049 2.91443C34.5355 2.6353 35.3035 2.34995 36.0839 2.08416C38.1356 1.38544 40.3774 1.7622 41.7858 3.19981C41.9652 3.38297 42.1495 3.58894 42.3364 3.81331C44.9047 6.89612 46.4881 10.7506 47.5325 14.7525C49.1778 21.0566 48.5744 27.735 47.7131 34.4105L47.0128 39.8376C46.3597 43.0924 45.4108 46.2807 44.1779 49.3629L43.4674 51.1393C43.207 51.7901 42.9372 52.4377 42.6612 53.0876C41.8677 54.9558 40.116 59.1441 39.0563 62.1694C36.9381 68.217 34.8811 77.3387 34.2342 80.305Z" stroke="#E62B3E" stroke-opacity="0.6" stroke-width="2" stroke-linecap="round" stroke-linejoin="round"/>
<path d="M22.5967 23H23.8567V21.138H24.9067V19.962H23.8567V17.12H22.5967V19.962H19.3767L22.7087 12.92H21.2947L17.9627 19.962V21.138H22.5967V23ZM29.7465 16.504C29.0605 16.504 28.3745 16.742 27.8565 17.162L28.0525 14.096H32.3365V12.92H26.9185L26.6105 18.184L27.7165 18.604C28.0805 18.086 28.7105 17.652 29.6065 17.652C30.7825 17.652 31.7765 18.604 31.7765 19.822C31.7765 21.012 30.8245 21.992 29.6065 21.992C28.6685 21.992 27.7585 21.376 27.5065 20.382L26.3025 20.704C26.7085 22.174 28.0105 23.21 29.5645 23.21C31.4405 23.21 33.0365 21.684 33.0365 19.822C33.0365 17.946 31.6085 16.504 29.7465 16.504Z" fill="white"/>
<path d="M21.6 88.8313L27.2 94L24.4 89.2289L30 82.8675L24 76.1084L32 70.1446L25.6 61H16L24.4 68.1566L18 74.5181L25.6 82.4699L21.6 88.8313Z" fill="#E62B3E" fill-opacity="0.6"/>
</svg>
