<svg width="41" height="125" viewBox="0 0 41 125" fill="none" xmlns="http://www.w3.org/2000/svg">
<path d="M35.5 63C32.5684 47.2393 27.3019 23.7639 26.2039 18.9011C26.0658 18.2892 25.9439 17.6913 25.8316 17.0741C25.2788 14.0335 24.4005 11.0612 23.2119 8.20856L22.5 6.5L20.8556 2.8C20.6205 2.27119 20.2902 1.79016 19.881 1.38096L19.5902 1.0902C18.8922 0.392158 17.9454 0 16.9582 0C16.6539 0 16.3507 0.0373236 16.0555 0.111135L15.8846 0.153848C14.9786 0.380352 14.1512 0.848831 13.4908 1.5092L13.0827 1.91726C12.6955 2.3045 12.3535 2.73445 12.0632 3.19885L11.426 4.21835C10.4807 5.73085 9.7662 7.37574 9.33017 9.10524C8.76863 11.3326 7.98321 14.5558 7.5 17C5.93582 24.9119 5 37.5 5 37.5C5 37.5 3.48707 49.055 3 56.5C2.69815 61.1139 2.57788 67.3961 2.53039 71.3236C2.50076 73.7749 2.34404 76.2177 2.06337 78.6531C1.70843 81.733 1.23015 86.1598 1 89.5C0.802346 92.3686 0.671618 96.1205 0.593578 98.9407C0.518745 101.645 0.641363 104.35 1.08439 107.019C1.42904 109.095 1.91287 111.587 2.5 113.5C2.9098 114.835 3.54484 116.458 4.12532 117.853C4.98728 119.923 6.50588 121.64 8.398 122.844C10.1036 123.93 12.0592 124.56 14.0801 124.615C16.6321 124.684 20.27 124.721 23 124.5C25.2134 124.321 28.0998 123.869 30.2023 123.507C32.0368 123.192 33.734 122.348 35.1252 121.111C36.673 119.735 37.781 117.93 38.255 115.914C38.5209 114.783 38.8024 113.53 39 112.5C39.4375 110.221 39.7962 107.308 40.053 104.867C40.3935 101.632 40.3563 98.3714 40.0703 95.1303L39.3792 87.298C39.1265 84.4338 38.7625 81.581 38.2782 78.7467C37.5503 74.4866 36.4076 67.8796 35.5 63Z" fill="#E62B3E" fill-opacity="0.35"/>
<path d="M5 37.5L5.99152 37.6299L5.99148 37.6303L5.99128 37.6318L5.99048 37.6379L5.98727 37.6625L5.9746 37.7601C5.96346 37.8461 5.94704 37.9733 5.92594 38.1381C5.88375 38.4675 5.82289 38.9468 5.74832 39.5454C5.59917 40.7426 5.39523 42.4165 5.17611 44.3223C4.73734 48.1387 4.23972 52.8685 3.99787 56.5653C3.69792 61.15 3.5778 67.4087 3.53032 71.3357C3.50027 73.8217 3.34133 76.2986 3.0568 78.7676C2.70201 81.8462 2.22608 86.2533 1.99763 89.5687C1.80149 92.4155 1.67119 96.15 1.5932 98.9684C1.51968 101.625 1.64075 104.264 2.07089 106.855C2.41403 108.922 2.88925 111.36 3.45599 113.207C3.85124 114.494 4.47121 116.082 5.04851 117.468C5.82499 119.334 7.20001 120.897 8.93488 122.001C10.4968 122.994 12.2776 123.565 14.1072 123.615C16.6562 123.684 20.2474 123.72 22.9193 123.503C25.0849 123.328 27.9337 122.883 30.0329 122.522C31.6742 122.24 33.202 121.483 34.4608 120.364C35.8617 119.118 36.8568 117.491 37.2816 115.685C37.5464 114.559 37.8242 113.321 38.0179 112.312C38.4471 110.075 38.8023 107.197 39.0585 104.763C39.391 101.603 39.3557 98.4092 39.0742 95.2182L38.3831 87.3858C38.1327 84.5475 37.772 81.7216 37.2925 78.9151C36.5647 74.6553 35.423 68.0546 34.5169 63.1829C31.5893 47.4439 26.327 23.9868 25.2285 19.1213C25.0873 18.4958 24.9625 17.8841 24.8478 17.253C24.3078 14.283 23.4499 11.3797 22.2888 8.59317L21.5814 6.8954L19.9417 3.20614L20.8556 2.8L19.9417 3.20614C19.7566 2.78948 19.4963 2.41048 19.1739 2.08807L18.8831 1.79731C18.3726 1.2868 17.6802 1 16.9582 1C16.7357 1 16.5139 1.0273 16.298 1.08128L16.1271 1.12399C15.397 1.30654 14.7301 1.6841 14.1979 2.21631L13.7898 2.62437C13.4561 2.95809 13.1614 3.32863 12.9112 3.72885L12.274 4.74835C11.3813 6.17668 10.7093 7.72571 10.2998 9.3497C9.73863 11.5757 8.95879 14.7773 8.48101 17.1939C7.70826 21.1027 7.08698 26.1899 6.65808 30.3203C6.44408 32.3811 6.27877 34.1959 6.16698 35.4952C6.11109 36.1448 6.0686 36.6653 6.04011 37.023C6.02586 37.2019 6.01512 37.3401 6.00795 37.4333L5.99989 37.539L5.99789 37.5656L5.9974 37.5721L5.99728 37.5737L5.99725 37.5741L5 37.5ZM5 37.5L5.99154 37.6298C5.99396 37.6113 5.99586 37.5928 5.99725 37.5741L5 37.5Z" stroke="#E62B3E" stroke-opacity="0.6" stroke-width="2" stroke-linecap="round" stroke-linejoin="round"/>
<path d="M15.2586 29.884C16.2946 28.96 16.7986 28.302 16.7986 26.972C16.7986 25.124 15.3846 23.71 13.5086 23.71C11.5766 23.71 10.1486 25.054 10.1486 26.958H11.4226C11.4086 25.852 12.2906 24.9 13.4946 24.9C14.6566 24.9 15.5246 25.796 15.5246 26.958C15.5246 27.602 15.3146 28.176 14.5726 28.848L10.1066 32.866L10.0926 33.986H16.7986V32.796H12.0106L15.2586 29.884ZM23.366 29.884C24.402 28.96 24.906 28.302 24.906 26.972C24.906 25.124 23.492 23.71 21.616 23.71C19.684 23.71 18.256 25.054 18.256 26.958H19.53C19.516 25.852 20.398 24.9 21.602 24.9C22.764 24.9 23.632 25.796 23.632 26.958C23.632 27.602 23.422 28.176 22.68 28.848L18.214 32.866L18.2 33.986H24.906V32.796H20.118L23.366 29.884Z" fill="white"/>
<path d="M17.6 117.831L23.2 123L20.4 118.229L26 111.867L20 105.108L28 99.1446L21.6 90H12L20.4 97.1566L14 103.518L21.6 111.47L17.6 117.831Z" fill="#E62B3E" fill-opacity="0.6"/>
</svg>
