<svg width="57" height="140" viewBox="0 0 57 140" fill="none" xmlns="http://www.w3.org/2000/svg">
<path d="M40 20.5C38.8408 16.3329 36.6267 11.0202 34.9978 7.3473C33.7123 4.44844 32.1435 0.917312 29 0.500025C24.9434 -0.0384587 22.5024 4.84537 20.7331 8.53531C19.9351 10.1997 19.1149 11.9849 18.5 13.5C16.3405 18.8214 15.3981 21.93 14 27.5C12.265 34.412 11 45.5 11 45.5L7.99998 72L7.32631 85.1366C7.11012 89.3523 6.22798 93.5072 4.71263 97.4471L4.49998 98C4.49998 98 1.60448 105.467 0.99998 110.5C0.276657 116.522 0.567472 120.106 1.99998 126C2.49499 128.037 3.4298 130.524 4.27129 132.566C5.32999 135.135 7.37749 137.143 9.89562 138.318C12.2697 139.426 14.8577 140 17.4775 140H27H44.5911C45.1936 140 45.792 139.912 46.357 139.703C47.9878 139.099 51.5075 137.606 53 135.5C53.3649 134.985 53.7259 134.319 54.0641 133.604C55.6157 130.321 56.1586 126.675 56.3421 123.049C56.4188 121.534 56.4827 119.917 56.5 118.5C56.5261 116.356 56.1913 113.665 55.8315 111.425C55.356 108.465 54.4565 105.596 53.3742 102.8L49 91.5C49 91.5 46.582 83.6451 45.5 78.5C43.1205 67.1858 44.0953 60.5098 43 49C41.9398 37.8589 42.9994 31.282 40 20.5Z" fill="#E62B3E" fill-opacity="0.35"/>
<path d="M5.43234 98.3616L5.43236 98.3615L5.43333 98.359L5.64597 97.8061C7.19921 93.7677 8.1034 89.5089 8.325 85.1878L8.99709 72.082L11.9935 45.6133L11.9936 45.613L11.9936 45.6125L11.9937 45.6117L11.9944 45.606L11.9971 45.5827L12.0078 45.4899C12.0174 45.408 12.0317 45.2865 12.0506 45.1292C12.0883 44.8145 12.1443 44.3567 12.2168 43.7855C12.3619 42.6428 12.5734 41.0474 12.8388 39.2371C13.371 35.6072 14.1152 31.1484 14.9699 27.7435C16.3593 22.208 17.2883 19.1452 19.4266 13.8761C20.0301 12.389 20.8401 10.6252 21.6348 8.96765C22.5275 7.10594 23.5313 5.07514 24.7787 3.57015C26.0212 2.0711 27.3371 1.28807 28.8684 1.49133C30.0608 1.64961 31.0244 2.39821 31.8876 3.5822C32.7593 4.77779 33.4318 6.28265 34.0837 7.7527C35.711 11.4221 37.8985 16.6771 39.0366 20.768C40.5112 26.0689 40.9887 30.3328 41.2287 34.6706C41.3077 36.0981 41.3611 37.5482 41.4165 39.0522C41.5284 42.0932 41.6486 45.3545 42.0045 49.0948C42.4106 53.3626 42.5294 56.9464 42.6435 60.385C42.6823 61.5549 42.7205 62.708 42.7693 63.8655C42.9612 68.4182 43.3162 72.9753 44.5214 78.7058C45.0699 81.3139 45.9528 84.5914 46.6937 87.2024C47.0651 88.511 47.4024 89.6581 47.647 90.4781C47.7693 90.8882 47.8684 91.2166 47.9371 91.4428C47.9714 91.556 47.9981 91.6435 48.0163 91.7029L48.037 91.7706L48.0423 91.7881L48.0437 91.7926L48.0441 91.7938L48.0442 91.7941C48.0442 91.7942 48.0442 91.7942 49 91.5L48.0442 91.7942C48.0512 91.8168 48.0589 91.839 48.0674 91.861L52.4417 103.161C53.5092 105.919 54.3836 108.716 54.8442 111.583C55.2021 113.811 55.5251 116.433 55.5001 118.488C55.483 119.886 55.4197 121.489 55.3434 122.998C55.1626 126.57 54.6303 130.066 53.16 133.177C52.833 133.868 52.5008 134.475 52.1841 134.922C51.5677 135.792 50.4711 136.603 49.2415 137.292C48.0335 137.969 46.7987 138.473 46.0098 138.765C45.5749 138.926 45.0971 139 44.5911 139H27H17.4775C15.0038 139 12.5601 138.458 10.3185 137.412C8.00478 136.332 6.14992 134.5 5.19587 132.185C4.35842 130.152 3.44794 127.723 2.97169 125.764C1.56479 119.975 1.28507 116.512 1.99284 110.619C2.28314 108.202 3.13301 105.153 3.92901 102.668C4.32423 101.434 4.70097 100.355 4.97878 99.5847C5.11762 99.1998 5.23158 98.8926 5.31056 98.6822C5.35005 98.577 5.38079 98.4961 5.40151 98.4419L5.42491 98.3808L5.43068 98.3658L5.43203 98.3624L5.43231 98.3616L5.43234 98.3616Z" stroke="#E62B3E" stroke-opacity="0.6" stroke-width="2" stroke-linecap="round" stroke-linejoin="round"/>
<path d="M26.6 133.831L32.2 139L29.4 134.229L35 127.867L29 121.108L37 115.145L30.6 106H21L29.4 113.157L23 119.518L30.6 127.47L26.6 133.831Z" fill="#E62B3E" fill-opacity="0.6"/>
<path d="M24.9685 37.884C26.0045 36.96 26.5085 36.302 26.5085 34.972C26.5085 33.124 25.0945 31.71 23.2185 31.71C21.2865 31.71 19.8585 33.054 19.8585 34.958H21.1325C21.1185 33.852 22.0005 32.9 23.2045 32.9C24.3665 32.9 25.2345 33.796 25.2345 34.958C25.2345 35.602 25.0245 36.176 24.2825 36.848L19.8165 40.866L19.8025 41.986H26.5085V40.796H21.7205L24.9685 37.884ZM29.954 42H31.214V31.92H29.954L28.05 33.054V34.44L29.954 33.292V42Z" fill="white"/>
</svg>
