<svg width="65" height="119" viewBox="0 0 65 119" fill="none" xmlns="http://www.w3.org/2000/svg">
<path d="M24 4L28.0948 5.53555C30.6505 6.49393 33.418 6.74217 36.1035 6.25391C37.0325 6.08501 37.9435 5.82941 38.8248 5.49046L40.4219 4.8762C42.7539 3.97926 45.3009 3.8002 47.7355 4.36203L48.9985 4.6535C49.987 4.88161 51.014 4.88579 52.0043 4.66572C53.909 4.24244 55.9038 4.65734 57.4819 5.80499L58.6541 6.65753C59.8691 7.54119 60.8698 8.68683 61.5821 10.0096L62.246 11.2425C63.4004 13.3864 64.0777 15.7635 64.0774 18.1985C64.0773 19.1586 64.0579 20.1585 64 21C63.7555 24.5548 62.9592 26.4665 62.5 30C61.9989 33.8562 61.6631 39.47 61.546 41.6186C61.5139 42.2087 61.4821 42.792 61.443 43.3817C61.3047 45.4687 60.931 50.8128 60.5 54.5C59.9037 59.6018 59.1683 62.4071 58.5 67.5C58.1606 70.0862 57.8057 73.3692 57.5263 76.1058C57.1598 79.6964 56.5772 83.2616 55.7349 86.7712C54.5811 91.5787 53.0302 96.3002 50.7214 100.672C50.4751 101.138 50.2322 101.587 50 102C47.8131 105.892 43.8471 111.51 43.5214 111.97C43.5054 111.992 43.4917 112.011 43.4752 112.033L42.6497 113.134C41.2758 114.966 38.3764 114.259 38 112L37.5 104.5V102.139C37.5 101.22 36.1694 101.097 36 102L34.3419 111.12C34.116 112.362 33.6562 113.55 32.987 114.621L31.959 116.266C31.6588 116.746 31.232 117.134 30.7254 117.387L30.1337 117.683C29.1808 118.16 28.0245 117.906 27.359 117.074C26.8314 116.414 25.9799 116.104 25.1516 116.27L25.0124 116.298C24.3642 116.427 23.691 116.294 23.1409 115.927L22.0389 115.193C21.3544 114.736 20.777 114.139 20.3599 113.43C19.4751 111.926 17.8873 109.131 17 107C16.1123 104.868 15.3384 101.988 14.799 99.7097C14.216 97.2472 13.6895 94.7734 13.1211 92.3074C12.5762 89.9437 11.9052 86.8843 11.5 84.5C10.6762 79.6529 10.5609 76.8845 10 72C9.31299 66.017 8.00347 60.1291 6.45977 54.308C6.29283 53.6786 6.137 53.0685 6 52.5C5.28682 49.5404 4.49532 45.2623 4.16196 43.4108C4.05233 42.8018 3.95624 42.1937 3.86874 41.5812L3.38695 38.2086C3.12964 36.4074 2.69169 34.6367 2.07974 32.9233L1.81713 32.188C0.945532 29.7475 0.5 27.1753 0.5 24.5839C0.5 21.2364 1.24334 17.9307 2.67634 14.9055L5 10L7.59122 5.14146C8.49823 3.44081 10.0021 2.13561 11.8134 1.47694C13.5482 0.846111 15.4503 0.850124 17.1824 1.48827L24 4Z" fill="#E62B3E" fill-opacity="0.35"/>
<path d="M50 102C47.8131 105.892 43.8471 111.51 43.5214 111.97L7.59122 5.14146C8.49823 3.44081 10.0021 2.13561 11.8134 1.47694C13.5482 0.846111 15.4503 0.850124 17.1824 1.48827L24 4L28.0948 5.53555C30.6505 6.49393 33.418 6.74217 36.1035 6.25391C37.0325 6.08501 37.9435 5.82941 38.8248 5.49046L40.4219 4.8762C42.7539 3.97926 45.3009 3.8002 47.7355 4.36203L48.9985 4.6535C49.987 4.88161 51.014 4.88579 52.0043 4.66572C53.909 4.24244 55.9038 4.65734 57.4819 5.80499L58.6541 6.65753C59.8691 7.54119 60.8698 8.68683 61.5821 10.0096L62.246 11.2425C63.4004 13.3864 64.0777 15.7635 64.0774 18.1985C64.0773 19.1586 64.0579 20.1585 64 21C63.8608 23.0232 63.5429 24.5141 63.2102 26.0747C62.9583 27.2562 62.6978 28.4776 62.5 30C61.9989 33.8562 61.6631 39.47 61.546 41.6186C61.5139 42.2087 61.4821 42.792 61.443 43.3817C61.3047 45.4687 60.931 50.8128 60.5 54.5C60.1799 57.2382 59.8198 59.3148 59.4515 61.4387C59.1336 63.272 58.8096 65.1405 58.5 67.5C58.1606 70.0862 57.8057 73.3692 57.5263 76.1058C57.1598 79.6964 56.5772 83.2616 55.7349 86.7712C54.5811 91.5787 53.0302 96.3002 50.7214 100.672C50.4751 101.138 50.2322 101.587 50 102ZM5.89355 10.4496L8.47357 5.61205C9.26445 4.12915 10.5757 2.99107 12.1552 2.41673C13.6678 1.86668 15.3264 1.87017 16.8367 2.42661L23.6489 4.93633L23.6543 4.93834L27.7437 6.47188C30.4685 7.49368 33.4192 7.75836 36.2824 7.23778C37.2728 7.0577 38.2442 6.78518 39.1838 6.42381L40.7809 5.80954C42.9267 4.98421 45.2704 4.81945 47.5106 5.33642L48.7736 5.62789C49.9074 5.88953 51.0853 5.89432 52.2212 5.64191C53.846 5.28084 55.5476 5.63475 56.8937 6.61373L58.0659 7.46627C59.1597 8.26171 60.0605 9.29298 60.7016 10.4837L61.3655 11.7166C62.452 13.7344 63.0777 15.9498 63.0774 18.1983C63.0773 19.1491 63.058 20.1231 63.0024 20.9314C62.8848 22.6408 62.6354 23.9553 62.3519 25.3021C62.3129 25.4874 62.2732 25.6738 62.233 25.8623C61.9809 27.0439 61.7117 28.3059 61.5083 29.8711C61.0018 33.7696 60.6644 39.4187 60.5475 41.5642C60.5153 42.1552 60.4838 42.7327 60.4452 43.3156C60.3068 45.4046 59.9345 50.725 59.5068 54.3839C59.2119 56.9067 58.8828 58.8616 58.5416 60.8328C58.5165 60.9782 58.4912 61.1237 58.4659 61.2695C58.1481 63.1021 57.8209 64.9892 57.5085 67.3699C57.1672 69.9709 56.8111 73.2655 56.5315 76.0043C56.169 79.555 55.5934 83.0759 54.7625 86.5378C53.6208 91.295 52.0944 95.9307 49.8371 100.205C49.5938 100.666 49.3552 101.106 49.1282 101.51C46.9711 105.349 43.0363 110.924 42.7053 111.392L42.7052 111.392C42.6956 111.406 42.6875 111.417 42.6752 111.433L43.4752 112.033L42.6752 111.433L41.8497 112.534C41.0124 113.65 39.2553 113.235 38.9941 111.879L38.5 104.467V102.139C38.5 100.005 35.4105 99.7179 35.0171 101.816L35.0161 101.821L33.358 110.941C33.1548 112.058 32.7411 113.127 32.139 114.091L31.111 115.736C30.9083 116.06 30.6202 116.322 30.2782 116.493L30.7254 117.387L30.2782 116.493L29.6865 116.789C29.1553 117.054 28.5108 116.913 28.1399 116.449C27.3787 115.498 26.1503 115.05 24.9555 115.289L24.8163 115.317C24.4281 115.395 24.025 115.315 23.6956 115.095L22.5936 114.361C22.0282 113.984 21.5584 113.495 21.2219 112.923C20.3362 111.417 18.781 108.676 17.9232 106.616C17.0685 104.563 16.3095 101.749 15.7721 99.4793C15.437 98.0641 15.1245 96.6621 14.8103 95.2527C14.5763 94.203 14.3414 93.1493 14.0955 92.0828C13.5513 89.722 12.8859 86.6863 12.4859 84.3325C11.9307 81.066 11.7033 78.7788 11.437 76.1004C11.3109 74.8319 11.176 73.4756 10.9935 71.8859C10.2988 65.836 8.97632 59.8965 7.42636 54.0517C7.26084 53.4276 7.10697 52.8251 6.97217 52.2657C6.26672 49.3382 5.47983 45.087 5.14614 43.2336C5.03902 42.6386 4.94481 42.0426 4.85869 41.4398L4.3769 38.0672C4.1101 36.1996 3.656 34.3636 3.02148 32.5869L2.75887 31.8516C1.92583 29.5191 1.5 27.0607 1.5 24.5839C1.5 21.3845 2.21046 18.225 3.58008 15.3336L5.89355 10.4496Z" stroke="#E62B3E" stroke-opacity="0.6" stroke-width="2" stroke-linecap="round" stroke-linejoin="round"/>
<path d="M28.6528 19.728L31.3688 17.11V15.92H25.4328V17.11H29.8288L26.5528 20.064L27.1548 21.058C27.4628 20.89 27.8548 20.792 28.1908 20.792C29.4088 20.792 30.2208 21.646 30.2208 22.892C30.2208 24.124 29.4368 24.978 28.2048 25.006C27.3088 25.02 26.5248 24.516 26.2308 23.578L25.0268 23.928C25.4608 25.328 26.7208 26.196 28.2188 26.196C30.0808 26.196 31.5088 24.824 31.5088 22.892C31.5088 21.128 30.3888 19.812 28.6528 19.728ZM33.8675 26H35.2115L38.8375 17.11V15.92H32.9155V17.11H37.4935L33.8675 26Z" fill="white"/>
<path d="M30.6 94.8313L36.2 100L33.4 95.2289L39 88.8675L33 82.1084L41 76.1446L34.6 67H25L33.4 74.1566L27 80.5181L34.6 88.4699L30.6 94.8313Z" fill="#E62B3E" fill-opacity="0.6"/>
</svg>
