<svg width="47" height="98" viewBox="0 0 47 98" fill="none" xmlns="http://www.w3.org/2000/svg">
<path d="M0.49911 27.2389L0.444055 26.5507C0.14869 22.8586 0.205907 19.1468 0.614929 15.4656C0.871414 13.1573 1.20692 10.8393 2.09733 8.69424C2.91587 6.72227 4.20392 4.427 6 3.49997C8.1223 2.40457 10.6666 2.98608 12.8713 3.90466L15.5 4.99997L19.7671 6.64117C21.2107 7.19638 22.8023 7.23254 24.2696 6.74345C24.7549 6.58167 25.22 6.36458 25.6557 6.09646L29.6607 3.63186C30.8863 2.87766 32.058 2.02848 33.3376 1.3701C34.3048 0.872424 35.4953 0.416249 36.5 0.499974C36.9095 0.534101 37.3478 0.6629 37.7786 0.839929C39.7393 1.64563 41.0976 3.39643 42.2735 5.16023C43.7451 7.36763 44.7952 9.82847 45.3707 12.4183L45.7597 14.1687C46.2518 16.3829 46.5 18.6443 46.5 20.9125V22.8302C46.5 27.2559 45.8949 31.6609 44.7016 35.9227L43.0483 41.8274C43.0161 41.9424 42.9855 42.0511 42.9528 42.166C42.5615 43.5426 39.8239 53.1705 38 59.5C36.2547 65.5566 35.1854 68.8094 34 75C33.0024 80.2099 33.621 83.4229 32 88.5C31.2943 90.7102 29.9288 93.616 29.1279 95.2479C28.7317 96.0551 28.0228 96.659 27.1697 96.9434C26.1207 97.2931 24.9676 97.1197 24.0678 96.477L23.4137 96.0098C22.4977 95.3555 21.8274 94.4132 21.5098 93.3333L19.5 86.5L16.4462 75.5937C16.1488 74.5313 15.8394 73.4757 15.5059 72.424C14.6127 69.6073 12.6672 63.6192 11 59.5C9.06601 54.7214 7.38138 52.2995 5.5 47.5C4.57571 45.1421 3.59147 42.1411 2.77992 39.5228C1.54303 35.5322 0.832273 31.4034 0.49911 27.2389Z" fill="#E62B3E" fill-opacity="0.35"/>
<path d="M15.1154 5.92305C15.1239 5.92659 15.1324 5.93001 15.141 5.93332L19.4081 7.57452C21.0682 8.21299 22.8985 8.25457 24.5858 7.69213C25.1439 7.50609 25.6788 7.25644 26.1798 6.94811L30.1848 4.48352C30.6401 4.20333 31.0639 3.92727 31.4748 3.65961C32.2525 3.15308 32.984 2.67664 33.7951 2.2593C34.7399 1.77315 35.7126 1.43782 36.417 1.49652C36.688 1.5191 37.0214 1.60991 37.3985 1.76488C39.0532 2.44481 40.2681 3.95489 41.4415 5.71493C42.8446 7.81961 43.8458 10.1659 44.3945 12.6352L44.7835 14.3856C45.2597 16.5286 45.5 18.7173 45.5 20.9125V22.8302C45.5 27.1648 44.9074 31.479 43.7387 35.6531L42.0854 41.5578L43.0483 41.8274L42.0854 41.5578C42.0535 41.6717 42.0232 41.779 41.9909 41.8926C41.5995 43.2695 38.8624 52.8956 37.0391 59.2231C36.7591 60.1949 36.496 61.0959 36.2467 61.9498C34.9472 66.4002 34.0214 69.571 33.0178 74.8119C32.5961 77.0144 32.4545 78.8826 32.3228 80.6205C32.2947 80.9914 32.267 81.3564 32.2372 81.7174C32.0672 83.7735 31.8248 85.7608 31.0474 88.1958C30.3666 90.3281 29.0315 93.1745 28.2302 94.8073C27.9562 95.3656 27.4617 95.792 26.8535 95.9947C26.1079 96.2432 25.2885 96.12 24.649 95.6633L23.9949 95.196C23.2609 94.6717 22.7237 93.9166 22.4692 93.0512L20.463 86.2303L20.4594 86.2178L17.4092 75.3241C17.1096 74.2541 16.7969 73.1871 16.4591 72.1217C15.5665 69.3069 13.6105 63.2845 11.927 59.1248C10.977 56.7777 10.0853 54.9882 9.21712 53.2461L9.12535 53.0619C8.22906 51.2628 7.35449 49.4908 6.43102 47.135C5.52038 44.8119 4.54476 41.839 3.73509 39.2267C2.52376 35.3186 1.82432 31.2641 1.49593 27.1591L1.44087 26.4709C1.15057 22.8422 1.20681 19.1941 1.60881 15.576C1.86455 13.2744 2.1895 11.0806 3.02092 9.07761C3.4141 8.1304 3.90926 7.133 4.50399 6.27488C5.10457 5.40832 5.76279 4.74775 6.45865 4.38859C8.15917 3.51089 10.3273 3.92802 12.4866 4.82774L15.1154 5.92305Z" stroke="#E62B3E" stroke-opacity="0.6" stroke-width="2" stroke-linecap="round" stroke-linejoin="round"/>
<path d="M19.5717 17.728L22.2877 15.11V13.92H16.3517V15.11H20.7477L17.4717 18.064L18.0737 19.058C18.3817 18.89 18.7737 18.792 19.1097 18.792C20.3277 18.792 21.1397 19.646 21.1397 20.892C21.1397 22.124 20.3557 22.978 19.1237 23.006C18.2277 23.02 17.4437 22.516 17.1497 21.578L15.9457 21.928C16.3797 23.328 17.6397 24.196 19.1377 24.196C20.9997 24.196 22.4277 22.824 22.4277 20.892C22.4277 19.128 21.3077 17.812 19.5717 17.728ZM28.6084 24H29.8684V22.138H30.9184V20.962H29.8684V18.12H28.6084V20.962H25.3884L28.7204 13.92H27.3064L23.9744 20.962V22.138H28.6084V24Z" fill="white"/>
<path d="M21.6 80.8313L27.2 86L24.4 81.2289L30 74.8675L24 68.1084L32 62.1446L25.6 53H16L24.4 60.1566L18 66.5181L25.6 74.4699L21.6 80.8313Z" fill="#E62B3E" fill-opacity="0.6"/>
</svg>
