<svg width="35" height="118" viewBox="0 0 35 118" fill="none" xmlns="http://www.w3.org/2000/svg">
<path d="M11.423 0.765566L16.9999 0.5H24.2622C25.0837 0.5 25.9016 0.609533 26.6942 0.825705C29.4144 1.56759 31.6472 3.5105 32.7579 6.10207L33.2339 7.21274C33.7411 8.39619 34.0503 9.65499 34.149 10.9388L34.627 17.1531C34.875 20.3766 34.8059 23.6166 34.4207 26.8266L33.4999 34.5C31.838 41.4797 30.9779 48.6205 30.6817 55.7892C30.628 57.09 30.5674 58.3598 30.4999 59.5C30.0132 67.7237 29.3592 72.3068 28.4999 80.5C28.3008 82.3981 28.0508 84.6778 27.8123 86.819C27.2793 91.6041 26.5006 96.3623 25.2119 101.001C24.5535 103.372 23.7778 105.938 22.9999 108C21.8861 110.952 19.9709 114.982 19.0397 116.9C18.7108 117.577 18.0241 118 17.2712 118C16.4963 118 15.7926 117.551 15.4784 116.842C14.9193 115.582 14.0396 113.541 13.4999 112C12.5827 109.381 11.7421 105.622 11.3083 103.538C11.0951 102.514 10.9151 101.486 10.7528 100.452C10.4152 98.3027 9.81561 94.3561 9.49988 91.5C8.90322 86.1027 8.60278 78.1105 8.52239 75.708C8.50656 75.2349 8.49058 74.7651 8.47062 74.2921C8.36539 71.7997 7.98655 63.2697 7.49988 57.5L7.47863 57.2506C6.91997 50.7515 5.59026 44.3501 4.14382 37.9895C3.90619 36.9445 3.68479 35.9254 3.49988 35C2.65744 30.7842 1.8683 24.9925 1.40996 21.3745C1.12485 19.124 0.901284 16.8656 0.981015 14.5985C1.06851 12.1108 1.40833 8.78532 2.49988 6.5C2.75029 5.97573 3.08257 5.41762 3.44892 4.86557C5.19499 2.23442 8.26876 0.915768 11.423 0.765566Z" fill="#E62B3E" fill-opacity="0.35"/>
<path d="M8.49634 57.416L8.49627 57.4151L8.47503 57.1657L8.47496 57.1649C7.91001 50.5927 6.56676 44.1345 5.11893 37.7677C4.88254 36.7282 4.66316 35.7182 4.48049 34.804C3.64571 30.6266 2.8603 24.8662 2.40203 21.2489C2.11846 19.0105 1.9036 16.8172 1.9804 14.6336C2.06756 12.1552 2.40742 9.01379 3.40223 6.931C3.62562 6.46329 3.93105 5.94757 4.28214 5.41851C5.80542 3.12308 8.53902 1.90403 11.4706 1.76443L17.0237 1.5H24.2622C24.9948 1.5 25.7242 1.59768 26.4311 1.79047C28.857 2.45209 30.8483 4.18479 31.8388 6.49599L32.7579 6.10207L31.8388 6.49599L32.3148 7.60666C32.7788 8.68935 33.0616 9.84098 33.152 11.0155L33.63 17.2298C33.8729 20.388 33.8052 23.5625 33.4278 26.7075L32.5138 34.3242C30.8432 41.3596 29.9801 48.5465 29.6826 55.7479C29.629 57.045 29.5686 58.3085 29.5016 59.4409C29.1405 65.5432 28.6882 69.6194 28.1247 74.6985C27.9316 76.4391 27.7254 78.2975 27.5053 80.3957C27.3066 82.2906 27.0569 84.5679 26.8184 86.7083C26.289 91.4612 25.5181 96.163 24.2484 100.734C23.5927 103.094 22.8263 105.627 22.0643 107.647C20.9686 110.551 19.0723 114.543 18.1401 116.463C17.9812 116.79 17.6474 117 17.2712 117C16.8843 117 16.5434 116.777 16.3925 116.437C15.8337 115.177 14.9687 113.169 14.4437 111.669C13.5507 109.12 12.7214 105.419 12.2873 103.334C12.0784 102.331 11.9012 101.319 11.7407 100.297C11.403 98.1471 10.8068 94.221 10.4938 91.3901C9.902 86.0365 9.60236 78.0814 9.52183 75.6746C9.50601 75.2016 9.4899 74.7278 9.46973 74.2499C9.3646 71.7599 8.98504 63.2097 8.49634 57.416Z" stroke="#E62B3E" stroke-opacity="0.6" stroke-width="2" stroke-linecap="round" stroke-linejoin="round"/>
<path d="M15.3979 16.728L18.1139 14.11V12.92H12.1779V14.11H16.5739L13.2979 17.064L13.8999 18.058C14.2079 17.89 14.5999 17.792 14.9359 17.792C16.1539 17.792 16.9659 18.646 16.9659 19.892C16.9659 21.124 16.1819 21.978 14.9499 22.006C14.0539 22.02 13.2699 21.516 12.9759 20.578L11.7719 20.928C12.2059 22.328 13.4659 23.196 14.9639 23.196C16.8259 23.196 18.2539 21.824 18.2539 19.892C18.2539 18.128 17.1339 16.812 15.3979 16.728ZM21.8446 23H23.1046V12.92H21.8446L19.9406 14.054V15.44L21.8446 14.292V23Z" fill="white"/>
<path d="M15.6 99.8313L21.2 105L18.4 100.229L24 93.8675L18 87.1084L26 81.1446L19.6 72H10L18.4 79.1566L12 85.5181L19.6 93.4699L15.6 99.8313Z" fill="#E62B3E" fill-opacity="0.6"/>
</svg>
