<svg width="56" height="102" viewBox="0 0 56 102" fill="none" xmlns="http://www.w3.org/2000/svg">
<path d="M48.6005 27.902L46 17.5L43.0789 9.5711C42.6935 8.5251 42.2321 7.50872 41.6983 6.53011L40.0585 3.52384C39.6899 2.84804 39.1905 2.25234 38.5894 1.77146L38.3666 1.59322C37.482 0.885544 36.3829 0.5 35.25 0.5H35.0038C34.0304 0.5 33.0859 0.831301 32.3258 1.43941C31.4741 2.12073 30.9142 3.10103 30.7599 4.18071L30.6716 4.79874C30.5584 5.59118 30.6087 6.39842 30.8193 7.1707L32 11.5L32.3992 14.0947C32.7978 16.6857 32.8351 19.3195 32.5099 21.9207L32.1966 24.4273C32.0662 25.4703 31.7861 26.4891 31.3648 27.452L28.8174 33.2745C28.6246 33.7152 28.1892 34 27.7082 34C27.2707 34 26.8673 33.7641 26.6529 33.3828L23.5157 27.8056C22.8434 26.6105 22.3783 25.3102 22.14 23.9598L21.509 20.3842C21.1703 18.4651 21 16.52 21 14.5712V10L20.6392 5.66974C20.5502 4.60149 20.0364 3.6136 19.2129 2.92735L18.9837 2.73641C18.0613 1.96775 16.8069 1.73105 15.6678 2.11074C14.9124 2.36255 14.2667 2.86671 13.8392 3.5385L11.9012 6.58395C11.3027 7.52443 10.8218 8.53477 10.4693 9.59233L8.00003 17L5.04775 31.2694C5.01594 31.4231 4.98441 31.5733 4.95205 31.7269C4.63164 33.2482 2.7908 42.0844 2.00003 48C1.03964 55.1845 0.752101 59.256 0.50003 66.5C0.372459 70.1662 0.416079 75.2153 0.458596 78.1411C0.481482 79.7159 0.477774 81.287 0.548201 82.8605C0.634958 84.7988 0.870257 87.535 1.50003 89.5C2.30976 92.0266 4.38611 95.1957 5.41046 96.6721C5.79615 97.2279 6.26484 97.7167 6.78847 98.1451C9.58817 100.436 13.5554 100.63 16.5652 98.6232L19 97L25.2189 93.1132C26.3828 92.3857 27.7278 92 29.1005 92C30.6594 92 32.1724 92.5043 33.4672 93.3724C34.5455 94.0954 35.8855 94.9447 37 95.5C38.5526 96.2735 40.7492 97.0153 42.2658 97.4871C43.4047 97.8413 44.6093 97.9063 45.7882 97.7249C48.7145 97.2747 51.1948 95.3324 52.3336 92.5995L54.3401 87.7837C55.1079 85.9411 55.5599 83.9823 55.6771 81.9895L55.8487 79.0733C55.9494 77.3601 55.9259 75.6431 55.7606 73.9349C55.5658 71.9223 55.2785 69.1168 55 67C54.2506 61.3029 53.4094 58.1737 52.5 52.5C51.629 47.0653 50.5911 39.5823 49.9926 35.1718C49.6604 32.7238 49.1997 30.2987 48.6005 27.902Z" fill="#E62B3E" fill-opacity="0.35"/>
<path d="M38.3653 1.59476L37.7419 2.37408C37.0346 1.80826 36.1558 1.5 35.25 1.5H35.0038C34.2574 1.5 33.5333 1.75402 32.9505 2.22028C32.2975 2.74267 31.8681 3.4943 31.7499 4.32213L31.6616 4.94016C31.5677 5.59745 31.6094 6.26701 31.7841 6.90758L32.9648 11.2369C32.9748 11.2734 32.9826 11.3105 32.9884 11.3479L33.3876 13.9427C33.8003 16.6251 33.8388 19.3517 33.5022 22.0448L33.1889 24.5513C33.0466 25.6898 32.7408 26.8018 32.2809 27.8529L29.7336 33.6753C29.3815 34.48 28.5865 35 27.7082 35C26.9095 35 26.1729 34.5692 25.7813 33.8731L22.6441 28.2959C21.9165 27.0024 21.4131 25.5951 21.1552 24.1336L20.5242 20.558C20.1754 18.5815 20 16.5783 20 14.5712V10.0416L19.6426 5.75279C19.5759 4.95144 19.1904 4.21036 18.5727 3.69557L18.3435 3.50463C17.6872 2.95767 16.7946 2.78925 15.984 3.05943C15.4465 3.2386 14.987 3.59735 14.6828 4.07537L12.7448 7.12082C12.1902 7.99233 11.7446 8.92856 11.4179 9.90856L8.96735 17.2603L6.02701 31.472C5.99482 31.6275 5.963 31.7791 5.93058 31.933C5.609 33.4599 3.77624 42.2599 2.99121 48.1325C2.03596 55.2785 1.75059 59.3167 1.49943 66.5348C1.3728 70.1737 1.41597 75.2007 1.45849 78.1265C1.46467 78.552 1.46892 78.9732 1.47314 79.3917C1.48477 80.5445 1.49619 81.6761 1.5472 82.8158C1.63369 84.7481 1.86664 87.3673 2.45232 89.1948C3.21061 91.5608 5.20179 94.6171 6.23207 96.102C6.5578 96.5714 6.95995 96.9933 7.42171 97.3711C9.88123 99.3835 13.3664 99.5539 16.0105 97.7911L18.4453 96.1679C18.4485 96.1658 18.4517 96.1637 18.4549 96.1617C18.4599 96.1584 18.465 96.1552 18.47 96.152L24.6889 92.2652C26.0118 91.4384 27.5404 91 29.1005 91C30.8763 91 32.5807 91.5741 34.0241 92.5418C35.0954 93.2601 36.3916 94.0796 37.446 94.6049C38.9204 95.3395 41.0496 96.0615 42.5628 96.5322C43.5431 96.8371 44.593 96.897 45.6362 96.7365C48.2177 96.3394 50.4059 94.6259 51.4105 92.2149L53.4171 87.3991C54.1417 85.6601 54.5682 83.8115 54.6788 81.9308L54.8504 79.0146C54.9483 77.3496 54.9252 75.6846 54.7652 74.0313C54.5705 72.0198 54.2846 69.2289 54.0086 67.1304C53.6374 64.3088 53.2436 62.1231 52.8275 59.9275C52.7593 59.5675 52.6904 59.2069 52.6208 58.843C52.2663 56.9873 51.8952 55.0449 51.5126 52.6583C50.6395 47.2105 49.6002 39.7168 49.0017 35.3063C48.6742 32.8931 48.2203 30.5042 47.6304 28.1446L45.043 17.795L42.1405 9.9168C41.772 8.91661 41.3308 7.94473 40.8204 7.00896L39.1806 4.00269C38.8755 3.44336 38.4622 2.95033 37.9647 2.55233M38.3653 1.59476L37.9647 2.55233M38.3653 1.59476L37.7419 2.37409L37.9647 2.55233M38.3653 1.59476L38.5894 1.77146L37.9647 2.55233" stroke="#E62B3E" stroke-opacity="0.6" stroke-width="2" stroke-linecap="round" stroke-linejoin="round"/>
<path d="M25.2791 46.884C26.3151 45.96 26.8191 45.302 26.8191 43.972C26.8191 42.124 25.4051 40.71 23.5291 40.71C21.5971 40.71 20.1691 42.054 20.1691 43.958H21.4431C21.4291 42.852 22.3111 41.9 23.5151 41.9C24.6771 41.9 25.5451 42.796 25.5451 43.958C25.5451 44.602 25.3351 45.176 24.5931 45.848L20.1271 49.866L20.1131 50.986H26.8191V49.796H22.0311L25.2791 46.884ZM32.5811 51H33.8411V49.138H34.8911V47.962H33.8411V45.12H32.5811V47.962H29.3611L32.6931 40.92H31.2791L27.9471 47.962V49.138H32.5811V51Z" fill="white"/>
<path d="M24.6 85.8313L30.2 91L27.4 86.2289L33 79.8675L27 73.1084L35 67.1446L28.6 58H19L27.4 65.1566L21 71.5181L28.6 79.4699L24.6 85.8313Z" fill="#E62B3E" fill-opacity="0.6"/>
</svg>
