<svg width="57" height="117" viewBox="0 0 57 117" fill="none" xmlns="http://www.w3.org/2000/svg">
<path d="M46 37L45.951 36.694C44.6541 28.588 42.4914 20.6446 39.5 13L34.4366 3.29506C34.0533 2.56048 32.9942 2.58392 32.6438 3.33474L30.7367 7.4213C30.4102 8.1209 29.4478 8.20238 29.0084 7.56762L25.861 3.02145C25.6406 2.70313 25.2563 2.54062 24.8744 2.60426L23.2285 2.87858C22.7955 2.95075 22.366 2.73206 22.1697 2.3394L21.2514 0.502721C21.1125 0.225076 20.7749 0.112538 20.4973 0.251361C18.8573 1.07133 17.4429 2.27999 16.3772 3.77198L16.2581 3.93866C15.7542 4.64416 15.3277 5.40193 14.9862 6.19883L12.5 12L9.5 21L7.5 30.5L6.5 42.5L6.13049 57.2804C6.0437 60.752 5.62068 64.2069 4.86736 67.5969L4.59936 68.8029C4.20034 70.5985 3.66848 72.362 3.00818 74.0787L2.85353 74.4808C1.95404 76.8195 1.32113 79.2521 0.966772 81.7326C0.65635 83.9055 0.561325 86.1039 0.683083 88.2955L0.764699 89.7646C0.921263 92.5827 1.32511 95.3817 1.97157 98.1292L3 102.5L4.24991 107.5C4.41614 108.165 4.65464 108.809 4.96115 109.422L5.62764 110.755C6.19091 111.882 7.13526 112.772 8.29294 113.268C9.39833 113.742 10.6315 113.828 11.7918 113.511L15.5 112.5L15.8098 112.387C19.2555 111.134 22.8486 110.332 26.5 110H26.7404C29.8045 110 32.7602 111.134 35.0378 113.184C36.0065 114.056 37.1067 114.77 38.2977 115.299L39.9078 116.015C40.6279 116.335 41.4072 116.5 42.1952 116.5C43.369 116.5 44.5135 116.133 45.4687 115.451L46.0652 115.025C47.0102 114.35 47.7951 113.475 48.3645 112.463L52 106L53.9325 102.135C54.9707 100.059 55.6674 97.8284 55.9957 95.5302C56.3296 93.1925 56.278 90.816 55.8428 88.4951L55.5336 86.846C55.1786 84.9526 54.6521 83.0954 53.9606 81.2974L52.6324 77.8441C50.8819 73.293 49.5961 68.5766 48.7945 63.7669L47 53L46 37Z" fill="#E62B3E" fill-opacity="0.35"/>
<path d="M11.5287 112.547L11.7918 113.511L11.5287 112.547C10.5863 112.804 9.58467 112.734 8.68686 112.349C7.74657 111.946 6.97956 111.223 6.52207 110.308L5.85558 108.975C5.58169 108.427 5.36858 107.851 5.22005 107.257L3.97342 102.271L3.97014 102.257L2.94499 97.9001C2.31194 95.2097 1.91648 92.4688 1.76316 89.7091L1.68154 88.24C1.56344 86.1141 1.65561 83.9818 1.95672 81.874C2.30045 79.4679 2.91437 77.1083 3.78687 74.8398L3.94152 74.4377L3.00818 74.0787L3.94152 74.4377C4.6196 72.6747 5.16578 70.8638 5.57554 69.0198L5.84355 67.8138C6.61088 64.3608 7.04177 60.8416 7.13018 57.3054L7.49896 42.5541L8.49138 30.6451L10.4668 21.262L13.4355 12.3557L15.9054 6.59275C16.2186 5.8619 16.6097 5.16693 17.0718 4.5199L17.1909 4.35322C18.0768 3.11293 19.2273 2.08755 20.557 1.35002L21.2753 2.78661C21.6679 3.57193 22.5269 4.00932 23.3929 3.86497L25.0388 3.59066L28.1862 8.13683C29.0651 9.40636 30.9899 9.24339 31.6429 7.84418L33.55 3.75763L38.5884 13.4146C41.5435 20.9772 43.6808 28.8344 44.9636 36.852L45.005 37.1105L46.0019 53.0624C46.0041 53.0966 46.008 53.1306 46.0136 53.1644L47.8081 63.9313C48.6208 68.8075 49.9244 73.5891 51.699 78.2031L53.0272 81.6564C53.697 83.3978 54.2069 85.1965 54.5507 87.0303L54.86 88.6794C55.275 90.8928 55.3242 93.1593 55.0057 95.3887C54.6926 97.5805 54.0282 99.7075 53.0381 101.688L51.1165 105.531L47.4929 111.973C46.9954 112.857 46.3096 113.621 45.4839 114.211L44.8874 114.637C44.1018 115.198 43.1606 115.5 42.1952 115.5C41.5471 115.5 40.9062 115.364 40.314 115.101L38.7038 114.385C37.6088 113.898 36.5974 113.242 35.7067 112.441C33.2456 110.226 30.0516 109 26.7404 109H26.5C26.4698 109 26.4396 109.001 26.4095 109.004C22.6723 109.344 18.9947 110.165 15.4681 111.448L15.1971 111.546L11.5287 112.547ZM20.3569 0.949935L20.3575 0.950975C20.3573 0.950629 20.3571 0.950282 20.3569 0.949935L20.7486 0.754081L20.3569 0.949935Z" stroke="#E62B3E" stroke-opacity="0.6" stroke-width="2" stroke-linecap="round" stroke-linejoin="round"/>
<path d="M23.9646 27.884C25.0006 26.96 25.5046 26.302 25.5046 24.972C25.5046 23.124 24.0906 21.71 22.2146 21.71C20.2826 21.71 18.8546 23.054 18.8546 24.958H20.1286C20.1146 23.852 20.9966 22.9 22.2006 22.9C23.3626 22.9 24.2306 23.796 24.2306 24.958C24.2306 25.602 24.0206 26.176 23.2786 26.848L18.8126 30.866L18.7986 31.986H25.5046V30.796H20.7166L23.9646 27.884ZM30.7701 25.504C29.8741 25.504 29.0481 25.896 28.4601 26.54V25.182C28.4601 23.978 29.3981 22.9 30.7421 22.9C31.4841 22.9 32.1561 23.278 32.5621 23.852L33.5001 23.026C32.8421 22.186 31.8481 21.71 30.7421 21.71C28.6701 21.71 27.1861 23.208 27.1861 25.322V28.668C27.1861 30.698 28.6981 32.21 30.6301 32.21C32.5061 32.21 34.0601 30.712 34.0601 28.836C34.0601 26.96 32.6461 25.504 30.7701 25.504ZM30.6301 31.006C29.4261 31.006 28.4601 30.026 28.4601 28.836C28.4601 27.632 29.4261 26.652 30.6301 26.652C31.8341 26.652 32.8001 27.632 32.8001 28.836C32.8001 30.04 31.8341 31.006 30.6301 31.006Z" fill="white"/>
<path d="M24.6 103.831L30.2 109L27.4 104.229L33 97.8675L27 91.1084L35 85.1446L28.6 76H19L27.4 83.1566L21 89.5181L28.6 97.4699L24.6 103.831Z" fill="#E62B3E" fill-opacity="0.6"/>
</svg>
