<svg width="47" height="98" viewBox="0 0 47 98" fill="none" xmlns="http://www.w3.org/2000/svg">
<path d="M0.49911 27.2389L0.444055 26.5507C0.14869 22.8586 0.205907 19.1468 0.614929 15.4656C0.871414 13.1573 1.20692 10.8393 2.09733 8.69424C2.91587 6.72227 4.20392 4.427 6 3.49997C8.1223 2.40457 10.6666 2.98608 12.8713 3.90466L15.5 4.99997L19.7671 6.64117C21.2107 7.19638 22.8023 7.23254 24.2696 6.74345C24.7549 6.58167 25.22 6.36458 25.6557 6.09646L29.6607 3.63186C30.8863 2.87766 32.058 2.02848 33.3376 1.3701C34.3048 0.872424 35.4953 0.416249 36.5 0.499974C36.9095 0.534101 37.3478 0.6629 37.7786 0.839929C39.7393 1.64563 41.0976 3.39643 42.2735 5.16023C43.7451 7.36763 44.7952 9.82847 45.3707 12.4183L45.7597 14.1687C46.2518 16.3829 46.5 18.6443 46.5 20.9125V22.8302C46.5 27.2559 45.8949 31.6609 44.7016 35.9227L43.0483 41.8274C43.0161 41.9424 42.9855 42.0511 42.9528 42.166C42.5615 43.5426 39.8239 53.1705 38 59.5C36.2547 65.5566 35.1854 68.8094 34 75C33.0024 80.2099 33.621 83.4229 32 88.5C31.2943 90.7102 29.9288 93.616 29.1279 95.2479C28.7317 96.0551 28.0228 96.659 27.1697 96.9434C26.1207 97.2931 24.9676 97.1197 24.0678 96.477L23.4137 96.0098C22.4977 95.3555 21.8274 94.4132 21.5098 93.3333L19.5 86.5L16.4462 75.5937C16.1488 74.5313 15.8394 73.4757 15.5059 72.424C14.6127 69.6073 12.6672 63.6192 11 59.5C9.06601 54.7214 7.38138 52.2995 5.5 47.5C4.57571 45.1421 3.59147 42.1411 2.77992 39.5228C1.54303 35.5322 0.832273 31.4034 0.49911 27.2389Z" fill="#B0D0D4"/>
<path opacity="0.6" d="M33 57.5C33 62.1944 29.1944 66 24.5 66C21.9758 66 19.7095 64.901 18.1513 63.1521C16.8124 61.6493 16 59.6707 16 57.5C16 52.8056 19.8056 49 24.5 49C26.9447 49 29.1471 50.0308 30.6991 51.6844C32.1269 53.2056 33 55.2498 33 57.5Z" stroke="white" stroke-width="2"/>
<path d="M19.5717 19.728L22.2877 17.11V15.92H16.3517V17.11H20.7477L17.4717 20.064L18.0737 21.058C18.3817 20.89 18.7737 20.792 19.1097 20.792C20.3277 20.792 21.1397 21.646 21.1397 22.892C21.1397 24.124 20.3557 24.978 19.1237 25.006C18.2277 25.02 17.4437 24.516 17.1497 23.578L15.9457 23.928C16.3797 25.328 17.6397 26.196 19.1377 26.196C20.9997 26.196 22.4277 24.824 22.4277 22.892C22.4277 21.128 21.3077 19.812 19.5717 19.728ZM28.6084 26H29.8684V24.138H30.9184V22.962H29.8684V20.12H28.6084V22.962H25.3884L28.7204 15.92H27.3064L23.9744 22.962V24.138H28.6084V26Z" fill="white"/>
</svg>
