<svg width="43" height="126" viewBox="0 0 43 126" fill="none" xmlns="http://www.w3.org/2000/svg">
<path d="M17.0003 19L20.6652 6.63093C20.8882 5.87843 21.1768 5.14698 21.5278 4.445L22.2557 2.98913C22.4177 2.66516 22.6309 2.36943 22.887 2.11331C23.8614 1.13893 25.3308 0.855937 26.5974 1.39875L27.105 1.61631C27.694 1.86873 28.2172 2.25302 28.6342 2.73955L29.6842 3.96448C30.5545 4.97983 31.2344 6.14385 31.6915 7.40064L32.3282 9.15164C32.7753 10.3813 33.1085 11.6494 33.3236 12.94L34.5003 20L35.5003 33.5L36.5003 50V60.2322C36.5003 65.4011 36.9456 70.5604 37.8313 75.6529L38.5003 79.5L39.8558 84.696C40.9507 88.8932 41.7408 93.164 42.2198 97.4751L42.5003 100V102.457C42.5003 108.468 42.5664 114.83 39.5003 120C37.8475 122.787 34.7659 124.325 31.581 124.922L30.8171 125.066C29.2804 125.354 27.7126 125.424 26.1586 125.252C23.7086 124.98 19.8321 124.513 17.0003 124C14.7489 123.592 11.7243 122.895 9.81849 122.441C8.61302 122.154 7.47318 121.649 6.44211 120.961C4.53102 119.687 3.07698 117.836 2.29205 115.677L2.04846 115.007C1.68442 114.006 1.44397 112.967 1.35344 111.905C1.18429 109.922 0.937222 106.494 1.00031 104C1.11976 99.2787 1.60681 96.6375 2.50031 92C2.92358 89.8031 3.63585 87.0521 4.26016 84.7917C5.0528 81.9217 5.79281 79.0375 6.37673 76.1179L8.00031 68L10.0003 52L13.0003 34.5L17.0003 19Z" fill="#B0D0D4"/>
<path opacity="0.6" d="M30 103.5C30 108.194 26.1944 112 21.5 112C18.9758 112 16.7095 110.901 15.1513 109.152C13.8124 107.649 13 105.671 13 103.5C13 98.8056 16.8056 95 21.5 95C23.9447 95 26.1471 96.0308 27.6991 97.6844C29.1269 99.2056 30 101.25 30 103.5Z" stroke="white" stroke-width="2"/>
<path d="M20.8465 39H22.1065V28.92H20.8465L18.9425 30.054V31.44L20.8465 30.292V39ZM29.656 34.884C30.692 33.96 31.196 33.302 31.196 31.972C31.196 30.124 29.782 28.71 27.906 28.71C25.974 28.71 24.546 30.054 24.546 31.958H25.82C25.806 30.852 26.688 29.9 27.892 29.9C29.054 29.9 29.922 30.796 29.922 31.958C29.922 32.602 29.712 33.176 28.97 33.848L24.504 37.866L24.49 38.986H31.196V37.796H26.408L29.656 34.884Z" fill="white"/>
</svg>
