<svg width="38" height="122" viewBox="0 0 38 122" fill="none" xmlns="http://www.w3.org/2000/svg">
<path d="M28.0878 4.34219L29.0589 4.9664C31.6386 6.62479 33.7238 8.94761 35.0953 11.6906C36.024 13.548 36.6059 15.5591 36.8125 17.6254L37.1963 21.4628C37.3984 23.4844 37.4383 25.5188 37.3153 27.5467L36.8002 36.0461C36.6006 39.3399 36.0624 42.6045 35.1941 45.7881L34.6479 47.7909C33.8861 50.5845 33.5 53.4672 33.5 56.3629C33.5 57.1207 33.4739 57.8746 33.4193 58.6305C33.2529 60.9347 32.8572 66.2717 32.5 70C31.97 75.532 30.9834 83.1736 30.4211 87.391C30.1447 89.4643 29.7844 91.5243 29.3535 93.5711C28.4523 97.8513 27.2409 102.06 25.7288 106.165L24.5 109.5L22 116L21.7537 116.677C20.8925 119.045 17.9606 119.868 15.9929 118.294C15.3496 117.78 14.8975 117.064 14.7088 116.262L13.1926 109.819C13.0643 109.273 12.9165 108.735 12.7525 108.199C12.1723 106.303 10.7195 101.44 10 98C8.5521 91.0771 8.5839 87.0486 8 80C7.52417 74.2561 7.17186 65.9238 7.04823 62.7719C7.01483 61.9205 7.02506 61.074 7.07509 60.2234L7.20223 58.0622C7.39732 54.7456 6.71799 51.436 5.23222 48.4644C4.74498 47.49 4.34259 46.4753 4.02953 45.4318L3.15875 42.5292C2.05605 38.8535 1.3477 35.0709 1.04568 31.2453L0.417433 23.2875C0.142691 19.8074 0.657131 16.3102 1.92239 13.0567L2.20375 12.3332C3.06044 10.1303 4.31949 8.10601 5.91665 6.36366L6.67053 5.54123C8.20187 3.87069 10.1059 2.58527 12.2279 1.78955C15.3154 0.631726 18.7068 0.568943 21.8351 1.6117L23.6453 2.21511C25.209 2.73633 26.7014 3.45089 28.0878 4.34219Z" fill="#B0D0D4"/>
<path opacity="0.6" d="M28 81.5C28 86.1944 24.1944 90 19.5 90C16.9758 90 14.7095 88.901 13.1513 87.1521C11.8124 85.6493 11 83.6707 11 81.5C11 76.8056 14.8056 73 19.5 73C21.9447 73 24.1471 74.0308 25.6991 75.6844C27.1269 77.2056 28 79.2498 28 81.5Z" stroke="white" stroke-width="2"/>
<path d="M16.7197 25H17.9797V23.138H19.0297V21.962H17.9797V19.12H16.7197V21.962H13.4997L16.8317 14.92H15.4177L12.0857 21.962V23.138H16.7197V25ZM23.9116 18.728L26.6276 16.11V14.92H20.6916V16.11H25.0876L21.8116 19.064L22.4136 20.058C22.7216 19.89 23.1136 19.792 23.4496 19.792C24.6676 19.792 25.4796 20.646 25.4796 21.892C25.4796 23.124 24.6956 23.978 23.4636 24.006C22.5676 24.02 21.7836 23.516 21.4896 22.578L20.2856 22.928C20.7196 24.328 21.9796 25.196 23.4776 25.196C25.3396 25.196 26.7676 23.824 26.7676 21.892C26.7676 20.128 25.6476 18.812 23.9116 18.728Z" fill="white"/>
</svg>
