<svg width="61" height="106" viewBox="0 0 61 106" fill="none" xmlns="http://www.w3.org/2000/svg">
<path d="M36.0283 2.26343L35.6309 1.80489C35.1995 1.3071 34.3821 1.56149 34.3093 2.2162L33.8253 6.57273C33.6088 8.52041 33.5656 10.4834 33.6959 12.4388C33.8977 15.4653 33.6831 18.5051 33.0583 21.4733L32.5994 23.6529C32.4286 24.4642 31.3003 24.5408 31.0214 23.76L28.7027 17.2676C27.5696 14.0948 26.7057 10.8323 26.1202 7.51452L25.8215 5.82178C25.6079 4.61129 25.2555 3.42945 24.7713 2.29964L24.7534 2.25801C24.4354 1.51584 23.4142 1.43721 22.9863 2.12193L22.2456 3.30701C21.758 4.08719 21.0646 4.71771 20.2417 5.12915L20.0664 5.21678C19.0679 5.71605 18.3235 6.60989 18.013 7.68226L13 25L9.5 37L5 52L3.07234 58.4255C1.36658 64.1114 0.5 70.0158 0.5 75.952V76.4097C0.5 79.4647 0.752407 82.5144 1.25464 85.5279L2.08635 90.5181C2.36084 92.1651 2.85796 93.7671 3.56404 95.2801L4.22456 96.6955C5.38059 99.1727 7.26519 101.238 9.62648 102.615L10.5629 103.162C11.5111 103.715 12.5616 104.07 13.6509 104.206C15.1851 104.398 16.7422 104.148 18.1395 103.487L19.8217 102.69C23.4449 100.973 27.6165 100.831 31.3481 102.297L35.1512 103.792C37.9929 104.908 41.0915 105.202 44.0924 104.639C46.3389 104.218 48.4713 103.328 50.3506 102.027L51.4879 101.239C53.1518 100.087 54.619 98.6747 55.8332 97.0557C57.587 94.7174 58.7722 92.0028 59.2951 89.127L59.9472 85.5403C60.315 83.5175 60.5 81.4658 60.5 79.4098V77.7339C60.5 74.2531 60.1562 70.7809 59.4736 67.3678L57 55L50 34L47.0091 22.4104C46.3379 19.8095 45.4186 17.279 44.2637 14.8538C42.0978 10.3054 39.3277 6.07038 36.0283 2.26343Z" fill="#B0D0D4"/>
<path opacity="0.6" d="M39 82.5C39 87.1944 35.1944 91 30.5 91C27.9758 91 25.7095 89.901 24.1513 88.1521C22.8124 86.6493 22 84.6707 22 82.5C22 77.8056 25.8056 74 30.5 74C32.9447 74 35.1471 75.0308 36.6991 76.6844C38.1269 78.2056 39 80.2498 39 82.5Z" stroke="white" stroke-width="2"/>
<path d="M29.1765 43.884C30.2125 42.96 30.7165 42.302 30.7165 40.972C30.7165 39.124 29.3025 37.71 27.4265 37.71C25.4945 37.71 24.0665 39.054 24.0665 40.958H25.3405C25.3265 39.852 26.2085 38.9 27.4125 38.9C28.5745 38.9 29.4425 39.796 29.4425 40.958C29.4425 41.602 29.2325 42.176 28.4905 42.848L24.0245 46.866L24.0105 47.986H30.7165V46.796H25.9285L29.1765 43.884ZM37.536 42.596C38.25 42.106 38.6 41.35 38.6 40.468C38.6 38.76 37.326 37.71 35.548 37.71C33.77 37.71 32.51 38.76 32.51 40.468C32.51 41.336 32.874 42.106 33.574 42.596C32.692 43.17 32.258 44.066 32.258 45.116C32.258 46.964 33.616 48.21 35.548 48.21C37.48 48.21 38.852 46.964 38.852 45.116C38.852 44.066 38.404 43.156 37.536 42.596ZM35.548 38.914C36.57 38.914 37.27 39.432 37.27 40.468C37.27 41.504 36.57 42.022 35.548 42.022C34.526 42.022 33.826 41.504 33.826 40.468C33.826 39.432 34.526 38.914 35.548 38.914ZM35.548 47.02C34.372 47.02 33.574 46.348 33.574 45.116C33.574 43.884 34.358 43.212 35.548 43.212C36.738 43.212 37.536 43.884 37.536 45.116C37.536 46.348 36.724 47.02 35.548 47.02Z" fill="white"/>
</svg>
