<svg width="65" height="119" viewBox="0 0 65 119" fill="none" xmlns="http://www.w3.org/2000/svg">
<path d="M24 4L28.0948 5.53555C30.6505 6.49393 33.418 6.74217 36.1035 6.25391C37.0325 6.08501 37.9435 5.82941 38.8248 5.49046L40.4219 4.8762C42.7539 3.97926 45.3009 3.8002 47.7355 4.36203L48.9985 4.6535C49.987 4.88161 51.014 4.88579 52.0043 4.66572C53.909 4.24244 55.9038 4.65734 57.4819 5.80499L58.6541 6.65753C59.8691 7.54119 60.8698 8.68683 61.5821 10.0096L62.246 11.2425C63.4004 13.3864 64.0777 15.7635 64.0774 18.1985C64.0773 19.1586 64.0579 20.1585 64 21C63.7555 24.5548 62.9592 26.4665 62.5 30C61.9989 33.8562 61.6631 39.47 61.546 41.6186C61.5139 42.2087 61.4821 42.792 61.443 43.3817C61.3047 45.4687 60.931 50.8128 60.5 54.5C59.9037 59.6018 59.1683 62.4071 58.5 67.5C58.1606 70.0862 57.8057 73.3692 57.5263 76.1058C57.1598 79.6964 56.5772 83.2616 55.7349 86.7712C54.5811 91.5787 53.0302 96.3002 50.7214 100.672C50.4751 101.138 50.2322 101.587 50 102C47.8131 105.892 43.8471 111.51 43.5214 111.97C43.5054 111.992 43.4917 112.011 43.4752 112.033L42.6497 113.134C41.2758 114.966 38.3764 114.259 38 112L37.5 104.5V102.139C37.5 101.22 36.1694 101.097 36 102L34.3419 111.12C34.116 112.362 33.6562 113.55 32.987 114.621L31.959 116.266C31.6588 116.746 31.232 117.134 30.7254 117.387L30.1337 117.683C29.1808 118.16 28.0245 117.906 27.359 117.074C26.8314 116.414 25.9799 116.104 25.1516 116.27L25.0124 116.298C24.3642 116.427 23.691 116.294 23.1409 115.927L22.0389 115.193C21.3544 114.736 20.777 114.139 20.3599 113.43C19.4751 111.926 17.8873 109.131 17 107C16.1123 104.868 15.3384 101.988 14.799 99.7097C14.216 97.2472 13.6895 94.7734 13.1211 92.3074C12.5762 89.9437 11.9052 86.8843 11.5 84.5C10.6762 79.6529 10.5609 76.8845 10 72C9.31299 66.017 8.00347 60.1291 6.45977 54.308C6.29283 53.6786 6.137 53.0685 6 52.5C5.28682 49.5404 4.49532 45.2623 4.16196 43.4108C4.05233 42.8018 3.95624 42.1937 3.86874 41.5812L3.38695 38.2086C3.12964 36.4074 2.69169 34.6367 2.07974 32.9233L1.81713 32.188C0.945532 29.7475 0.5 27.1753 0.5 24.5839C0.5 21.2364 1.24334 17.9307 2.67634 14.9055L5 10L7.59122 5.14146C8.49823 3.44081 10.0021 2.13561 11.8134 1.47694C13.5482 0.846111 15.4503 0.850124 17.1824 1.48827L24 4Z" fill="#B0D0D4"/>
<path opacity="0.6" d="M43 80.5C43 85.1944 39.1944 89 34.5 89C31.9758 89 29.7095 87.901 28.1513 86.1521C26.8124 84.6493 26 82.6707 26 80.5C26 75.8056 29.8056 72 34.5 72C36.9447 72 39.1471 73.0308 40.6991 74.6844C42.1269 76.2056 43 78.2498 43 80.5Z" stroke="white" stroke-width="2"/>
<path d="M28.6528 21.728L31.3688 19.11V17.92H25.4328V19.11H29.8288L26.5528 22.064L27.1548 23.058C27.4628 22.89 27.8548 22.792 28.1908 22.792C29.4088 22.792 30.2208 23.646 30.2208 24.892C30.2208 26.124 29.4368 26.978 28.2048 27.006C27.3088 27.02 26.5248 26.516 26.2308 25.578L25.0268 25.928C25.4608 27.328 26.7208 28.196 28.2188 28.196C30.0808 28.196 31.5088 26.824 31.5088 24.892C31.5088 23.128 30.3888 21.812 28.6528 21.728ZM33.8675 28H35.2115L38.8375 19.11V17.92H32.9155V19.11H37.4935L33.8675 28Z" fill="white"/>
</svg>
