<svg width="32" height="120" viewBox="0 0 32 120" fill="none" xmlns="http://www.w3.org/2000/svg">
<path d="M30 46C30.5454 40.4968 31.1409 33.1677 31.539 28.0625C31.8531 24.0339 31.6643 19.9858 31 16C30.0182 11.7456 28.0656 7.52004 24.5 5C22.7137 3.73752 20.1433 2.59071 18.0557 1.77077C15.791 0.881223 13.2756 1.05653 11.0605 2.06339C9.70434 2.67985 8.5047 3.59436 7.55099 4.73881L5.82973 6.80433C4.61517 8.2618 3.59731 9.87249 2.80228 11.5951L2.65477 11.9147C1.55876 14.2894 0.852755 16.8252 0.563931 19.4246L0.402081 20.8813C0.134821 23.2866 0.130061 25.7139 0.387887 28.1203L0.765268 31.6425C1.25375 36.2017 2.25252 40.6879 3.46974 45.1087C4.25928 47.9762 5.08027 51.2905 5.5 54C6.75582 62.1066 5.70729 66.8019 6 75C6.10776 78.018 6.27153 81.657 6.43554 85.0518C6.78762 92.3394 7.81279 99.5763 9.42977 106.691L9.5 107L12.2383 117.497C12.4029 118.128 12.8573 118.643 13.4626 118.885C14.3598 119.244 15.3839 118.93 15.9075 118.118C17.0258 116.383 18.9113 113.35 20 111C22.0931 106.482 23.5165 99.5796 24.1411 96.1248C24.3971 94.7091 24.5824 93.2896 24.748 91.8605C25.2888 87.1927 26.598 75.8821 27.5 68C28.4831 59.4092 29.1473 54.6047 30 46Z" fill="#B0D0D4"/>
<path opacity="0.6" d="M25 83.5C25 88.1944 21.1944 92 16.5 92C13.9758 92 11.7095 90.901 10.1513 89.1521C8.8124 87.6493 8 85.6707 8 83.5C8 78.8056 11.8056 75 16.5 75C18.9447 75 21.1471 76.0308 22.6991 77.6844C24.1269 79.2056 25 81.2498 25 83.5Z" stroke="white" stroke-width="2"/>
<path d="M12.2973 20.728L15.0133 18.11V16.92H9.07733V18.11H13.4733L10.1973 21.064L10.7993 22.058C11.1073 21.89 11.4993 21.792 11.8353 21.792C13.0533 21.792 13.8653 22.646 13.8653 23.892C13.8653 25.124 13.0813 25.978 11.8493 26.006C10.9533 26.02 10.1693 25.516 9.87533 24.578L8.67133 24.928C9.10533 26.328 10.3653 27.196 11.8633 27.196C13.7253 27.196 15.1533 25.824 15.1533 23.892C15.1533 22.128 14.0333 20.812 12.2973 20.728ZM20.186 20.728L22.902 18.11V16.92H16.966V18.11H21.362L18.086 21.064L18.688 22.058C18.996 21.89 19.388 21.792 19.724 21.792C20.942 21.792 21.754 22.646 21.754 23.892C21.754 25.124 20.97 25.978 19.738 26.006C18.842 26.02 18.058 25.516 17.764 24.578L16.56 24.928C16.994 26.328 18.254 27.196 19.752 27.196C21.614 27.196 23.042 25.824 23.042 23.892C23.042 22.128 21.922 20.812 20.186 20.728Z" fill="white"/>
</svg>
