<svg width="28" height="36" viewBox="0 0 28 36" fill="none" xmlns="http://www.w3.org/2000/svg">
<path d="M1.5 11.804V9.26866C1.5 8.42607 1.60334 7.58666 1.80769 6.76922L2.11084 5.55665C2.36549 4.53806 2.89217 3.60783 3.63459 2.86541C4.52089 1.97911 5.67075 1.40418 6.91157 1.22692L7.39035 1.15852C8.12574 1.05347 8.87292 1.06215 9.60567 1.18428L9.66468 1.19411C10.8706 1.39509 12.0105 1.88287 12.9885 2.61638L14.3312 3.62341C15.1084 4.20633 15.8252 4.86582 16.4706 5.59196L19.5 9L20.176 9.96575C22.0543 12.649 23.6698 15.507 25 18.5L26.084 20.668C26.6805 21.8609 26.899 23.2073 26.7103 24.5277C26.5719 25.4969 26.2181 26.4228 25.675 27.2375L24.961 28.3085C23.998 29.7529 22.7386 30.9759 21.2665 31.896L20.7706 32.2059C19.9257 32.734 19.0226 33.179 18.0896 33.5289C16.3862 34.1677 14.5681 34.5 12.7489 34.5H11.4809C10.8301 34.5 10.1826 34.4093 9.55688 34.2305C7.90966 33.7599 6.49208 32.7018 5.57234 31.2565L4.76786 29.9923C3.93223 28.6792 3.38615 27.203 3.16603 25.6622L2.5 21L1.81056 16.1739C1.60378 14.7265 1.5 13.2662 1.5 11.804Z" fill="#E62B3E" fill-opacity="0.35" stroke="#E35967" stroke-width="2" stroke-linecap="round" stroke-linejoin="round"/>
<path d="M9.85 29.241L13.7 33L11.775 29.5301L15.625 24.9036L11.5 19.988L17 15.6506L12.6 9H6L11.775 14.2048L7.375 18.8313L12.6 24.6145L9.85 29.241Z" fill="#E62B3E" fill-opacity="0.6"/>
</svg>
