<svg width="35" height="31" viewBox="0 0 35 31" fill="none" xmlns="http://www.w3.org/2000/svg">
<path d="M13.7624 2.84902L15.3065 2.20561C16.4244 1.73981 17.6235 1.5 18.8346 1.5H19.3656C20.4404 1.5 21.5005 1.75025 22.4619 2.23095C23.472 2.73598 24.3431 3.48041 24.9995 4.39934L26.5 6.5C28.1641 8.82975 29.6431 11.2863 30.9235 13.8471L31.5 15L32.9511 18.2649C33.3149 19.0834 33.5503 19.9531 33.6493 20.8433L33.7697 21.9275C33.9185 23.2661 33.5904 24.6144 32.8433 25.7351C32.2907 26.564 31.5313 27.2343 30.6402 27.6799L29.6373 28.1814C28.5548 28.7226 27.3827 29.0617 26.1786 29.1821L24.7077 29.3292C23.5718 29.4428 22.4277 29.448 21.2908 29.3446L17.5 29L16.4994 28.8999C13.8553 28.6355 11.2817 27.8908 8.90495 26.7025L7.71877 26.1094C6.90931 25.7047 6.15255 25.2022 5.46542 24.6132L4.98347 24.2001C3.68845 23.0901 2.73945 21.6315 2.24934 19.9978L2.19922 19.8307C1.74266 18.3089 1.732 16.688 2.16849 15.1603C2.38834 14.3908 2.71821 13.6571 3.14785 12.9819L4.39522 11.0218C5.46014 9.34835 6.74743 7.82731 8.22179 6.50039L8.77565 6.00191C10.2479 4.67688 11.934 3.61083 13.7624 2.84902Z" fill="#E62B3E" fill-opacity="0.35" stroke="#E35967" stroke-width="2" stroke-linecap="round" stroke-linejoin="round"/>
<path d="M16.5 25.5542L20 29L18.25 25.8193L21.75 21.5783L18 17.0723L23 13.0964L19 7H13L18.25 11.7711L14.25 16.012L19 21.3133L16.5 25.5542Z" fill="#E62B3E" fill-opacity="0.6"/>
</svg>
