<svg width="32" height="30" viewBox="0 0 32 30" fill="none" xmlns="http://www.w3.org/2000/svg">
<path d="M15.1416 2.45281L17.7054 1.5982C17.9005 1.53316 18.1049 1.5 18.3105 1.5C18.4365 1.5 18.5622 1.51245 18.6858 1.53716L20.0439 1.80879C22.3167 2.26335 24.4525 3.24084 26.2821 4.66384L26.9385 5.17438C27.6424 5.7219 28.2633 6.3686 28.7816 7.09429L29.1612 7.62573C30.0319 8.84471 30.5 10.3053 30.5 11.8033C30.5 12.9191 30.2402 14.0196 29.7412 15.0176L28.8977 16.7046C28.3018 17.8963 27.5516 19.0044 26.6664 20.0003L24 23L21.3455 25.389C19.801 26.7791 17.9483 27.8155 15.958 28.4126C14.6679 28.7996 13.3158 29 11.9689 29H10.6138C8.9057 29 7.23197 28.52 5.7835 27.6147C4.60992 26.8812 3.6188 25.8901 2.88531 24.7165C1.98002 23.268 1.5 21.5943 1.5 19.8862V19.1305C1.5 17.7216 1.75339 16.3243 2.24806 15.0052L2.35758 14.7131C2.7839 13.5763 3.36199 12.5023 4.07613 11.5203L5.38135 9.72564C6.45562 8.24853 7.72273 6.92181 9.14895 5.78084L9.41416 5.56868C11.1246 4.20035 13.0636 3.14547 15.1416 2.45281Z" fill="#E62B3E" fill-opacity="0.35" stroke="#E35967" stroke-width="2" stroke-linecap="round" stroke-linejoin="round"/>
<path d="M14.15 24.8675L17.3 28L15.725 25.1084L18.875 21.253L15.5 17.1566L20 13.5422L16.4 8H11L15.725 12.3373L12.125 16.1928L16.4 21.012L14.15 24.8675Z" fill="#E62B3E" fill-opacity="0.6"/>
</svg>
