<svg width="40" height="37" viewBox="0 0 40 37" fill="none" xmlns="http://www.w3.org/2000/svg">
<path d="M8.74245 8.82194L9.93579 7.33026C10.6435 6.44567 11.4384 5.63462 12.3087 4.90941L12.8259 4.47841C15.523 2.23085 18.9227 1 22.4335 1C23.1436 1 23.8528 1.0504 24.5558 1.15083L28.7158 1.74511C29.8946 1.91352 31.0309 2.3034 32.0648 2.8942C33.3375 3.6214 34.4233 4.63492 35.2363 5.85449L35.7779 6.66679C36.5873 7.88099 37.1957 9.21774 37.5797 10.6256L37.7185 11.1346C38.2355 13.0302 38.4165 15.0017 38.2533 16.9598L38.1652 18.0171C38.0553 19.3365 38.0603 20.663 38.1801 21.9816L38.3741 24.1149C38.4578 25.0359 38.4485 25.9631 38.3464 26.8823L38.233 27.9026C38.0796 29.2832 37.6177 30.6116 36.8815 31.7896L36.5995 32.2408C35.8805 33.3913 34.8579 34.321 33.6445 34.9278C32.2507 35.6246 30.6721 35.862 29.135 35.6058L25.5 35L19 33.5L11 31.5L7.71244 30.9023C6.27181 30.6403 4.9453 29.9453 3.90992 28.9099C2.98734 27.9873 2.33284 26.8314 2.0164 25.5656L1.98546 25.4418C1.66717 24.1687 1.68135 22.835 2.02666 21.5689L2.50911 19.7999C2.83506 18.6048 3.31101 17.4557 3.92562 16.3802L5.61613 13.4218C6.53731 11.8097 7.58258 10.2718 8.74245 8.82194Z" fill="#E62B3E" fill-opacity="0.35" stroke="#E35967" stroke-width="2" stroke-linecap="round" stroke-linejoin="round"/>
<path d="M20.85 30.241L24.7 34L22.775 30.5301L26.625 25.9036L22.5 20.988L28 16.6506L23.6 10H17L22.775 15.2048L18.375 19.8313L23.6 25.6145L20.85 30.241Z" fill="#E62B3E" fill-opacity="0.6"/>
</svg>
