<svg width="37" height="50" viewBox="0 0 37 50" fill="none" xmlns="http://www.w3.org/2000/svg">
<path d="M20.7274 2.44314L22.3473 2.03819C23.777 1.68074 25.2452 1.5 26.719 1.5H27.3787C27.7924 1.5 28.2055 1.52936 28.6151 1.58787L30.0246 1.78923C30.9823 1.92604 31.8698 2.36979 32.5539 3.05386C33.1711 3.6711 33.5942 4.45551 33.7709 5.31034L34.7099 9.85307C34.9031 10.7875 35.029 11.7345 35.0868 12.6869L35.236 15.1467C35.4117 18.0442 35.3549 20.9512 35.066 23.8397L35 24.5L33.5 32L31.5 40L30.7662 42.2014C30.2648 43.7055 29.3641 45.045 28.1604 46.0768C27.0702 47.0112 25.7668 47.6629 24.3652 47.9744L24.1855 48.0143C22.7483 48.3337 21.2564 48.3141 19.828 47.957L19.0757 47.7689C18.3599 47.59 17.661 47.3493 16.9867 47.0497L16.9282 47.0236C14.6852 46.0267 12.7562 44.4375 11.3487 42.4266L10 40.5L6.5 35L4.54309 31.6453C3.51797 29.888 2.70461 28.0154 2.12 26.0667L1.81234 25.0411C1.60448 24.3483 1.4549 23.6392 1.36518 22.9214C1.12478 20.9982 1.31812 19.0456 1.93102 17.2069L1.9839 17.0483C2.32676 16.0197 2.79036 15.0354 3.36499 14.116L3.63213 13.6886C4.53938 12.237 5.64957 10.9226 6.92898 9.78535L7.60976 9.18022C8.86652 8.06309 10.2359 7.07949 11.6958 6.24523L12.7166 5.66195C15.227 4.22744 17.9224 3.14439 20.7274 2.44314Z" fill="#E62B3E" fill-opacity="0.35" stroke="#E35967" stroke-width="2" stroke-linecap="round" stroke-linejoin="round"/>
<path d="M19.2 42.7711L23.4 47L21.3 43.0964L25.5 37.8916L21 32.3614L27 27.4819L22.2 20H15L21.3 25.8554L16.5 31.0602L22.2 37.5663L19.2 42.7711Z" fill="#E62B3E" fill-opacity="0.6"/>
</svg>
