<svg width="39" height="33" viewBox="0 0 39 33" fill="none" xmlns="http://www.w3.org/2000/svg">
<path d="M37.4961 19.438C37.4936 19.418 37.4899 19.3982 37.4851 19.3787L35.9899 13.3981L35.4932 10.4178C35.4901 10.3992 35.4859 10.3808 35.4808 10.3626L35.3663 9.96208C34.7631 7.85066 33.7109 5.89443 32.2818 4.22717L31.9 3.78168C31.5335 3.35412 31.1277 2.96187 30.688 2.61008L30.4934 2.45437C29.3221 1.51736 27.9143 0.922893 26.4259 0.736847C25.1213 0.573775 23.7967 0.729751 22.5656 1.19138L20.3244 2.03184C20.3081 2.03797 20.292 2.04497 20.2764 2.05279L14.2764 5.05279C14.2649 5.05851 14.2537 5.06467 14.2428 5.07125L13.8004 5.33667C10.7425 7.1714 7.85449 9.27543 5.17075 11.6237C5.1624 11.631 5.15429 11.6386 5.14645 11.6464L3.91465 12.8782C2.69355 14.0993 1.82727 15.6294 1.40844 17.3047C1.13377 18.4034 1.05717 19.5422 1.18223 20.6678L1.28581 21.6C1.43545 22.9468 1.79173 24.2625 2.34208 25.5008L2.72295 26.3577C3.29361 27.6417 4.15181 28.7774 5.23124 29.6769C6.24092 30.5183 7.41974 31.1327 8.68774 31.4786L10.273 31.9109C11.7066 32.3019 13.186 32.5 14.672 32.5H20C20.0104 32.5 20.0208 32.4997 20.0312 32.499L26.1552 32.1163C27.4399 32.036 28.7111 31.8087 29.944 31.4388L31.5133 30.968C32.6537 30.6259 33.7131 30.0566 34.6277 29.2944C35.8037 28.3144 36.706 27.0412 37.2433 25.6084C37.7467 24.266 37.9185 22.8171 37.7406 21.394L37.4961 19.438Z" fill="#B0D0D4" stroke="#B0D0D4" stroke-linecap="round" stroke-linejoin="round"/>
<path opacity="0.6" d="M23 20C23 23.3137 20.3137 26 17 26C15.2182 26 13.6188 25.2246 12.5185 23.9896C11.5732 22.9287 11 21.5325 11 20C11 16.6863 13.6863 14 17 14C18.7257 14 20.28 14.7273 21.3759 15.8949C22.384 16.969 23 18.4115 23 20Z" stroke="white" stroke-width="2"/>
</svg>
