<svg width="27" height="34" viewBox="0 0 27 34" fill="none" xmlns="http://www.w3.org/2000/svg">
<path d="M13.7519 3.56588C13.745 3.56981 13.7383 3.57391 13.7316 3.57817L10.9946 5.31986C9.1218 6.51165 7.42885 7.96487 5.96706 9.63549C5.05369 10.6793 4.23531 11.8027 3.52168 12.992L1.57125 16.2428C1.55963 16.2621 1.54933 16.2823 1.54043 16.303L1.47474 16.4563C0.507493 18.7132 0.195595 21.2896 1.02813 23.6654C1.64633 25.4295 2.70283 26.9808 3.91544 28.345L5.25882 29.8563C5.86316 30.5362 6.5522 31.1357 7.30908 31.6403L8.05187 32.1355C8.88472 32.6907 9.83134 33.0524 10.8222 33.194C12.2979 33.4048 13.8018 33.1177 15.0961 32.3781L15.4681 32.1655C16.3699 31.6502 17.1621 30.9632 17.7998 30.1433L20.3947 26.807C20.407 26.7911 20.4184 26.7745 20.4287 26.7572L20.7422 26.2348C22.5373 23.2429 24.1668 20.0675 24.9865 16.6155C25.1172 16.065 25.2416 15.4421 25.3553 14.8131C25.8722 11.9533 25.5483 9.00382 24.4637 6.31308C24.1787 5.60585 23.7939 4.70877 23.4855 3.99993C23.1029 3.12053 22.4525 2.38842 21.6335 1.897C20.6413 1.30167 19.4628 1.09754 18.3282 1.32447L18.1411 1.36188C17.5988 1.47033 17.0776 1.66549 16.5975 1.93985L13.7519 3.56588Z" fill="#B0D0D4" stroke="#B0D0D4" stroke-linecap="round" stroke-linejoin="round"/>
<path opacity="0.6" d="M19 17C19 20.3137 16.3137 23 13 23C11.2182 23 9.61885 22.2246 8.51849 20.9896C7.57322 19.9287 7 18.5325 7 17C7 13.6863 9.68629 11 13 11C14.7257 11 16.28 11.7273 17.3759 12.8949C18.384 13.969 19 15.4115 19 17Z" stroke="white" stroke-width="2"/>
</svg>
