<svg width="39" height="40" viewBox="0 0 39 40" fill="none" xmlns="http://www.w3.org/2000/svg">
<path d="M17.5415 38.9983L17.5453 38.9979L20.2325 38.7537C22.0766 38.586 23.9315 38.5731 25.7777 38.7151L28.4782 38.9229C29.1682 38.976 29.862 38.9534 30.5472 38.8555L31.238 38.7568C32.528 38.5725 33.7413 38.0331 34.7423 37.1989C35.848 36.2775 36.6441 35.0387 37.0228 33.6501L37.5346 31.7733C37.8435 30.6408 38 29.4722 38 28.2983V26.4873C38 24.4643 37.7704 22.4479 37.3155 20.4768L37.2002 19.9771C36.7184 17.8894 36.0231 15.8569 35.1253 13.9116L34.1741 11.8507C33.6806 10.7815 33.0755 9.76736 32.3689 8.82524C31.0294 7.03922 29.3458 5.53954 27.4174 4.41463L26.5495 3.90836C24.9878 2.99735 23.3183 2.28521 21.5798 1.78851L19.4419 1.17769C17.8683 0.728089 16.2398 0.5 14.6032 0.5H13.1695C12.0055 0.5 10.8511 0.709342 9.76126 1.11803C8.0814 1.74798 6.60899 2.83117 5.50753 4.24734L4.63452 5.36978C3.92674 6.27979 3.32818 7.2697 2.85113 8.31921L2.75348 8.53404C1.59769 11.0768 1.09646 13.8683 1.29546 16.6543L1.3464 17.3674C1.45201 18.846 1.72543 20.3078 2.16137 21.7246L2.90775 24.1504C3.30518 25.442 3.55805 26.7738 3.6617 28.1213L3.82103 30.1926C3.94565 31.8126 4.44573 33.3814 5.28167 34.7746L5.73397 35.5284C6.65802 37.0685 8.07648 38.2502 9.75815 38.8808C10.8587 39.2935 12.0372 39.457 13.2085 39.3594L17.5415 38.9983Z" fill="#B0D0D4" stroke="#B0D0D4" stroke-linecap="round" stroke-linejoin="round"/>
<path opacity="0.6" d="M25 20C25 23.3137 22.3137 26 19 26C17.2182 26 15.6188 25.2246 14.5185 23.9896C13.5732 22.9287 13 21.5325 13 20C13 16.6863 15.6863 14 19 14C20.7257 14 22.28 14.7273 23.3759 15.8949C24.384 16.969 25 18.4115 25 20Z" stroke="white" stroke-width="2"/>
</svg>
