<svg width="36" height="32" viewBox="0 0 36 32" fill="none" xmlns="http://www.w3.org/2000/svg">
<path d="M34.8714 9.83221L34.8714 9.83218C34.5848 9.11578 34.2052 8.44024 33.7422 7.82298L33.6789 7.73852L33.2789 8.03852L33.6789 7.73852C33.1338 7.01177 32.4882 6.36618 31.7615 5.82111L31.5739 5.68043C31.035 5.27626 30.4609 4.92141 29.8584 4.62016L28.3093 3.84563C25.8897 2.63584 23.3196 1.75402 20.667 1.2235L19.5981 1.00971C19.5806 1.00622 19.563 1.00366 19.5453 1.00205L16.1904 0.697065C14.7265 0.563985 13.2521 0.601765 11.797 0.809642L11.4805 0.854845C10.756 0.958352 10.0402 1.11592 9.33918 1.32623L8.46653 1.58803C6.34412 2.22475 4.44922 3.45762 3.00715 5.14003L2.86853 5.30176C2.34503 5.91251 1.89841 6.58515 1.53867 7.30463C0.855609 8.67075 0.5 10.1771 0.5 11.7045V12.129C0.5 13.0804 0.616685 14.0283 0.847442 14.9513L0.864805 15.0208L1.34988 14.8995L0.864805 15.0208C1.31095 16.8054 2.15429 18.4662 3.33192 19.8793L4.11589 20.8201L4.37761 21.1342C5.90015 22.9612 7.87983 24.352 10.1149 25.1647C11.5225 25.6766 12.8262 26.4382 13.9634 27.4129L15.6746 28.8796C15.6828 28.8867 15.6913 28.8935 15.7 28.9C18.2666 30.825 21.7682 30.9222 24.4376 29.1425L24.7773 28.916C24.7922 28.9062 24.8064 28.8955 24.8201 28.8841L27.8201 26.3841L27.8201 26.3841L27.8254 26.3796L28.5614 25.7487C30.4345 24.1432 32.0069 22.2171 33.205 20.0606L33.3341 19.8282C33.7475 19.084 34.1052 18.3101 34.4041 17.513L34.9573 16.0378C35.3162 15.0808 35.5 14.0672 35.5 13.0451C35.5 11.9608 35.2931 10.8865 34.8904 9.87972C34.8904 9.87971 34.8904 9.8797 34.8904 9.87969L34.8714 9.83221Z" fill="#B0D0D4" stroke="#B0D0D4" stroke-linecap="round" stroke-linejoin="round"/>
<path opacity="0.6" d="M23 15C23 18.3137 20.3137 21 17 21C15.2182 21 13.6188 20.2246 12.5185 18.9896C11.5732 17.9287 11 16.5325 11 15C11 11.6863 13.6863 9 17 9C18.7257 9 20.28 9.72726 21.3759 10.8949C22.384 11.969 23 13.4115 23 15Z" stroke="white" stroke-width="2"/>
</svg>
