<svg width="39" height="36" viewBox="0 0 39 36" fill="none" xmlns="http://www.w3.org/2000/svg">
<path d="M21.9333 35.5001C21.9364 35.5001 21.9395 35.5 21.9426 35.5C21.9465 35.4999 21.9504 35.4998 21.9543 35.4996L30.1421 35.1543C32.5118 35.0544 34.7396 33.9972 36.3156 32.2247C37.7206 30.6446 38.5185 28.6027 38.4687 26.4742C38.4206 24.4257 38.3012 21.7297 38.0065 19.6544C37.8287 18.4024 37.7167 17.2296 37.6086 16.0986C37.3067 12.9391 37.036 10.1057 35.4513 6.78467C35.4122 6.70274 35.3721 6.61841 35.331 6.53198C34.8305 5.47871 34.1825 4.1153 33.3786 3.028C32.525 1.87338 31.3594 0.847366 29.861 1.07398L19.0625 2.70707C15.7172 3.213 12.3642 4.10737 9.43888 5.92971C8.2091 6.69581 6.94128 7.59464 6.0022 8.52984C5.06671 9.46146 4.18305 10.7023 3.4155 11.9487C1.20224 15.543 1.03584 19.9087 2.06245 23.9167L2.84332 26.9654C3.56845 29.7964 5.35752 32.2387 7.83808 33.7838C9.63887 34.9055 11.718 35.5001 13.8395 35.5001H21.9333Z" fill="#B0D0D4" stroke="#B0D0D4" stroke-linecap="round" stroke-linejoin="round"/>
<path opacity="0.6" d="M25 20C25 23.3137 22.3137 26 19 26C17.2182 26 15.6188 25.2246 14.5185 23.9896C13.5732 22.9287 13 21.5325 13 20C13 16.6863 15.6863 14 19 14C20.7257 14 22.28 14.7273 23.3759 15.8949C24.384 16.969 25 18.4115 25 20Z" stroke="white" stroke-width="2"/>
</svg>
