<svg width="37" height="35" viewBox="0 0 37 35" fill="none" xmlns="http://www.w3.org/2000/svg">
<path d="M18.803 2.04043C18.7977 2.04272 18.7924 2.04511 18.7871 2.04759L13.0838 4.73149C11.1893 5.62304 9.41169 6.74441 7.79115 8.0703L6.67272 8.98538C5.31378 10.0972 4.14088 11.4187 3.19821 12.9001L2.70426 13.6763C1.59272 15.423 0.922135 17.4136 0.750198 19.4768C0.580292 21.5157 0.902324 23.5656 1.68923 25.4541L1.86144 25.8675C2.66506 27.7961 3.89343 29.5187 5.45508 30.9068L5.73746 31.1578C7.06344 32.3365 8.63086 33.2113 10.3301 33.7211C12.0645 34.2414 13.8931 34.3685 15.6828 34.0931L17.1119 33.8733C18.7921 33.6148 20.4289 33.127 21.9766 32.4235L25.2069 30.9552L29.2144 29.1336C30.2473 28.6641 31.2087 28.0511 32.0702 27.3127L32.4232 27.0101C33.7351 25.8856 34.7412 24.4476 35.3478 22.8297C35.7791 21.6797 36 20.4615 36 19.2333V18.8177C36 17.223 35.6957 15.643 35.1035 14.1624L33.9642 11.3143C33.9564 11.2947 33.9473 11.2756 33.9371 11.2572L31.4371 6.75718C31.4329 6.74967 31.4285 6.74228 31.424 6.735L29.4787 3.62246C29.0816 2.98724 28.5801 2.42375 27.9951 1.9558C26.8172 1.01342 25.3535 0.5 23.845 0.5H23.792C22.8718 0.5 21.9613 0.686902 21.1155 1.04937L18.803 2.04043Z" fill="#B0D0D4" stroke="#B0D0D4" stroke-linecap="round" stroke-linejoin="round"/>
<path opacity="0.6" d="M22 20C22 23.3137 19.3137 26 16 26C14.2182 26 12.6188 25.2246 11.5185 23.9896C10.5732 22.9287 10 21.5325 10 20C10 16.6863 12.6863 14 16 14C17.7257 14 19.28 14.7273 20.3759 15.8949C21.384 16.969 22 18.4115 22 20Z" stroke="white" stroke-width="2"/>
</svg>
