<svg width="38" height="33" viewBox="0 0 38 33" fill="none" xmlns="http://www.w3.org/2000/svg">
<path d="M31.8536 11.6464C31.8466 11.6395 31.8395 11.6328 31.8322 11.6263L29.1738 9.26331C27.9273 8.15528 26.5898 7.154 25.1755 6.27007C23.882 5.46162 22.5282 4.75382 21.1262 4.15294L17.2881 2.50806C16.5308 2.18351 15.7419 1.93847 14.934 1.77689L13.1888 1.42786C11.7247 1.13504 10.2048 1.33859 8.86934 2.00632L9.09294 2.45353L8.86934 2.00632C8.08955 2.39621 7.39316 2.93424 6.81905 3.59036L6.01144 4.51334C4.71932 5.99005 3.77963 7.74106 3.26334 9.63412L2.51928 12.3624L1.5018 15.7539C1.17388 16.847 0.937909 17.9656 0.79636 19.098L0.662204 20.1712C0.552143 21.0517 0.546045 21.9421 0.644035 22.824L0.748752 23.7665C0.92545 25.3567 1.56579 26.86 2.59013 28.0892C3.31081 28.954 4.20263 29.6603 5.20952 30.1638L5.8794 30.4987C7.18877 31.1534 8.60902 31.5574 10.0669 31.69L13.4547 31.9979C13.4698 31.9993 13.4849 32 13.5 32H20.5H23.4012C25.1762 32 26.9396 31.7138 28.6235 31.1525L29.42 30.887C30.2839 30.5991 31.1055 30.1972 31.8632 29.6921C33.1866 28.8099 34.2864 27.6316 35.0755 26.2507L35.1965 26.039C35.7086 25.1427 36.0953 24.1803 36.3457 23.1789L36.4845 22.6235C36.8325 21.2315 36.8516 19.7775 36.5404 18.3768C36.159 16.6608 35.2963 15.0892 34.0533 13.8462L31.8536 11.6464Z" fill="#B0D0D4" stroke="#B0D0D4" stroke-linecap="round" stroke-linejoin="round"/>
<path opacity="0.6" d="M25 17C25 20.3137 22.3137 23 19 23C17.2182 23 15.6188 22.2246 14.5185 20.9896C13.5732 19.9287 13 18.5325 13 17C13 13.6863 15.6863 11 19 11C20.7257 11 22.28 11.7273 23.3759 12.8949C24.384 13.969 25 15.4115 25 17Z" stroke="white" stroke-width="2"/>
</svg>
