<svg width="37" height="50" viewBox="0 0 37 50" fill="none" xmlns="http://www.w3.org/2000/svg">
<path d="M35.4903 24.5981C35.4935 24.5821 35.4959 24.566 35.4975 24.5498L35.5635 23.8894C35.8551 20.9744 35.9124 18.0406 35.735 15.1164L35.5858 12.6566C35.5266 11.6804 35.3975 10.7096 35.1996 9.75186L34.2605 5.20912C34.064 4.2587 33.5937 3.38657 32.9074 2.70031C32.1468 1.93974 31.1601 1.44637 30.0953 1.29425L28.6858 1.09289C28.2528 1.03104 27.816 1 27.3787 1H26.719C25.2043 1 23.6954 1.18576 22.226 1.55311L20.6062 1.95807C17.7568 2.67042 15.0186 3.77061 12.4685 5.22783L11.4478 5.81111C9.95777 6.66254 8.56021 7.66639 7.27757 8.80651L6.5968 9.41165C5.28176 10.5806 4.14065 11.9316 3.20813 13.4236L2.94099 13.851C2.34541 14.8039 1.86491 15.8241 1.50956 16.8902L1.45668 17.0488C0.820172 18.9583 0.619379 20.9862 0.869036 22.9834C0.962219 23.7289 1.11756 24.4652 1.33343 25.1848L1.64109 26.2104C2.23704 28.1969 3.06619 30.1058 4.1112 31.8972L6.06811 35.2519C6.07136 35.2575 6.07471 35.263 6.07817 35.2684L9.57817 40.7684C9.58211 40.7746 9.58618 40.7807 9.59038 40.7867L10.939 42.7134C12.3987 44.7987 14.3991 46.4467 16.7251 47.4805L16.7837 47.5066C17.4843 47.818 18.2106 48.068 18.9545 48.254L19.7068 48.4421C21.2104 48.818 22.7809 48.8387 24.294 48.5024L24.4737 48.4625C25.9554 48.1332 27.3333 47.4443 28.4858 46.4564C29.7583 45.3657 30.7105 43.9496 31.2405 42.3595L31.9743 40.1581C31.9784 40.146 31.982 40.1337 31.9851 40.1213L33.9851 32.1213C33.987 32.1136 33.9887 32.1058 33.9903 32.0981L35.4903 24.5981Z" fill="#B0D0D4" stroke="#B0D0D4" stroke-linecap="round" stroke-linejoin="round"/>
<path opacity="0.6" d="M27 33C27 36.3137 24.3137 39 21 39C19.2182 39 17.6188 38.2246 16.5185 36.9896C15.5732 35.9287 15 34.5325 15 33C15 29.6863 17.6863 27 21 27C22.7257 27 24.28 27.7273 25.3759 28.8949C26.384 29.969 27 31.4115 27 33Z" stroke="white" stroke-width="2"/>
</svg>
