<svg width="180" height="180" viewBox="0 0 180 180" fill="none" xmlns="http://www.w3.org/2000/svg">
<path fill-rule="evenodd" clip-rule="evenodd" d="M82.2933 174.96C74.6911 173.376 64.3125 168.622 63.6875 152.88C63.6293 151.397 64.9376 150.235 66.4057 150.438C77.7145 151.993 95.8697 153.331 115.13 145.045C115.798 144.755 116.54 145.249 116.54 145.99C116.511 160.206 95.1865 164.887 82.0316 165.41C75.9266 165.628 77.8308 170.163 82.2933 174.96Z" fill="#303032"/>
<path fill-rule="evenodd" clip-rule="evenodd" d="M55.1544 120.334C53.1049 119.346 51.2007 116.322 50.7501 112.281C50.3867 109.112 50.7791 106.423 51.6367 103.502C52.0147 102.237 53.0903 101.307 54.5584 101.772C74.08 108.051 105.608 110.74 126.859 99.9549C127.819 99.4607 128.982 100.217 128.953 101.307C128.836 105.319 127.586 108.633 125.58 111.395C122.906 115.087 118.24 118.517 112.396 120.625C93.7324 127.34 74.0364 127.253 55.1544 120.334Z" fill="#303032"/>
<path fill-rule="evenodd" clip-rule="evenodd" d="M61.5214 143.301C61.2307 143.213 60.9836 143.053 60.7656 142.85C59.1375 141.382 57.9165 138.693 57.4078 136.774C56.7246 134.187 57.1025 131.89 57.6694 129.419C57.9165 128.343 58.7596 127.529 60.0097 127.849C79.0952 132.806 100.913 133.053 119.17 123.735C120.319 123.154 121.627 124.128 121.438 125.392C121.06 127.805 120.479 131.047 119.795 132.864C115.289 144.885 77.6416 148.272 61.5214 143.301Z" fill="#303032"/>
<path d="M150.815 40.2118C151.135 39.1507 151.295 38.1041 151.382 37.0284C152.167 27.4203 145.102 18.8442 135.465 18.6697C133.125 18.6261 130.872 19.0186 128.837 19.8617C124.316 21.7077 119.359 22.7252 114.17 22.7252C109.272 22.7252 104.882 21.5624 100.754 19.8617C83.0927 12.4484 68.9058 36.6069 68.9058 36.6069C119.403 36.8831 120.421 66.7396 120.421 66.8268C134.869 64.3267 146.73 53.9772 150.815 40.2118Z" fill="#29A5B1"/>
<path d="M135.465 18.6857C133.125 18.6421 130.872 19.0346 128.837 19.8776C124.316 21.7237 119.359 22.7412 114.17 22.7412C109.271 22.7412 104.882 21.5783 100.753 19.8776C88.8341 14.9355 78.9789 5.39999 64.8791 5.39999C58.4689 5.39999 52.422 6.95532 47.0873 9.68805C37.4937 14.6302 30.909 23.4971 28.0018 33.7012C48.0467 19.0636 68.891 36.5938 68.891 36.5938C68.891 36.5938 72.0017 31.2882 77.1328 26.4042C79.8655 23.8023 83.1797 21.3312 86.8863 19.834C89.2121 18.9037 91.6831 18.3659 94.285 18.4241C91.6831 18.3659 89.2121 18.9037 86.8863 19.834C83.1652 21.3167 79.8655 23.8023 77.1328 26.4042C72.0017 31.2882 68.891 36.5938 68.891 36.5938C82.6419 48.3387 90.9418 67.4097 113.661 67.4097C115.958 67.4097 118.211 67.2062 120.406 66.8137C134.854 64.3136 146.716 53.9495 150.8 40.1987C151.12 39.1376 151.28 38.091 151.367 37.0153C152.167 27.4217 145.102 18.8601 135.465 18.6857ZM98.6749 19.1509C97.8172 18.9037 96.9742 18.7293 96.1456 18.613C96.9887 18.7148 97.8318 18.9037 98.6749 19.1509Z" fill="#29A5B1"/>
<path d="M120.885 69.5149C120.667 69.5585 120.449 69.573 120.231 69.6166C120.188 70.1254 120.144 70.6487 120.071 71.1574C118.719 82.4372 113.763 92.5977 106.379 100.476C130.682 98.4992 148.416 79.719 152.675 57.8281C153.722 52.4789 153.954 46.9408 153.286 41.4172C148.809 55.8658 136.148 66.8839 120.885 69.5149Z" fill="#29A5B1"/>
<path d="M65.8386 87.7878C64.9374 85.9708 64.1379 84.0957 63.4547 82.1625C63.1785 81.3921 62.9314 80.6071 62.6988 79.8222C61.9721 77.3802 61.4197 74.851 61.0563 72.2636C60.8383 70.6937 60.6784 69.0948 60.5912 67.4813C60.5476 66.6237 60.533 65.7661 60.533 64.9085C60.533 62.9461 60.6348 61.0129 60.8528 59.1232C61.0708 57.219 61.3761 55.3585 61.7831 53.5124C61.9139 52.9019 62.0738 52.2914 62.2192 51.6954C63.3966 47.1893 65.1845 42.9304 67.4521 38.9766C67.3358 38.8749 67.234 38.7731 67.1177 38.6714C66.0275 37.7701 47.4944 22.8564 29.6154 35.9096L27.0571 37.7702C26.7518 39.3982 26.5338 41.0407 26.432 42.6978C26.1849 46.3608 26.2431 50.0093 26.5774 53.5706C26.6501 54.3555 26.7373 55.1259 26.839 55.8963C26.8827 56.2742 26.9553 56.6376 26.9989 57.0155C27.0716 57.4516 27.1298 57.9022 27.2024 58.3383C27.2751 58.7308 27.3478 59.1087 27.4205 59.5012C27.5077 59.9227 27.5804 60.3442 27.6676 60.7512C27.7548 61.1437 27.842 61.5216 27.9292 61.9141C28.031 62.3211 28.1182 62.7281 28.2345 63.1351C28.3362 63.513 28.438 63.9055 28.5397 64.2834C28.656 64.6904 28.7723 65.0974 28.8886 65.4899C29.0049 65.8533 29.1066 66.2312 29.2375 66.5946C29.3683 67.0162 29.5136 67.4232 29.659 67.8302C29.7753 68.179 29.8916 68.5279 30.0224 68.8622C30.2114 69.3564 30.4003 69.8216 30.5893 70.2867C30.7056 70.5629 30.8073 70.8391 30.9236 71.1153C31.2289 71.813 31.5341 72.5107 31.8684 73.2084C32.0138 73.4991 32.1591 73.7898 32.3045 74.0806C32.508 74.5021 32.726 74.9236 32.9441 75.3452C33.104 75.6504 33.2784 75.9557 33.4528 76.2609C33.6709 76.6534 33.8889 77.0313 34.1069 77.4093C34.2959 77.7145 34.4849 78.0198 34.6738 78.325C34.9064 78.6884 35.139 79.0663 35.3861 79.4297C35.5751 79.7204 35.7786 80.0257 35.9821 80.3164C36.2292 80.6798 36.4908 81.0432 36.7525 81.3921C36.956 81.6682 37.1595 81.9444 37.363 82.2206C37.6537 82.5985 37.9444 82.9619 38.2496 83.3253C38.4531 83.5724 38.6421 83.8195 38.8456 84.0521C39.2381 84.5173 39.6451 84.9679 40.0521 85.4039C40.1684 85.5348 40.2847 85.6801 40.4155 85.8109C40.9533 86.3778 41.4911 86.9302 42.058 87.468C42.2615 87.657 42.465 87.846 42.6685 88.0349C43.0465 88.3838 43.4244 88.7326 43.8314 89.067C44.0785 89.2705 44.3256 89.474 44.5727 89.6775C44.9361 89.9827 45.314 90.288 45.692 90.5787C45.9536 90.7822 46.2298 90.9857 46.506 91.1892C46.8839 91.4654 47.2764 91.7416 47.6688 92.0177C47.945 92.2067 48.2212 92.3957 48.5119 92.5846C48.9189 92.8463 49.3405 93.1079 49.762 93.3696C50.0382 93.544 50.3144 93.7184 50.6051 93.8783C51.0702 94.1545 51.5354 94.4016 52.015 94.6632C52.2621 94.7941 52.5238 94.9394 52.7709 95.0702C53.4395 95.4191 54.1227 95.7389 54.8204 96.0587C54.8931 96.0878 54.9513 96.1314 55.0239 96.1604C55.7943 96.5093 56.5793 96.8291 57.3787 97.1343C57.6404 97.2361 57.902 97.3233 58.1637 97.4105C58.716 97.614 59.2684 97.8175 59.8353 97.9919C60.1551 98.0937 60.4749 98.1954 60.8092 98.2827C61.3325 98.4426 61.8558 98.6024 62.3936 98.7333C62.7425 98.8205 63.0913 98.9077 63.4547 98.9949C63.9925 99.1257 64.5158 99.242 65.0682 99.3583C65.4316 99.431 65.795 99.5037 66.1584 99.5763C66.7253 99.6781 67.2922 99.7798 67.8591 99.8671C68.2079 99.9252 68.5713 99.9833 68.9347 100.041C69.5743 100.129 70.2139 100.201 70.868 100.274C71.1732 100.303 71.4785 100.347 71.7983 100.376C72.7722 100.463 73.7461 100.536 74.749 100.579C71.6529 97.2942 68.9783 93.6021 66.8125 89.5902C66.4491 89.0088 66.1438 88.3983 65.8386 87.7878Z" fill="#29A5B1"/>
</svg>
