<svg width="61" height="97" viewBox="0 0 61 97" fill="none" xmlns="http://www.w3.org/2000/svg">
<path d="M48.9999 46C49.2453 46.4555 49.5086 46.9284 49.785 47.4128C54.4969 55.6674 59.8145 64.02 60.4999 73.5C60.7284 76.6598 60.3903 80.8095 60.0469 83.8597C59.7422 86.5662 58.5104 89.0656 56.6571 91.0614L55.8574 91.9226C54.0202 93.9012 51.5049 95.115 48.8128 95.3221C47.2884 95.4393 45.7566 95.2297 44.3199 94.7073L37.0581 92.0666C32.534 90.4215 27.5452 90.6158 23.1627 92.6078L19.4436 94.2983C15.7654 95.9702 11.4748 95.5535 8.1871 93.2051C7.07158 92.4084 6.11018 91.4154 5.34976 90.2748L4.26444 88.6468C2.44449 85.9169 1.23682 82.8171 0.890924 79.5544C0.711876 77.8656 0.550247 76.0208 0.499889 74.5C0.17054 64.5537 4.1209 55.1009 8.08487 45.9727C8.22886 45.6411 8.36756 45.3162 8.49989 45C11.1408 38.6887 14.121 28.9285 14.8384 26.5407C14.9471 26.179 15.0518 25.8184 15.1555 25.4553L20.6974 6.05878C20.8982 5.35597 21.1904 4.68255 21.5664 4.05577L22.6338 2.27684C23.4813 0.864295 25.0078 0 26.6551 0C28.1312 0 29.5211 0.694951 30.4068 1.87579L32 4C33.9848 6.6465 35.4943 9.618 36.461 12.7817L39.7545 23.5605C40.2514 25.1866 40.7822 26.7962 41.3794 28.3882C42.8804 32.3892 46.06 40.5434 48.9999 46Z" fill="#E62B3E" fill-opacity="0.35"/>
<path d="M48.1195 46.4743C48.3694 46.9381 48.6367 47.4182 48.9166 47.9085C49.3591 48.6838 49.8051 49.4571 50.2505 50.2297C54.5984 57.7696 58.8992 65.2278 59.5025 73.5721C59.7238 76.6332 59.3958 80.7043 59.0532 83.7479C58.7746 86.2223 57.6461 88.5268 55.9244 90.381L55.1247 91.2422C53.4585 93.0365 51.1775 94.1372 48.7361 94.325C47.3537 94.4314 45.9646 94.2413 44.6616 93.7675L37.3998 91.1268C32.6297 89.3922 27.3696 89.5971 22.7489 91.6974L19.0298 93.3879C15.6768 94.912 11.7654 94.5322 8.76834 92.3914C7.75143 91.6651 6.87501 90.7599 6.18181 89.7201L5.09649 88.0921C3.35631 85.4819 2.21244 82.5342 1.88535 79.449C1.70715 77.7681 1.5485 75.9515 1.49934 74.4669C1.17857 64.7795 5.02554 55.5283 9.00211 46.371C9.14768 46.0358 9.28815 45.7068 9.42238 45.386C12.0866 39.019 15.0807 29.2097 15.7961 26.8285C15.9066 26.4609 16.0126 26.0957 16.1171 25.73L21.6589 6.3335L20.6974 6.05878L21.6589 6.3335C21.8357 5.71482 22.0929 5.12201 22.4239 4.57026L23.4913 2.79134C24.1581 1.68 25.3591 1 26.6551 1C27.8164 1 28.91 1.54676 29.6068 2.47581L31.2 4.59999C31.2 4.6 31.2 4.6 31.2 4.60001C33.1152 7.15376 34.5718 10.0211 35.5046 13.0739L38.7981 23.8527C39.2992 25.4924 39.8366 27.1227 40.4432 28.7395C41.943 32.7374 45.1436 40.9508 48.1195 46.4743Z" stroke="#E62B3E" stroke-opacity="0.6" stroke-width="2" stroke-linecap="round" stroke-linejoin="round"/>
<path d="M26.2449 28.884C27.2809 27.96 27.7849 27.302 27.7849 25.972C27.7849 24.124 26.3709 22.71 24.4949 22.71C22.5629 22.71 21.1349 24.054 21.1349 25.958H22.4089C22.3949 24.852 23.2769 23.9 24.4809 23.9C25.6429 23.9 26.5109 24.796 26.5109 25.958C26.5109 26.602 26.3009 27.176 25.5589 27.848L21.0929 31.866L21.0789 32.986H27.7849V31.796H22.9969L26.2449 28.884ZM32.6303 26.504C31.9443 26.504 31.2583 26.742 30.7403 27.162L30.9363 24.096H35.2203V22.92H29.8023L29.4943 28.184L30.6003 28.604C30.9643 28.086 31.5943 27.652 32.4903 27.652C33.6663 27.652 34.6603 28.604 34.6603 29.822C34.6603 31.012 33.7083 31.992 32.4903 31.992C31.5523 31.992 30.6423 31.376 30.3903 30.382L29.1863 30.704C29.5923 32.174 30.8943 33.21 32.4483 33.21C34.3243 33.21 35.9203 31.684 35.9203 29.822C35.9203 27.946 34.4923 26.504 32.6303 26.504Z" fill="white"/>
<path d="M26.6 84.8313L32.2 90L29.4 85.2289L35 78.8675L29 72.1084L37 66.1446L30.6 57H21L29.4 64.1566L23 70.5181L30.6 78.4699L26.6 84.8313Z" fill="#E62B3E" fill-opacity="0.6"/>
</svg>
