<svg width="62" height="116" viewBox="0 0 62 116" fill="none" xmlns="http://www.w3.org/2000/svg">
<path d="M57.6008 38.998L59.1358 35.1605C59.7111 33.7223 60.1749 32.242 60.5232 30.7327C61.1711 27.9253 61.4141 25.0397 61.2449 22.1636L61.2396 22.073C61.0806 19.3694 60.5662 16.6986 59.7098 14.1293L57.6718 8.01529C57.5575 7.6725 57.4117 7.34105 57.2362 7.02519C55.9245 4.66414 53.1657 3.50951 50.5633 4.23241L49.5066 4.52595C47.3005 5.13875 44.9346 4.67133 43.1273 3.26566L42.8623 3.05953C41.9647 2.3614 40.927 1.86517 39.8201 1.60473L35.1257 0.500156C33.7288 0.171487 32.2736 0.181591 30.8815 0.529628L25 2L17.5497 3.77388C15.5748 4.2441 13.4988 4.03279 11.6592 3.17427L9.64607 2.23483C8.17326 1.54752 6.42098 2.15804 5.69413 3.61174L2.73059 9.53882C2.57727 9.84545 2.45603 10.1671 2.36878 10.4986L1.84127 12.5032C0.620721 17.1413 0.105945 21.9367 0.314269 26.7282C0.437843 29.5704 0.815186 32.3958 1.4418 35.1708L4 46.5L5.38543 54.3508C6.45993 60.4396 6.95251 66.613 7.40825 72.7791C7.69424 76.6485 8.17912 81.0377 9 84.5C9.33061 85.8945 9.80475 87.514 10.2977 89.0746C11.6606 93.389 13.5443 97.514 15.627 101.531L19.5 109L21.4253 112.465C21.7259 113.007 22.4408 113.147 22.9241 112.761L23.6483 112.181C24.1062 111.815 24.7797 111.92 25.105 112.408L25.4948 112.992C26.1228 113.934 27.18 114.5 28.3122 114.5C29.0811 114.5 29.8271 114.238 30.4275 113.758L31.3011 113.059C31.699 112.741 32.2726 112.773 32.6329 113.133L34.7199 115.22C35.1378 115.638 35.8239 115.604 36.1949 115.144C37.4756 113.556 40.238 110.081 42 107.5C43.5368 105.248 45.2665 102.279 46.6772 99.7467C48.604 96.2878 49.9849 92.5603 50.9452 88.7191C51.6472 85.9114 52.1116 83.0495 52.3335 80.1638L52.5383 77.502C52.8457 73.5059 52.8319 69.4945 52.7553 65.4874C52.7027 62.7404 52.7291 59.5405 53 57C53.3234 53.9666 54.1869 50.0758 54.9049 47.1662C55.5929 44.3782 56.5343 41.6642 57.6008 38.998Z" fill="#E62B3E" fill-opacity="0.35"/>
<path d="M42.2483 3.84888L42.8623 3.05953L42.2483 3.84888L42.5133 4.05501C44.5704 5.65494 47.2633 6.18695 49.7742 5.48947L50.831 5.19593C52.9881 4.59673 55.2748 5.55378 56.3621 7.51084C56.5075 7.77265 56.6284 8.04738 56.7231 8.33151L58.7611 14.4456C59.5898 16.9315 60.0874 19.5158 60.2413 22.1317L60.2466 22.2223C60.4102 25.0033 60.1752 27.7934 59.5488 30.5078C59.2121 31.9672 58.7636 33.3985 58.2073 34.7891L56.6723 38.6266C55.5948 41.3205 54.6364 44.0802 53.934 46.9266C53.2147 49.8418 52.3367 53.7885 52.0056 56.894C51.7279 59.4987 51.7027 62.7493 51.7554 65.5065C51.832 69.5069 51.8448 73.4789 51.5413 77.4253L51.3365 80.0871C51.1188 82.9169 50.6634 85.7232 49.9751 88.4766C49.0324 92.2474 47.6808 95.8903 45.8036 99.2601C44.3963 101.786 42.6844 104.723 41.1741 106.936C39.4402 109.476 36.7075 112.916 35.4228 114.509L33.34 112.426C32.6194 111.705 31.4722 111.642 30.6764 112.278L29.8028 112.977C29.3797 113.316 28.854 113.5 28.3122 113.5C27.5144 113.5 26.7694 113.101 26.3268 112.437L25.9371 111.853C25.2864 110.877 23.9395 110.668 23.0236 111.401L22.2994 111.98L20.3812 108.527L16.5147 101.07C14.4461 97.0808 12.5903 93.0122 11.2513 88.7734C10.7615 87.2228 10.2955 85.6296 9.97303 84.2693C9.1709 80.8861 8.69047 76.5607 8.40553 72.7054C7.94999 66.5421 7.4546 60.3218 6.37021 54.177L4.98478 46.3262C4.98204 46.3106 4.97892 46.2952 4.97544 46.2797L2.41724 34.9506C1.80375 32.2337 1.43431 29.4674 1.31333 26.6848C1.10936 21.9937 1.61336 17.2986 2.80834 12.7577L3.33585 10.7531C3.40558 10.4882 3.50249 10.2311 3.62502 9.98603L2.73059 9.53882L3.62502 9.98603L6.58856 4.05895C7.07312 3.08982 8.24131 2.68281 9.22318 3.14101L11.2363 4.08045C13.2804 5.03437 15.5869 5.26916 17.7813 4.74669L25.2316 2.97281L25.2316 2.97287L25.2425 2.97014L31.124 1.49977C32.3615 1.1904 33.655 1.18142 34.8966 1.47357L39.5911 2.57814C40.5579 2.80564 41.4643 3.23908 42.2483 3.84888Z" stroke="#E62B3E" stroke-opacity="0.6" stroke-width="2" stroke-linecap="round" stroke-linejoin="round"/>
<path d="M27.8164 23H29.0764V21.138H30.1264V19.962H29.0764V17.12H27.8164V19.962H24.5964L27.9284 12.92H26.5144L23.1824 19.962V21.138H27.8164V23ZM35.3863 16.504C34.4903 16.504 33.6643 16.896 33.0763 17.54V16.182C33.0763 14.978 34.0143 13.9 35.3583 13.9C36.1003 13.9 36.7723 14.278 37.1783 14.852L38.1163 14.026C37.4583 13.186 36.4643 12.71 35.3583 12.71C33.2863 12.71 31.8023 14.208 31.8023 16.322V19.668C31.8023 21.698 33.3143 23.21 35.2463 23.21C37.1223 23.21 38.6763 21.712 38.6763 19.836C38.6763 17.96 37.2623 16.504 35.3863 16.504ZM35.2463 22.006C34.0423 22.006 33.0763 21.026 33.0763 19.836C33.0763 18.632 34.0423 17.652 35.2463 17.652C36.4503 17.652 37.4163 18.632 37.4163 19.836C37.4163 21.04 36.4503 22.006 35.2463 22.006Z" fill="white"/>
<path d="M26.6 105.831L32.2 111L29.4 106.229L35 99.8675L29 93.1084L37 87.1446L30.6 78H21L29.4 85.1566L23 91.5181L30.6 99.4699L26.6 105.831Z" fill="#E62B3E" fill-opacity="0.6"/>
</svg>
