<svg width="61" height="134" viewBox="0 0 61 134" fill="none" xmlns="http://www.w3.org/2000/svg">
<path d="M59.0913 90.3207L60.5001 103L60.6705 106.237C60.8891 110.391 60.5109 114.555 59.5474 118.602L58.9224 121.227C58.6418 122.405 58.2266 123.547 57.6848 124.631L56.3875 127.225C55.4938 129.013 53.9753 130.41 52.1199 131.152C50.7333 131.707 49.2212 131.87 47.7482 131.625L45.2986 131.216C44.4368 131.073 43.5982 130.814 42.8049 130.448L41.2162 129.715C38.9271 128.659 36.2429 128.943 34.2259 130.456C33.7442 130.817 33.2169 131.113 32.6578 131.337L30.4616 132.215C29.159 132.736 27.7968 133.094 26.4061 133.279L25.7413 133.368C22.6583 133.779 19.5241 133.213 16.7798 131.749L16.2414 131.462C14.4416 130.502 12.4332 130 10.3934 130H8.80118C8.27202 130 7.74772 129.899 7.2564 129.702C6.14055 129.256 5.27229 128.349 4.87527 127.215L2.61268 120.75C2.20527 119.586 1.90951 118.386 1.746 117.164C1.50422 115.356 1.15507 112.573 1.00014 110.5C0.722065 106.778 0.79831 101.71 0.890273 98.5223C0.948452 96.5053 1.11589 94.4969 1.34717 92.4924L1.97284 87.07C2.32415 84.0253 2.83768 81.0031 3.44806 77.9996C3.98143 75.3751 4.61559 72.0836 5.00014 69.5C5.74307 64.5087 6.31448 57.0531 6.46255 55.0251C6.48837 54.6715 6.51026 54.323 6.53048 53.9691L7.50014 37L7.84336 34.7119C8.61311 29.5802 9.82522 24.5248 11.4661 19.602L12.0001 18L13.8481 13.5121C14.9461 10.8455 16.3346 8.30794 17.9884 5.9454L18.4407 5.29928C18.6563 4.9912 19.135 5.08423 19.2195 5.45066C20.0688 9.13078 20.3292 12.9147 20.3298 16.6915C20.33 18.1695 20.3727 19.7079 20.5001 21C20.7529 23.5629 21.5074 26.8645 22.1219 29.2722C22.3676 30.2345 23.6575 30.2431 23.9218 29.2858C24.6194 26.7594 25.5342 23.2242 26.0001 20.5C26.3521 18.4419 26.6546 15.638 26.8321 13.8233C26.9508 12.6085 27.0759 11.3942 27.2273 10.183L27.9306 4.55631C28.0638 3.49039 29.5548 3.35572 29.8769 4.38051L32.8698 13.9035C33.1774 14.8821 34.5831 14.8185 34.801 13.8161L35.7263 9.55978C35.9422 8.56633 37.3306 8.49151 37.6521 9.45598L42.0001 22.5L48.392 42.5279C49.1305 44.8419 49.7843 47.1798 50.3492 49.5421C51.3083 53.5522 52.8809 60.1562 54.0001 65C55.0458 69.5256 56.3929 75.5321 57.3396 79.7777C58.1159 83.2587 58.6975 86.7761 59.0913 90.3207Z" fill="#E62B3E" fill-opacity="0.35"/>
<path d="M58.0975 90.4312L59.5031 103.082L59.6719 106.289C59.8855 110.348 59.516 114.416 58.5746 118.37L57.9496 120.995C57.6868 122.099 57.2978 123.169 56.7904 124.183L55.493 126.778C54.7089 128.346 53.3765 129.572 51.7485 130.224C50.5319 130.71 49.2051 130.854 47.9126 130.638L45.463 130.23C44.6893 130.101 43.9362 129.869 43.224 129.54L41.6353 128.807C39.0124 127.597 35.9369 127.922 33.6259 129.656C33.2144 129.964 32.764 130.217 32.2864 130.408L30.0902 131.287C28.8645 131.777 27.5826 132.113 26.2739 132.288L25.6091 132.377C22.7335 132.76 19.8101 132.232 17.2504 130.867L16.712 130.58C14.7674 129.543 12.5973 129 10.3934 129H8.80118C8.39923 129 8.00099 128.923 7.62781 128.774L7.2564 129.702L7.62779 128.774C6.78021 128.435 6.1207 127.746 5.81913 126.884L3.55654 120.42C3.17002 119.315 2.89107 118.182 2.73717 117.031C2.49551 115.225 2.14991 112.467 1.99736 110.425C1.72351 106.76 1.79792 101.738 1.88986 98.5511C1.94701 96.5699 2.11166 94.591 2.34058 92.607L2.96625 87.1846C3.31352 84.1749 3.82183 81.1816 4.42803 78.1988C4.96203 75.5712 5.60061 72.2582 5.98925 69.6472C6.73851 64.6133 7.31215 57.1214 7.4599 55.0979C7.4862 54.7377 7.50842 54.3837 7.52885 54.0261L8.49589 37.1029L8.8323 34.8602C9.59349 29.7856 10.7921 24.7863 12.4148 19.9182L12.9379 18.3489L14.7728 13.8929C15.7772 11.4537 17.0309 9.12526 18.5138 6.94471C19.1284 10.1274 19.3293 13.3969 19.3298 16.6917C19.33 18.1831 19.3729 19.7586 19.505 21.0981C19.7657 23.7421 20.5371 27.1065 21.153 29.5195C21.6555 31.4882 24.3521 31.4848 24.8858 29.5519C25.5842 27.0224 26.5108 23.4459 26.9858 20.6686C27.3444 18.5717 27.6498 15.7364 27.8273 13.9207C27.9459 12.7084 28.0698 11.5047 28.2195 10.307L28.9229 4.68034L31.9158 14.2033C32.5309 16.1605 35.3424 16.0333 35.7782 14.0285L36.7035 9.77221L41.0494 22.8102L47.4394 42.832C48.1705 45.1229 48.8176 47.437 49.3767 49.7747C50.3357 53.7848 51.9076 60.3854 53.0258 65.2251C54.0706 69.7467 55.4169 75.75 56.3636 79.9954C57.1318 83.4402 57.7075 86.9218 58.0975 90.4312Z" stroke="#E62B3E" stroke-opacity="0.6" stroke-width="2" stroke-linecap="round" stroke-linejoin="round"/>
<path d="M25.8114 53H27.0714V42.92H25.8114L23.9074 44.054V45.44L25.8114 44.292V53ZM30.2669 53H31.6109L35.2369 44.11V42.92H29.3149V44.11H33.8929L30.2669 53Z" fill="white"/>
<path d="M28.6 123.831L34.2 129L31.4 124.229L37 117.867L31 111.108L39 105.145L32.6 96H23L31.4 103.157L25 109.518L32.6 117.47L28.6 123.831Z" fill="#E62B3E" fill-opacity="0.6"/>
</svg>
