<svg width="47" height="119" viewBox="0 0 47 119" fill="none" xmlns="http://www.w3.org/2000/svg">
<path d="M41 34.5L35 10.5L33.9763 6.74638C33.6616 5.59255 33.1315 4.50865 32.4139 3.55187L31.7693 2.69236C30.9458 1.59435 29.7856 0.7959 28.4659 0.418842L27.9051 0.258591C27.3103 0.0886582 26.6835 0.0632908 26.077 0.184601C25.0673 0.386548 24.1791 0.981338 23.6079 1.83812L21.9492 4.3262C21.6501 4.77481 21.3841 5.2446 21.1533 5.73185L17 14.5L12.5 27L10 37.5L8.68045 50.0357C8.22921 54.3225 7.15788 58.5211 5.5 62.5L2.98034 71.4988C2.32768 73.8297 1.84926 76.2059 1.54903 78.6078L1.06124 82.5101C0.689844 85.4812 0.832028 88.4941 1.48158 91.4171C2.15513 94.4481 3.36365 97.3347 5.0504 99.9415L8 104.5L14.827 113.603C15.274 114.199 15.7915 114.738 16.3681 115.21C19.1864 117.516 23.0959 117.952 26.3529 116.324L26.6896 116.155C27.5584 115.721 28.3579 115.16 29.0622 114.491L33.2715 110.492C36.405 107.515 39.0602 104.072 41.1431 100.285C42.7091 97.438 43.9393 94.4187 44.8089 91.2878L44.8823 91.0238C45.6258 88.3472 46.1161 85.6066 46.3468 82.8383L46.5133 80.8398C46.8371 76.9543 46.8141 73.0477 46.4444 69.1663L46 64.5L43.5 50L41 34.5Z" fill="#E62B3E" fill-opacity="0.35"/>
<path d="M42.5128 50.1592L42.5127 50.1592L42.5145 50.1699L45.0081 64.6325L45.4489 69.2611C45.8129 73.0834 45.8357 76.9305 45.5168 80.7568L45.3503 82.7552C45.1248 85.4612 44.6455 88.1399 43.9188 90.7562L43.8454 91.0202C42.9964 94.0765 41.7956 97.0239 40.2669 99.8033C38.2336 103.5 35.6417 106.861 32.5827 109.767L28.3734 113.766C27.7409 114.367 27.0227 114.871 26.2424 115.261L25.9057 115.429L26.3529 116.324L25.9057 115.429C23.0012 116.881 19.5146 116.493 17.0013 114.436C16.4871 114.016 16.0257 113.534 15.627 113.003L8.82077 103.928L5.88997 99.3983C4.26779 96.8913 3.10553 94.1151 2.45776 91.2002C1.83308 88.3891 1.69634 85.4915 2.05352 82.6341L2.5413 78.7318C2.83539 76.3792 3.30401 74.0516 3.9433 71.7684L6.44662 62.828C8.12834 58.7765 9.21572 54.5032 9.67496 50.1404L10.9878 37.6688L13.4598 27.2861L17.9245 14.8843L22.0571 6.15993C22.2671 5.71657 22.5091 5.2891 22.7812 4.88091L24.44 2.39283C24.864 1.75671 25.5234 1.31511 26.2731 1.16518C26.7234 1.07512 27.1888 1.09395 27.6303 1.22011L28.1912 1.38037C29.3011 1.69747 30.2767 2.36895 30.9693 3.29236L31.6139 4.15187C32.2558 5.00775 32.73 5.97734 33.0115 7.0095L34.0324 10.7528L40.0195 34.7013L42.5128 50.1592Z" stroke="#E62B3E" stroke-opacity="0.6" stroke-width="2" stroke-linecap="round" stroke-linejoin="round"/>
<path d="M21.9559 31H23.2159V20.92H21.9559L20.0519 22.054V23.44L21.9559 22.292V31ZM29.0854 24.728L31.8014 22.11V20.92H25.8654V22.11H30.2614L26.9854 25.064L27.5874 26.058C27.8954 25.89 28.2874 25.792 28.6234 25.792C29.8414 25.792 30.6534 26.646 30.6534 27.892C30.6534 29.124 29.8694 29.978 28.6374 30.006C27.7414 30.02 26.9574 29.516 26.6634 28.578L25.4594 28.928C25.8934 30.328 27.1534 31.196 28.6514 31.196C30.5134 31.196 31.9414 29.824 31.9414 27.892C31.9414 26.128 30.8214 24.812 29.0854 24.728Z" fill="white"/>
<path d="M19.6 108.831L25.2 114L22.4 109.229L28 102.867L22 96.1084L30 90.1446L23.6 81H14L22.4 88.1566L16 94.5181L23.6 102.47L19.6 108.831Z" fill="#E62B3E" fill-opacity="0.6"/>
</svg>
