<svg width="32" height="120" viewBox="0 0 32 120" fill="none" xmlns="http://www.w3.org/2000/svg">
<path d="M30 46C30.5454 40.4968 31.1409 33.1677 31.539 28.0625C31.8531 24.0339 31.6643 19.9858 31 16C30.0182 11.7456 28.0656 7.52004 24.5 5C22.7137 3.73752 20.1433 2.59071 18.0557 1.77077C15.791 0.881223 13.2756 1.05653 11.0605 2.06339C9.70434 2.67985 8.5047 3.59436 7.55099 4.73881L5.82973 6.80433C4.61517 8.2618 3.59731 9.87249 2.80228 11.5951L2.65477 11.9147C1.55876 14.2894 0.852755 16.8252 0.563931 19.4246L0.402081 20.8813C0.134821 23.2866 0.130061 25.7139 0.387887 28.1203L0.765268 31.6425C1.25375 36.2017 2.25252 40.6879 3.46974 45.1087C4.25928 47.9762 5.08027 51.2905 5.5 54C6.75582 62.1066 5.70729 66.8019 6 75C6.10776 78.018 6.27153 81.657 6.43554 85.0518C6.78762 92.3394 7.81279 99.5763 9.42977 106.691L9.5 107L12.2383 117.497C12.4029 118.128 12.8573 118.643 13.4626 118.885C14.3598 119.244 15.3839 118.93 15.9075 118.118C17.0258 116.383 18.9113 113.35 20 111C22.0931 106.482 23.5165 99.5796 24.1411 96.1248C24.3971 94.7091 24.5824 93.2896 24.748 91.8605C25.2888 87.1927 26.598 75.8821 27.5 68C28.4831 59.4092 29.1473 54.6047 30 46Z" fill="#E62B3E" fill-opacity="0.35"/>
<path d="M30.542 27.9847C30.1439 33.0893 29.5491 40.4095 29.0049 45.9014C28.4389 51.6129 27.9571 55.6388 27.4084 60.2237C27.1313 62.539 26.8371 64.9969 26.5065 67.8863C25.6046 75.7676 24.2955 87.0776 23.7546 91.7454C23.59 93.1665 23.4075 94.5618 23.1571 95.9469C22.5313 99.4085 21.1252 106.193 19.0927 110.58C18.0363 112.86 16.1856 115.841 15.067 117.576C14.8091 117.976 14.2977 118.142 13.834 117.957C13.5234 117.832 13.2903 117.568 13.2059 117.244L10.4716 106.763L10.4049 106.469C8.80015 99.4084 7.78348 92.2296 7.43438 85.0036C7.27044 81.6102 7.1069 77.9761 6.99936 74.9643C6.89074 71.9219 6.96854 69.3824 7.04359 66.9328C7.06871 66.1126 7.09353 65.3025 7.11094 64.487C7.18019 61.2428 7.12832 57.979 6.48821 53.8469C6.05946 51.0792 5.22606 47.7204 4.43387 44.8432C3.22486 40.4523 2.24028 36.0226 1.75958 31.536L1.3822 28.0137C1.1321 25.6795 1.13671 23.325 1.39597 20.9917L1.55781 19.5351C1.83477 17.0425 2.51176 14.6108 3.56273 12.3337L3.71024 12.0141C4.46858 10.3711 5.43945 8.83471 6.59795 7.44451L8.31921 5.37899C9.17661 4.35012 10.2551 3.52796 11.4743 2.97376C13.4742 2.06472 15.7074 1.92276 17.6902 2.70155C19.7658 3.51682 22.2409 4.62789 23.9228 5.81663C27.1926 8.12758 29.06 12.0606 30.0187 16.1949C30.6659 20.0928 30.8489 24.0493 30.542 27.9847Z" stroke="#E62B3E" stroke-opacity="0.6" stroke-width="2" stroke-linecap="round" stroke-linejoin="round"/>
<path d="M12.2973 18.728L15.0133 16.11V14.92H9.07733V16.11H13.4733L10.1973 19.064L10.7993 20.058C11.1073 19.89 11.4993 19.792 11.8353 19.792C13.0533 19.792 13.8653 20.646 13.8653 21.892C13.8653 23.124 13.0813 23.978 11.8493 24.006C10.9533 24.02 10.1693 23.516 9.87533 22.578L8.67133 22.928C9.10533 24.328 10.3653 25.196 11.8633 25.196C13.7253 25.196 15.1533 23.824 15.1533 21.892C15.1533 20.128 14.0333 18.812 12.2973 18.728ZM20.186 18.728L22.902 16.11V14.92H16.966V16.11H21.362L18.086 19.064L18.688 20.058C18.996 19.89 19.388 19.792 19.724 19.792C20.942 19.792 21.754 20.646 21.754 21.892C21.754 23.124 20.97 23.978 19.738 24.006C18.842 24.02 18.058 23.516 17.764 22.578L16.56 22.928C16.994 24.328 18.254 25.196 19.752 25.196C21.614 25.196 23.042 23.824 23.042 21.892C23.042 20.128 21.922 18.812 20.186 18.728Z" fill="white"/>
<path d="M13.6 102.831L19.2 108L16.4 103.229L22 96.8675L16 90.1084L24 84.1446L17.6 75H8L16.4 82.1566L10 88.5181L17.6 96.4699L13.6 102.831Z" fill="#E62B3E" fill-opacity="0.6"/>
</svg>
