<svg width="34" height="119" viewBox="0 0 34 119" fill="none" xmlns="http://www.w3.org/2000/svg">
<path d="M10.6353 0.5H16.5L22.4251 0.151462C24.1121 0.0522295 25.7955 0.397768 27.307 1.1535C29.6656 2.33279 31.4388 4.42596 32.2142 6.94631L32.528 7.96615C32.8413 8.98429 33.0193 10.0392 33.0573 11.1038L33.2529 16.5824C33.417 21.1751 32.9883 25.7686 31.99 30.2544C31.4867 32.5161 30.9421 34.9751 30.5 37L30.3705 37.5941C28.4324 46.4996 27.6486 55.6016 27.2034 64.7047C27.147 65.8583 27.0799 66.9742 27 68C26.6033 73.0951 25.9789 75.912 25.5 81C24.9863 86.4571 25.3135 89.5794 24.5 95C23.9731 98.5109 22.7685 103.46 22.2476 105.53C22.0843 106.179 21.9274 106.827 21.7822 107.48L20.0985 115.057C20.0332 115.351 19.9241 115.633 19.7748 115.894L19.632 116.144C18.7809 117.633 16.7908 117.992 15.473 116.894C15.1615 116.635 14.9111 116.309 14.7396 115.942L12.5045 111.153C11.8362 109.72 11.2977 108.231 10.8955 106.703L9 99.5L7.49633 90.1021C7.16549 88.0343 6.88424 85.965 6.66738 83.8822C6.19252 79.3214 5.34014 70.7006 5 64.5C4.88348 62.3759 4.79107 59.8795 4.71904 57.448C4.51307 50.4953 3.90121 43.557 2.7094 36.7041L2.5 35.5L1.60685 29.9178C0.870744 25.3172 0.590188 20.6551 0.769255 15.9994L0.920329 12.0715C0.973348 10.693 1.14286 9.32141 1.42706 7.97148C2.34378 3.61704 6.18537 0.5 10.6353 0.5Z" fill="#E62B3E" fill-opacity="0.35"/>
<path d="M16.5 1.5C16.5196 1.5 16.5392 1.49942 16.5587 1.49827L22.4839 1.14974C23.996 1.06079 25.505 1.37052 26.8598 2.04793C28.9739 3.105 30.5633 4.98124 31.2585 7.24039L31.5723 8.26024L32.528 7.96615L31.5723 8.26024C31.8597 9.19453 32.023 10.1626 32.0579 11.1395L32.2536 16.6181C32.4145 21.1249 31.994 25.6334 31.0139 30.0372C30.5105 32.2993 29.9655 34.7598 29.523 36.7867L29.5229 36.787L29.3935 37.3811L29.3934 37.3814C27.4379 46.3667 26.6508 55.5325 26.2046 64.6559C26.1485 65.8027 26.082 66.9087 26.003 67.9224C25.8069 70.4415 25.5546 72.3974 25.2897 74.3695C25.2673 74.5364 25.2448 74.7035 25.2222 74.871C24.9779 76.6843 24.7256 78.5561 24.5044 80.9063C24.2873 83.2126 24.2182 85.1134 24.1528 86.9138C24.1398 87.2705 24.127 87.6233 24.1132 87.9745C24.0297 90.099 23.91 92.1934 23.5111 94.8516C22.9924 98.3078 21.7995 103.212 21.2778 105.286C21.1131 105.941 20.9539 106.598 20.806 107.263L19.1223 114.84C19.0788 115.036 19.0061 115.224 18.9066 115.398L18.7638 115.648C18.2213 116.597 16.9531 116.826 16.1132 116.126C15.9147 115.961 15.7551 115.753 15.6458 115.519L13.4107 110.73C12.7677 109.352 12.2495 107.919 11.8626 106.448L9.97964 99.2933L8.48377 89.9441C8.1554 87.8918 7.8767 85.8407 7.662 83.7786C7.18707 79.2172 6.33714 70.6186 5.9985 64.4452C5.88264 62.3332 5.79052 59.8462 5.7186 57.4184C5.51149 50.4272 4.89599 43.4406 3.69462 36.5327L3.48637 35.3353L2.59429 29.7598C1.86857 25.2241 1.59198 20.6278 1.76852 16.0378L1.91959 12.1099C1.97044 10.7877 2.13303 9.47224 2.40561 8.17749C3.22491 4.28579 6.65825 1.5 10.6353 1.5H16.5Z" stroke="#E62B3E" stroke-opacity="0.6" stroke-width="2" stroke-linecap="round" stroke-linejoin="round"/>
<path d="M15.8203 23H17.0803V21.138H18.1303V19.962H17.0803V17.12H15.8203V19.962H12.6003L15.9323 12.92H14.5183L11.1863 19.962V21.138H15.8203V23ZM21.5702 23H22.8302V12.92H21.5702L19.6662 14.054V15.44L21.5702 14.292V23Z" fill="white"/>
<path d="M13.6 99.8313L19.2 105L16.4 100.229L22 93.8675L16 87.1084L24 81.1446L17.6 72H8L16.4 79.1566L10 85.5181L17.6 93.4699L13.6 99.8313Z" fill="#E62B3E" fill-opacity="0.6"/>
</svg>
