<svg width="47" height="96" viewBox="0 0 47 96" fill="none" xmlns="http://www.w3.org/2000/svg">
<path d="M17.2846 2.7226L22.2154 5.49615C23.3383 6.12781 24.6937 6.19167 25.8711 5.6684L28.5 4.5L32.8451 2.12992C33.6077 1.71397 34.4441 1.45066 35.3074 1.35473C37.3253 1.13052 39.3357 1.83573 40.7714 3.27137L40.8084 3.30835C41.2671 3.76708 41.6577 4.28917 41.9684 4.8587L42.9847 6.72202C43.9895 8.56411 44.7196 10.5432 45.1519 12.5965L45.5431 14.4548C46.1782 17.4713 46.4055 20.5594 46.219 23.6364L45.8566 29.6169C45.6199 33.5222 44.8734 37.3798 43.6362 41.0915C43.2123 42.3632 42.7317 43.6137 42.1996 44.8441C41.5586 46.3261 40.6605 48.4147 40 50C38.9009 52.6379 37.4488 56.3074 36.6308 58.3891C36.2085 59.4638 35.8054 60.5402 35.4227 61.6296C34.5741 64.0455 32.9841 68.652 32 72C30.7032 76.4118 29.1924 82.945 28.6802 85.2003C28.5589 85.7344 28.451 86.2695 28.353 86.8084L27.646 90.697C27.549 91.2306 27.3922 91.7516 27.1785 92.2502L26.6175 93.5592C26.2221 94.4817 25.4765 95.2094 24.5445 95.5822C23.8629 95.8548 23.1167 95.9233 22.3968 95.7794L22.2615 95.7523C21.4389 95.5878 20.6835 95.1835 20.0903 94.5903L19.6979 94.1979C19.2357 93.7357 18.851 93.2019 18.5586 92.6172L17.7425 90.985C17.2486 89.9973 16.8497 88.9666 16.564 87.8999C16.1108 86.208 15.4114 83.5107 15 81.5C14.8381 80.7085 14.6796 79.8224 14.53 78.9134C13.7202 73.9939 12.9575 69.0596 11.7208 64.2297C11.4756 63.2718 11.2293 62.3342 11 61.5C10.4607 59.5382 9.73143 57.1167 9.07816 55.0026C8.04605 51.6624 6.80921 48.392 5.58143 45.1186C4.83567 43.1304 4.03401 40.8659 3.5 39C1.24399 31.1171 0.832631 22.8421 1.48649 14.6689L1.5 14.5L1.78546 10.2181C1.92474 8.12893 2.73633 6.14095 4.09895 4.55122C6.48977 1.76193 10.2513 0.562828 13.8153 1.45383L14.5701 1.64252C15.5191 1.87977 16.432 2.24303 17.2846 2.7226Z" fill="#E62B3E" fill-opacity="0.35"/>
<path d="M28.9061 5.41381C28.9309 5.40283 28.9551 5.39085 28.9789 5.3779L33.324 3.00782C33.9725 2.6541 34.6837 2.43019 35.4179 2.34861C37.1338 2.15795 38.8434 2.75764 40.0643 3.97848L40.7714 3.27137L40.0643 3.97849L40.1013 4.01547C40.4924 4.40665 40.8256 4.85187 41.0905 5.33756L42.1068 7.20087C43.0649 8.95741 43.7611 10.8446 44.1733 12.8025L44.5646 14.6608C45.1812 17.5897 45.4019 20.5882 45.2208 23.5759L44.8584 29.5564C44.627 33.3747 43.8972 37.1463 42.6875 40.7752C42.2731 42.0184 41.8029 43.2421 41.2817 44.4471C40.6406 45.9295 39.7402 48.0234 39.0769 49.6154C37.9735 52.2637 36.5181 55.9418 35.7001 58.0233C35.2739 59.108 34.8664 60.1959 34.4792 61.2982C33.6308 63.7135 32.0329 68.3422 31.0406 71.718C29.7337 76.1641 28.2165 82.7265 27.7051 84.9788C27.5802 85.5287 27.4694 86.0781 27.3691 86.6295L26.6621 90.5181C26.5785 90.9779 26.4434 91.4267 26.2594 91.8562L25.6984 93.1653C25.4074 93.844 24.8588 94.3794 24.1732 94.6537C23.6716 94.8543 23.1226 94.9047 22.593 94.7988L22.3968 95.7794L22.5929 94.7988L22.4575 94.7717C21.8286 94.6459 21.251 94.3368 20.7975 93.8832L20.0903 94.5903L20.7974 93.8832L20.405 93.4908C20.0188 93.1046 19.6973 92.6586 19.453 92.17L18.6369 90.5378C18.1712 89.6062 17.797 88.6385 17.5299 87.6412C17.0769 85.9498 16.3845 83.2781 15.9797 81.2995C15.8212 80.5248 15.665 79.6522 15.5167 78.751C15.4424 78.2996 15.3684 77.8475 15.2943 77.3948C14.5639 72.9316 13.8246 68.4143 12.6896 63.9816C12.4434 63.0203 12.1956 62.0767 11.9642 61.2349C11.4207 59.2577 10.6877 56.8242 10.0336 54.7073C9.03597 51.4788 7.85003 48.3182 6.67626 45.19C6.62339 45.0491 6.57054 44.9082 6.51773 44.7674C5.77461 42.7863 4.9842 40.5516 4.4614 38.7249C2.24712 30.9878 1.83609 22.8388 2.4833 14.7486L2.49682 14.5797L2.4969 14.5798L2.49779 14.5665L2.78325 10.2846C2.90816 8.41085 3.63608 6.62783 4.85821 5.20202C7.00253 2.70031 10.3762 1.62484 13.5728 2.42398L14.3276 2.61267C15.19 2.82826 16.0196 3.15837 16.7944 3.59418L21.7251 6.36773C23.1234 7.15427 24.8112 7.23379 26.2772 6.58221L28.9061 5.41381Z" stroke="#E62B3E" stroke-opacity="0.6" stroke-width="2" stroke-linecap="round" stroke-linejoin="round"/>
<path d="M20.4736 23H21.7336V21.138H22.7836V19.962H21.7336V17.12H20.4736V19.962H17.2536L20.5856 12.92H19.1716L15.8396 19.962V21.138H20.4736V23ZM28.8545 23H30.1145V21.138H31.1645V19.962H30.1145V17.12H28.8545V19.962H25.6345L28.9665 12.92H27.5525L24.2205 19.962V21.138H28.8545V23Z" fill="white"/>
<path d="M19.6 78.8313L25.2 84L22.4 79.2289L28 72.8675L22 66.1084L30 60.1446L23.6 51H14L22.4 58.1566L16 64.5181L23.6 72.4699L19.6 78.8313Z" fill="#E62B3E" fill-opacity="0.6"/>
</svg>
