<svg width="61" height="97" viewBox="0 0 61 97" fill="none" xmlns="http://www.w3.org/2000/svg">
<path d="M48.9999 46C49.2453 46.4555 49.5086 46.9284 49.785 47.4128C54.4969 55.6674 59.8145 64.02 60.4999 73.5C60.7284 76.6598 60.3903 80.8095 60.0469 83.8597C59.7422 86.5662 58.5104 89.0656 56.6571 91.0614L55.8574 91.9226C54.0202 93.9012 51.5049 95.115 48.8128 95.3221C47.2884 95.4393 45.7566 95.2297 44.3199 94.7073L37.0581 92.0666C32.534 90.4215 27.5452 90.6158 23.1627 92.6078L19.4436 94.2983C15.7654 95.9702 11.4748 95.5535 8.1871 93.2051C7.07158 92.4084 6.11018 91.4154 5.34976 90.2748L4.26444 88.6468C2.44449 85.9169 1.23682 82.8171 0.890924 79.5544C0.711876 77.8656 0.550247 76.0208 0.499889 74.5C0.17054 64.5537 4.1209 55.1009 8.08487 45.9727C8.22886 45.6411 8.36756 45.3162 8.49989 45C11.1408 38.6887 14.121 28.9285 14.8384 26.5407C14.9471 26.179 15.0518 25.8184 15.1555 25.4553L20.6974 6.05878C20.8982 5.35597 21.1904 4.68255 21.5664 4.05577L22.6338 2.27684C23.4813 0.864295 25.0078 0 26.6551 0C28.1312 0 29.5211 0.694951 30.4068 1.87579L32 4C33.9848 6.6465 35.4943 9.618 36.461 12.7817L39.7545 23.5605C40.2514 25.1866 40.7822 26.7962 41.3794 28.3882C42.8804 32.3892 46.06 40.5434 48.9999 46Z" fill="#B0D0D4"/>
<path opacity="0.6" d="M39 72.5C39 77.1944 35.1944 81 30.5 81C27.9758 81 25.7095 79.901 24.1513 78.1521C22.8124 76.6493 22 74.6707 22 72.5C22 67.8056 25.8056 64 30.5 64C32.9447 64 35.1471 65.0308 36.6991 66.6844C38.1269 68.2056 39 70.2498 39 72.5Z" stroke="white" stroke-width="2"/>
<path d="M26.2449 30.884C27.2809 29.96 27.7849 29.302 27.7849 27.972C27.7849 26.124 26.3709 24.71 24.4949 24.71C22.5629 24.71 21.1349 26.054 21.1349 27.958H22.4089C22.3949 26.852 23.2769 25.9 24.4809 25.9C25.6429 25.9 26.5109 26.796 26.5109 27.958C26.5109 28.602 26.3009 29.176 25.5589 29.848L21.0929 33.866L21.0789 34.986H27.7849V33.796H22.9969L26.2449 30.884ZM32.6303 28.504C31.9443 28.504 31.2583 28.742 30.7403 29.162L30.9363 26.096H35.2203V24.92H29.8023L29.4943 30.184L30.6003 30.604C30.9643 30.086 31.5943 29.652 32.4903 29.652C33.6663 29.652 34.6603 30.604 34.6603 31.822C34.6603 33.012 33.7083 33.992 32.4903 33.992C31.5523 33.992 30.6423 33.376 30.3903 32.382L29.1863 32.704C29.5923 34.174 30.8943 35.21 32.4483 35.21C34.3243 35.21 35.9203 33.684 35.9203 31.822C35.9203 29.946 34.4923 28.504 32.6303 28.504Z" fill="white"/>
</svg>
