<svg width="47" height="96" viewBox="0 0 47 96" fill="none" xmlns="http://www.w3.org/2000/svg">
<path d="M17.2846 2.7226L22.2154 5.49615C23.3383 6.12781 24.6937 6.19167 25.8711 5.6684L28.5 4.5L32.8451 2.12992C33.6077 1.71397 34.4441 1.45066 35.3074 1.35473C37.3253 1.13052 39.3357 1.83573 40.7714 3.27137L40.8084 3.30835C41.2671 3.76708 41.6577 4.28917 41.9684 4.8587L42.9847 6.72202C43.9895 8.56411 44.7196 10.5432 45.1519 12.5965L45.5431 14.4548C46.1782 17.4713 46.4055 20.5594 46.219 23.6364L45.8566 29.6169C45.6199 33.5222 44.8734 37.3798 43.6362 41.0915C43.2123 42.3632 42.7317 43.6137 42.1996 44.8441C41.5586 46.3261 40.6605 48.4147 40 50C38.9009 52.6379 37.4488 56.3074 36.6308 58.3891C36.2085 59.4638 35.8054 60.5402 35.4227 61.6296C34.5741 64.0455 32.9841 68.652 32 72C30.7032 76.4118 29.1924 82.945 28.6802 85.2003C28.5589 85.7344 28.451 86.2695 28.353 86.8084L27.646 90.697C27.549 91.2306 27.3922 91.7516 27.1785 92.2502L26.6175 93.5592C26.2221 94.4817 25.4765 95.2094 24.5445 95.5822C23.8629 95.8548 23.1167 95.9233 22.3968 95.7794L22.2615 95.7523C21.4389 95.5878 20.6835 95.1835 20.0903 94.5903L19.6979 94.1979C19.2357 93.7357 18.851 93.2019 18.5586 92.6172L17.7425 90.985C17.2486 89.9973 16.8497 88.9666 16.564 87.8999C16.1108 86.208 15.4114 83.5107 15 81.5C14.8381 80.7085 14.6796 79.8224 14.53 78.9134C13.7202 73.9939 12.9575 69.0596 11.7208 64.2297C11.4756 63.2718 11.2293 62.3342 11 61.5C10.4607 59.5382 9.73143 57.1167 9.07816 55.0026C8.04605 51.6624 6.80921 48.392 5.58143 45.1186C4.83567 43.1304 4.03401 40.8659 3.5 39C1.24399 31.1171 0.832631 22.8421 1.48649 14.6689L1.5 14.5L1.78546 10.2181C1.92474 8.12893 2.73633 6.14095 4.09895 4.55122C6.48977 1.76193 10.2513 0.562828 13.8153 1.45383L14.5701 1.64252C15.5191 1.87977 16.432 2.24303 17.2846 2.7226Z" fill="#B0D0D4"/>
<path opacity="0.6" d="M32 61.5C32 66.1944 28.1944 70 23.5 70C20.9758 70 18.7095 68.901 17.1513 67.1521C15.8124 65.6493 15 63.6707 15 61.5C15 56.8056 18.8056 53 23.5 53C25.9447 53 28.1471 54.0308 29.6991 55.6844C31.1269 57.2056 32 59.2498 32 61.5Z" stroke="white" stroke-width="2"/>
<path d="M20.4736 25H21.7336V23.138H22.7836V21.962H21.7336V19.12H20.4736V21.962H17.2536L20.5856 14.92H19.1716L15.8396 21.962V23.138H20.4736V25ZM28.8545 25H30.1145V23.138H31.1645V21.962H30.1145V19.12H28.8545V21.962H25.6345L28.9665 14.92H27.5525L24.2205 21.962V23.138H28.8545V25Z" fill="white"/>
</svg>
