<svg width="61" height="134" viewBox="0 0 61 134" fill="none" xmlns="http://www.w3.org/2000/svg">
<path d="M59.0918 90.3207L60.5006 103L60.671 106.237C60.8896 110.391 60.5114 114.555 59.5479 118.602L58.9229 121.227C58.6423 122.405 58.2271 123.547 57.6853 124.631L56.388 127.225C55.4943 129.013 53.9757 130.41 52.1204 131.152C50.7338 131.707 49.2217 131.87 47.7487 131.625L45.2991 131.216C44.4373 131.073 43.5987 130.814 42.8054 130.448L41.2167 129.715C38.9276 128.659 36.2434 128.943 34.2264 130.456C33.7447 130.817 33.2174 131.113 32.6583 131.337L30.4621 132.215C29.1595 132.736 27.7972 133.094 26.4066 133.279L25.7418 133.368C22.6588 133.779 19.5246 133.213 16.7803 131.749L16.2419 131.462C14.4421 130.502 12.4337 130 10.3939 130H8.80166C8.2725 130 7.74821 129.899 7.25689 129.702C6.14104 129.256 5.27278 128.349 4.87576 127.215L2.61317 120.75C2.20576 119.586 1.91 118.386 1.74649 117.164C1.50471 115.356 1.15556 112.573 1.00063 110.5C0.722553 106.778 0.798798 101.71 0.890762 98.5223C0.948941 96.5053 1.11638 94.4969 1.34766 92.4924L1.97333 87.07C2.32464 84.0253 2.83817 81.0031 3.44855 77.9996C3.98192 75.3751 4.61608 72.0836 5.00063 69.5C5.74355 64.5087 6.31497 57.0531 6.46304 55.0251C6.48886 54.6715 6.51075 54.323 6.53097 53.9691L7.50063 37L7.84385 34.7119C8.6136 29.5802 9.8257 24.5248 11.4666 19.602L12.0006 18L13.8486 13.5121C14.9466 10.8455 16.3351 8.30794 17.9889 5.9454L18.4411 5.29928C18.6568 4.9912 19.1355 5.08423 19.22 5.45066C20.0693 9.13078 20.3297 12.9147 20.3303 16.6915C20.3305 18.1695 20.3732 19.7079 20.5006 21C20.7534 23.5629 21.5079 26.8645 22.1224 29.2722C22.368 30.2345 23.658 30.2431 23.9223 29.2858C24.6199 26.7594 25.5347 23.2242 26.0006 20.5C26.3526 18.4419 26.6551 15.638 26.8325 13.8233C26.9513 12.6085 27.0764 11.3942 27.2278 10.183L27.9311 4.55631C28.0643 3.49039 29.5553 3.35572 29.8774 4.38051L32.8703 13.9035C33.1779 14.8821 34.5836 14.8185 34.8015 13.8161L35.7268 9.55978C35.9427 8.56633 37.3311 8.49151 37.6526 9.45598L42.0006 22.5L48.3925 42.5279C49.131 44.8419 49.7848 47.1798 50.3497 49.5421C51.3088 53.5522 52.8814 60.1562 54.0006 65C55.0463 69.5256 56.3934 75.5321 57.3401 79.7777C58.1163 83.2587 58.698 86.7761 59.0918 90.3207Z" fill="#B0D0D4"/>
<path opacity="0.6" d="M39 113.5C39 118.194 35.1944 122 30.5 122C27.9758 122 25.7095 120.901 24.1513 119.152C22.8124 117.649 22 115.671 22 113.5C22 108.806 25.8056 105 30.5 105C32.9447 105 35.1471 106.031 36.6991 107.684C38.1269 109.206 39 111.25 39 113.5Z" stroke="white" stroke-width="2"/>
<path d="M25.8114 55H27.0714V44.92H25.8114L23.9074 46.054V47.44L25.8114 46.292V55ZM30.2669 55H31.6109L35.2369 46.11V44.92H29.3149V46.11H33.8929L30.2669 55Z" fill="white"/>
</svg>
