<svg width="62" height="116" viewBox="0 0 62 116" fill="none" xmlns="http://www.w3.org/2000/svg">
<path d="M57.6008 38.998L59.1358 35.1605C59.7111 33.7223 60.1749 32.242 60.5232 30.7327C61.1711 27.9253 61.4141 25.0397 61.2449 22.1636L61.2396 22.073C61.0806 19.3694 60.5662 16.6986 59.7098 14.1293L57.6718 8.01529C57.5575 7.6725 57.4117 7.34105 57.2362 7.02519C55.9245 4.66414 53.1657 3.50951 50.5633 4.23241L49.5066 4.52595C47.3005 5.13875 44.9346 4.67133 43.1273 3.26566L42.8623 3.05953C41.9647 2.3614 40.927 1.86517 39.8201 1.60473L35.1257 0.500156C33.7288 0.171487 32.2736 0.181591 30.8815 0.529628L25 2L17.5497 3.77388C15.5748 4.2441 13.4988 4.03279 11.6592 3.17427L9.64607 2.23483C8.17326 1.54752 6.42098 2.15804 5.69413 3.61174L2.73059 9.53882C2.57727 9.84545 2.45603 10.1671 2.36878 10.4986L1.84127 12.5032C0.620721 17.1413 0.105945 21.9367 0.314269 26.7282C0.437843 29.5704 0.815186 32.3958 1.4418 35.1708L4 46.5L5.38543 54.3508C6.45993 60.4396 6.95251 66.613 7.40825 72.7791C7.69424 76.6485 8.17912 81.0377 9 84.5C9.33061 85.8945 9.80475 87.514 10.2977 89.0746C11.6606 93.389 13.5443 97.514 15.627 101.531L19.5 109L21.4253 112.465C21.7259 113.007 22.4408 113.147 22.9241 112.761L23.6483 112.181C24.1062 111.815 24.7797 111.92 25.105 112.408L25.4948 112.992C26.1228 113.934 27.18 114.5 28.3122 114.5C29.0811 114.5 29.8271 114.238 30.4275 113.758L31.3011 113.059C31.699 112.741 32.2726 112.773 32.6329 113.133L34.7199 115.22C35.1378 115.638 35.8239 115.604 36.1949 115.144C37.4756 113.556 40.238 110.081 42 107.5C43.5368 105.248 45.2665 102.279 46.6772 99.7467C48.604 96.2878 49.9849 92.5603 50.9452 88.7191C51.6472 85.9114 52.1116 83.0495 52.3335 80.1638L52.5383 77.502C52.8457 73.5059 52.8319 69.4945 52.7553 65.4874C52.7027 62.7404 52.7291 59.5405 53 57C53.3234 53.9666 54.1869 50.0758 54.9049 47.1662C55.5929 44.3782 56.5343 41.6642 57.6008 38.998Z" fill="#B0D0D4"/>
<path opacity="0.6" d="M39 89.5C39 94.1944 35.1944 98 30.5 98C27.9758 98 25.7095 96.901 24.1513 95.1521C22.8124 93.6493 22 91.6707 22 89.5C22 84.8056 25.8056 81 30.5 81C32.9447 81 35.1471 82.0308 36.6991 83.6844C38.1269 85.2056 39 87.2498 39 89.5Z" stroke="white" stroke-width="2"/>
<path d="M27.8164 25H29.0764V23.138H30.1264V21.962H29.0764V19.12H27.8164V21.962H24.5964L27.9284 14.92H26.5144L23.1824 21.962V23.138H27.8164V25ZM35.3863 18.504C34.4903 18.504 33.6643 18.896 33.0763 19.54V18.182C33.0763 16.978 34.0143 15.9 35.3583 15.9C36.1003 15.9 36.7723 16.278 37.1783 16.852L38.1163 16.026C37.4583 15.186 36.4643 14.71 35.3583 14.71C33.2863 14.71 31.8023 16.208 31.8023 18.322V21.668C31.8023 23.698 33.3143 25.21 35.2463 25.21C37.1223 25.21 38.6763 23.712 38.6763 21.836C38.6763 19.96 37.2623 18.504 35.3863 18.504ZM35.2463 24.006C34.0423 24.006 33.0763 23.026 33.0763 21.836C33.0763 20.632 34.0423 19.652 35.2463 19.652C36.4503 19.652 37.4163 20.632 37.4163 21.836C37.4163 23.04 36.4503 24.006 35.2463 24.006Z" fill="white"/>
</svg>
