<svg width="45" height="121" viewBox="0 0 45 121" fill="none" xmlns="http://www.w3.org/2000/svg">
<path d="M35.5 23.5C35.5 23.5 32.0287 13.8233 29 8C27.8971 5.87937 26.1633 2.94409 25.3923 1.65336C25.1342 1.22134 24.7829 0.855295 24.3642 0.576145C23.8007 0.20047 23.1386 0 22.4613 0H21.8724C21.2946 0 20.7206 0.09315 20.1724 0.275865L19.1764 0.607857C18.3983 0.867239 17.6722 1.26226 17.0317 1.77466C16.0301 2.57592 15.268 3.63737 14.8492 4.8497C14.4202 6.09155 13.8711 7.72701 13.5 9C12.5456 12.2738 11.5 17.5 11.5 17.5L9.5 24.5C9.5 24.5 7.48561 30.2363 6.5 34C5.31306 38.5325 4.22417 45.527 4.03049 46.7983C4.01 46.9327 3.99038 47.0673 3.97114 47.202L2 61L0.964672 66.6943C0.324602 70.2147 0.172039 73.8064 0.511275 77.3684L0.962059 82.1016C0.987352 82.3672 1.01491 82.6293 1.04797 82.894C1.25737 84.5707 2.14214 91.221 3.5 95.5C4.34047 98.1486 5.92662 101.667 6.82848 103.593C7.26943 104.534 7.76356 105.447 8.31702 106.327C9.45981 108.144 11.6082 111.418 13.5 113.5C15.8837 116.123 19.9759 119.184 21.6986 120.429C22.219 120.805 22.8442 121 23.4864 121C24.4431 121 25.3479 120.565 25.9456 119.818L31 113.5L35.3105 107.753C36.4354 106.253 37.4506 104.674 38.3484 103.028L40.5474 98.9965C42.1731 96.016 43.3387 92.8067 44.0045 89.4776C44.3344 87.8282 44.5402 86.1564 44.6202 84.4762L44.7516 81.7169C44.9165 78.2544 44.619 74.7854 43.867 71.4016L43 67.5L42.0616 63.7463C41.3561 60.9243 40.9757 58.0352 40.8448 55.1293C40.657 50.9581 40.2655 44.6397 39.5 40C39.0138 37.0529 38 32.5 38 32.5L35.5 23.5Z" fill="#B0D0D4"/>
<path opacity="0.6" d="M31 91.5C31 96.1944 27.1944 100 22.5 100C19.9758 100 17.7095 98.901 16.1513 97.1521C14.8124 95.6493 14 93.6707 14 91.5C14 86.8056 17.8056 83 22.5 83C24.9447 83 27.1471 84.0308 28.6991 85.6844C30.1269 87.2056 31 89.2498 31 91.5Z" stroke="white" stroke-width="2"/>
<path d="M19.868 29.884C20.904 28.96 21.408 28.302 21.408 26.972C21.408 25.124 19.994 23.71 18.118 23.71C16.186 23.71 14.758 25.054 14.758 26.958H16.032C16.018 25.852 16.9 24.9 18.104 24.9C19.266 24.9 20.134 25.796 20.134 26.958C20.134 27.602 19.924 28.176 19.182 28.848L14.716 32.866L14.702 33.986H21.408V32.796H16.62L19.868 29.884ZM26.2954 27.728L29.0114 25.11V23.92H23.0754V25.11H27.4714L24.1954 28.064L24.7974 29.058C25.1054 28.89 25.4974 28.792 25.8334 28.792C27.0514 28.792 27.8634 29.646 27.8634 30.892C27.8634 32.124 27.0794 32.978 25.8474 33.006C24.9514 33.02 24.1674 32.516 23.8734 31.578L22.6694 31.928C23.1034 33.328 24.3634 34.196 25.8614 34.196C27.7234 34.196 29.1514 32.824 29.1514 30.892C29.1514 29.128 28.0314 27.812 26.2954 27.728Z" fill="white"/>
</svg>
