<svg width="36" height="115" viewBox="0 0 36 115" fill="none" xmlns="http://www.w3.org/2000/svg">
<path d="M8.0002 68C7.76509 64.6076 7.5238 60.2929 7.33715 56.7383C7.10172 52.2546 6.48274 47.8008 5.45439 43.4303C5.15166 42.1437 4.81262 40.8671 4.4554 39.5945C4.00949 38.006 3.39072 35.7312 3.0002 34C1.91237 29.1775 1.49284 26.419 1.0002 21.5C0.67299 18.2327 0.559402 13.8029 0.520274 10.9233C0.494198 9.00428 0.981483 7.11766 1.90049 5.4328C2.94553 3.51691 4.48948 1.88077 6.50315 1.03944C7.01614 0.825103 7.53361 0.632319 8.0002 0.5C9.9791 -0.0611786 12.6839 -8.86772e-05 14.7014 0.165763C16.5697 0.319352 18.4449 0.45028 20.3169 0.351753L24.4711 0.133109C26.1288 0.0458643 27.7807 0.39025 29.2654 1.1326C31.6473 2.32356 33.427 4.4511 34.1784 7.00596L35.0031 9.80994C35.3336 10.9334 35.5432 12.0861 35.6051 13.2555C35.7732 16.4299 36.0331 23.2366 35.5002 28C35.4169 28.7445 35.3021 29.548 35.1671 30.3759C34.0577 37.1789 32.6461 43.9463 32.0933 50.8169C32.0605 51.2253 32.0292 51.6215 32.0002 52C31.5214 58.2422 31.4859 61.7583 31.0002 68C30.6565 72.4162 30.0849 78.1852 29.6405 82.4779C29.2248 86.4938 28.6119 90.4851 27.6932 94.4166C27.18 96.6127 26.5767 99.0432 26.0002 101C25.02 104.327 23.3413 108.92 22.5048 111.161C22.1778 112.037 21.5944 112.79 20.8334 113.333L20.0377 113.902C19.0918 114.577 17.85 114.675 16.8103 114.155C15.9799 113.74 15.376 112.978 15.1609 112.075L13.0002 103L12.3219 100.287C10.7762 94.1039 9.67903 87.8192 9.10691 81.472C8.71498 77.1238 8.28111 72.0531 8.0002 68Z" fill="#B0D0D4"/>
<path d="M14.188 19.728L16.904 17.11V15.92H10.968V17.11H15.364L12.088 20.064L12.69 21.058C12.998 20.89 13.39 20.792 13.726 20.792C14.944 20.792 15.756 21.646 15.756 22.892C15.756 24.124 14.972 24.978 13.74 25.006C12.844 25.02 12.06 24.516 11.766 23.578L10.562 23.928C10.996 25.328 12.256 26.196 13.754 26.196C15.616 26.196 17.044 24.824 17.044 22.892C17.044 21.128 15.924 19.812 14.188 19.728ZM23.7566 21.884C24.7926 20.96 25.2966 20.302 25.2966 18.972C25.2966 17.124 23.8826 15.71 22.0066 15.71C20.0746 15.71 18.6466 17.054 18.6466 18.958H19.9206C19.9066 17.852 20.7886 16.9 21.9926 16.9C23.1546 16.9 24.0226 17.796 24.0226 18.958C24.0226 19.602 23.8126 20.176 23.0706 20.848L18.6046 24.866L18.5906 25.986H25.2966V24.796H20.5086L23.7566 21.884Z" fill="white"/>
<path opacity="0.6" d="M28 77.5C28 82.1944 24.1944 86 19.5 86C16.9758 86 14.7095 84.901 13.1513 83.1521C11.8124 81.6493 11 79.6707 11 77.5C11 72.8056 14.8056 69 19.5 69C21.9447 69 24.1471 70.0308 25.6991 71.6844C27.1269 73.2056 28 75.2498 28 77.5Z" stroke="white" stroke-width="2"/>
</svg>
