<svg width="60" height="97" viewBox="0 0 60 97" fill="none" xmlns="http://www.w3.org/2000/svg">
<path d="M16 34C18.1254 28.7534 20.4221 20.8311 21.2133 18.0275C21.4066 17.3426 21.58 16.6532 21.7401 15.9597L22.3038 13.517C22.7666 11.5112 23.4389 9.55959 24.3094 7.69423L25.9646 4.14725C26.3188 3.38826 26.803 2.69703 27.3952 2.10478L27.909 1.59099C28.9277 0.572296 30.3093 0 31.75 0C33.1907 0 34.5723 0.572297 35.591 1.59099L35.9837 1.98369C36.6538 2.65377 37.1758 3.45701 37.516 4.34148L39.1762 8.65801C39.392 9.2192 39.5889 9.78311 39.7683 10.357C40.4506 12.5397 42.2843 18.4239 43.5 22.5C44.1795 24.7782 44.9639 27.4903 45.7069 30.0911C47.5857 36.6678 50.1783 43.021 53.5 49L55.5134 53.3624C58.147 59.0686 59.6697 65.2241 60 71.5V78.106C60 80.3465 59.5563 82.5648 58.6946 84.6329C57.9048 86.5286 56.7774 88.2651 55.3674 89.7581L51.7196 93.6204C50.0467 95.3917 47.5312 96.092 45.1837 95.4399L40 94L37.9447 93.1346C33.1747 91.1262 27.8054 91.0778 23 93L15.568 95.8902C14.5317 96.2932 13.4295 96.5 12.3176 96.5C10.1767 96.5 8.10655 95.7342 6.48112 94.341L6.40506 94.2758C5.80418 93.7607 5.27196 93.1706 4.82148 92.5199L4.08197 91.4517C2.0662 88.5401 0.890007 85.1301 0.682052 81.5949L0.5 78.5V75.0014C0.5 72.0105 0.845961 69.0297 1.53099 66.1183C2.17509 63.3809 3.11474 60.7221 4.33431 58.1881C5.70297 55.3444 7.57458 51.4567 9 48.5C11.7306 42.8359 13.6391 39.8279 16 34Z" fill="#B0D0D4"/>
<path opacity="0.6" d="M38 76.5C38 81.1944 34.1944 85 29.5 85C26.9758 85 24.7095 83.901 23.1513 82.1521C21.8124 80.6493 21 78.6707 21 76.5C21 71.8056 24.8056 68 29.5 68C31.9447 68 34.1471 69.0308 35.6991 70.6844C37.1269 72.2056 38 74.2498 38 76.5Z" stroke="white" stroke-width="2"/>
<path d="M26.8329 34H28.0929V23.92H26.8329L24.9289 25.054V26.44L26.8329 25.292V34ZM33.9204 27.504C33.2344 27.504 32.5484 27.742 32.0304 28.162L32.2264 25.096H36.5104V23.92H31.0924L30.7844 29.184L31.8904 29.604C32.2544 29.086 32.8844 28.652 33.7804 28.652C34.9564 28.652 35.9504 29.604 35.9504 30.822C35.9504 32.012 34.9984 32.992 33.7804 32.992C32.8424 32.992 31.9324 32.376 31.6804 31.382L30.4764 31.704C30.8824 33.174 32.1844 34.21 33.7384 34.21C35.6144 34.21 37.2104 32.684 37.2104 30.822C37.2104 28.946 35.7824 27.504 33.9204 27.504Z" fill="white"/>
</svg>
