<svg width="41" height="125" viewBox="0 0 41 125" fill="none" xmlns="http://www.w3.org/2000/svg">
<path d="M35.5 63C32.5684 47.2393 27.3019 23.7639 26.2039 18.9011C26.0658 18.2892 25.9439 17.6913 25.8316 17.0741C25.2788 14.0335 24.4005 11.0612 23.2119 8.20856L22.5 6.5L20.8556 2.8C20.6205 2.27119 20.2902 1.79016 19.881 1.38096L19.5902 1.0902C18.8922 0.392158 17.9454 0 16.9582 0C16.6539 0 16.3507 0.0373236 16.0555 0.111135L15.8846 0.153848C14.9786 0.380352 14.1512 0.848831 13.4908 1.5092L13.0827 1.91726C12.6955 2.3045 12.3535 2.73445 12.0632 3.19885L11.426 4.21835C10.4807 5.73085 9.7662 7.37574 9.33017 9.10524C8.76863 11.3326 7.98321 14.5558 7.5 17C5.93582 24.9119 5 37.5 5 37.5C5 37.5 3.48707 49.055 3 56.5C2.69815 61.1139 2.57788 67.3961 2.53039 71.3236C2.50076 73.7749 2.34404 76.2177 2.06337 78.6531C1.70843 81.733 1.23015 86.1598 1 89.5C0.802346 92.3686 0.671618 96.1205 0.593578 98.9407C0.518745 101.645 0.641363 104.35 1.08439 107.019C1.42904 109.095 1.91287 111.587 2.5 113.5C2.9098 114.835 3.54484 116.458 4.12532 117.853C4.98728 119.923 6.50588 121.64 8.398 122.844C10.1036 123.93 12.0592 124.56 14.0801 124.615C16.6321 124.684 20.27 124.721 23 124.5C25.2134 124.321 28.0998 123.869 30.2023 123.507C32.0368 123.192 33.734 122.348 35.1252 121.111C36.673 119.735 37.781 117.93 38.255 115.914C38.5209 114.783 38.8024 113.53 39 112.5C39.4375 110.221 39.7962 107.308 40.053 104.867C40.3935 101.632 40.3563 98.3714 40.0703 95.1303L39.3792 87.298C39.1265 84.4338 38.7625 81.581 38.2782 78.7467C37.5503 74.4866 36.4076 67.8796 35.5 63Z" fill="#B0D0D4"/>
<path opacity="0.6" d="M29 102.5C29 107.194 25.1944 111 20.5 111C17.9758 111 15.7095 109.901 14.1513 108.152C12.8124 106.649 12 104.671 12 102.5C12 97.8056 15.8056 94 20.5 94C22.9447 94 25.1471 95.0308 26.6991 96.6844C28.1269 98.2056 29 100.25 29 102.5Z" stroke="white" stroke-width="2"/>
<path d="M15.2586 31.884C16.2946 30.96 16.7986 30.302 16.7986 28.972C16.7986 27.124 15.3846 25.71 13.5086 25.71C11.5766 25.71 10.1486 27.054 10.1486 28.958H11.4226C11.4086 27.852 12.2906 26.9 13.4946 26.9C14.6566 26.9 15.5246 27.796 15.5246 28.958C15.5246 29.602 15.3146 30.176 14.5726 30.848L10.1066 34.866L10.0926 35.986H16.7986V34.796H12.0106L15.2586 31.884ZM23.366 31.884C24.402 30.96 24.906 30.302 24.906 28.972C24.906 27.124 23.492 25.71 21.616 25.71C19.684 25.71 18.256 27.054 18.256 28.958H19.53C19.516 27.852 20.398 26.9 21.602 26.9C22.764 26.9 23.632 27.796 23.632 28.958C23.632 29.602 23.422 30.176 22.68 30.848L18.214 34.866L18.2 35.986H24.906V34.796H20.118L23.366 31.884Z" fill="white"/>
</svg>
