<svg width="52" height="110" viewBox="0 0 52 110" fill="none" xmlns="http://www.w3.org/2000/svg">
<path d="M0.701564 25.364L0.836965 22.2498C0.945408 19.7556 1.2911 17.2774 1.86935 14.8487L3.15411 9.45273C3.38289 8.49188 3.78047 7.57929 4.32835 6.75747C6.69892 3.20162 11.3733 2.01225 15.1551 4.00267L18 5.5L23.6182 9.01137C25.0723 9.92018 26.9202 9.90841 28.3627 8.98115L32.0415 6.6162C32.679 6.20634 33.3543 5.85829 34.058 5.57679L35.9562 4.81753C38.7644 3.69425 41.9597 4.16775 44.3214 6.05716C45.1009 6.68072 45.763 7.43826 46.2765 8.2942L47.5422 10.4036C49.162 13.1033 50.1963 16.1154 50.4697 19.2518C50.7507 22.4749 51.0454 26.7278 51 30C50.9881 30.8596 50.951 31.7746 50.8949 32.7201C50.2703 43.2393 46.0561 53.0804 42.5 63C40.1824 69.4647 39.6291 73.3285 38 80C36.7356 85.1782 35.061 92.8969 34.6138 94.971C34.5369 95.3274 34.4558 95.6768 34.3674 96.0305L31.9517 105.693C31.6601 106.859 30.9628 107.884 29.9846 108.582L29.5489 108.894C28.5702 109.593 27.3262 109.807 26.1698 109.477C25.1058 109.173 24.2182 108.436 23.7234 107.447L22.0168 104.034C21.673 103.346 21.3925 102.628 21.182 101.889C20.5895 99.808 19.3041 95.2412 18.5 92C17.9845 89.9221 17.4344 87.452 16.9266 85.0641C15.5756 78.7106 13.9318 72.4186 11.7323 66.3068C10.6633 63.3365 9.4955 60.1332 8.5 57.5C7.29699 54.318 5.70751 50.2809 4.4015 46.9965C2.81597 43.0092 1.70674 38.8494 1.12697 34.5978C0.709829 31.5387 0.567458 28.4485 0.701564 25.364Z" fill="#B0D0D4"/>
<path opacity="0.6" d="M35 70.5C35 75.1944 31.1944 79 26.5 79C23.9758 79 21.7095 77.901 20.1513 76.1521C18.8124 74.6493 18 72.6707 18 70.5C18 65.8056 21.8056 62 26.5 62C28.9447 62 31.1471 63.0308 32.6991 64.6844C34.1269 66.2056 35 68.2498 35 70.5Z" stroke="white" stroke-width="2"/>
<path d="M22.6743 22.728L25.3903 20.11V18.92H19.4543V20.11H23.8503L20.5743 23.064L21.1763 24.058C21.4843 23.89 21.8763 23.792 22.2123 23.792C23.4303 23.792 24.2423 24.646 24.2423 25.892C24.2423 27.124 23.4583 27.978 22.2263 28.006C21.3303 28.02 20.5463 27.516 20.2523 26.578L19.0483 26.928C19.4823 28.328 20.7423 29.196 22.2403 29.196C24.1023 29.196 25.5303 27.824 25.5303 25.892C25.5303 24.128 24.4103 22.812 22.6743 22.728ZM30.521 22.504C29.835 22.504 29.149 22.742 28.631 23.162L28.827 20.096H33.111V18.92H27.693L27.385 24.184L28.491 24.604C28.855 24.086 29.485 23.652 30.381 23.652C31.557 23.652 32.551 24.604 32.551 25.822C32.551 27.012 31.599 27.992 30.381 27.992C29.443 27.992 28.533 27.376 28.281 26.382L27.077 26.704C27.483 28.174 28.785 29.21 30.339 29.21C32.215 29.21 33.811 27.684 33.811 25.822C33.811 23.946 32.383 22.504 30.521 22.504Z" fill="white"/>
</svg>
