<svg width="48" height="59" viewBox="0 0 48 59" fill="none" xmlns="http://www.w3.org/2000/svg">
<path d="M2 0.5H46C46.8284 0.5 47.5 1.17157 47.5 2V52.3045L41.7811 58.5H2C1.17157 58.5 0.5 57.8284 0.5 57V2C0.5 1.17157 1.17157 0.5 2 0.5Z" stroke="#29A5B1"/>
<path d="M4.05 15H7.38C7.59 15 8.25 15 8.745 14.925C11.25 14.595 12.54 12.36 12.54 9.6C12.54 6.84 11.25 4.59 8.745 4.26C8.235 4.2 7.59 4.2 7.38 4.2H4.05V15ZM5.43 13.725V5.475H7.38C7.74 5.475 8.28 5.49 8.64 5.55C10.38 5.865 11.13 7.56 11.13 9.6C11.13 11.595 10.41 13.32 8.64 13.635C8.28 13.71 7.755 13.725 7.38 13.725H5.43ZM18.7 15.225C21.94 15.225 23.74 12.93 23.74 9.6C23.74 6.27 21.94 3.975 18.7 3.975C15.475 3.975 13.66 6.27 13.66 9.6C13.66 12.93 15.475 15.225 18.7 15.225ZM18.7 13.95C16.285 13.935 15.07 12.18 15.085 9.6C15.1 7.005 16.285 5.235 18.7 5.25C21.115 5.265 22.33 7.005 22.33 9.6C22.33 12.18 21.115 13.965 18.7 13.95ZM29.6863 15.225C32.1913 15.225 33.8263 13.845 34.4413 11.7L33.0913 11.34C32.6413 12.945 31.5163 13.95 29.6863 13.95C27.2713 13.95 26.0413 12.18 26.0563 9.6C26.0713 7.005 27.2713 5.25 29.6863 5.25C31.5163 5.25 32.6413 6.24 33.0913 7.845L34.4413 7.485C33.8263 5.34 32.1913 3.975 29.6863 3.975C26.4613 3.975 24.6463 6.27 24.6463 9.6C24.6463 12.93 26.4613 15.225 29.6863 15.225ZM34.732 15H36.367L39.262 10.665L42.142 15H43.777L40.072 9.525L43.687 4.2H42.052L39.262 8.4L36.457 4.2H34.837L38.452 9.525L34.732 15Z" fill="#29A5B1"/>
</svg>
