<svg width="89" height="79" viewBox="0 0 89 79" fill="none" xmlns="http://www.w3.org/2000/svg">
<path d="M10.3179 23.2102V54.2654C10.3179 56.6869 11.6119 58.9168 13.732 60.1344L40.7974 75.662C42.9037 76.8659 45.5057 76.8659 47.612 75.662L74.6774 60.1344C76.7837 58.9305 78.0915 56.6869 78.0915 54.2654V23.2102C78.0915 20.7887 76.7975 18.5588 74.6774 17.3412L47.612 1.81357C45.5057 0.609669 42.9037 0.609669 40.7974 1.81357L13.732 17.3548C11.6119 18.5588 10.3179 20.8024 10.3179 23.2102Z" fill="#303032"/>
<path d="M40.9177 33.5413L49.9849 38.7762L40.9177 44.0112L40.9177 33.5413Z" stroke="white"/>
<path opacity="0.3" d="M61.9572 0.910643L26.3553 0.910642C23.5793 0.910642 21.0229 2.37344 19.627 4.77L1.82611 35.365C0.445953 37.746 0.445953 40.6872 1.82611 43.0682L19.627 73.6632C21.0072 76.0442 23.5793 77.5226 26.3553 77.5226L61.9572 77.5226C64.7332 77.5226 67.2896 76.0598 68.6854 73.6632L86.4864 43.0682C87.8665 40.6872 87.8665 37.746 86.4864 35.365L68.6698 4.77C67.2896 2.37345 64.7175 0.910644 61.9572 0.910643Z" stroke="white" stroke-miterlimit="10"/>
</svg>
