<svg width="6" height="14" viewBox="0 0 6 14" fill="none" xmlns="http://www.w3.org/2000/svg">
<path d="M4.68035 8.00124C4.74695 7.4634 4.80734 6.92225 4.86229 6.39062L0.755859 7.39252C0.814886 7.90202 0.878963 8.4119 0.948669 8.91188L4.68035 8.00124Z" fill="#29A5B1"/>
<path d="M0.453125 4.3366C0.494094 4.82357 0.540499 5.33889 0.592729 5.86838L5.01526 4.78901C5.06516 4.21893 5.10826 3.68012 5.14418 3.19141L0.453125 4.3366Z" fill="#29A5B1"/>
<path d="M5.25144 1.59802C5.286 1.03494 5.30211 0.701172 5.30211 0.701172H0.201172C0.201172 0.701172 0.242336 1.53881 0.332623 2.79856L5.25144 1.59802Z" fill="#29A5B1"/>
<path d="M1.91602 13.3747C2.16435 14.0034 2.44337 14.0001 2.75617 14.0001C3.13751 14.0001 3.46896 13.8209 3.75477 12.9258L1.91602 13.3747Z" fill="#29A5B1"/>
<path d="M4.17064 11.2573C4.27355 10.7459 4.36888 10.1941 4.45664 9.62109L1.18164 10.4205C1.27406 10.9521 1.37387 11.4552 1.48124 11.9134L4.17064 11.2573Z" fill="#29A5B1"/>
</svg>
