<svg width="420" height="588" viewBox="0 0 420 588" fill="none" xmlns="http://www.w3.org/2000/svg">
<g opacity="0.1">
<path d="M218.095 500.919C216.282 500.919 214.539 500.919 212.796 500.989C157.579 502.523 121.883 518.837 121.883 542.542C121.883 567.641 162.738 587.371 214.888 587.371C217.746 587.371 220.117 585.001 220.117 582.142C220.117 579.284 217.746 576.913 214.888 576.913C166.224 576.913 132.341 558.786 132.341 542.542C132.341 525.809 166.294 512.702 213.075 511.447C254.628 510.332 287.187 522.672 288.093 528.319C288.093 528.319 287.675 529.295 285.235 530.829C282.794 532.363 282.027 535.57 283.492 538.01C285.025 540.45 288.232 541.217 290.673 539.753C299.248 534.454 298.969 528.459 298.063 525.321C293.74 510.471 253.582 500.919 218.095 500.919Z" fill="white"/>
<path d="M218.095 500.919C216.282 500.919 214.539 500.919 212.796 500.989C157.579 502.523 121.883 518.837 121.883 542.542C121.883 567.641 162.738 587.371 214.888 587.371C217.746 587.371 220.117 585.001 220.117 582.142C220.117 579.284 217.746 576.913 214.888 576.913C166.224 576.913 132.341 558.786 132.341 542.542C132.341 525.809 166.294 512.702 213.075 511.447C254.628 510.332 287.187 522.672 288.093 528.319C288.093 528.319 287.675 529.295 285.235 530.829C282.794 532.363 282.027 535.57 283.492 538.01C285.025 540.45 288.232 541.217 290.673 539.753C299.248 534.454 298.969 528.459 298.063 525.321C293.74 510.471 253.582 500.919 218.095 500.919Z" stroke="#37C0B9"/>
<path d="M127.882 471.423C126.766 471.423 125.651 471.772 124.744 472.469C114.565 480.208 109.615 490.247 109.615 502.936C109.615 531.173 156.606 553.273 216.634 553.273C241.384 553.273 267.529 551.6 291.164 539.399C293.743 538.075 294.719 534.937 293.395 532.358C292.07 529.778 288.933 528.802 286.353 530.127C268.923 539.12 248.705 542.816 216.634 542.816C158.837 542.816 120.073 522.179 120.073 502.936C120.073 493.524 123.559 486.483 131.089 480.766C133.389 479.023 133.808 475.746 132.065 473.445C131.019 472.19 129.485 471.423 127.882 471.423Z" fill="white"/>
<path d="M127.882 471.423C126.766 471.423 125.651 471.772 124.744 472.469C114.565 480.208 109.615 490.247 109.615 502.936C109.615 531.173 156.606 553.273 216.634 553.273C241.384 553.273 267.529 551.6 291.164 539.399C293.743 538.075 294.719 534.937 293.395 532.358C292.07 529.778 288.933 528.802 286.353 530.127C268.923 539.12 248.705 542.816 216.634 542.816C158.837 542.816 120.073 522.179 120.073 502.936C120.073 493.524 123.559 486.483 131.089 480.766C133.389 479.023 133.808 475.746 132.065 473.445C131.019 472.19 129.485 471.423 127.882 471.423Z" stroke="#37C0B9"/>
<path d="M221.93 449.951H221.93C220.396 449.951 218.793 449.951 217.259 450.021C171.872 451.136 137.431 459.99 122.65 474.213C120.559 476.235 120.489 479.512 122.511 481.603C124.533 483.695 127.81 483.765 129.901 481.743C142.59 469.472 175.358 461.524 217.538 460.479C262.925 459.224 300.016 474.143 300.364 480.349C300.364 480.349 300.016 481.464 297.087 483.068C294.578 484.462 293.671 487.669 295.066 490.179C296.46 492.689 299.667 493.595 302.177 492.201C311.45 487.042 311.31 480.837 310.404 477.56C306.011 461.455 260.345 449.951 221.93 449.951Z" fill="white"/>
<path d="M221.93 449.951H221.93C220.396 449.951 218.793 449.951 217.259 450.021C171.872 451.136 137.431 459.99 122.65 474.213C120.559 476.235 120.489 479.512 122.511 481.603C124.533 483.695 127.81 483.765 129.901 481.743C142.59 469.472 175.358 461.524 217.538 460.479C262.925 459.224 300.016 474.143 300.364 480.349C300.364 480.349 300.016 481.464 297.087 483.068C294.578 484.462 293.671 487.669 295.066 490.179C296.46 492.689 299.667 493.595 302.177 492.201C311.45 487.042 311.31 480.837 310.404 477.56C306.011 461.455 260.345 449.951 221.93 449.951Z" stroke="#37C0B9"/>
<path d="M116.866 428.967C115.681 428.967 114.495 429.385 113.519 430.152C103.062 438.797 99.3664 451.068 104.107 461.456C113.659 482.232 154.166 504.682 220.538 504.682C247.519 504.682 276.034 503.218 301.621 492.481C304.271 491.365 305.526 488.298 304.41 485.648C303.295 482.999 300.227 481.744 297.578 482.86C273.664 492.899 246.404 494.293 220.538 494.293C161.556 494.293 122.095 475.609 113.659 457.203C110.94 451.277 113.519 443.887 120.212 438.309C122.443 436.496 122.792 433.15 120.91 430.919C119.864 429.594 118.33 428.967 116.866 428.967Z" fill="white"/>
<path d="M116.866 428.967C115.681 428.967 114.495 429.385 113.519 430.152C103.062 438.797 99.3664 451.068 104.107 461.456C113.659 482.232 154.166 504.682 220.538 504.682C247.519 504.682 276.034 503.218 301.621 492.481C304.271 491.365 305.526 488.298 304.41 485.648C303.295 482.999 300.227 481.744 297.578 482.86C273.664 492.899 246.404 494.293 220.538 494.293C161.556 494.293 122.095 475.609 113.659 457.203C110.94 451.277 113.519 443.887 120.212 438.309C122.443 436.496 122.792 433.15 120.91 430.919C119.864 429.594 118.33 428.967 116.866 428.967Z" stroke="#37C0B9"/>
<path d="M223.183 400.871C221.371 400.871 219.558 400.871 217.745 400.94C169.221 402.056 129.063 413.002 113.097 429.525C111.075 431.617 111.145 434.893 113.236 436.915C115.328 438.937 118.605 438.867 120.627 436.776C134.361 422.623 173.474 412.374 218.024 411.398C269.686 410.213 310.681 425.412 311.238 431.965C311.169 432.174 310.471 433.22 308.101 434.615C305.591 436.079 304.755 439.286 306.219 441.796C307.683 444.305 310.89 445.142 313.4 443.678C322.393 438.449 322.254 432.244 321.348 429.037C316.607 412.374 266.827 400.871 223.183 400.871Z" fill="white"/>
<path d="M223.183 400.871C221.371 400.871 219.558 400.871 217.745 400.94C169.221 402.056 129.063 413.002 113.097 429.525C111.075 431.617 111.145 434.893 113.236 436.915C115.328 438.937 118.605 438.867 120.627 436.776C134.361 422.623 173.474 412.374 218.024 411.398C269.686 410.213 310.681 425.412 311.238 431.965C311.169 432.174 310.471 433.22 308.101 434.615C305.591 436.079 304.755 439.286 306.219 441.796C307.683 444.305 310.89 445.142 313.4 443.678C322.393 438.449 322.254 432.244 321.348 429.037C316.607 412.374 266.827 400.871 223.183 400.871Z" stroke="#37C0B9"/>
<path d="M220.539 355.762C152.284 355.762 90.1641 381.697 90.1641 410.212C90.1641 440.261 157.792 456.436 221.445 456.436H230.299C260.348 456.575 284.122 456.645 312.777 443.886C315.426 442.701 316.612 439.634 315.426 436.984C314.241 434.335 311.173 433.15 308.524 434.335C281.935 446.098 260.349 446.048 230.447 445.978L230.299 445.978H221.375C150.192 445.978 100.552 427.154 100.552 410.212C100.552 392.504 150.889 366.219 220.469 366.219C223.327 366.219 225.698 363.849 225.698 360.991C225.768 358.132 223.397 355.762 220.539 355.762Z" fill="white"/>
<path d="M220.539 355.762C152.284 355.762 90.1641 381.697 90.1641 410.212C90.1641 440.261 157.792 456.436 221.445 456.436H230.299C260.348 456.575 284.122 456.645 312.777 443.886C315.426 442.701 316.612 439.634 315.426 436.984C314.241 434.335 311.173 433.15 308.524 434.335C281.935 446.098 260.349 446.048 230.447 445.978L230.299 445.978H221.375C150.192 445.978 100.552 427.154 100.552 410.212C100.552 392.504 150.889 366.219 220.469 366.219C223.327 366.219 225.698 363.849 225.698 360.991C225.768 358.132 223.397 355.762 220.539 355.762Z" stroke="#37C0B9"/>
<path d="M223.256 355.688C196.902 355.688 173.965 358.686 153.607 364.822L151.167 365.519L150.999 365.569C135.712 370.155 119.869 374.908 102.642 387.62C100.342 389.363 99.7839 392.57 101.527 394.94C103.27 397.241 106.547 397.799 108.847 396.056C124.743 384.413 139.036 380.09 154.234 375.558L156.675 374.861C179.682 367.959 206.315 365.17 237.967 366.495C267.946 367.68 290.884 371.584 310.056 378.626C318.074 381.554 323.512 385.598 324 387.271C323.986 387.271 323.947 387.308 323.872 387.377C323.579 387.651 322.741 388.431 320.793 389.432C318.214 390.757 317.238 393.894 318.562 396.474C319.887 399.054 323.024 400.03 325.604 398.705C333.273 394.731 334.667 389.92 334.458 386.574C333.9 377.51 321.212 371.515 313.682 368.726C293.463 361.266 269.55 357.222 238.385 355.967C233.156 355.758 228.137 355.688 223.256 355.688Z" fill="white"/>
<path d="M223.256 355.688C196.902 355.688 173.965 358.686 153.607 364.822L151.167 365.519L150.999 365.569C135.712 370.155 119.869 374.908 102.642 387.62C100.342 389.363 99.7839 392.57 101.527 394.94C103.27 397.241 106.547 397.799 108.847 396.056C124.743 384.413 139.036 380.09 154.234 375.558L156.675 374.861C179.682 367.959 206.315 365.17 237.967 366.495C267.946 367.68 290.884 371.584 310.056 378.626C318.074 381.554 323.512 385.598 324 387.271C323.986 387.271 323.947 387.308 323.872 387.377C323.579 387.651 322.741 388.431 320.793 389.432C318.214 390.757 317.238 393.894 318.562 396.474C319.887 399.054 323.024 400.03 325.604 398.705C333.273 394.731 334.667 389.92 334.458 386.574C333.9 377.51 321.212 371.515 313.682 368.726C293.463 361.266 269.55 357.222 238.385 355.967C233.156 355.758 228.137 355.688 223.256 355.688Z" stroke="#37C0B9"/>
<path d="M81.6589 325.501C80.1251 325.501 78.5913 326.198 77.5455 327.523C72.0377 334.494 69.8764 342.721 71.1313 351.366C72.8046 362.382 80.404 373.746 91.071 381.067C110.174 394.244 133.53 400.379 149.426 403.935C180.66 410.837 212.103 411.395 241.594 411.395H241.734C268.576 411.395 297.3 409.861 324.978 398.915C327.628 397.869 328.952 394.801 327.907 392.152C326.861 389.503 323.793 388.108 321.144 389.224C295.069 399.542 267.6 400.937 241.734 400.937H241.594C212.661 400.937 181.845 400.379 151.657 393.686C136.598 390.339 114.566 384.553 96.9274 372.422C88.6308 366.705 82.635 357.99 81.38 349.763C80.4737 343.976 81.9378 338.678 85.6329 334.006C87.4456 331.706 87.0273 328.429 84.7265 326.686C83.9596 325.849 82.7744 325.501 81.6589 325.501Z" fill="white"/>
<path d="M81.6589 325.501C80.1251 325.501 78.5913 326.198 77.5455 327.523C72.0377 334.494 69.8764 342.721 71.1313 351.366C72.8046 362.382 80.404 373.746 91.071 381.067C110.174 394.244 133.53 400.379 149.426 403.935C180.66 410.837 212.103 411.395 241.594 411.395H241.734C268.576 411.395 297.3 409.861 324.978 398.915C327.628 397.869 328.952 394.801 327.907 392.152C326.861 389.503 323.793 388.108 321.144 389.224C295.069 399.542 267.6 400.937 241.734 400.937H241.594C212.661 400.937 181.845 400.379 151.657 393.686C136.598 390.339 114.566 384.553 96.9274 372.422C88.6308 366.705 82.635 357.99 81.38 349.763C80.4737 343.976 81.9378 338.678 85.6329 334.006C87.4456 331.706 87.0273 328.429 84.7265 326.686C83.9596 325.849 82.7744 325.501 81.6589 325.501Z" stroke="#37C0B9"/>
<path d="M223.463 285.623H223.462C220.952 285.623 218.443 285.623 215.934 285.692C151.722 287.366 96.714 304.516 75.7983 329.406C73.9159 331.637 74.1947 334.914 76.4257 336.796C78.6567 338.679 81.9335 338.4 83.816 336.169C102.919 313.51 154.929 297.754 216.282 296.15C282.446 294.477 339.127 315.253 343.659 329.615L343.674 329.667C343.969 330.691 344.805 333.593 338.5 337.842C336.129 339.446 335.432 342.722 337.036 345.093C338.639 347.463 341.916 348.161 344.286 346.557C355.581 339.027 354.953 330.731 353.629 326.478C346.657 304.795 284.677 285.623 223.463 285.623Z" fill="white"/>
<path d="M223.463 285.623H223.462C220.952 285.623 218.443 285.623 215.934 285.692C151.722 287.366 96.714 304.516 75.7983 329.406C73.9159 331.637 74.1947 334.914 76.4257 336.796C78.6567 338.679 81.9335 338.4 83.816 336.169C102.919 313.51 154.929 297.754 216.282 296.15C282.446 294.477 339.127 315.253 343.659 329.615L343.674 329.667C343.969 330.691 344.805 333.593 338.5 337.842C336.129 339.446 335.432 342.722 337.036 345.093C338.639 347.463 341.916 348.161 344.286 346.557C355.581 339.027 354.953 330.731 353.629 326.478C346.657 304.795 284.677 285.623 223.463 285.623Z" stroke="#37C0B9"/>
<path d="M72.1064 250.136C70.7818 250.136 69.4571 250.624 68.4113 251.6C53.2126 266.52 47.6351 279.627 49.1689 296.987C52.5154 336.378 126.348 366.148 220.887 366.148H232.879C273.316 366.358 305.247 366.427 343.662 346.836C346.242 345.512 347.288 342.374 345.963 339.795C344.638 337.215 341.501 336.169 338.921 337.494C302.945 355.863 273.723 355.762 233.577 355.623L232.879 355.621H220.817C124.326 355.621 61.9972 324.735 59.557 296.081C58.581 284.368 60.9514 273.562 75.7318 259.06C77.8234 257.038 77.8234 253.761 75.8016 251.67C74.8255 250.624 73.5008 250.136 72.1064 250.136Z" fill="white"/>
<path d="M72.1064 250.136C70.7818 250.136 69.4571 250.624 68.4113 251.6C53.2126 266.52 47.6351 279.627 49.1689 296.987C52.5154 336.378 126.348 366.148 220.887 366.148H232.879C273.316 366.358 305.247 366.427 343.662 346.836C346.242 345.512 347.288 342.374 345.963 339.795C344.638 337.215 341.501 336.169 338.921 337.494C302.945 355.863 273.723 355.762 233.577 355.623L232.879 355.621H220.817C124.326 355.621 61.9972 324.735 59.557 296.081C58.581 284.368 60.9514 273.562 75.7318 259.06C77.8234 257.038 77.8234 253.761 75.8016 251.67C74.8255 250.624 73.5008 250.136 72.1064 250.136Z" stroke="#37C0B9"/>
<path d="M230.231 201.137C227.373 201.137 224.514 201.206 221.725 201.276C155.492 203.089 95.534 223.865 65.2062 255.448C63.1844 257.539 63.2541 260.816 65.3457 262.838C67.4372 264.86 70.714 264.79 72.7359 262.698C95.1157 239.412 146.011 213.825 222.004 211.734C291.445 209.782 361.512 232.928 368.066 252.519C368.623 254.123 370.018 258.306 361.861 264.093C359.49 265.766 358.933 269.043 360.606 271.413C362.279 273.784 365.556 274.342 367.926 272.668C380.545 263.744 379.639 254.193 378.036 249.243C369.46 223.586 299.044 201.137 230.231 201.137Z" fill="white"/>
<path d="M230.231 201.137C227.373 201.137 224.514 201.206 221.725 201.276C155.492 203.089 95.534 223.865 65.2062 255.448C63.1844 257.539 63.2541 260.816 65.3457 262.838C67.4372 264.86 70.714 264.79 72.7359 262.698C95.1157 239.412 146.011 213.825 222.004 211.734C291.445 209.782 361.512 232.928 368.066 252.519C368.623 254.123 370.018 258.306 361.861 264.093C359.49 265.766 358.933 269.043 360.606 271.413C362.279 273.784 365.556 274.342 367.926 272.668C380.545 263.744 379.639 254.193 378.036 249.243C369.46 223.586 299.044 201.137 230.231 201.137Z" stroke="#37C0B9"/>
<path d="M50.5649 160.971C49.4494 160.971 48.3339 161.32 47.3578 162.087C28.7428 176.658 25.1871 199.038 28.1153 215.073C36.4816 261.297 122.097 296.156 227.372 296.156L241.037 296.226C287.122 296.435 323.515 296.575 367.298 273.01C369.808 271.615 370.784 268.478 369.39 265.898C367.996 263.388 364.858 262.412 362.279 263.807C320.866 286.117 287.4 285.977 241.037 285.768L227.303 285.699C117.216 285.699 44.7782 248.817 38.2943 213.191C36.0633 200.711 38.7126 182.026 53.7022 170.314C56.0029 168.501 56.3515 165.224 54.6086 162.993C53.6325 161.668 52.0987 160.971 50.5649 160.971Z" fill="white"/>
<path d="M50.5649 160.971C49.4494 160.971 48.3339 161.32 47.3578 162.087C28.7428 176.658 25.1871 199.038 28.1153 215.073C36.4816 261.297 122.097 296.156 227.372 296.156L241.037 296.226C287.122 296.435 323.515 296.575 367.298 273.01C369.808 271.615 370.784 268.478 369.39 265.898C367.996 263.388 364.858 262.412 362.279 263.807C320.866 286.117 287.4 285.977 241.037 285.768L227.303 285.699C117.216 285.699 44.7782 248.817 38.2943 213.191C36.0633 200.711 38.7126 182.026 53.7022 170.314C56.0029 168.501 56.3515 165.224 54.6086 162.993C53.6325 161.668 52.0987 160.971 50.5649 160.971Z" stroke="#37C0B9"/>
<path d="M229.805 116.555C226.529 116.555 223.252 116.624 219.975 116.694C137.567 118.716 67.0114 139.213 40.1696 168.914C38.2175 171.075 38.4266 174.352 40.5182 176.304C42.6795 178.256 45.9563 178.047 47.9084 175.955C72.8678 148.277 140.565 129.104 220.184 127.152C307.263 124.991 381.026 150.856 386.325 168.635C386.743 169.89 387.858 173.794 379.004 179.371C376.564 180.905 375.797 184.112 377.331 186.552C378.865 188.993 382.072 189.76 384.512 188.226C397.41 180.138 398.037 171.493 396.294 165.637C388.625 139.562 309.215 116.555 229.805 116.555Z" fill="white"/>
<path d="M229.805 116.555C226.529 116.555 223.252 116.624 219.975 116.694C137.567 118.716 67.0114 139.213 40.1696 168.914C38.2175 171.075 38.4266 174.352 40.5182 176.304C42.6795 178.256 45.9563 178.047 47.9084 175.955C72.8678 148.277 140.565 129.104 220.184 127.152C307.263 124.991 381.026 150.856 386.325 168.635C386.743 169.89 387.858 173.794 379.004 179.371C376.564 180.905 375.797 184.112 377.331 186.552C378.865 188.993 382.072 189.76 384.512 188.226C397.41 180.138 398.037 171.493 396.294 165.637C388.625 139.562 309.215 116.555 229.805 116.555Z" stroke="#37C0B9"/>
<path d="M29.0864 75.1418C28.1103 75.1418 27.0645 75.4208 26.2279 76.0482C4.89388 90.2709 -2.49634 106.515 1.54736 130.429C9.35589 176.723 105.986 211.582 226.322 211.582L241.799 211.652C293.81 211.861 334.874 212 384.165 188.505C386.745 187.25 387.861 184.113 386.606 181.533C385.351 178.954 382.213 177.838 379.634 179.093C332.504 201.543 294.507 201.403 241.799 201.194L226.322 201.124C99.7118 201.124 17.8616 164.313 11.7961 128.686C9.0073 112.232 11.3777 98.4281 31.9449 84.7631C34.3153 83.1596 35.0125 79.8828 33.409 77.5123C32.4329 75.9785 30.7596 75.1418 29.0864 75.1418Z" fill="white"/>
<path d="M29.0864 75.1418C28.1103 75.1418 27.0645 75.4208 26.2279 76.0482C4.89388 90.2709 -2.49634 106.515 1.54736 130.429C9.35589 176.723 105.986 211.582 226.322 211.582L241.799 211.652C293.81 211.861 334.874 212 384.165 188.505C386.745 187.25 387.861 184.113 386.606 181.533C385.351 178.954 382.213 177.838 379.634 179.093C332.504 201.543 294.507 201.403 241.799 201.194L226.322 201.124C99.7118 201.124 17.8616 164.313 11.7961 128.686C9.0073 112.232 11.3777 98.4281 31.9449 84.7631C34.3153 83.1596 35.0125 79.8828 33.409 77.5123C32.4329 75.9785 30.7596 75.1418 29.0864 75.1418Z" stroke="#37C0B9"/>
<path d="M229.808 32.0682C226.324 32.0682 222.839 32.1379 219.355 32.2076L219.35 32.2077C125.997 34.2295 46.0986 54.5875 15.7709 84.2181C13.6793 86.2399 13.6793 89.5167 15.7011 91.6083C17.723 93.6998 20.9998 93.6999 23.0914 91.678C51.6064 63.8601 128.785 44.6177 219.629 42.6655C317.585 40.5042 404.454 66.5791 409.335 84.7061C410.381 88.5406 405.291 92.3054 400.829 94.7456C398.319 96.14 397.343 99.3471 398.807 101.857C400.202 104.367 403.409 105.343 405.919 103.879C419.932 96.14 421.048 87.704 419.444 81.9871C411.566 52.9142 313.541 32.0682 229.808 32.0682Z" fill="white"/>
<path d="M229.808 32.0682C226.324 32.0682 222.839 32.1379 219.355 32.2076L219.35 32.2077C125.997 34.2295 46.0986 54.5875 15.7709 84.2181C13.6793 86.2399 13.6793 89.5167 15.7011 91.6083C17.723 93.6998 20.9998 93.6999 23.0914 91.678C51.6064 63.8601 128.785 44.6177 219.629 42.6655C317.585 40.5042 404.454 66.5791 409.335 84.7061C410.381 88.5406 405.291 92.3054 400.829 94.7456C398.319 96.14 397.343 99.3471 398.807 101.857C400.202 104.367 403.409 105.343 405.919 103.879C419.932 96.14 421.048 87.704 419.444 81.9871C411.566 52.9142 313.541 32.0682 229.808 32.0682Z" stroke="#37C0B9"/>
<path d="M76.009 0.268974C75.6604 0.268974 75.3816 0.26899 75.033 0.338707C26.2296 9.33246 0.433594 26.7622 0.433594 50.6758C0.433594 97.8059 87.0944 127.088 226.532 127.088L244.171 127.158C305.454 127.367 349.656 127.506 405.362 104.15C408.011 103.035 409.266 99.9672 408.15 97.3179C407.035 94.6685 403.967 93.4136 401.318 94.5291C347.565 117.048 304.199 116.909 244.241 116.7L226.602 116.63C97.6219 116.63 10.9612 90.1368 10.9612 50.6758C10.9612 32.9672 35.0142 18.3959 77.0548 10.6571C79.9133 10.1691 81.7957 7.38033 81.238 4.59157C80.6802 2.01197 78.5189 0.268974 76.009 0.268974Z" fill="white"/>
<path d="M76.009 0.268974C75.6604 0.268974 75.3816 0.26899 75.033 0.338707C26.2296 9.33246 0.433594 26.7622 0.433594 50.6758C0.433594 97.8059 87.0944 127.088 226.532 127.088L244.171 127.158C305.454 127.367 349.656 127.506 405.362 104.15C408.011 103.035 409.266 99.9672 408.15 97.3179C407.035 94.6685 403.967 93.4136 401.318 94.5291C347.565 117.048 304.199 116.909 244.241 116.7L226.602 116.63C97.6219 116.63 10.9612 90.1368 10.9612 50.6758C10.9612 32.9672 35.0142 18.3959 77.0548 10.6571C79.9133 10.1691 81.7957 7.38033 81.238 4.59157C80.6802 2.01197 78.5189 0.268974 76.009 0.268974Z" stroke="#37C0B9"/>
<path d="M265.224 568.544C264.597 568.544 263.969 568.683 263.411 568.892C247.655 574.818 230.574 577.537 212.586 576.84C209.658 576.701 207.288 579.002 207.148 581.86C207.078 584.719 209.309 587.159 212.168 587.298C231.55 587.926 249.956 585.067 267.037 578.653C269.756 577.607 271.08 574.609 270.104 571.89C269.337 569.799 267.385 568.544 265.224 568.544Z" fill="white"/>
<path d="M265.224 568.544C264.597 568.544 263.969 568.683 263.411 568.892C247.655 574.818 230.574 577.537 212.586 576.84C209.658 576.701 207.288 579.002 207.148 581.86C207.078 584.719 209.309 587.159 212.168 587.298C231.55 587.926 249.956 585.067 267.037 578.653C269.756 577.607 271.08 574.609 270.104 571.89C269.337 569.799 267.385 568.544 265.224 568.544Z" stroke="#37C0B9"/>
</g>
</svg>
